<svg width="56" height="56" viewBox="0 0 56 56" fill="none" xmlns="http://www.w3.org/2000/svg"><path d="M54.295 31.663c-5.883-9.008-5.258-18.242-8.094-22.583-2.835-4.342-11.287-11.827-31.255 1.216C-5.023 23.34.056 37.52 3.176 42.292c14.604 22.357 61.54 5.325 51.119-10.629Z" fill="#ECEFF2"/><path d="m48.154 32.692 1.1-1.1 2.2 2.2-1.1 1.1-2.2-2.2Zm-6.324-6.323 1.1-1.1 2.2 2.2-1.1 1.1-2.2-2.2Zm6.602 1.108 2.2-2.2 1.1 1.1-2.2 2.2-1.1-1.1ZM29.54 51.458a2.336 2.336 0 0 1-2.333-2.333 2.336 2.336 0 0 1 2.333-2.334 2.336 2.336 0 0 1 2.334 2.334 2.336 2.336 0 0 1-2.334 2.333Zm0-3.111a.778.778 0 1 0 0 1.556.778.778 0 0 0 0-1.556Z" fill="#C2C8CD"/><path d="M30.38 26.056H12.835v16.333H35.39V26.056h-5.008Z" fill="#F3F3F1"/><path d="M39.278 31.578h-3.89v10.81H45.5V37.8a6.222 6.222 0 0 0-6.222-6.222Z" fill="#2A6CEA"/><path d="M21 45.5a2.722 2.722 0 1 0 0-5.444 2.722 2.722 0 0 0 0 5.444Zm18.667 0a2.722 2.722 0 1 0 0-5.444 2.722 2.722 0 0 0 0 5.444Z" fill="#F3F3F1"/><path d="M19.445 28.389a8.944 8.944 0 1 0 0-17.889 8.944 8.944 0 0 0 0 17.889Z" fill="#2A6CEA"/><path d="M16.332 28h-3.889v14.778h3.89V28Z" fill="#E1E6EA"/><path d="M35.389 31.578v10.81h3.5v-10.81h-3.5Z" fill="#191C1F" fill-opacity=".1"/><path d="M21.777 42.778c0-.834.383-1.57.973-2.07a2.7 2.7 0 0 0-1.75-.652 2.723 2.723 0 0 0 0 5.444 2.7 2.7 0 0 0 1.75-.653 2.703 2.703 0 0 1-.973-2.07Zm18.668 0c0-.834.383-1.57.972-2.07a2.699 2.699 0 0 0-1.75-.652 2.723 2.723 0 0 0 0 5.444c.671 0 1.276-.252 1.75-.653a2.704 2.704 0 0 1-.972-2.07Z" fill="#D5DBE1"/><path d="M14 19.445c0-4.34 3.092-7.957 7.195-8.77a8.944 8.944 0 0 0-10.695 8.77 8.944 8.944 0 0 0 10.695 8.77C17.092 27.4 14 23.785 14 19.445Z" fill="#191C1F" fill-opacity=".1"/><path d="M19.446 23.722c-.299 0-.597-.113-.824-.342l-4.667-4.666 1.65-1.651 3.843 3.842 3.842-3.842 1.65 1.65-4.666 4.667a1.17 1.17 0 0 1-.828.342Z" fill="#fff"/><path d="M19.446 43.556h-6.611a1.167 1.167 0 0 1-1.167-1.167V30.162h2.333v11.06h5.445v2.334Zm15.944 0H22.525v-2.334h11.698v-14h-4.06V24.89h5.227c.644 0 1.166.523 1.166 1.167V42.39c0 .644-.522 1.167-1.166 1.167Z" fill="#191C1F"/><path d="M45.5 43.556h-4.31v-2.334h3.144V37.8a5.061 5.061 0 0 0-5.056-5.056h-2.722v8.478h1.556v2.334h-2.723a1.167 1.167 0 0 1-1.166-1.167V31.578c0-.644.522-1.167 1.166-1.167h3.89c4.073 0 7.388 3.315 7.388 7.389v4.589c0 .644-.523 1.166-1.167 1.166ZM21 46.667a3.894 3.894 0 0 1-3.889-3.89 3.894 3.894 0 0 1 3.89-3.888 3.894 3.894 0 0 1 3.888 3.889A3.894 3.894 0 0 1 21 46.667Zm0-5.445c-.857 0-1.555.699-1.555 1.556 0 .857.698 1.556 1.555 1.556s1.556-.699 1.556-1.556c0-.857-.699-1.556-1.556-1.556Z" fill="#191C1F"/><path d="M39.668 46.667a3.894 3.894 0 0 1-3.889-3.89 3.894 3.894 0 0 1 3.89-3.888 3.894 3.894 0 0 1 3.888 3.889 3.894 3.894 0 0 1-3.889 3.889Zm0-5.445c-.857 0-1.555.699-1.555 1.556 0 .857.698 1.556 1.555 1.556s1.556-.699 1.556-1.556c0-.857-.699-1.556-1.556-1.556Z" fill="#191C1F"/></svg>