<svg width="56" height="56" viewBox="0 0 56 56" fill="none" xmlns="http://www.w3.org/2000/svg"><path d="M54.295 31.663c-5.883-9.008-5.258-18.242-8.094-22.583-2.835-4.342-11.287-11.827-31.255 1.216C-5.023 23.34.056 37.52 3.176 42.292c14.604 22.357 61.54 5.325 51.119-10.629Z" fill="#ECEFF2"/><path d="M29.167 17.805a.814.814 0 0 1-.56.771l-7.556 2.475-2.475 7.556a.814.814 0 0 1-.771.56.806.806 0 0 1-.755-.52l-6.492-17.043a.678.678 0 0 1-.058-.292c0-.446.366-.812.812-.812.106 0 .202.016.292.058L28.65 17.05a.804.804 0 0 1 .518.755Z" fill="#F3F3F1"/><path d="M14.058 11.604c-.018-.037-.016-.082-.025-.12l-2.429-.926a.678.678 0 0 0-.292-.058.815.815 0 0 0-.812.812c0 .106.016.202.056.292l6.493 17.045c.113.3.406.52.754.52a.814.814 0 0 0 .772-.56l.905-2.765-5.422-14.24Z" fill="#E1E6EA"/><path d="M35 45.5c5.799 0 10.5-4.701 10.5-10.5S40.799 24.5 35 24.5 24.5 29.201 24.5 35 29.201 45.5 35 45.5Z" fill="#2A6CEA"/><path d="M28 35c0-5.202 3.786-9.508 8.75-10.343A10.479 10.479 0 0 0 35 24.5c-5.8 0-10.5 4.7-10.5 10.5S29.2 45.5 35 45.5c.597 0 1.18-.062 1.75-.157C31.786 44.508 28 40.202 28 35Z" fill="#191C1F" fill-opacity=".1"/><path d="m46.867 19.727 1.1-1.1 2.2 2.2-1.1 1.1-2.2-2.2Zm-6.322-6.326 1.1-1.1 2.2 2.2-1.1 1.1-2.2-2.2Zm6.598 1.101 2.2-2.2 1.1 1.1-2.2 2.2-1.1-1.1Zm-6.323 6.323 2.2-2.2 1.1 1.1-2.2 2.2-1.1-1.1Z" fill="#C2C8CD"/><path d="m38.538 40.18-4.278-3.5a1.16 1.16 0 0 1-.428-.902v-6.611h2.333v6.058l3.85 3.15-1.477 1.805Z" fill="#fff"/><path d="M17.804 30.333a1.986 1.986 0 0 1-1.846-1.272L9.465 12.02a1.797 1.797 0 0 1-.132-.71 1.98 1.98 0 0 1 1.977-1.977c.274 0 .53.052.764.156l16.986 6.47a1.976 1.976 0 0 1-.093 3.727l-6.994 2.291-2.29 6.994a1.973 1.973 0 0 1-1.88 1.362Zm-5.877-18.405 5.854 15.36 2.162-6.6c.115-.354.393-.63.745-.746l6.6-2.162-15.36-5.852Zm-.737-.282c.004.002.01.005.018.007l-.018-.007Zm.435-.513.02.053-.02-.053Z" fill="#191C1F"/></svg>