<svg width="56" height="56" viewBox="0 0 56 56" fill="none" xmlns="http://www.w3.org/2000/svg"><path d="M20.86 54.517c9.797-4.447 18.83-2.425 23.551-4.567 4.721-2.143 13.404-9.358 3.547-31.077C38.1-2.845 23.316.02 18.122 2.378-6.194 13.412 3.508 62.392 20.86 54.517Z" fill="#ECEFF2"/><path d="M21.23 15.322h-.14l3.644-2.915c.793-.631.342-1.907-.664-1.907h-9.966c-1.008 0-1.458 1.276-.665 1.907l3.643 2.915h-.14c-3.708 2.175-6.698 8.37-6.698 12.86 0 3.215 1.607 6.43 5.357 6.43h7.234c3.75 0 5.357-3.216 5.357-6.43.003-4.49-3.254-10.685-6.962-12.86Z" fill="#F3F3F1"/><path d="M13.746 28.182c0-4.49 2.99-10.684 6.698-12.86h.14l-3.643-2.915c-.793-.631-.342-1.907.664-1.907h-3.5c-1.008 0-1.457 1.276-.664 1.907l3.643 2.915h-.14c-3.708 2.175-6.698 8.37-6.698 12.86 0 3.215 1.607 6.43 5.357 6.43h3.5c-3.75 0-5.357-3.216-5.357-6.43Z" fill="#E1E6EA"/><path d="M38.669 15.322h-.14l3.643-2.915c.793-.631.342-1.907-.665-1.907h-9.966c-1.008 0-1.458 1.276-.664 1.907l3.643 2.915h-.14c-3.709 2.175-6.698 8.37-6.698 12.86 0 3.215 1.607 6.43 5.357 6.43h7.233c3.75 0 5.358-3.216 5.358-6.43.004-4.49-3.253-10.685-6.962-12.86Z" fill="#F3F3F1"/><path d="M31.185 28.182c0-4.49 2.99-10.684 6.698-12.86h.14l-3.644-2.915c-.794-.631-.343-1.907.664-1.907h-3.5c-1.008 0-1.458 1.276-.664 1.907l3.643 2.915h-.14c-3.709 2.175-6.698 8.37-6.698 12.86 0 3.215 1.607 6.43 5.357 6.43h3.5c-3.747 0-5.356-3.216-5.356-6.43Z" fill="#E1E6EA"/><path d="M30.204 26.211h-.14l3.643-2.915c.793-.632.342-1.907-.664-1.907h-9.967c-1.008 0-1.457 1.275-.664 1.907l3.643 2.915h-.14c-3.708 2.175-6.698 8.369-6.698 12.86 0 3.215 1.607 6.429 5.357 6.429h7.233c3.75 0 5.358-3.215 5.358-6.43.003-4.49-3.254-10.684-6.961-12.859Z" fill="#2A6CEA"/><path d="M27.27 40.755c-.308 0-.607-.122-.825-.342l-3.111-3.11 1.65-1.651 2.161 2.16 3.858-5.145 1.865 1.4-4.667 6.222a1.16 1.16 0 0 1-.85.463c-.027.003-.053.003-.081.003Z" fill="#fff"/><path d="M22.72 39.07c0-4.489 2.99-10.683 6.699-12.859h.14l-3.643-2.915c-.794-.632-.342-1.907.664-1.907h-3.5c-1.008 0-1.457 1.275-.664 1.907l3.643 2.915h-.14c-3.709 2.175-6.698 8.369-6.698 12.86 0 3.215 1.607 6.429 5.357 6.429h3.5c-3.75 0-5.357-3.215-5.357-6.43Z" fill="#191C1F" fill-opacity=".1"/><path d="m46.615 42.637 2.2-2.2 1.1 1.1-2.2 2.2-1.1-1.1Zm-6.324 6.323 2.2-2.2 1.1 1.1-2.2 2.2-1.1-1.1Zm0-7.699 1.1-1.1 2.2 2.2-1.1 1.1-2.2-2.2Zm6.324 6.324 1.1-1.1 2.2 2.2-1.1 1.1-2.2-2.2Z" fill="#C2C8CD"/><path d="m22.074 16.234-1.457-1.823 3.431-2.744h-9.412l3.431 2.744-1.457 1.823-3.644-2.915a2.21 2.21 0 0 1-.715-2.49 2.209 2.209 0 0 1 2.108-1.496h9.966c.963 0 1.789.588 2.108 1.498.319.91.037 1.887-.716 2.49l-3.643 2.913Z" fill="#191C1F"/><path d="M13.717 14.156h11.251v2.333H13.717v-2.333Z" fill="#191C1F"/><path d="M15.86 35.778c-4.508 0-6.526-3.816-6.526-7.597 0-4.54 2.987-11.351 7.274-13.865l1.18 2.011c-3.204 1.88-6.12 7.53-6.12 11.854 0 .878.202 5.264 4.192 5.264v2.333Zm23.532-19.544-1.457-1.823 3.431-2.744h-9.412l3.431 2.744-1.457 1.823-3.643-2.914a2.216 2.216 0 0 1-.716-2.49 2.21 2.21 0 0 1 2.108-1.497h9.966c.963 0 1.79.588 2.108 1.498.319.91.037 1.887-.715 2.49l-3.644 2.913Z" fill="#191C1F"/><path d="M31.033 14.156h11.252v2.333H31.032v-2.333Z" fill="#191C1F"/><path d="M40.143 35.778v-2.333c3.989 0 4.191-4.384 4.191-5.264 0-4.323-2.917-9.973-6.121-11.854l1.18-2.011c4.286 2.514 7.274 9.325 7.274 13.865 0 3.781-2.017 7.597-6.524 7.597Z" fill="#191C1F"/></svg>