<svg width="56" height="56" viewBox="0 0 56 56" fill="none" xmlns="http://www.w3.org/2000/svg"><path d="M6.482 42.97c0-10.76-5.574-18.15-5.574-23.334 0-5.185 2.98-16.074 26.832-16.074 23.851 0 27.351 14.649 27.351 20.352.002 26.704-48.61 38.11-48.61 19.055Z" fill="#ECEFF2"/><path d="M41.416 12.833h1.556v3.111h-1.556v-3.11Zm3.5 4.667h3.111v1.555h-3.111V17.5Z" fill="#C2C8CD"/><path d="M33.056 37.831v-24.22a3.11 3.11 0 0 0-3.112-3.111H13.611a3.11 3.11 0 0 0-3.111 3.111v24.22a3.11 3.11 0 0 0 3.111 3.111h16.333a3.11 3.11 0 0 0 3.112-3.11Z" fill="#F3F3F1"/><path d="M37.333 45.5s8.166-3.472 8.166-10.416v-6.25l-8.166-2.778-8.167 2.778v6.25c0 6.944 8.167 10.416 8.167 10.416Z" fill="#2A6CEA"/><path d="M14 37.831v-24.22a3.11 3.11 0 0 1 3.111-3.111h-3.5a3.11 3.11 0 0 0-3.111 3.111v24.22a3.11 3.11 0 0 0 3.111 3.111h3.5A3.11 3.11 0 0 1 14 37.832Z" fill="#E1E6EA"/><path d="M32.666 35.084v-6.25l6.417-2.183-1.75-.595-8.167 2.778v6.25c0 6.944 8.167 10.416 8.167 10.416s.732-.316 1.75-.932c-2.399-1.453-6.417-4.609-6.417-9.484Z" fill="#191C1F" fill-opacity=".1"/><path d="M23.723 42H13.612a4.281 4.281 0 0 1-4.278-4.278v-24.11a4.281 4.281 0 0 1 4.278-4.279h16.333a4.281 4.281 0 0 1 4.278 4.278v8.556H31.89V13.61a1.947 1.947 0 0 0-1.945-1.944H13.612a1.947 1.947 0 0 0-1.945 1.944v24.111c0 1.072.873 1.945 1.945 1.945h10.11V42Z" fill="#191C1F"/><path d="m15.99 29.213-1.648-1.649 3.889-3.889c.371-.373.945-.45 1.403-.188l1.98 1.133 4.427-4.087 1.584 1.716-5.056 4.667c-.375.345-.93.407-1.37.155l-1.95-1.114-3.258 3.256Z" fill="#191C1F"/><path d="M28 26.444h-2.334v-3.889h-3.889v-2.333h5.056c.644 0 1.167.523 1.167 1.167v5.055Z" fill="#191C1F"/><path d="M36.943 39.667c-.308 0-.606-.123-.824-.343l-3.111-3.11 1.65-1.651 2.16 2.16 3.859-5.145 1.865 1.4-4.667 6.222a1.16 1.16 0 0 1-.85.463c-.027.004-.054.004-.082.004Z" fill="#fff"/></svg>