<svg width="120" height="24" viewBox="0 0 120 24" fill="none" xmlns="http://www.w3.org/2000/svg"><circle cx="25" cy="12" r="12" fill="#ECEFF2"/><circle cx="12" cy="12" r="12" fill="#2A6CEA"/><path d="M51.22 18.2c-2.253 0-3.38-1.1-3.38-3.3V9.6H46.5V7.54h1.34V5.28h2.88v2.26h2.2V9.6h-2.2v5.04c0 .827.387 1.24 1.16 1.24.427 0 .793-.067 1.1-.2v2.24c-.533.187-1.12.28-1.76.28Zm8.773.02c-1.626 0-2.926-.473-3.9-1.42-1.04-.96-1.56-2.26-1.56-3.9v-.16c0-1.627.52-2.947 1.56-3.96 1.014-.987 2.287-1.48 3.82-1.48 1.454 0 2.64.42 3.56 1.26 1.027.933 1.54 2.287 1.54 4.06v.8h-7.54c.04.88.28 1.56.72 2.04.454.467 1.08.7 1.88.7 1.254 0 1.98-.487 2.18-1.46h2.74c-.173 1.133-.693 2.007-1.56 2.62-.853.6-2 .9-3.44.9Zm2.2-6.58c-.093-1.56-.853-2.34-2.28-2.34-.653 0-1.193.207-1.62.62-.413.4-.673.973-.78 1.72h4.68Zm8.85 6.58c-1.413 0-2.513-.3-3.3-.9-.786-.6-1.206-1.467-1.26-2.6h2.7c.08.507.254.88.52 1.12.267.24.707.36 1.32.36 1.094 0 1.64-.38 1.64-1.14 0-.36-.16-.627-.48-.8-.32-.187-.866-.333-1.64-.44-1.413-.227-2.4-.567-2.96-1.02-.6-.467-.9-1.213-.9-2.24 0-1.027.427-1.847 1.28-2.46.734-.533 1.687-.8 2.86-.8 1.214 0 2.194.24 2.94.72.787.533 1.247 1.373 1.38 2.52h-2.66c-.08-.44-.246-.76-.5-.96-.253-.2-.633-.3-1.14-.3-.466 0-.833.1-1.1.3-.253.2-.38.46-.38.78 0 .333.14.58.42.74.294.16.827.293 1.6.4 1.374.187 2.38.5 3.02.94.694.52 1.04 1.3 1.04 2.34 0 1.12-.386 1.973-1.16 2.56-.76.587-1.84.88-3.24.88Zm10.294-.02c-2.253 0-3.38-1.1-3.38-3.3V9.6h-1.34V7.54h1.34V5.28h2.88v2.26h2.2V9.6h-2.2v5.04c0 .827.387 1.24 1.16 1.24.427 0 .793-.067 1.1-.2v2.24c-.533.187-1.12.28-1.76.28Zm4.214-14.5h3.24v11.76h5.82V18h-9.06V3.7Zm14.005 14.52c-1.013 0-1.833-.247-2.46-.74-.693-.547-1.04-1.34-1.04-2.38 0-1.16.507-2.027 1.52-2.6.907-.507 2.213-.76 3.92-.76h1.18v-.42c0-.667-.127-1.153-.38-1.46-.24-.307-.68-.46-1.32-.46-1.027 0-1.62.493-1.78 1.48h-2.74c.08-1.173.567-2.08 1.46-2.72.813-.573 1.893-.86 3.24-.86 1.347 0 2.4.293 3.16.88.813.64 1.22 1.64 1.22 3V18h-2.82v-1.26c-.707.987-1.76 1.48-3.16 1.48Zm.86-2.02c.653 0 1.193-.167 1.62-.5.427-.333.64-.787.64-1.36v-.88h-1.12c-.88 0-1.547.113-2 .34-.44.227-.66.607-.66 1.14 0 .84.507 1.26 1.52 1.26Zm14.083 2.02c-.786 0-1.473-.167-2.06-.5a3.27 3.27 0 0 1-1.28-1.38V18h-2.9V2.8h2.9v6.38c.307-.547.754-.993 1.34-1.34.6-.36 1.267-.54 2-.54 1.32 0 2.4.46 3.24 1.38.88.96 1.32 2.287 1.32 3.98v.16c0 1.68-.433 3.007-1.3 3.98-.826.947-1.913 1.42-3.26 1.42Zm-.86-2.26c.8 0 1.414-.26 1.84-.78.427-.533.64-1.313.64-2.34v-.16c0-1.04-.226-1.827-.68-2.36-.453-.533-1.06-.8-1.82-.8-.786 0-1.413.273-1.88.82-.453.533-.68 1.313-.68 2.34v.16c0 1.027.227 1.807.68 2.34.454.52 1.087.78 1.9.78Z" fill="#fff"/></svg>