<svg width="61" height="32" viewBox="0 0 61 32" fill="none" xmlns="http://www.w3.org/2000/svg">
<g clip-path="url(#clip0_5_626)">
<g clip-path="url(#clip1_5_626)">
<path d="M17.9152 2.02066L13.6144 1.66997L14.3154 0.826904L18.1505 1.10326L17.9152 2.02066Z" fill="#778B8E"/>
<path d="M10.7303 5.13806L16.9074 5.89091L16.1776 8.70615L8.7052 7.57111L10.7303 5.13806Z" fill="#778B8E"/>
<path d="M13.7915 1.65232L10.2169 2.91422L8.48572 2.09944L12.0021 1.04333L13.7915 1.65232Z" fill="#778B8E"/>
<path d="M16.6437 5.93541L20.0475 3.77686L23.6137 4.98705L20.5897 7.79014L16.6437 5.93541Z" fill="#778B8E"/>
<path d="M10.3079 2.8302L10.8896 5.22931L6.52197 5.87304L6.88698 3.22455L10.3079 2.8302Z" fill="#778B8E"/>
<path d="M20.0488 3.87889L17.757 1.97433L20.3276 1.67834L23.1007 3.42911L20.0488 3.87889Z" fill="#778B8E"/>
<path d="M18.2779 0.617708L14.6899 0.37691L14.9842 0.0238037L18.3757 0.236848L18.2779 0.617708Z" fill="#778B8E"/>
<path d="M6.86614 9.78137L15.494 11.3379L14.6379 14.6315L4.63348 12.4655L6.86614 9.78137Z" fill="#778B8E"/>
<path d="M10.9963 0.70321L7.53368 1.65266L6.7699 1.29281L10.1789 0.425781L10.9963 0.70321Z" fill="#778B8E"/>
<path d="M23.8354 9.31562L26.404 5.93555L29.3337 6.92998L27.4032 10.9939L23.8354 9.31562Z" fill="#778B8E"/>
<path d="M4.53058 3.49536L3.44739 6.32623L0.5 6.76151L2.30681 3.75125L4.53058 3.49536Z" fill="#778B8E"/>
<path d="M24.9169 3.16106L21.8778 1.49864L23.2012 1.34619L26.4505 2.93349L24.9169 3.16106Z" fill="#778B8E"/>
<path d="M18.8787 31.4988H18.5659L18.3909 31.1343H17.5451L17.3702 31.4988H17.0636L17.7569 30.0574H18.1831L18.8787 31.4988ZM17.9629 30.2652L17.6583 30.8976H18.2776L17.9753 30.2652H17.9629Z" fill="#778B8E"/>
<path d="M21.1278 30.8234C21.1278 31.2972 20.9136 31.4988 20.3704 31.4988H19.5741V30.0574H20.3663C20.9096 30.0574 21.1278 30.2593 21.1278 30.7348V30.8234ZM19.8519 30.2941V31.262H20.3292C20.7491 31.262 20.8439 31.1077 20.8439 30.7948V30.7636C20.8439 30.4468 20.7491 30.2941 20.3292 30.2941H19.8519Z" fill="#778B8E"/>
<path d="M21.6765 31.4988H21.3987V30.0574H22.3433C22.5305 30.0574 22.6664 30.0925 22.7506 30.1605C22.8374 30.2281 22.8804 30.3457 22.8804 30.5164V30.5699C22.8804 30.8727 22.728 31.0191 22.3433 31.0191H21.6765V31.4988ZM21.6765 30.2921V30.7843H22.2939C22.5407 30.7843 22.6005 30.7183 22.6005 30.5495V30.5269C22.6005 30.3539 22.5347 30.2921 22.2919 30.2921H21.6765Z" fill="#778B8E"/>
<path d="M25.5087 31.4988H25.1321L24.7225 30.3949L24.311 31.4988H23.92L23.4838 30.0574H23.7882L24.1258 31.2145H24.1401L24.5663 30.0574H24.8871L25.3151 31.2145H25.3274L25.6629 30.0574H25.945L25.5087 31.4988Z" fill="#778B8E"/>
<path d="M26.8216 31.5189C26.2785 31.5189 26.0564 31.3167 26.0564 30.8432V30.7135C26.0564 30.2378 26.2785 30.0361 26.8216 30.0361H26.9431C27.4844 30.0361 27.7108 30.2378 27.7108 30.7135V30.8432C27.7108 31.3167 27.4844 31.5189 26.9431 31.5189H26.8216ZM26.9206 31.2779C27.3384 31.2734 27.4248 31.1272 27.4248 30.8123V30.7421C27.4248 30.4275 27.3384 30.2811 26.9206 30.2771H26.8465C26.4269 30.2811 26.3401 30.4275 26.3401 30.7421V30.8123C26.3401 31.1272 26.4269 31.2734 26.8465 31.2779H26.9206Z" fill="#778B8E"/>
<path d="M28.2583 31.4988H27.9805V30.0574H28.9456C29.3181 30.0574 29.4621 30.1605 29.4621 30.4261V30.4796C29.4621 30.696 29.3818 30.7843 29.2029 30.807V30.8174C29.3755 30.846 29.4621 30.8956 29.4621 31.1445V31.4988H29.1822V31.1796C29.1822 30.9942 29.1245 30.9531 28.859 30.9531H28.2583V31.4988ZM28.2583 30.2941V30.7163H28.8961C29.1163 30.7163 29.1822 30.6671 29.1822 30.5127V30.5003C29.1822 30.3374 29.1103 30.2944 28.8551 30.2944L28.2583 30.2941Z" fill="#778B8E"/>
<path d="M30.9685 31.4988H29.7461V30.0574H30.024V31.2535H30.9685V31.4988Z" fill="#778B8E"/>
<path d="M32.7383 30.8234C32.7383 31.2972 32.5241 31.4988 31.9807 31.4988H31.1846V30.0574H31.9767C32.5199 30.0574 32.7383 30.2593 32.7383 30.7348V30.8234ZM31.4622 30.2941V31.262H31.9397C32.3597 31.262 32.4542 31.1077 32.4542 30.7948V30.7636C32.4542 30.4468 32.3597 30.2941 31.9397 30.2941H31.4622Z" fill="#778B8E"/>
<path d="M34.2226 31.52C33.6877 31.52 33.4777 31.318 33.4777 30.8446V30.7126C33.4777 30.2391 33.6877 30.0375 34.2226 30.0375H34.3584C34.5826 30.0375 34.7512 30.0743 34.8645 30.1508C34.9777 30.2266 35.0518 30.3481 35.0846 30.5172H34.7988C34.7473 30.3504 34.6216 30.2782 34.3236 30.2782H34.2574C33.8501 30.2782 33.7615 30.4266 33.7615 30.7437V30.8134C33.7615 31.1306 33.8501 31.2787 34.2574 31.2787H34.3236C34.6216 31.2787 34.7476 31.207 34.7988 31.0402H35.0846C35.0521 31.2087 34.9779 31.3302 34.8645 31.4067C34.7512 31.4829 34.5828 31.52 34.3584 31.52H34.2226Z" fill="#778B8E"/>
<path d="M35.8538 31.5206C35.4692 31.5206 35.2694 31.364 35.2694 30.9831V30.9253C35.2694 30.5444 35.4712 30.3878 35.8561 30.3878H35.9277C36.3126 30.3878 36.5102 30.5444 36.5102 30.9253V30.9831C36.5102 31.364 36.3106 31.5206 35.9257 31.5206H35.8538ZM36.2552 30.9726V30.9355C36.2552 30.6537 36.1213 30.6062 35.8906 30.6062C35.6605 30.6062 35.5264 30.6537 35.5264 30.9355V30.9726C35.5264 31.2546 35.6605 31.3022 35.8906 31.3022C36.1213 31.3022 36.2552 31.2546 36.2552 30.9726Z" fill="#778B8E"/>
<path d="M38.5932 31.4999H38.3362V30.8658C38.3362 30.6455 38.225 30.6084 38.0767 30.6084C37.8936 30.6084 37.7784 30.6761 37.7784 30.9131V31.4999H37.5214V30.8658C37.5214 30.6455 37.4141 30.6084 37.2619 30.6084C37.0788 30.6084 36.9633 30.6761 36.9633 30.9131V31.4999H36.7063V30.4085H36.9633V30.592H36.9735C37.0253 30.4663 37.132 30.3878 37.3403 30.3878C37.5353 30.3878 37.6813 30.4394 37.7455 30.5979H37.7557C37.8112 30.4663 37.9304 30.3878 38.1505 30.3878C38.414 30.3878 38.5932 30.4827 38.5932 30.7999V31.4999Z" fill="#778B8E"/>
<path d="M38.8058 30.4085H39.0608V30.5815H39.069C39.1245 30.46 39.2357 30.3878 39.4746 30.3878H39.5051C39.8224 30.3878 40.0465 30.5093 40.0465 30.9171V30.989C40.0465 31.3991 39.8224 31.5206 39.5051 31.5206H39.4746C39.2357 31.5206 39.1245 31.4483 39.069 31.3269H39.0608V31.8499H38.8058V30.4085ZM39.0608 30.9338V30.9726C39.0608 31.2546 39.1904 31.3022 39.4253 31.3022C39.6616 31.3022 39.7893 31.2546 39.7893 30.9726V30.9355C39.7893 30.6537 39.6616 30.6062 39.4253 30.6062C39.1904 30.6062 39.0608 30.6557 39.0608 30.9338Z" fill="#778B8E"/>
<path d="M41.3594 31.4999H41.1041V31.3249H41.0959C41.0447 31.4421 40.921 31.5206 40.6552 31.5206C40.3615 31.5206 40.1987 31.4073 40.1987 31.183V31.1705C40.1987 30.9647 40.3159 30.8573 40.5712 30.8471L41.1021 30.8245V30.8038C41.1021 30.6144 40.9991 30.5756 40.7976 30.5756C40.6227 30.5756 40.5406 30.6166 40.5013 30.7237H40.242C40.2933 30.4991 40.4498 30.3878 40.7953 30.3878H40.8304C41.1927 30.3878 41.3594 30.4929 41.3594 30.8245V31.4999ZM40.458 31.1725C40.458 31.294 40.5565 31.3413 40.7297 31.3413C40.9683 31.3413 41.1021 31.2425 41.1021 31.0675V30.9953L40.6552 31.0139C40.5177 31.0202 40.458 31.0615 40.458 31.162V31.1725Z" fill="#778B8E"/>
<path d="M42.682 31.4999H42.4267V30.8658C42.4267 30.6455 42.3073 30.6084 42.1448 30.6084C42.0463 30.6084 41.9679 30.6288 41.9102 30.6721C41.8547 30.7132 41.8256 30.7936 41.8256 30.9109V31.4999H41.5686V30.4085H41.8256V30.5937H41.8358C41.8915 30.4725 42.0028 30.3878 42.2252 30.3878C42.4927 30.3878 42.682 30.4807 42.682 30.814V31.4999Z" fill="#778B8E"/>
<path d="M43.3598 31.8494H43.0881L43.267 31.4951L42.7675 30.408H43.0431L43.3992 31.2029H43.4113L43.7572 30.408H44.0204L43.3598 31.8494Z" fill="#778B8E"/>
<path d="M36.3704 14.8697L36.4671 14.4269H30.9155L30.6984 15.3319H34.2777C34.0114 15.6233 29.2083 20.9109 29.2083 20.9109L29.0988 21.4069H35.1446L35.3399 20.5519C35.7002 21.1948 36.3276 21.5678 37.1322 21.5678C38.2292 21.5678 38.9815 20.9425 39.3936 20.5142C39.3203 20.8452 39.1918 21.4069 39.1918 21.4069H40.488L42.0876 14.4573L41.9588 14.436C41.3818 14.342 40.8367 14.2534 40.1744 14.2534C38.024 14.2534 36.7847 15.2325 36.1253 16.0535C35.2943 17.0854 34.9983 18.3035 34.9983 19.0982C34.9983 19.6247 35.1033 20.0858 35.2915 20.4625H31.2755C31.5418 20.1713 36.3704 14.8697 36.3704 14.8697ZM39.8538 15.1986C40.1071 15.1995 40.3601 15.2208 40.6103 15.2624C40.5684 15.4456 39.7069 19.1728 39.7009 19.1986C39.6621 19.2611 39.3327 19.6627 39.2427 19.7546C38.6959 20.3139 38.1418 20.5955 37.5998 20.5955C36.8495 20.5955 36.3837 20.0166 36.3837 19.0854C36.3837 18.0482 37.2067 15.1986 39.8538 15.1986Z" fill="#778B8E"/>
<path d="M27.634 21.4085C27.634 21.4085 29.0158 15.4458 29.0478 15.3079H30.3556L30.558 14.4287H29.247C29.4415 13.466 29.7332 12.3318 31.4817 12.369L31.5559 12.3714L31.6869 11.8125L31.6026 11.7891C31.3467 11.7155 31.0306 11.6245 30.5899 11.6245C29.1898 11.6245 28.5799 12.5828 28.4271 12.8756C28.2353 13.2158 28.122 13.6279 27.9166 14.4287H26.9401L26.7375 15.3079H27.7126C27.6611 15.5239 26.3107 21.4085 26.3107 21.4085H27.634Z" fill="#778B8E"/>
<path d="M24.525 14.2534C22.3744 14.2534 21.1353 15.2325 20.4759 16.0535C19.644 17.0854 19.349 18.3035 19.349 19.0982C19.349 20.5984 20.1865 21.5678 21.483 21.5678C22.5788 21.5678 23.3312 20.9425 23.7446 20.5142C23.6702 20.8451 23.5434 21.4067 23.5434 21.4067H24.8386L26.4382 14.4573L26.3085 14.436C25.7314 14.342 25.1873 14.2534 24.525 14.2534ZM24.0525 19.1986C24.0121 19.2611 23.6848 19.6627 23.5926 19.7546C23.0449 20.3138 22.4927 20.5954 21.9488 20.5954C21.1994 20.5954 20.7346 20.0166 20.7346 19.0852C20.7346 18.0482 21.5566 15.1986 24.2048 15.1986C24.4581 15.1996 24.7108 15.2209 24.9607 15.2624C24.9182 15.4455 24.0572 19.1731 24.0525 19.1986Z" fill="#778B8E"/>
<path d="M18.7135 11.7514L16.4789 20.7354C16.2175 21.7558 15.8585 23.1534 14.3838 23.1534C13.4233 23.1534 13.036 22.5894 12.8028 22.2514L12.7385 22.1598L12.1038 22.4268L12.1452 22.5485C12.3089 23.026 12.7436 24.2979 14.5434 24.2979C17.1635 24.2979 17.6793 22.0658 17.9883 20.7326L20.2258 11.7513L18.7135 11.7514Z" fill="#778B8E"/>
<path d="M31.4798 26.7907L31.5546 26.48L31.5277 26.451L31.1365 26.4524L31.089 26.4816L31.0126 26.7925L31.0474 26.827L31.4346 26.8257L31.4798 26.7907Z" fill="#778B8E"/>
<path d="M29.6257 28.8156H30.0953L30.7139 26.3369L30.226 26.4048L29.6257 28.8156Z" fill="#778B8E"/>
<path d="M37.4238 27.9609C37.4705 27.7643 37.5506 27.4317 37.3638 27.1782C37.2013 26.9601 36.9271 26.9354 36.7734 26.9354C36.1361 26.9354 35.6934 27.3643 35.5621 27.8907C35.4246 28.4421 35.6532 28.8884 36.2988 28.8884C36.9166 28.8884 37.1527 28.5194 37.2789 28.3231L37.177 28.2671C37.0143 28.4248 36.8439 28.5902 36.5179 28.5902C35.9629 28.5902 36.0268 28.0948 36.0432 27.9609H37.4238ZM36.6882 27.2305C37.0383 27.2305 37.0035 27.5264 36.9843 27.6878H36.1216C36.2116 27.5085 36.3512 27.2305 36.6882 27.2305Z" fill="#778B8E"/>
<path d="M30.5011 28.8153H30.9686L31.4172 27.0171H30.9505L30.5011 28.8153Z" fill="#778B8E"/>
<path d="M34.5404 27.0183L34.0933 28.8165H34.5625L34.9103 27.4224C35.0043 27.3696 35.1268 27.2996 35.2986 27.2996C35.428 27.2996 35.5098 27.3417 35.587 27.3836L35.6886 26.9764C35.6453 26.969 35.6018 26.9654 35.5579 26.9656C35.2386 26.9656 35.0476 27.152 34.9551 27.2432L35.0108 27.0183H34.5404Z" fill="#778B8E"/>
<path d="M25.1398 27.9609C25.1853 27.7643 25.2647 27.4317 25.0787 27.1782C24.9143 26.9601 24.6413 26.9354 24.4863 26.9354C23.8513 26.9354 23.4079 27.3643 23.2763 27.8907C23.1394 28.4421 23.3681 28.8884 24.0146 28.8884C24.6317 28.8884 24.8666 28.5194 24.9936 28.3231L24.8919 28.2671C24.7304 28.4248 24.5589 28.5902 24.2318 28.5902C23.6778 28.5902 23.7417 28.0948 23.7573 27.9609H25.1398ZM24.4031 27.2305C24.7536 27.2305 24.7189 27.5264 24.6995 27.6878H23.8367C23.9265 27.5085 24.0652 27.2305 24.4031 27.2305Z" fill="#778B8E"/>
<path d="M20.9022 27.9609C20.9477 27.7643 21.0263 27.4317 20.8414 27.1782C20.6775 26.9601 20.4034 26.9354 20.2479 26.9354C19.6125 26.9354 19.1699 27.3643 19.0383 27.8907C18.9008 28.4421 19.1302 28.8884 19.7758 28.8884C20.3937 28.8884 20.6292 28.5194 20.755 28.3231L20.6532 28.2671C20.4916 28.4248 20.3193 28.5902 19.994 28.5902C19.4392 28.5902 19.5029 28.0948 19.5186 27.9609H20.9022ZM20.1642 27.2305C20.5148 27.2305 20.48 27.5264 20.4618 27.6878H19.5979C19.6878 27.5085 19.8273 27.2305 20.1642 27.2305Z" fill="#778B8E"/>
<path d="M25.8398 26.4048L25.2399 28.8153H25.7094L26.3268 26.3369L25.8398 26.4048Z" fill="#778B8E"/>
<path d="M28.7811 28.2675L28.8894 28.8153H29.4229L28.9027 26.3369L28.6828 26.4046L26.9382 28.8153H27.3743L27.7558 28.2675H28.7811ZM28.5429 27.1371L28.7103 27.941H27.9843L28.5429 27.1371Z" fill="#778B8E"/>
<path d="M21.6018 26.4048L21.0006 28.8156H21.4712L21.5175 28.6284C21.5582 28.7029 21.6675 28.896 21.9737 28.896C22.3248 28.896 22.8382 28.6225 23.0193 27.8991C23.1574 27.3408 22.9716 26.944 22.4914 26.944C22.1516 26.944 21.9609 27.1302 21.8679 27.2212L22.0887 26.3369L21.6018 26.4048ZM22.2486 27.2312C22.4276 27.2312 22.5167 27.3333 22.5525 27.4774C22.5865 27.6183 22.5563 27.7791 22.5284 27.8956C22.3813 28.4854 22.0769 28.6083 21.8952 28.6083C21.6946 28.6083 21.6203 28.4823 21.5748 28.4013L21.8079 27.4666C21.8079 27.464 21.9773 27.2312 22.2486 27.2312Z" fill="#778B8E"/>
<path d="M33.0305 26.4053L32.4302 28.8158H32.9286L33.2054 27.6995H34.111L34.1979 27.3512H33.2925L33.4612 26.6741H34.5067L34.593 26.3336H33.1021L33.0305 26.4053Z" fill="#778B8E"/>
<path d="M43.7552 28.8892C44.4149 28.8892 44.8261 28.4083 44.9512 27.9064C45.1148 27.2538 44.7324 26.9364 44.2541 26.9442C43.8454 26.951 43.2684 27.2107 43.0903 27.9247C42.9452 28.5069 43.2084 28.8892 43.7552 28.8892ZM43.5879 27.9102C43.6855 27.5201 43.9018 27.2314 44.1893 27.2314C44.4941 27.2314 44.5482 27.5341 44.45 27.9344C44.3574 28.3023 44.1409 28.6046 43.8477 28.6046C43.5562 28.6046 43.4883 28.3171 43.5879 27.9102Z" fill="#778B8E"/>
<path d="M49.1226 27.9609C49.1685 27.7643 49.2477 27.4317 49.0618 27.1782C48.8982 26.9601 48.6239 26.9354 48.4691 26.9354C47.8349 26.9354 47.3917 27.3643 47.2606 27.8907C47.1236 28.4421 47.3518 28.8884 47.9976 28.8884C48.6143 28.8884 48.8506 28.5194 48.9763 28.3231L48.8747 28.2671C48.7131 28.4248 48.5418 28.5902 48.2164 28.5902C47.6617 28.5902 47.7245 28.0948 47.7409 27.9609H49.1226ZM48.3859 27.2305C48.7366 27.2305 48.7015 27.5264 48.6822 27.6878H47.8193C47.9107 27.5085 48.0491 27.2305 48.3859 27.2305Z" fill="#778B8E"/>
<path d="M17.6739 28.8887C17.9031 28.8909 18.1262 28.8156 18.3071 28.6749C18.5306 28.4956 18.6005 28.2991 18.6634 28.0429L19.0884 26.3369L18.5732 26.4046L18.1996 27.9024C18.1321 28.1764 18.0815 28.3097 17.9865 28.4223C17.941 28.4778 17.884 28.5225 17.8193 28.5534C17.7546 28.5845 17.6837 28.6007 17.6119 28.601C17.5582 28.6021 17.505 28.5908 17.4565 28.5673C17.4079 28.544 17.3657 28.5098 17.3328 28.467C17.2978 28.4186 17.2723 28.3639 17.2574 28.3058L17.1056 28.3656C17.1122 28.4574 17.1173 28.5862 17.2101 28.6992C17.2932 28.8116 17.4482 28.8887 17.6739 28.8887Z" fill="#778B8E"/>
<path d="M45.5065 27.0184L45.0582 28.8165H45.5241L45.858 27.4781C45.9628 27.3877 46.1099 27.2575 46.3027 27.2575C46.4719 27.2575 46.533 27.3659 46.5356 27.4675C46.5347 27.5296 46.5245 27.5912 46.5059 27.6506L46.2152 28.8165H46.6867L46.9887 27.6018C47.0258 27.4505 47.0617 27.2714 46.9627 27.131C46.893 27.033 46.7575 26.9656 46.5727 26.9656C46.2316 26.9656 46.0324 27.1482 45.9141 27.2544L45.9741 27.0184H45.5065Z" fill="#778B8E"/>
<path d="M40.5426 28.8153H42.689L42.7762 28.467H41.3574L43.248 26.4594L43.2785 26.3369H41.3161L41.2482 26.4046L41.1785 26.6808H42.4702L40.5686 28.7066L40.5426 28.8153Z" fill="#778B8E"/>
<path d="M39.5439 27.9609C39.5897 27.7643 39.6678 27.4317 39.483 27.1782C39.3194 26.9601 39.0443 26.9354 38.8907 26.9354C38.2553 26.9354 37.811 27.3643 37.681 27.8907C37.5435 28.4421 37.773 28.8884 38.4177 28.8884C39.0356 28.8884 39.271 28.5194 39.3967 28.3231L39.2959 28.2671C39.1343 28.4248 38.9631 28.5902 38.6365 28.5902C38.0818 28.5902 38.1458 28.0948 38.1602 27.9609H39.5439ZM38.8072 27.2305C39.1567 27.2305 39.123 27.5264 39.1046 27.6878H38.2406C38.3306 27.5085 38.4693 27.2305 38.8072 27.2305Z" fill="#778B8E"/>
<path d="M31.3123 23.4552C31.3179 23.4133 31.3097 23.3705 31.2888 23.3335C31.2743 23.3176 31.2568 23.3047 31.2373 23.296C31.2175 23.2872 31.1962 23.2826 31.1747 23.2822C31.0587 23.2822 30.9868 23.3381 30.9616 23.4488C30.9559 23.4696 30.9548 23.4917 30.9582 23.513C30.9616 23.5344 30.9692 23.555 30.9811 23.5732C31.0043 23.6094 31.0459 23.6276 31.102 23.6276C31.2155 23.6276 31.2862 23.5699 31.3123 23.4552Z" fill="#778B8E"/>
<path d="M35.5717 24.7634H35.892L36.4827 22.2048L36.438 22.2487C36.4043 22.2842 36.3423 22.34 36.2568 22.4141C36.2192 22.4415 36.164 22.479 36.0944 22.5229L36.0884 22.527L35.577 24.7415L35.5717 24.7634Z" fill="#778B8E"/>
<path d="M17.9618 25.5031C17.9261 25.5362 17.9011 25.5792 17.8901 25.6267C17.8839 25.6484 17.8824 25.6715 17.8858 25.6938C17.8895 25.7163 17.8978 25.7377 17.9107 25.7564C17.9368 25.7938 17.98 25.8132 18.0393 25.8132C18.0922 25.8151 18.1441 25.7982 18.1855 25.7652C18.2269 25.7323 18.2552 25.6854 18.265 25.6335C18.2728 25.5894 18.264 25.5441 18.2406 25.5061C18.2258 25.4873 18.2069 25.4722 18.1852 25.462C18.1635 25.452 18.1399 25.4471 18.116 25.4475C18.0593 25.4454 18.004 25.4653 17.9618 25.5031Z" fill="#778B8E"/>
<path d="M19.2951 23.62C19.1349 23.6574 18.9785 23.7101 18.8284 23.7772C18.5062 23.926 18.3186 24.1107 18.2689 24.3259L18.1729 24.7418C18.1168 24.9506 18.0278 25.0624 17.9047 25.0731C17.8351 25.0803 17.7268 25.0351 17.5814 24.9417L17.5378 24.9128L17.5551 24.9626C17.6307 25.1651 17.7347 25.2679 17.8663 25.2679H17.8709C18.0225 25.2694 18.1694 25.2149 18.2834 25.1152C18.3892 25.0185 18.4618 24.8908 18.4906 24.7504L18.5874 24.3337C18.5956 24.2789 18.6204 24.2279 18.6581 24.1875C18.7094 24.1407 18.7674 24.102 18.8302 24.0728C18.8537 24.0611 18.8778 24.0491 18.9039 24.0374L18.7365 24.7638H22.2745L22.3462 24.4509H21.7614C21.7293 24.4509 21.7012 24.4331 21.677 24.3961C21.6522 24.3617 21.6422 24.319 21.6489 24.2771C21.6561 24.222 21.6813 24.1707 21.7205 24.1315C21.7375 24.1129 21.7579 24.0982 21.7808 24.0882C21.8037 24.0782 21.8283 24.0731 21.8533 24.0733H22.4342L22.505 23.7607H21.9172C21.8438 23.7601 21.771 23.7739 21.703 23.8015C21.6351 23.8291 21.5732 23.8699 21.5211 23.9215C21.425 24.0101 21.3607 24.128 21.3384 24.2569C21.3228 24.345 21.3333 24.4094 21.3723 24.4509H20.4544L20.8976 22.5288L20.8861 22.5226C20.7874 22.4728 20.7154 22.3837 20.6732 22.2559L20.6535 22.1978L20.1337 24.4509H19.1297L19.3224 23.6126L19.2951 23.62ZM17.8663 25.2503V25.2494H17.8666L17.8663 25.2503Z" fill="#778B8E"/>
<path d="M27.0062 24.9183C26.973 24.9494 26.9502 24.9897 26.9405 25.0341C26.9269 25.0931 26.9316 25.1386 26.9558 25.1697C26.979 25.198 27.0177 25.2124 27.0711 25.2124H27.0788C27.1322 25.2119 27.1837 25.1927 27.2243 25.1583C27.2582 25.1306 27.2811 25.0916 27.2888 25.0484C27.2996 24.9902 27.2929 24.9458 27.2678 24.9155C27.2433 24.8863 27.2035 24.8721 27.1475 24.8721C27.0962 24.8694 27.046 24.8858 27.0062 24.9183Z" fill="#778B8E"/>
<path d="M30.2496 24.464L30.1799 24.764H31.0638L31.297 23.754L31.2679 23.7618C31.1091 23.8014 30.9537 23.8548 30.804 23.9216C30.4845 24.0718 30.2971 24.2546 30.2496 24.464ZM30.6908 24.2786C30.7539 24.2465 30.8147 24.2132 30.8779 24.1798L30.8147 24.451H30.573C30.5892 24.3809 30.6313 24.3192 30.6908 24.2786Z" fill="#778B8E"/>
<path d="M24.8946 22.25C24.8471 22.3051 24.795 22.3562 24.739 22.4029C24.6511 22.4632 24.59 22.5029 24.5522 22.5227L24.5445 22.5265L24.034 24.7417C23.9788 24.9504 23.889 25.0622 23.7667 25.0731C23.6971 25.0803 23.5888 25.0349 23.4437 24.9416L23.399 24.9128L23.4163 24.9626C23.4919 25.163 23.5974 25.2653 23.7283 25.2653H23.7329C23.8834 25.2661 24.0291 25.212 24.1428 25.1132C24.2433 25.0178 24.3148 24.896 24.3488 24.7617L24.4117 24.7622V24.764H28.9913L29.5035 22.5428L29.5061 22.5292L29.495 22.5229C29.3971 22.4731 29.3264 22.384 29.2828 22.2559L29.2633 22.1978L28.7425 24.4512H27.7115C27.6417 24.4512 27.5974 24.4382 27.5806 24.4137C27.5507 24.3639 27.5344 24.2879 27.5321 24.1893C27.5372 24.1252 27.5228 24.0609 27.4907 24.0052C27.4755 23.9773 27.4541 23.9529 27.4283 23.9342C27.4025 23.9154 27.3729 23.9026 27.3416 23.8965H27.0695L26.9979 24.2091H27.1723C27.2049 24.2091 27.2195 24.2631 27.2264 24.3078C27.2313 24.3563 27.24 24.4042 27.2525 24.4512H25.8398L26.0412 23.5801L25.9975 23.6248C25.9498 23.6743 25.8994 23.721 25.8465 23.7645C25.7604 23.828 25.6967 23.8729 25.653 23.899L25.646 23.9033L25.5202 24.4512H24.4222L24.9416 22.201L24.8946 22.25ZM23.7283 25.248V25.2472H23.7286L23.7283 25.248Z" fill="#778B8E"/>
<path d="M25.5388 24.9798C25.4818 24.979 25.4266 24.9995 25.384 25.0375C25.3456 25.0696 25.3192 25.1138 25.3093 25.1629C25.3043 25.1851 25.3039 25.2082 25.3078 25.2305C25.3119 25.2529 25.3203 25.2742 25.3326 25.2933C25.3569 25.3334 25.4016 25.3528 25.4616 25.3528H25.4634C25.5833 25.3372 25.654 25.2764 25.6724 25.1697C25.6816 25.1259 25.6745 25.0804 25.6522 25.0418C25.641 25.0219 25.6244 25.0055 25.6044 24.9944C25.5843 24.9836 25.5616 24.9785 25.5388 24.9798Z" fill="#778B8E"/>
<path d="M30.6922 23.6306C30.7986 23.6281 30.8654 23.5706 30.8909 23.4588C30.8968 23.4384 30.898 23.417 30.8949 23.3962C30.8917 23.3753 30.8841 23.3552 30.8725 23.3375C30.8609 23.3197 30.8448 23.3052 30.8255 23.2956C30.8066 23.286 30.7853 23.2814 30.7641 23.2824C30.7115 23.2803 30.6599 23.2982 30.6195 23.3324C30.5841 23.3633 30.5592 23.4045 30.549 23.4504C30.5433 23.4721 30.5425 23.4948 30.5467 23.5168C30.551 23.5388 30.56 23.5597 30.5733 23.5778C30.5852 23.5956 30.6016 23.6099 30.6206 23.6194C30.6399 23.6288 30.6611 23.6332 30.6826 23.6322C30.6857 23.6326 30.6891 23.632 30.6922 23.6306Z" fill="#778B8E"/>
<path d="M32.3323 24.0437C32.2841 24.1002 32.2318 24.1526 32.1752 24.2006C32.088 24.2577 32.026 24.296 31.9884 24.3165L31.9813 24.3203L31.8848 24.7418C31.8285 24.9506 31.7396 25.0624 31.6165 25.0731C31.5469 25.0805 31.4385 25.0351 31.293 24.9417L31.2483 24.9128L31.267 24.9626C31.3425 25.163 31.4481 25.2654 31.5797 25.2654H31.5842C31.7345 25.2662 31.8797 25.2121 31.9929 25.1132C32.0942 25.0181 32.1658 24.8963 32.2004 24.7617L32.2623 24.7624L32.2615 24.7642H35.3274L35.8408 22.5428L35.8425 22.5291L35.8301 22.5229C35.7341 22.4731 35.6625 22.3838 35.619 22.2559L35.5989 22.1978L35.079 24.4512H34.0476C33.978 24.4512 33.9324 24.4382 33.9169 24.4137C33.8866 24.365 33.8707 24.2879 33.8685 24.1893C33.8727 24.125 33.858 24.0609 33.826 24.0052C33.811 23.9769 33.7901 23.9524 33.7646 23.9337C33.7389 23.9148 33.7091 23.9021 33.6777 23.8965H33.4057L33.3341 24.209H33.5085C33.5402 24.209 33.5557 24.2631 33.5625 24.3078C33.5679 24.3562 33.5764 24.404 33.588 24.4512H32.272L32.362 24.0601L32.3323 24.0437Z" fill="#778B8E"/>
<path d="M17.4425 25.6259C17.4361 25.6486 17.4351 25.6726 17.4399 25.6958C17.4446 25.719 17.4548 25.7405 17.4696 25.7589C17.4834 25.7767 17.5012 25.7908 17.5217 25.8C17.5421 25.8094 17.5644 25.8135 17.5867 25.8123H17.5961C17.7114 25.8102 17.7841 25.7496 17.8112 25.6332C17.8169 25.6115 17.8177 25.5888 17.814 25.5668C17.8102 25.5446 17.8016 25.5235 17.7892 25.5049C17.7763 25.4859 17.7589 25.4706 17.7384 25.4604C17.7179 25.4502 17.695 25.4454 17.672 25.4467C17.5472 25.4467 17.4696 25.5071 17.4425 25.6259Z" fill="#778B8E"/>
<path d="M40.2053 22.9512C40.2432 22.9181 40.2687 22.873 40.2777 22.8234C40.2828 22.8003 40.2831 22.7765 40.2783 22.7535C40.2738 22.7303 40.2644 22.7084 40.2509 22.6892C40.2361 22.671 40.2175 22.6563 40.1959 22.647C40.1747 22.6374 40.1512 22.6333 40.1277 22.6348C40.0728 22.6327 40.0191 22.6514 39.9775 22.6873C39.939 22.7211 39.9124 22.7662 39.9013 22.8161C39.8942 22.8382 39.8923 22.8615 39.8957 22.8845C39.8991 22.9074 39.9075 22.9292 39.9206 22.9483C39.9449 22.9841 39.9893 23.0026 40.0513 23.0026C40.1071 23.005 40.162 22.9868 40.2053 22.9512Z" fill="#778B8E"/>
<path d="M44.7079 23.4016C44.8335 23.3987 44.9083 23.3403 44.9298 23.2272C44.9402 23.1653 44.9323 23.1177 44.9063 23.0857C44.8808 23.0558 44.8395 23.0397 44.7834 23.0397C44.6603 23.0397 44.5848 23.099 44.5587 23.2131C44.5528 23.2356 44.5517 23.2591 44.5553 23.282C44.5593 23.305 44.5681 23.3267 44.5811 23.3459C44.5944 23.3647 44.6122 23.3795 44.6326 23.3893C44.6533 23.399 44.6762 23.4033 44.6991 23.4016H44.7079Z" fill="#778B8E"/>
<path d="M47.9518 24.7629H48.2702L48.8611 22.2048L48.8175 22.2482C48.7824 22.2844 48.7205 22.3395 48.6367 22.4136C48.5976 22.4411 48.5433 22.4785 48.4737 22.5224L48.4683 22.5265L47.9566 24.741L47.9518 24.7629Z" fill="#778B8E"/>
<path d="M39.6113 23.0091H39.613C39.6758 23.0012 39.7225 22.9834 39.7542 22.954C39.7916 22.9198 39.8167 22.8743 39.8258 22.8245C39.8337 22.7789 39.8272 22.7321 39.8077 22.6903C39.7935 22.6724 39.7757 22.658 39.7553 22.6482C39.735 22.6387 39.7123 22.6339 39.6897 22.6346C39.6325 22.6331 39.5767 22.6525 39.5329 22.6893C39.4918 22.7212 39.4635 22.7671 39.4542 22.8182C39.4491 22.8411 39.4485 22.8647 39.4528 22.8878C39.4573 22.9106 39.4664 22.9325 39.4794 22.9519C39.5074 22.9895 39.551 23.0089 39.6104 23.0089L39.6113 23.0091Z" fill="#778B8E"/>
<path d="M38.21 23.4552C38.2151 23.4131 38.2066 23.3705 38.1857 23.3335C38.1716 23.3174 38.154 23.3044 38.1342 23.2955C38.1144 23.2868 38.0932 23.2822 38.0714 23.2822C37.9562 23.2822 37.8857 23.3381 37.8594 23.4488C37.8537 23.4696 37.8523 23.4917 37.8557 23.513C37.8591 23.5346 37.867 23.555 37.8786 23.5732C37.9021 23.6094 37.9437 23.6276 37.9998 23.6276C38.1132 23.6276 38.184 23.5699 38.21 23.4552Z" fill="#778B8E"/>
<path d="M37.5897 23.6307C37.6952 23.6283 37.762 23.5707 37.7883 23.4589C37.7937 23.4384 37.7946 23.417 37.7915 23.3961C37.7881 23.3753 37.7804 23.3554 37.7688 23.3376C37.7572 23.3199 37.7414 23.3052 37.7224 23.2957C37.7037 23.286 37.6825 23.2814 37.6613 23.2824C37.6083 23.2804 37.5565 23.2983 37.5161 23.3325C37.4813 23.3639 37.4566 23.405 37.445 23.4506C37.4397 23.4722 37.4388 23.4949 37.4428 23.517C37.447 23.539 37.4561 23.5599 37.4694 23.578C37.4818 23.5957 37.4985 23.61 37.5178 23.6195C37.537 23.6291 37.5585 23.6333 37.58 23.6324C37.5834 23.6325 37.5865 23.632 37.5897 23.6307Z" fill="#778B8E"/>
<path d="M37.1462 24.4642L37.0765 24.7642H45.5736C45.5872 24.8375 45.6251 24.9039 45.682 24.9524C45.7494 25.0088 45.8351 25.0384 45.9231 25.0354C46.0199 25.0344 46.1147 25.0068 46.1971 24.9554C46.2778 24.9064 46.3457 24.8391 46.3952 24.7587H46.4371L46.4354 24.7642H47.7076L48.2196 22.5428L48.2224 22.5291L48.2108 22.5229C48.1129 22.4731 48.0421 22.3838 47.9991 22.2559L47.9784 22.1978L47.4585 24.4512H46.7343V24.4507H46.4708C46.4555 24.3693 46.4114 24.2962 46.3468 24.2444C46.2823 24.1926 46.2013 24.1656 46.1184 24.1683C46.0205 24.1691 45.9246 24.1972 45.8416 24.2496C45.759 24.299 45.6896 24.368 45.6401 24.4505L44.6515 24.451L44.8522 23.5799L44.8086 23.6246C44.7611 23.6741 44.711 23.7208 44.6583 23.7645C44.5723 23.8278 44.5075 23.8727 44.4647 23.8988L44.4591 23.9033L44.332 24.451H43.2362C43.2662 24.2975 43.2438 24.1688 43.1714 24.0675C43.0901 23.9536 42.9563 23.8965 42.7774 23.8965H41.3858L41.7636 22.2656L41.7319 22.2518C41.6425 22.3695 41.5247 22.4626 41.39 22.5223L41.3821 22.5257L40.9378 24.451H39.9288L40.2163 23.2048L40.1889 23.211C40.0301 23.249 39.8756 23.3014 39.7264 23.368C39.4069 23.5161 39.2201 23.6983 39.1706 23.9105L39.1018 24.2089H39.6656L39.6096 24.451H38.0331L38.1939 23.754L38.1664 23.7617C38.0071 23.8012 37.8517 23.8546 37.7017 23.9215C37.3813 24.0724 37.1946 24.2549 37.1462 24.4642ZM45.8912 24.6133C45.8997 24.5774 45.9203 24.5457 45.95 24.5238C45.9772 24.4995 46.0123 24.4859 46.0488 24.485C46.0632 24.4841 46.078 24.4867 46.0913 24.4926C46.1046 24.4985 46.1164 24.5076 46.1255 24.5189C46.1348 24.5302 46.1411 24.5436 46.1439 24.5579C46.1473 24.5722 46.1467 24.587 46.1428 24.6011C46.1337 24.636 46.1139 24.667 46.0856 24.6894C46.0587 24.7129 46.0245 24.7259 45.9888 24.7264C45.9738 24.7272 45.9591 24.7247 45.9452 24.719C45.9313 24.7132 45.9192 24.7043 45.9093 24.6932C45.8997 24.6825 45.8929 24.6697 45.8897 24.6555C45.8866 24.6415 45.8869 24.6269 45.8912 24.6133ZM41.3142 24.209H42.7126C42.7915 24.209 42.8487 24.2292 42.883 24.2686C42.9166 24.3078 42.9277 24.3693 42.9166 24.4512H41.2581L41.3142 24.209ZM39.4949 23.8965C39.513 23.8252 39.5569 23.7629 39.618 23.7216C39.6792 23.6902 39.7389 23.6582 39.7989 23.6266L39.7361 23.8965H39.4949ZM37.5897 24.2787C37.6508 24.2467 37.7128 24.2133 37.7756 24.1799L37.7113 24.4512H37.4694C37.4858 24.3803 37.5291 24.3187 37.5897 24.2787Z" fill="#778B8E"/>
</g>
</g>
<defs>
<clipPath id="clip0_5_626">
<rect width="60" height="32" fill="white" transform="translate(0.5)"/>
</clipPath>
<clipPath id="clip1_5_626">
<rect width="60" height="32" fill="white" transform="translate(0.5)"/>
</clipPath>
</defs>
</svg>
