<svg width="58" height="32" viewBox="0 0 58 32" fill="none" xmlns="http://www.w3.org/2000/svg">
<g clip-path="url(#clip0_5_811)">
<g clip-path="url(#clip1_5_811)">
<path d="M28.9376 0.202181C28.9013 0.273741 26.8811 1.7139 24.446 3.39557C22.02 5.08621 19.8915 6.56213 19.7382 6.67843L19.4406 6.90205L19.7923 7.31352C20.1801 7.77867 26.4934 15.8024 26.809 16.2318C26.9172 16.3838 27.0164 16.4822 27.0345 16.4554C27.0615 16.4286 27.269 14.8363 27.5034 12.9221C27.7379 10.9989 28.1888 7.34037 28.5136 4.79101C28.8292 2.23272 29.0728 0.130619 29.0548 0.11273C29.0368 0.0858949 28.9825 0.130619 28.9376 0.202181Z" fill="#778B8E"/>
<path d="M29.8115 0.837361C29.8115 1.13255 28.1069 14.7559 28.0439 14.9796L27.9896 15.1584L28.17 14.9796C28.2692 14.8812 29.4958 13.2889 30.8939 11.4462C32.3007 9.60356 33.8429 7.56407 34.3389 6.91108L35.241 5.73034L33.6264 4.18282C32.7427 3.33303 31.5521 2.18807 30.9749 1.63348C30.4067 1.07888 29.9107 0.622681 29.8747 0.622681C29.8386 0.622681 29.8115 0.721075 29.8115 0.837361Z" fill="#778B8E"/>
<path d="M37.1625 4.53122C36.6124 5.25578 34.6553 7.84092 32.8063 10.265C30.9576 12.6981 29.4603 14.7018 29.4694 14.7018C29.4874 14.7107 30.5156 14.827 31.7513 14.9612C32.9959 15.0954 35.9359 15.4263 38.2899 15.6947C40.6438 15.9631 42.6369 16.1867 42.7273 16.1867C42.8625 16.1867 42.8625 16.1509 42.7093 15.7573C42.3304 14.7555 38.3891 3.68146 38.3351 3.4578C38.299 3.32364 38.2447 3.21631 38.2087 3.21631C38.1727 3.21631 37.7037 3.80668 37.1625 4.53122Z" fill="#778B8E"/>
<path d="M39.552 4.49558C39.552 4.5224 39.7144 4.97862 39.9037 5.51531C40.2465 6.4456 41.0762 8.74448 42.2576 12.081C42.5644 12.9487 42.8529 13.709 42.8892 13.7716C42.9432 13.8611 43.7189 13.9147 46.2441 14.0042C48.0388 14.0668 50.7987 14.1652 52.359 14.2189C53.9192 14.2726 55.281 14.3352 55.3803 14.371C55.5427 14.4157 55.5427 14.3978 55.4254 14.2815C55.3531 14.2099 52.7558 12.5909 49.6534 10.6766C41.6083 5.73894 40.0841 4.79075 39.8045 4.61187C39.6604 4.5224 39.552 4.46875 39.552 4.49558Z" fill="#778B8E"/>
<path d="M16.9689 5.37192C16.9509 5.48821 16.7615 6.81208 16.5541 8.31485C16.3466 9.81762 15.9588 12.5727 15.6882 14.4333C15.4267 16.3028 15.2193 17.8414 15.2373 17.8592C15.2553 17.8861 23.8775 14.2723 24.0488 14.1649C24.1029 14.1292 17.5552 5.71184 17.1403 5.28245C17.0321 5.17512 17.005 5.18408 16.9689 5.37192Z" fill="#778B8E"/>
<path d="M15.2462 6.47245C15.1471 6.53506 12.9374 7.70685 10.3309 9.07546C3.11579 12.8592 2.56564 13.1544 2.62877 13.2439C2.65583 13.2886 2.80915 13.3244 2.96247 13.3244C3.12482 13.3244 4.63096 13.548 6.31752 13.8074C9.17652 14.2636 9.39296 14.2815 9.52826 14.1473C9.60943 14.0668 10.845 12.4835 12.27 10.6408C13.695 8.79816 15.0208 7.09858 15.2102 6.87496C15.4086 6.6424 15.5619 6.4277 15.5619 6.40088C15.5619 6.31144 15.4357 6.33826 15.2462 6.47245Z" fill="#778B8E"/>
<path d="M15.4985 7.78636C15.3451 8.00106 14.0194 9.72746 12.5493 11.6149C11.0882 13.5112 9.90672 15.0766 9.92476 15.1035C9.95181 15.1214 10.98 15.5507 12.2065 16.0516C14.0915 16.8209 14.4433 16.9462 14.4973 16.8209C14.5334 16.7404 14.6236 16.2126 14.6958 15.6491C14.7769 15.0856 15.0565 13.0371 15.3361 11.096C15.6157 9.15498 15.8231 7.52695 15.8051 7.4733C15.7871 7.42855 15.6518 7.56274 15.4985 7.78636Z" fill="#778B8E"/>
<path d="M16.4642 22.2869C15.7067 24.1743 15.0302 25.9633 14.9491 26.2675C14.8138 26.7773 14.8138 26.84 14.94 26.9741C15.0753 27.0994 15.1024 27.0904 15.2828 26.8578C15.391 26.7237 15.5533 26.509 15.6525 26.4017C15.7517 26.2854 15.8329 26.1154 15.8329 26.026C15.8329 25.9454 15.896 25.8202 15.9682 25.7576C16.0403 25.695 16.1035 25.5787 16.1035 25.4893C16.1035 25.3998 16.5003 24.389 16.9964 23.244C17.4834 22.0901 17.9163 21.0614 17.9433 20.9452C18.0426 20.6231 18.1508 20.7126 18.2139 21.1688C18.3763 22.3674 18.8452 25.1136 18.9084 25.2835C19.0166 25.5877 19.2511 25.534 19.4044 25.1762C19.4946 24.9525 19.5307 24.4874 19.5307 23.4319C19.5307 22.6447 19.5036 22.0007 19.4676 22.0007C19.4225 22.0007 19.3954 21.7055 19.3954 21.3477C19.3864 20.8289 19.3323 20.5605 19.0887 19.988C18.6649 18.9504 18.6017 18.8699 18.1778 18.8699H17.8261L16.4642 22.2869Z" fill="#778B8E"/>
<path d="M22.3983 20.831V23.2764C22.3983 23.5596 22.3983 23.8107 22.3983 24.0299C22.4029 24.2491 22.4121 24.4181 22.4259 24.5368C22.435 24.6236 22.4534 24.6943 22.4809 24.7491C22.5084 24.7994 22.5681 24.8313 22.6598 24.845C22.7011 24.8542 22.7493 24.861 22.8044 24.8656C22.864 24.8701 22.9076 24.8724 22.9351 24.8724C22.9673 24.8724 22.9833 24.8884 22.9833 24.9204C22.9833 24.9524 22.9512 24.9683 22.8869 24.9683C22.8044 24.9683 22.7195 24.9661 22.6323 24.9615C22.5497 24.9615 22.4717 24.9592 22.3983 24.9547C22.3295 24.9547 22.2699 24.9524 22.2194 24.9478C22.1735 24.9478 22.146 24.9478 22.1368 24.9478C22.1276 24.9478 22.0978 24.9478 22.0473 24.9478C22.0015 24.9524 21.9441 24.9547 21.8753 24.9547C21.811 24.9592 21.7445 24.9615 21.6757 24.9615C21.6115 24.9661 21.5564 24.9683 21.5105 24.9683C21.4463 24.9683 21.4142 24.9524 21.4142 24.9204C21.4142 24.893 21.4302 24.8793 21.4624 24.8793C21.4899 24.8793 21.5197 24.877 21.5518 24.8724C21.5839 24.8679 21.6138 24.861 21.6413 24.8519C21.7055 24.8382 21.7491 24.8039 21.7721 24.7491C21.795 24.6943 21.811 24.6236 21.8202 24.5368C21.834 24.4181 21.8409 24.2491 21.8409 24.0299C21.8455 23.8107 21.8477 23.5596 21.8477 23.2764V20.831L20.9737 20.8447C20.781 20.8493 20.6411 20.8653 20.5539 20.8927C20.4713 20.9155 20.4071 20.9612 20.3612 21.0297C20.3245 21.0799 20.3016 21.1187 20.2924 21.1461C20.2832 21.169 20.274 21.1918 20.2649 21.2146C20.2557 21.2512 20.235 21.2694 20.2029 21.2694C20.1938 21.2694 20.1846 21.2671 20.1754 21.2626C20.1662 21.2535 20.1616 21.2397 20.1616 21.2215C20.1616 21.2078 20.1662 21.1689 20.1754 21.105C20.1892 21.0411 20.2029 20.9749 20.2167 20.9064C20.235 20.8333 20.2511 20.7671 20.2649 20.7077C20.2786 20.6438 20.2878 20.605 20.2924 20.5913C20.297 20.573 20.3062 20.5502 20.3199 20.5228C20.3337 20.4954 20.3452 20.4817 20.3543 20.4817C20.3773 20.4817 20.4071 20.4908 20.4438 20.5091C20.4805 20.5273 20.5401 20.5411 20.6227 20.5502C20.7099 20.5593 20.8017 20.5662 20.898 20.5707C20.9944 20.5753 21.0609 20.5776 21.0976 20.5776H23.3825C23.4834 20.5776 23.5683 20.5753 23.6371 20.5707C23.7059 20.5662 23.7656 20.5593 23.816 20.5502C23.8619 20.5411 23.8986 20.5342 23.9261 20.5296C23.9537 20.5251 23.9743 20.5228 23.9881 20.5228C24.0065 20.5228 24.0156 20.5456 24.0156 20.5913C24.0156 20.6369 24.0133 20.694 24.0087 20.7625C24.0087 20.831 24.0065 20.8995 24.0019 20.968C24.0019 21.032 23.9996 21.0913 23.995 21.1461C23.995 21.2009 23.995 21.2375 23.995 21.2557C23.995 21.306 23.9766 21.3311 23.9399 21.3311C23.9261 21.3311 23.9147 21.3242 23.9055 21.3105C23.9009 21.2968 23.8963 21.2694 23.8918 21.2283L23.8849 21.1667C23.8803 21.121 23.8665 21.0799 23.8436 21.0434C23.8206 21.0068 23.7816 20.9749 23.7266 20.9475C23.6761 20.9155 23.6027 20.8927 23.5063 20.879C23.4146 20.8607 23.2976 20.8493 23.1554 20.8447L22.3983 20.831Z" fill="#778B8E"/>
<path d="M26.2409 22.2489V23.2764C26.2409 23.5595 26.2409 23.8107 26.2409 24.0299C26.2455 24.2491 26.2547 24.418 26.2684 24.5368C26.2776 24.6235 26.2937 24.6943 26.3166 24.7491C26.3395 24.7993 26.3969 24.8313 26.4887 24.845C26.5346 24.8541 26.585 24.861 26.6401 24.8656C26.6951 24.8701 26.7364 24.8724 26.764 24.8724C26.7961 24.8724 26.8121 24.8884 26.8121 24.9203C26.8121 24.9523 26.78 24.9683 26.7158 24.9683C26.6332 24.9683 26.5483 24.966 26.4612 24.9614C26.374 24.9614 26.2937 24.9592 26.2203 24.9546C26.1468 24.9546 26.0849 24.9523 26.0345 24.9478C25.9886 24.9478 25.9633 24.9478 25.9587 24.9478C25.9496 24.9478 25.922 24.9478 25.8762 24.9478C25.8303 24.9523 25.7752 24.9546 25.711 24.9546C25.6514 24.9592 25.5894 24.9614 25.5252 24.9614C25.4609 24.966 25.4059 24.9683 25.36 24.9683C25.2958 24.9683 25.2636 24.9523 25.2636 24.9203C25.2636 24.8884 25.2797 24.8724 25.3118 24.8724C25.3394 24.8724 25.3692 24.8701 25.4013 24.8656C25.438 24.861 25.4701 24.8541 25.4976 24.845C25.5573 24.8313 25.5963 24.7993 25.6147 24.7491C25.633 24.6943 25.6468 24.6235 25.6559 24.5368C25.6697 24.418 25.6789 24.2491 25.6835 24.0299C25.6881 23.8107 25.6903 23.5595 25.6903 23.2764V22.2489C25.6903 22.0251 25.6903 21.8425 25.6903 21.7009C25.6903 21.5594 25.6903 21.4452 25.6903 21.3584C25.6903 21.2671 25.6881 21.1963 25.6835 21.1461C25.6835 21.0913 25.6812 21.0411 25.6766 20.9954C25.6674 20.8949 25.649 20.8219 25.6215 20.7762C25.594 20.726 25.5481 20.694 25.4839 20.6803C25.4472 20.6712 25.4128 20.6666 25.3807 20.6666C25.3485 20.662 25.321 20.6598 25.2981 20.6598C25.2659 20.6598 25.2499 20.6438 25.2499 20.6118C25.2499 20.5798 25.282 20.5638 25.3462 20.5638C25.3967 20.5638 25.4541 20.5661 25.5183 20.5707C25.5871 20.5707 25.6514 20.5707 25.711 20.5707C25.7752 20.5707 25.8303 20.573 25.8762 20.5775C25.922 20.5775 25.9496 20.5775 25.9587 20.5775C25.9633 20.5775 25.9886 20.5775 26.0345 20.5775C26.0849 20.573 26.14 20.5707 26.1996 20.5707C26.2639 20.5707 26.3281 20.5707 26.3923 20.5707C26.4612 20.5661 26.5185 20.5638 26.5644 20.5638C26.6286 20.5638 26.6607 20.5798 26.6607 20.6118C26.6607 20.6438 26.6447 20.6598 26.6126 20.6598C26.5896 20.6598 26.5667 20.6598 26.5437 20.6598C26.5254 20.6598 26.4979 20.6643 26.4612 20.6734C26.3786 20.6917 26.3235 20.7237 26.296 20.7693C26.273 20.815 26.257 20.8903 26.2478 20.9954C26.2478 21.0411 26.2455 21.0913 26.2409 21.1461C26.2409 21.1963 26.2409 21.2671 26.2409 21.3584C26.2409 21.4452 26.2409 21.5594 26.2409 21.7009C26.2409 21.8425 26.2409 22.0251 26.2409 22.2489Z" fill="#778B8E"/>
<path d="M28.964 21.2762L30.1064 24.208C30.1661 24.0801 30.2349 23.9226 30.3129 23.7353C30.3909 23.5435 30.4734 23.3426 30.5608 23.1325C30.6479 22.9179 30.735 22.701 30.8221 22.4818C30.9141 22.2626 30.9966 22.0571 31.07 21.8653C31.1434 21.669 31.2077 21.4977 31.2625 21.3516C31.3176 21.2009 31.3566 21.0913 31.3797 21.0228C31.3935 20.9771 31.4048 20.936 31.4142 20.8995C31.4279 20.8584 31.4346 20.8264 31.4346 20.8036C31.4346 20.7808 31.4279 20.7579 31.4142 20.7351C31.4048 20.7077 31.3843 20.6894 31.3521 20.6803C31.3155 20.6712 31.2811 20.6666 31.2488 20.6666C31.2168 20.662 31.1824 20.6598 31.1456 20.6598C31.0999 20.6598 31.0767 20.6438 31.0767 20.6118C31.0767 20.5798 31.1227 20.5638 31.2144 20.5638C31.3338 20.5638 31.4532 20.5661 31.5723 20.5707C31.6916 20.5753 31.7696 20.5775 31.8064 20.5775C31.8247 20.5775 31.8844 20.5753 31.9852 20.5707C32.0909 20.5661 32.1896 20.5638 32.2813 20.5638C32.3455 20.5638 32.3775 20.5775 32.3775 20.605C32.3775 20.6415 32.3547 20.6598 32.3087 20.6598C32.2858 20.6598 32.2444 20.662 32.1847 20.6666C32.1299 20.6712 32.0748 20.6917 32.0197 20.7282C31.9968 20.7419 31.9737 20.7602 31.9508 20.783C31.9325 20.8013 31.9097 20.831 31.882 20.8721C31.8546 20.9086 31.8247 20.9589 31.7925 21.0228C31.7605 21.0822 31.7236 21.1621 31.6825 21.2625C31.6642 21.3036 31.6319 21.3767 31.5862 21.4817C31.5448 21.5822 31.4943 21.7032 31.4346 21.8448C31.3752 21.9863 31.3085 22.1439 31.2351 22.3174C31.1617 22.4864 31.0861 22.6599 31.0079 22.838C30.82 23.2673 30.6595 23.6326 30.5264 23.934C30.3978 24.2354 30.2992 24.4591 30.2303 24.6053C30.1478 24.7788 30.0905 24.8952 30.0583 24.9546C30.0308 25.014 30.001 25.0437 29.9687 25.0437C29.9322 25.0437 29.8999 25.0185 29.8725 24.9683C29.8451 24.9226 29.8012 24.829 29.7418 24.6875L28.2552 21.1187C28.2184 21.0365 28.1864 20.9703 28.1587 20.9201C28.1313 20.8653 28.1014 20.8241 28.0694 20.7967C28.0372 20.7648 28.0028 20.7419 27.9662 20.7282C27.9294 20.71 27.8858 20.694 27.8353 20.6803C27.785 20.6712 27.739 20.6666 27.6976 20.6666C27.6519 20.662 27.6196 20.6598 27.6013 20.6598C27.5831 20.6598 27.5715 20.6529 27.5669 20.6392C27.5578 20.6255 27.5532 20.6141 27.5532 20.605C27.5532 20.5775 27.6059 20.5638 27.7116 20.5638C27.785 20.5638 27.8584 20.5661 27.9318 20.5707C28.0098 20.5707 28.0807 20.5707 28.145 20.5707C28.2093 20.5707 28.2665 20.573 28.3171 20.5775C28.3676 20.5775 28.402 20.5775 28.4203 20.5775C28.4523 20.5775 28.5236 20.5753 28.6338 20.5707C28.7483 20.5661 28.8653 20.5638 28.9847 20.5638C29.0949 20.5638 29.1498 20.5775 29.1498 20.605C29.1498 20.6415 29.1291 20.6598 29.0879 20.6598C29.0511 20.6598 29.0121 20.662 28.971 20.6666C28.9296 20.6712 28.8951 20.678 28.8677 20.6872C28.8355 20.7009 28.815 20.7168 28.8056 20.7351C28.801 20.7488 28.7989 20.7671 28.7989 20.7899C28.7989 20.8264 28.815 20.8881 28.847 20.9749C28.879 21.057 28.9183 21.1575 28.964 21.2762Z" fill="#778B8E"/>
<path d="M33.6875 23.2765V22.249C33.6875 22.0252 33.6875 21.8426 33.6875 21.701C33.6875 21.5595 33.6875 21.4453 33.6875 21.3585C33.6875 21.2672 33.6851 21.1964 33.6805 21.1462C33.6805 21.0914 33.6784 21.0412 33.6738 20.9955C33.6644 20.895 33.6461 20.8197 33.6187 20.7694C33.591 20.7192 33.5267 20.6872 33.4259 20.6735C33.403 20.669 33.3686 20.6667 33.3226 20.6667C33.2815 20.6621 33.2471 20.6599 33.2194 20.6599C33.1874 20.6599 33.1713 20.6439 33.1713 20.6119C33.1713 20.5799 33.2033 20.5639 33.2675 20.5639C33.3364 20.5639 33.4098 20.5662 33.4877 20.5708C33.566 20.5708 33.6394 20.5708 33.7082 20.5708C33.777 20.5708 33.8343 20.5731 33.88 20.5776C33.9305 20.5776 33.9604 20.5776 33.9695 20.5776C33.9741 20.5776 34.0109 20.5776 34.0798 20.5776C34.1486 20.5776 34.2311 20.5776 34.3274 20.5776C34.4285 20.5776 34.5363 20.5776 34.6508 20.5776C34.7702 20.5776 34.8826 20.5776 34.9883 20.5776C35.0937 20.5776 35.1854 20.5776 35.2633 20.5776C35.3416 20.5776 35.3918 20.5776 35.415 20.5776C35.4744 20.5731 35.5295 20.5685 35.5801 20.5639C35.6306 20.5548 35.6672 20.548 35.69 20.5434C35.704 20.5388 35.7177 20.5343 35.7314 20.5297C35.7451 20.5206 35.7589 20.516 35.7728 20.516C35.7911 20.516 35.8003 20.5343 35.8003 20.5708C35.8003 20.5936 35.7933 20.6256 35.7796 20.6667C35.7704 20.7032 35.7613 20.7626 35.7521 20.8448C35.7521 20.8585 35.7497 20.8836 35.7451 20.9202C35.7451 20.9521 35.743 20.9886 35.7384 21.0297C35.7338 21.0708 35.729 21.1096 35.7244 21.1462C35.7244 21.1827 35.7223 21.2101 35.7177 21.2284C35.7131 21.2421 35.7062 21.2558 35.697 21.2695C35.6879 21.2832 35.6763 21.29 35.6626 21.29C35.6306 21.29 35.6145 21.2649 35.6145 21.2147C35.6145 21.1919 35.612 21.1622 35.6075 21.1256C35.6029 21.0845 35.5938 21.0457 35.5801 21.0092C35.5709 20.9864 35.5572 20.9658 35.5386 20.9475C35.5249 20.9293 35.5021 20.9133 35.4698 20.8996C35.4378 20.8859 35.3964 20.8745 35.3461 20.8654C35.2956 20.8516 35.2289 20.8402 35.1464 20.8311C35.1189 20.8265 35.0617 20.8242 34.9743 20.8242C34.8872 20.8197 34.7931 20.8174 34.6922 20.8174C34.596 20.8128 34.5065 20.8106 34.4239 20.8106C34.3411 20.8106 34.2908 20.8106 34.2723 20.8106C34.2494 20.8106 34.2379 20.8311 34.2379 20.8722V22.4545C34.2379 22.4956 34.2494 22.5162 34.2723 22.5162C34.2908 22.5162 34.3459 22.5162 34.4376 22.5162C34.5339 22.5162 34.6396 22.5162 34.7541 22.5162C34.8689 22.5162 34.9767 22.5162 35.0775 22.5162C35.1786 22.5116 35.2475 22.507 35.284 22.5024C35.3574 22.4933 35.4171 22.4865 35.4631 22.4819C35.5088 22.4728 35.5478 22.4522 35.5801 22.4203C35.6306 22.37 35.6602 22.3449 35.6696 22.3449C35.6924 22.3449 35.704 22.3609 35.704 22.3928C35.704 22.4111 35.697 22.4454 35.6833 22.4956C35.6742 22.5458 35.665 22.6189 35.6556 22.7148C35.6465 22.7742 35.6397 22.8472 35.6352 22.934C35.6306 23.0162 35.6282 23.0687 35.6282 23.0915C35.6282 23.1144 35.6236 23.1395 35.6145 23.1669C35.6099 23.1897 35.5962 23.2011 35.5731 23.2011C35.5456 23.2011 35.5319 23.1829 35.5319 23.1463C35.5319 23.119 35.5295 23.0892 35.5249 23.0573C35.5249 23.0253 35.5179 22.9911 35.5042 22.9546C35.4951 22.9135 35.4698 22.8769 35.4287 22.845C35.3918 22.813 35.3139 22.7902 35.1945 22.7764C35.1534 22.7719 35.0867 22.7673 34.995 22.7627C34.9033 22.7582 34.8092 22.7559 34.713 22.7559C34.6164 22.7513 34.5272 22.7491 34.4444 22.7491C34.3618 22.7491 34.3067 22.7491 34.2793 22.7491C34.2518 22.7491 34.2379 22.7627 34.2379 22.7902V23.2765C34.2379 23.3267 34.2379 23.4021 34.2379 23.5025C34.2379 23.5984 34.2379 23.6989 34.2379 23.8039C34.2379 23.909 34.2379 24.0071 34.2379 24.0985C34.2379 24.1852 34.2379 24.2423 34.2379 24.2697C34.2427 24.3656 34.254 24.4455 34.2723 24.5095C34.2908 24.5688 34.3252 24.6168 34.3755 24.6533C34.4306 24.6853 34.504 24.7081 34.596 24.7218C34.6877 24.7309 34.8092 24.7355 34.9606 24.7355C35.0386 24.7355 35.1396 24.7332 35.2633 24.7287C35.3873 24.7241 35.4884 24.7058 35.5663 24.6739C35.6443 24.6373 35.704 24.5916 35.7451 24.5369C35.7911 24.4775 35.8231 24.3884 35.8417 24.2697C35.8554 24.2103 35.8761 24.1807 35.9035 24.1807C35.9218 24.1807 35.9333 24.1898 35.9379 24.2081C35.9425 24.2263 35.9446 24.2469 35.9446 24.2697C35.9446 24.2788 35.9425 24.3085 35.9379 24.3588C35.9333 24.4044 35.9264 24.4592 35.9172 24.5232C35.9081 24.5825 35.8989 24.6419 35.8898 24.7012C35.8806 24.756 35.8712 24.7994 35.8621 24.8314C35.853 24.8679 35.8392 24.8976 35.821 24.9204C35.8072 24.9387 35.7887 24.9524 35.7658 24.9615C35.743 24.9707 35.7107 24.9752 35.6696 24.9752C35.6328 24.9798 35.5846 24.9821 35.5249 24.9821C35.2956 24.9821 35.0937 24.9798 34.9194 24.9752C34.745 24.9707 34.596 24.9661 34.472 24.9615C34.3435 24.9524 34.2379 24.9479 34.1553 24.9479C34.0774 24.9479 34.0155 24.9479 33.9695 24.9479C33.9604 24.9479 33.9305 24.9479 33.88 24.9479C33.8297 24.9479 33.7722 24.9501 33.7082 24.9547C33.6485 24.9593 33.5864 24.9615 33.5221 24.9615C33.4627 24.9661 33.4076 24.9684 33.3571 24.9684C33.2928 24.9684 33.2608 24.9524 33.2608 24.9204C33.2608 24.8885 33.2767 24.8725 33.3089 24.8725C33.3363 24.8725 33.3662 24.8702 33.3985 24.8656C33.435 24.8565 33.4673 24.8497 33.4947 24.8451C33.5544 24.836 33.591 24.804 33.6049 24.7492C33.6232 24.6944 33.6394 24.6236 33.6531 24.5369C33.6714 24.4181 33.6805 24.2492 33.6805 24.03C33.6851 23.8108 33.6875 23.5596 33.6875 23.2765Z" fill="#778B8E"/>
<path d="M3.8937 25.0431C2.89813 25.0431 2.06242 24.8275 1.40111 24.2596C0.688943 23.6414 0.5 22.8364 0.5 22.1392C0.5 21.6504 0.652608 20.8022 1.35024 20.1696C1.87347 19.6952 2.56384 19.4077 3.64664 19.4077C4.09718 19.4077 4.36608 19.4365 4.70036 19.4796C4.97652 19.5155 5.20906 19.5802 5.42706 19.6018C5.50699 19.609 5.53606 19.6449 5.53606 19.6881C5.53606 19.7456 5.51425 19.8318 5.49973 20.0834C5.48519 20.3206 5.49247 20.7159 5.47793 20.8597C5.47067 20.9675 5.45612 21.025 5.39073 21.025C5.33258 21.025 5.31806 20.9675 5.31806 20.8669C5.3108 20.6441 5.21632 20.3925 5.03465 20.2056C4.79482 19.954 4.22799 19.7599 3.55942 19.7599C2.92719 19.7599 2.51297 19.9181 2.19322 20.2056C1.66273 20.6872 1.52465 21.37 1.52465 22.0673C1.52465 23.778 2.83999 24.6262 3.81377 24.6262C4.46053 24.6262 4.85297 24.5543 5.14364 24.2237C5.26719 24.0871 5.36167 23.8787 5.39073 23.7493C5.41254 23.6343 5.42706 23.6055 5.48519 23.6055C5.53606 23.6055 5.5506 23.6558 5.5506 23.7133C5.5506 23.7996 5.46341 24.425 5.39073 24.6693C5.35438 24.7916 5.32532 24.8275 5.20177 24.8778C4.9111 24.9928 4.35879 25.0431 3.8937 25.0431Z" fill="#778B8E"/>
<path d="M11.233 24.9605C11.233 24.9958 11.2005 25.016 11.1354 25.021C11.0704 25.0311 10.9803 25.0361 10.8653 25.0361C10.7452 25.0361 10.6277 25.0311 10.5126 25.021C10.3976 25.016 10.285 24.9958 10.175 24.9605C10.0649 24.9201 9.95487 24.8646 9.84479 24.794C9.73975 24.7184 9.6397 24.615 9.54466 24.4839L8.68925 23.3415C8.64424 23.2759 8.60674 23.2254 8.5767 23.1901C8.5467 23.1548 8.51919 23.1296 8.49416 23.1145C8.46916 23.0943 8.43665 23.0842 8.39662 23.0842C8.36161 23.0792 8.31407 23.0767 8.25406 23.0767H7.89389C7.85888 23.0767 7.84138 23.0993 7.84138 23.1448V24.0072C7.84138 24.2039 7.84638 24.3628 7.85638 24.4839C7.86638 24.5999 7.88639 24.6906 7.91639 24.7562C7.94142 24.8117 7.97893 24.852 8.02897 24.8772C8.08398 24.9025 8.14652 24.9201 8.21653 24.9302C8.31157 24.9403 8.35911 24.9605 8.35911 24.9907C8.35911 25.026 8.30907 25.0437 8.20903 25.0437C8.10898 25.0437 8.00394 25.0387 7.89389 25.0285C7.78884 25.0235 7.66879 25.021 7.53371 25.021C7.40866 25.021 7.28111 25.0235 7.15103 25.0285C7.02598 25.0387 6.88343 25.0437 6.72334 25.0437C6.66331 25.0437 6.6333 25.026 6.6333 24.9907C6.6333 24.9655 6.6533 24.9504 6.69334 24.9453C6.73835 24.9352 6.78838 24.9277 6.84339 24.9227C6.88343 24.9176 6.92844 24.91 6.97847 24.8999C7.02848 24.8899 7.06602 24.8646 7.09102 24.8243C7.13103 24.7688 7.15603 24.6932 7.16606 24.5973C7.18107 24.5015 7.18857 24.4107 7.18857 24.325V21.0491C7.18857 20.9482 7.17857 20.8701 7.15853 20.8146C7.14353 20.754 7.12103 20.7112 7.09102 20.686C7.06099 20.6557 7.02348 20.638 6.97847 20.633C6.93344 20.6229 6.88343 20.6128 6.82839 20.6027C6.74335 20.5927 6.70084 20.575 6.70084 20.5498C6.70084 20.5246 6.71834 20.5094 6.75335 20.5044C6.78838 20.4943 6.82839 20.4893 6.87343 20.4893C6.98848 20.4893 7.08852 20.4943 7.17356 20.5044C7.26361 20.5145 7.38116 20.5195 7.52621 20.5195C7.64126 20.5195 7.77134 20.5145 7.91639 20.5044C8.06147 20.4893 8.20153 20.4817 8.33661 20.4817C8.5367 20.4817 8.72679 20.5044 8.90687 20.5498C9.09196 20.5952 9.25452 20.6633 9.3946 20.754C9.53465 20.8448 9.6447 20.9608 9.72474 21.1021C9.80979 21.2433 9.85229 21.4123 9.85229 21.6089C9.85229 21.7552 9.82979 21.8889 9.78478 22.0099C9.73975 22.131 9.68224 22.2419 9.6122 22.3428C9.54716 22.4386 9.47464 22.5244 9.3946 22.6C9.31956 22.6707 9.25202 22.7287 9.19201 22.774C9.16198 22.7993 9.13697 22.8169 9.11697 22.827C9.10197 22.8371 9.09446 22.8522 9.09446 22.8724C9.09446 22.8976 9.13197 22.9581 9.20701 23.054L10.0624 24.1056C10.1224 24.1812 10.19 24.2644 10.265 24.3552C10.345 24.446 10.4276 24.5317 10.5126 24.6125C10.5977 24.6881 10.6827 24.7537 10.7677 24.8092C10.8528 24.8646 10.9328 24.8949 11.0078 24.8999C11.1579 24.905 11.233 24.9252 11.233 24.9605ZM9.20701 21.8359C9.20701 21.6896 9.18201 21.5535 9.13197 21.4274C9.08696 21.2963 9.02192 21.1828 8.93688 21.0869C8.85184 20.9861 8.74429 20.9079 8.61424 20.8524C8.48916 20.7969 8.34911 20.7692 8.19403 20.7692H7.98393C7.91389 20.7692 7.87138 20.7893 7.85638 20.8297C7.84638 20.8701 7.84138 20.9281 7.84138 21.0037V22.7589C7.84138 22.7993 7.84638 22.822 7.85638 22.827C7.86638 22.832 7.88889 22.8346 7.92389 22.8346H8.47916C8.70928 22.8346 8.88684 22.7463 9.01192 22.5698C9.14197 22.3932 9.20701 22.1486 9.20701 21.8359Z" fill="#778B8E"/>
<path d="M12.4178 23.3348V22.3058C12.4178 22.0818 12.4178 21.8988 12.4178 21.7571C12.4178 21.6153 12.4178 21.501 12.4178 21.4141C12.4178 21.3226 12.4153 21.2517 12.4104 21.2014C12.4104 21.1465 12.4079 21.0962 12.403 21.0505C12.3932 20.9499 12.3735 20.8744 12.3439 20.8241C12.3144 20.7738 12.2454 20.7418 12.1371 20.7281C12.1125 20.7235 12.0756 20.7212 12.0264 20.7212C11.9821 20.7167 11.9451 20.7144 11.9156 20.7144C11.8811 20.7144 11.8639 20.6984 11.8639 20.6664C11.8639 20.6343 11.8984 20.6183 11.9673 20.6183C12.0411 20.6183 12.1199 20.6206 12.2036 20.6252C12.2873 20.6252 12.3661 20.6252 12.4399 20.6252C12.5138 20.6252 12.5753 20.6275 12.6246 20.632C12.6787 20.632 12.7107 20.632 12.7206 20.632C12.7255 20.632 12.7649 20.632 12.8387 20.632C12.9126 20.632 13.0012 20.632 13.1046 20.632C13.2129 20.632 13.3286 20.632 13.4517 20.632C13.5797 20.632 13.7003 20.632 13.8136 20.632C13.9268 20.632 14.0253 20.632 14.109 20.632C14.1927 20.632 14.2468 20.632 14.2715 20.632C14.3355 20.6275 14.3946 20.6229 14.4487 20.6183C14.5029 20.6092 14.5422 20.6023 14.5669 20.5978C14.5816 20.5932 14.5964 20.5886 14.6112 20.584C14.6259 20.5749 14.6407 20.5703 14.6555 20.5703C14.6752 20.5703 14.685 20.5886 14.685 20.6252C14.685 20.6481 14.6776 20.6801 14.6629 20.7212C14.653 20.7578 14.6432 20.8173 14.6333 20.8996C14.6333 20.9133 14.6309 20.9384 14.6259 20.975C14.6259 21.0071 14.6235 21.0436 14.6186 21.0848C14.6137 21.126 14.6087 21.1648 14.6038 21.2014C14.6038 21.238 14.6013 21.2654 14.5964 21.2837C14.5915 21.2975 14.5841 21.3112 14.5743 21.3249C14.5644 21.3386 14.5521 21.3455 14.5373 21.3455C14.5029 21.3455 14.4856 21.3203 14.4856 21.27C14.4856 21.2471 14.4832 21.2174 14.4783 21.1808C14.4733 21.1397 14.4635 21.1008 14.4487 21.0642C14.4389 21.0414 14.4241 21.0208 14.4044 21.0025C14.3896 20.9842 14.365 20.9682 14.3305 20.9545C14.2961 20.9407 14.2518 20.9293 14.1976 20.9202C14.1435 20.9064 14.0721 20.895 13.9834 20.8859C13.9539 20.8813 13.8924 20.879 13.7988 20.879C13.7053 20.8744 13.6043 20.8722 13.496 20.8722C13.3926 20.8676 13.2966 20.8653 13.208 20.8653C13.1194 20.8653 13.0652 20.8653 13.0455 20.8653C13.0209 20.8653 13.0086 20.8859 13.0086 20.927V22.5116C13.0086 22.5528 13.0209 22.5734 13.0455 22.5734C13.0652 22.5734 13.1243 22.5734 13.2228 22.5734C13.3262 22.5734 13.4394 22.5734 13.5625 22.5734C13.6856 22.5734 13.8013 22.5734 13.9096 22.5734C14.0179 22.5688 14.0918 22.5642 14.1311 22.5596C14.2099 22.5505 14.2739 22.5436 14.3232 22.5391C14.3724 22.5299 14.4142 22.5093 14.4487 22.4773C14.5029 22.427 14.5349 22.4019 14.5447 22.4019C14.5693 22.4019 14.5816 22.4179 14.5816 22.4499C14.5816 22.4682 14.5743 22.5025 14.5595 22.5528C14.5496 22.6031 14.5398 22.6763 14.53 22.7723C14.5201 22.8318 14.5127 22.9049 14.5078 22.9918C14.5029 23.0741 14.5004 23.1267 14.5004 23.1496C14.5004 23.1724 14.4955 23.1976 14.4856 23.225C14.4807 23.2479 14.4659 23.2593 14.4413 23.2593C14.4118 23.2593 14.397 23.241 14.397 23.2044C14.397 23.177 14.3946 23.1473 14.3896 23.1153C14.3896 23.0833 14.3822 23.049 14.3675 23.0124C14.3576 22.9712 14.3305 22.9346 14.2862 22.9026C14.2468 22.8706 14.1631 22.8478 14.0351 22.834C13.9908 22.8295 13.9194 22.8249 13.821 22.8203C13.7225 22.8157 13.6216 22.8135 13.5182 22.8135C13.4148 22.8089 13.3188 22.8066 13.2301 22.8066C13.1415 22.8066 13.0825 22.8066 13.0529 22.8066C13.0234 22.8066 13.0086 22.8203 13.0086 22.8478V23.3348C13.0086 23.3851 13.0086 23.4606 13.0086 23.5612C13.0086 23.6572 13.0086 23.7578 13.0086 23.863C13.0086 23.9682 13.0086 24.0665 13.0086 24.158C13.0086 24.2448 13.0086 24.302 13.0086 24.3295C13.0135 24.4255 13.0258 24.5055 13.0455 24.5695C13.0652 24.629 13.1021 24.677 13.1563 24.7136C13.2154 24.7456 13.2942 24.7685 13.3926 24.7822C13.4911 24.7913 13.6216 24.7959 13.784 24.7959C13.8677 24.7959 13.9761 24.7936 14.109 24.7891C14.2419 24.7845 14.3502 24.7662 14.4339 24.7342C14.5176 24.6976 14.5816 24.6519 14.6259 24.597C14.6752 24.5375 14.7097 24.4484 14.7294 24.3295C14.7441 24.27 14.7663 24.2403 14.7958 24.2403C14.8155 24.2403 14.8278 24.2494 14.8328 24.2677C14.8377 24.286 14.8401 24.3066 14.8401 24.3295C14.8401 24.3386 14.8377 24.3683 14.8328 24.4186C14.8278 24.4644 14.8204 24.5192 14.8106 24.5833C14.8007 24.6427 14.7909 24.7022 14.7811 24.7616C14.7712 24.8165 14.7613 24.8599 14.7515 24.8919C14.7417 24.9285 14.7269 24.9583 14.7072 24.9811C14.6924 24.9994 14.6727 25.0131 14.6481 25.0223C14.6235 25.0314 14.589 25.036 14.5447 25.036C14.5053 25.0406 14.4536 25.0429 14.3896 25.0429C14.1435 25.0429 13.9268 25.0406 13.7397 25.036C13.5527 25.0314 13.3926 25.0268 13.2597 25.0223C13.1218 25.0131 13.0086 25.0086 12.92 25.0086C12.8363 25.0086 12.7698 25.0086 12.7206 25.0086C12.7107 25.0086 12.6787 25.0086 12.6246 25.0086C12.5704 25.0086 12.5089 25.0108 12.4399 25.0154C12.3759 25.02 12.3095 25.0223 12.2405 25.0223C12.1765 25.0268 12.1174 25.0291 12.0633 25.0291C11.9943 25.0291 11.9599 25.0131 11.9599 24.9811C11.9599 24.9491 11.9771 24.9331 12.0116 24.9331C12.0411 24.9331 12.0731 24.9308 12.1076 24.9263C12.147 24.9171 12.1815 24.9102 12.211 24.9057C12.275 24.8965 12.3144 24.8645 12.3291 24.8096C12.3488 24.7548 12.3661 24.6839 12.3808 24.597C12.4006 24.4781 12.4104 24.3089 12.4104 24.0894C12.4153 23.8699 12.4178 23.6183 12.4178 23.3348Z" fill="#778B8E"/>
<path d="M42.6747 25.0435C41.6791 25.0435 40.8434 24.8278 40.182 24.26C39.4698 23.6418 39.2808 22.8368 39.2808 22.1395C39.2808 21.6507 39.4335 20.8026 40.1312 20.17C40.6544 19.6956 41.3446 19.4081 42.4276 19.4081C42.8779 19.4081 43.1468 19.4368 43.4813 19.48C43.7574 19.5159 43.99 19.5806 44.208 19.6022C44.2879 19.6094 44.3169 19.6453 44.3169 19.6884C44.3169 19.7459 44.2951 19.8322 44.2806 20.0838C44.2661 20.321 44.2734 20.7163 44.2589 20.8601C44.2516 20.9679 44.2371 21.0254 44.1715 21.0254C44.1134 21.0254 44.0989 20.9679 44.0989 20.8673C44.0916 20.6444 43.9972 20.3929 43.8155 20.2059C43.5757 19.9544 43.0089 19.7603 42.3402 19.7603C41.7081 19.7603 41.2938 19.9184 40.9741 20.2059C40.4436 20.6875 40.3054 21.3704 40.3054 22.0677C40.3054 23.7784 41.621 24.6266 42.5946 24.6266C43.2415 24.6266 43.6337 24.5547 43.9246 24.2241C44.0481 24.0875 44.1424 23.879 44.1715 23.7497C44.1935 23.6346 44.208 23.6059 44.2661 23.6059C44.3169 23.6059 44.3314 23.6562 44.3314 23.7137C44.3314 23.8 44.2443 24.4253 44.1715 24.6697C44.1352 24.7919 44.1061 24.8278 43.9827 24.8782C43.6921 24.9932 43.1396 25.0435 42.6747 25.0435Z" fill="#778B8E"/>
<path d="M46.7351 22.2243V23.2895C46.7351 23.583 46.7351 23.8434 46.7351 24.0706C46.7399 24.2979 46.7496 24.473 46.7641 24.5961C46.7738 24.6861 46.791 24.7595 46.8152 24.8163C46.8394 24.8684 46.9002 24.9015 46.9975 24.9157C47.0462 24.9252 47.0997 24.9323 47.158 24.937C47.2161 24.9417 47.2599 24.9441 47.2892 24.9441C47.3231 24.9441 47.3401 24.9607 47.3401 24.9938C47.3401 25.0269 47.3062 25.0435 47.2382 25.0435C47.1505 25.0435 47.0607 25.0412 46.9685 25.0364C46.876 25.0364 46.791 25.034 46.7131 25.0293C46.6354 25.0293 46.5698 25.0269 46.5162 25.0222C46.4679 25.0222 46.441 25.0222 46.4361 25.0222C46.4264 25.0222 46.3971 25.0222 46.3487 25.0222C46.3001 25.0269 46.2417 25.0293 46.1737 25.0293C46.1105 25.034 46.0449 25.0364 45.9769 25.0364C45.9089 25.0412 45.8505 25.0435 45.8019 25.0435C45.7338 25.0435 45.6997 25.0269 45.6997 24.9938C45.6997 24.9607 45.7169 24.9441 45.7508 24.9441C45.7801 24.9441 45.8115 24.9417 45.8457 24.937C45.8844 24.9323 45.9186 24.9252 45.9476 24.9157C46.0108 24.9015 46.0522 24.8684 46.0715 24.8163C46.0912 24.7595 46.1057 24.6861 46.1154 24.5961C46.1299 24.473 46.1396 24.2979 46.1444 24.0706C46.1495 23.8434 46.1519 23.583 46.1519 23.2895V22.2243C46.1519 21.9923 46.1519 21.8029 46.1519 21.6561C46.1519 21.5094 46.1519 21.391 46.1519 21.3011C46.1519 21.2064 46.1495 21.133 46.1444 21.0809C46.1444 21.0241 46.142 20.972 46.1371 20.9247C46.1275 20.8205 46.1081 20.7448 46.0788 20.6974C46.0498 20.6453 46.0011 20.6122 45.9331 20.598C45.8941 20.5885 45.8578 20.5838 45.8236 20.5838C45.7898 20.5791 45.7605 20.5767 45.7363 20.5767C45.7021 20.5767 45.6852 20.5601 45.6852 20.527C45.6852 20.4939 45.7193 20.4773 45.7873 20.4773C45.8409 20.4773 45.9016 20.4797 45.9696 20.4844C46.0425 20.4844 46.1105 20.4844 46.1737 20.4844C46.2417 20.4844 46.3001 20.4868 46.3487 20.4915C46.3971 20.4915 46.4264 20.4915 46.4361 20.4915C46.441 20.4915 46.4679 20.4915 46.5162 20.4915C46.5698 20.4868 46.6281 20.4844 46.6913 20.4844C46.7593 20.4844 46.8273 20.4844 46.8954 20.4844C46.9685 20.4797 47.029 20.4773 47.0776 20.4773C47.1457 20.4773 47.1798 20.4939 47.1798 20.527C47.1798 20.5601 47.1629 20.5767 47.1287 20.5767C47.1045 20.5767 47.0801 20.5767 47.0559 20.5767C47.0365 20.5767 47.0072 20.5815 46.9685 20.5909C46.8808 20.6099 46.8225 20.643 46.7935 20.6903C46.769 20.7377 46.752 20.8158 46.7424 20.9247C46.7424 20.972 46.7399 21.0241 46.7351 21.0809C46.7351 21.133 46.7351 21.2064 46.7351 21.3011C46.7351 21.391 46.7351 21.5094 46.7351 21.6561C46.7351 21.8029 46.7351 21.9923 46.7351 22.2243Z" fill="#778B8E"/>
<path d="M50.6769 20.7543V23.2895C50.6769 23.583 50.6769 23.8434 50.6769 24.0707C50.6817 24.2979 50.6914 24.473 50.7059 24.5961C50.7156 24.6861 50.7353 24.7595 50.7643 24.8163C50.7933 24.8684 50.8565 24.9015 50.9538 24.9157C50.9977 24.9252 51.0488 24.9323 51.1068 24.937C51.17 24.9417 51.2163 24.9441 51.2456 24.9441C51.2794 24.9441 51.2964 24.9607 51.2964 24.9938C51.2964 25.027 51.2625 25.0435 51.1945 25.0435C51.1068 25.0435 51.017 25.0412 50.9248 25.0364C50.8372 25.0364 50.7546 25.0341 50.6769 25.0293C50.6038 25.0293 50.5406 25.027 50.4874 25.0222C50.4387 25.0222 50.4094 25.0222 50.3997 25.0222C50.39 25.0222 50.3586 25.0222 50.3051 25.0222C50.2564 25.027 50.1956 25.0293 50.1228 25.0293C50.0547 25.0341 49.9843 25.0364 49.9112 25.0364C49.8431 25.0412 49.7848 25.0435 49.7364 25.0435C49.6684 25.0435 49.6342 25.027 49.6342 24.9938C49.6342 24.9654 49.6512 24.9512 49.6853 24.9512C49.7144 24.9512 49.7461 24.9489 49.78 24.9441C49.8141 24.9394 49.8456 24.9323 49.8749 24.9228C49.9429 24.9086 49.9891 24.8731 50.0133 24.8163C50.0375 24.7595 50.0547 24.6861 50.0644 24.5961C50.0789 24.473 50.0862 24.2979 50.0862 24.0707C50.091 23.8434 50.0935 23.583 50.0935 23.2895V20.7543L49.1677 20.7685C48.9634 20.7732 48.8153 20.7898 48.723 20.8182C48.6354 20.8419 48.5674 20.8892 48.5187 20.9602C48.48 21.0123 48.4555 21.0525 48.4458 21.0809C48.4362 21.1046 48.4265 21.1283 48.4168 21.152C48.4071 21.1898 48.3851 21.2088 48.3512 21.2088C48.3413 21.2088 48.3316 21.2064 48.3219 21.2017C48.3122 21.1922 48.3074 21.178 48.3074 21.159C48.3074 21.1448 48.3122 21.1046 48.3219 21.0383C48.3364 20.972 48.3512 20.9034 48.3657 20.8324C48.3851 20.7566 48.402 20.688 48.4168 20.6264C48.4313 20.5602 48.441 20.5199 48.4458 20.5057C48.4507 20.4868 48.4604 20.4631 48.4751 20.4347C48.4897 20.4063 48.5018 20.3921 48.5114 20.3921C48.5359 20.3921 48.5674 20.4016 48.6064 20.4205C48.6451 20.4394 48.7083 20.4536 48.7959 20.4631C48.8881 20.4726 48.9855 20.4797 49.0874 20.4844C49.1895 20.4892 49.26 20.4915 49.299 20.4915H51.7193C51.8263 20.4915 51.9161 20.4892 51.989 20.4844C52.0621 20.4797 52.1253 20.4726 52.1785 20.4631C52.2272 20.4536 52.2662 20.4465 52.2952 20.4418C52.3245 20.4371 52.3463 20.4347 52.3608 20.4347C52.3805 20.4347 52.3901 20.4584 52.3901 20.5057C52.3901 20.5531 52.3877 20.6123 52.3829 20.6833C52.3829 20.7543 52.3805 20.8253 52.3756 20.8963C52.3756 20.9626 52.3732 21.0241 52.3681 21.0809C52.3681 21.1377 52.3681 21.1756 52.3681 21.1946C52.3681 21.2466 52.3487 21.2727 52.31 21.2727C52.2952 21.2727 52.2831 21.2656 52.2734 21.2514C52.2686 21.2372 52.2638 21.2088 52.2589 21.1661L52.2517 21.1023C52.2468 21.0549 52.232 21.0123 52.2078 20.9744C52.1836 20.9365 52.1422 20.9034 52.0839 20.875C52.0304 20.8418 51.9527 20.8182 51.8505 20.804C51.7535 20.7851 51.6295 20.7732 51.4787 20.7685L50.6769 20.7543Z" fill="#778B8E"/>
<path d="M54.8898 23.9925V23.4741C54.8898 23.3131 54.8777 23.1924 54.8535 23.1119C54.8342 23.0267 54.8 22.9415 54.7514 22.8563C54.7417 22.8421 54.7126 22.7971 54.664 22.7213C54.6153 22.6409 54.5545 22.5438 54.4817 22.4302C54.4088 22.3166 54.3284 22.1958 54.241 22.068C54.1585 21.9355 54.0757 21.8076 53.9931 21.6845C53.9106 21.5567 53.8353 21.4407 53.7673 21.3366C53.699 21.2324 53.6482 21.1543 53.614 21.1022C53.5363 20.9886 53.4611 20.8963 53.3882 20.8253C53.3151 20.7543 53.2495 20.6998 53.1911 20.6619C53.1427 20.6335 53.0916 20.6122 53.0381 20.598C52.9846 20.5838 52.9459 20.5767 52.9214 20.5767C52.8776 20.5767 52.8558 20.5578 52.8558 20.5199C52.8558 20.4915 52.8827 20.4773 52.936 20.4773C52.9653 20.4773 53.0139 20.4797 53.0819 20.4844C53.15 20.4844 53.218 20.4844 53.286 20.4844C53.3589 20.4844 53.4221 20.4868 53.4756 20.4915C53.5291 20.4915 53.5605 20.4915 53.5702 20.4915C53.5947 20.4915 53.6603 20.4891 53.7673 20.4844C53.8789 20.4797 53.998 20.4773 54.1244 20.4773C54.1633 20.4773 54.1875 20.482 54.1972 20.4915C54.2072 20.4962 54.212 20.5057 54.212 20.5199C54.212 20.5388 54.1779 20.5601 54.1098 20.5838C54.0563 20.6075 54.0297 20.6406 54.0297 20.6832C54.0297 20.7258 54.037 20.7661 54.0515 20.804C54.0708 20.8418 54.0929 20.8797 54.1171 20.9176L55.2837 22.7995C55.3031 22.7568 55.3396 22.6882 55.3929 22.5935C55.4512 22.4988 55.5144 22.3923 55.5824 22.274C55.6556 22.1556 55.7308 22.0325 55.8085 21.9047C55.8911 21.7768 55.9666 21.6561 56.0347 21.5425C56.1075 21.4241 56.1707 21.3224 56.2242 21.2371C56.2774 21.1472 56.314 21.0856 56.3334 21.0525C56.3724 20.9862 56.399 20.9271 56.4138 20.875C56.4331 20.8229 56.4428 20.7779 56.4428 20.74C56.4428 20.6548 56.4089 20.6028 56.3406 20.5838C56.2774 20.5696 56.246 20.5459 56.246 20.5128C56.246 20.4891 56.2801 20.4773 56.3482 20.4773C56.4307 20.4773 56.5181 20.4797 56.6106 20.4844C56.7076 20.4891 56.7684 20.4915 56.7929 20.4915C56.8025 20.4915 56.834 20.4915 56.8875 20.4915C56.9459 20.4868 57.009 20.4844 57.0771 20.4844C57.1451 20.4844 57.2107 20.4844 57.2739 20.4844C57.3419 20.4797 57.3906 20.4773 57.4199 20.4773C57.4731 20.4773 57.5 20.4891 57.5 20.5128C57.5 20.527 57.4927 20.5412 57.4782 20.5554C57.4634 20.5696 57.4441 20.5767 57.4199 20.5767C57.3809 20.5767 57.3346 20.5838 57.2811 20.598C57.2279 20.6075 57.1744 20.6264 57.1209 20.6548C57.0577 20.6927 57.0042 20.7329 56.9604 20.7756C56.9217 20.8134 56.8682 20.8726 56.8001 20.9531C56.766 20.9957 56.7125 21.0667 56.6396 21.1661C56.5716 21.2608 56.4939 21.3721 56.4065 21.4999C56.3237 21.6277 56.2363 21.7627 56.1438 21.9047C56.0516 22.0467 55.9639 22.184 55.8814 22.3166C55.8037 22.4444 55.7333 22.558 55.6701 22.6574C55.6117 22.7568 55.5727 22.8279 55.5534 22.8705C55.4999 22.9794 55.4733 23.0835 55.4733 23.1829C55.4733 23.2776 55.4733 23.3747 55.4733 23.4741V23.9925C55.4733 24.0446 55.4733 24.1274 55.4733 24.2411C55.4781 24.3547 55.4854 24.473 55.495 24.5961C55.5047 24.6861 55.5241 24.7595 55.5534 24.8163C55.5824 24.8684 55.6456 24.9015 55.7429 24.9157C55.7868 24.9252 55.8376 24.9323 55.8959 24.937C55.9591 24.9417 56.0054 24.9441 56.0347 24.9441C56.0685 24.9441 56.0855 24.9607 56.0855 24.9938C56.0855 25.0269 56.0516 25.0435 55.9836 25.0435C55.8959 25.0435 55.8061 25.0412 55.7139 25.0364C55.6214 25.0364 55.5364 25.034 55.4585 25.0293C55.3808 25.0293 55.3152 25.0269 55.2617 25.0222C55.2133 25.0222 55.184 25.0222 55.1743 25.0222C55.1646 25.0222 55.1353 25.0222 55.0869 25.0222C55.0431 25.0269 54.9871 25.0293 54.9191 25.0293C54.8559 25.034 54.7903 25.0364 54.7223 25.0364C54.6543 25.0412 54.5959 25.0435 54.5473 25.0435C54.4793 25.0435 54.4451 25.0269 54.4451 24.9938C54.4451 24.9607 54.4623 24.9441 54.4962 24.9441C54.5255 24.9441 54.557 24.9417 54.5911 24.937C54.625 24.9323 54.6567 24.9252 54.6857 24.9157C54.7538 24.9015 54.8 24.8684 54.8242 24.8163C54.8487 24.7595 54.8656 24.6861 54.8753 24.5961C54.885 24.473 54.8898 24.3547 54.8898 24.2411C54.8898 24.1274 54.8898 24.0446 54.8898 23.9925Z" fill="#778B8E"/>
<path d="M11.1977 29.5245H13.228V30.3037H11.1977V29.5245ZM11.2702 31.8319H10.2913V27.6365H13.4879V28.4157H11.2702V31.8319Z" fill="#778B8E"/>
<path d="M14.3923 31.8319V27.6365H16.2233C16.6019 27.6365 16.9282 27.6986 17.2022 27.8223C17.4761 27.9423 17.6876 28.1159 17.8367 28.3437C17.9857 28.5714 18.0602 28.8431 18.0602 29.1589C18.0602 29.4706 17.9857 29.7402 17.8367 29.9679C17.6876 30.1917 17.4761 30.3634 17.2022 30.4834C16.9282 30.6031 16.6019 30.6631 16.2233 30.6631H14.9362L15.3713 30.2375V31.8319H14.3923ZM17.0813 31.8319L16.0239 30.3095H17.0692L18.1388 31.8319H17.0813ZM15.3713 30.3455L14.9362 29.8901H16.1689C16.471 29.8901 16.6966 29.8261 16.8457 29.6983C16.9947 29.5663 17.0692 29.3866 17.0692 29.1589C17.0692 28.9271 16.9947 28.7474 16.8457 28.6194C16.6966 28.4917 16.471 28.4277 16.1689 28.4277H14.9362L15.3713 27.9663V30.3455Z" fill="#778B8E"/>
<path d="M19.9779 29.3266H22.0143V30.0818H19.9779V29.3266ZM20.0504 31.0527H22.3526V31.8319H19.0775V27.6365H22.2741V28.4157H20.0504V31.0527Z" fill="#778B8E"/>
<path d="M24.2736 29.3266H26.31V30.0818H24.2736V29.3266ZM24.3462 31.0527H26.6484V31.8319H23.3733V27.6365H26.5699V28.4157H24.3462V31.0527Z" fill="#778B8E"/>
<path d="M29.3611 31.7683V31.1325L31.9971 27.9725L32.1186 28.3296H29.4097V27.5304H32.9954V28.1661L30.3656 31.3264L30.2438 30.9691H33.0865V31.7683H29.3611Z" fill="#778B8E"/>
<path d="M35.9906 31.8411C35.6537 31.8411 35.3413 31.7864 35.0533 31.6776C34.7691 31.5686 34.5215 31.4152 34.3105 31.2174C34.1037 31.0198 33.9413 30.7875 33.8235 30.5214C33.7101 30.255 33.6531 29.9643 33.6531 29.6494C33.6531 29.3347 33.7101 29.044 33.8235 28.7776C33.9413 28.5112 34.1056 28.2792 34.3166 28.0814C34.5277 27.8838 34.7753 27.7304 35.0593 27.6214C35.3434 27.5123 35.6518 27.4579 35.9847 27.4579C36.3213 27.4579 36.63 27.5123 36.9099 27.6214C37.1941 27.7304 37.4395 27.8838 37.6466 28.0814C37.8574 28.2792 38.0219 28.5112 38.1394 28.7776C38.2572 29.04 38.3161 29.3307 38.3161 29.6494C38.3161 29.9643 38.2572 30.2568 38.1394 30.5272C38.0219 30.7936 37.8574 31.0256 37.6466 31.2235C37.4395 31.4171 37.1941 31.5686 36.9099 31.6776C36.63 31.7864 36.3235 31.8411 35.9906 31.8411ZM35.9847 31.0056C36.1753 31.0056 36.3498 30.9734 36.5082 30.9086C36.6703 30.844 36.8125 30.7512 36.9343 30.6302C37.0559 30.5091 37.1494 30.3659 37.2142 30.2003C37.2833 30.035 37.3177 29.8512 37.3177 29.6494C37.3177 29.4478 37.2833 29.264 37.2142 29.0984C37.1494 28.9331 37.0559 28.7899 36.9343 28.6688C36.8166 28.5475 36.6765 28.4547 36.5141 28.3902C36.352 28.3256 36.1753 28.2934 35.9847 28.2934C35.7938 28.2934 35.6174 28.3256 35.455 28.3902C35.2967 28.4547 35.1569 28.5475 35.0351 28.6688C34.9133 28.7899 34.8178 28.9331 34.749 29.0984C34.6839 29.264 34.6514 29.4478 34.6514 29.6494C34.6514 29.8472 34.6839 30.031 34.749 30.2003C34.8178 30.3659 34.9111 30.5091 35.0289 30.6302C35.1507 30.7512 35.2926 30.844 35.455 30.9086C35.6174 30.9734 35.7938 31.0056 35.9847 31.0056Z" fill="#778B8E"/>
<path d="M39.3005 31.7683V27.5304H40.1163L42.6305 30.5819H42.2347V27.5304H43.2088V31.7683H42.399L39.8789 28.7171H40.2746V31.7683H39.3005Z" fill="#778B8E"/>
<path d="M45.3673 29.2379H47.4188V30.0005H45.3673V29.2379ZM45.4405 30.9813H47.7597V31.7683H44.4604V27.5304H47.6807V28.3176H45.4405V30.9813Z" fill="#778B8E"/>
</g>
</g>
<defs>
<clipPath id="clip0_5_811">
<rect width="57" height="32" fill="white" transform="translate(0.5)"/>
</clipPath>
<clipPath id="clip1_5_811">
<rect width="57" height="32" fill="white" transform="translate(0.5)"/>
</clipPath>
</defs>
</svg>
