<svg width="151" height="32" viewBox="0 0 151 32" fill="none" xmlns="http://www.w3.org/2000/svg">
<g clip-path="url(#clip0_5_727)">
<g clip-path="url(#clip1_5_727)">
<path d="M123.322 0.624146C123.322 0.624146 123.209 0.624142 123.209 0.727423V3.54044C123.209 3.55491 123.212 3.56921 123.218 3.58241C123.224 3.59562 123.233 3.60744 123.243 3.61715C123.254 3.62686 123.267 3.63424 123.28 3.63882C123.294 3.64339 123.308 3.64506 123.322 3.64373H143.454C143.524 3.64107 143.591 3.61561 143.645 3.57123L146.831 0.69663C146.831 0.69663 146.911 0.624146 146.797 0.624146H123.322Z" fill="#778B8E"/>
<path d="M123.322 6.66724C123.322 6.66724 123.209 6.66724 123.209 6.77053V9.58355C123.209 9.59799 123.212 9.61228 123.218 9.62551C123.224 9.63874 123.233 9.65054 123.243 9.66028C123.254 9.66995 123.267 9.67735 123.28 9.6819C123.294 9.68645 123.308 9.68816 123.322 9.68681H136.776C136.846 9.68396 136.914 9.65857 136.968 9.61434L140.154 6.73973C140.154 6.73973 140.233 6.66724 140.12 6.66724H123.322Z" fill="#778B8E"/>
<path d="M123.322 12.7128C123.322 12.7128 123.209 12.7128 123.209 12.8161V15.6291C123.209 15.6435 123.212 15.6578 123.218 15.6711C123.224 15.6843 123.233 15.6961 123.243 15.7058C123.254 15.7155 123.267 15.7229 123.28 15.7275C123.294 15.732 123.308 15.7337 123.322 15.7324H130.074C130.144 15.73 130.211 15.7045 130.266 15.6599L133.45 12.7853C133.45 12.7853 133.53 12.7128 133.417 12.7128H123.322Z" fill="#778B8E"/>
<path d="M123.209 27.9854C123.209 27.9998 123.212 28.0141 123.218 28.0273C123.224 28.0405 123.233 28.0524 123.243 28.062C123.254 28.0718 123.267 28.0792 123.28 28.0837C123.294 28.0883 123.308 28.09 123.322 28.0886H150.386C150.386 28.0886 150.5 28.0886 150.5 27.9854V25.1723C150.5 25.1579 150.496 25.1436 150.491 25.1304C150.485 25.1172 150.477 25.1053 150.466 25.0956C150.455 25.0859 150.443 25.0786 150.429 25.074C150.415 25.0694 150.401 25.0677 150.386 25.0691H123.322C123.322 25.0691 123.209 25.0691 123.209 25.1723V27.9854Z" fill="#778B8E"/>
<path d="M123.322 18.7585C123.322 18.7585 123.209 18.7585 123.209 18.8618V21.9334C123.209 21.9334 123.209 22.0366 123.308 21.9642L126.78 18.831C126.78 18.831 126.861 18.7585 126.748 18.7585H123.322Z" fill="#778B8E"/>
<path d="M128.02 21.9422C128.02 21.9422 127.941 22.0146 128.054 22.0146H132.557C132.627 22.0122 132.695 21.9867 132.749 21.9422L150.417 6.00061C150.465 5.95495 150.493 5.89279 150.497 5.82677V1.76216C150.497 1.76216 150.497 1.6608 150.417 1.73265L128.02 21.9422Z" fill="#778B8E"/>
<path d="M137.483 21.9586C137.483 21.9586 137.403 22.0312 137.517 22.0312H142.021C142.091 22.0287 142.158 22.0033 142.213 21.9586L150.416 14.5556C150.465 14.5097 150.494 14.4467 150.497 14.3799V10.3153C150.497 10.3153 150.497 10.2139 150.416 10.2857L137.483 21.9586Z" fill="#778B8E"/>
<path d="M146.945 21.9633C146.945 21.9633 146.865 22.0358 146.979 22.0358H150.384C150.384 22.0358 150.499 22.0359 150.499 21.9345V18.8597C150.499 18.8597 150.499 18.7584 150.418 18.8302L146.945 21.9633Z" fill="#778B8E"/>
<path d="M0.5 28.0862H2.31978L3.46871 25.0159H8.11483L9.26375 28.0862H11.1697L6.79741 17.1331H4.87232L0.5 28.0862ZM3.9953 23.5866L5.77358 18.8016L7.56975 23.5866H3.9953ZM15.0588 28.0842H16.7069V24.1069C16.6788 23.5675 16.8387 23.0351 17.1588 22.6013C17.3062 22.4195 17.4937 22.2747 17.7064 22.1785C17.9192 22.0823 18.1513 22.0373 18.3844 22.047C18.5935 22.0291 18.804 22.0623 18.9975 22.1438C19.1912 22.2253 19.3623 22.3528 19.4963 22.5153C19.7645 22.9531 19.8874 23.4653 19.8473 23.9779V28.0836H21.4973V24.1204C21.4646 23.576 21.6187 23.0368 21.9339 22.5929C22.0812 22.4115 22.2689 22.2674 22.4817 22.1723C22.6946 22.0771 22.9268 22.0335 23.1594 22.0451C23.3691 22.0294 23.5795 22.0645 23.7729 22.1473C23.9664 22.2301 24.1373 22.3583 24.2713 22.5211C24.5471 22.9534 24.6757 23.4639 24.6378 23.976V28.0817H26.2858V23.6764C26.3304 22.8456 26.0691 22.0274 25.5518 21.3779C25.296 21.1028 24.9826 20.8881 24.6342 20.7497C24.2858 20.6112 23.9111 20.5524 23.5373 20.5773C23.0374 20.5707 22.5441 20.6921 22.1037 20.9301C21.69 21.1501 21.3509 21.4888 21.1297 21.9033C20.9383 21.4949 20.6321 21.152 20.2488 20.9167C19.8472 20.6886 19.3926 20.5716 18.9314 20.5773C18.4507 20.5653 17.9742 20.6694 17.5418 20.8808C17.163 21.0685 16.852 21.3704 16.652 21.7442L16.6367 20.8082H15.0601L15.0588 28.0842ZM33.4501 27.0899L33.4807 28.0842H35.0725V20.8082H33.4845L33.4539 21.8167C33.204 21.4225 32.8505 21.1055 32.4326 20.9006C31.9153 20.6554 31.3445 20.5466 30.7738 20.5845C30.2031 20.6225 29.6515 20.8059 29.1709 21.1174C28.6355 21.4713 28.2026 21.9611 27.916 22.5371C27.6167 23.1309 27.4635 23.7883 27.4692 24.4539C27.4544 25.1581 27.6095 25.8554 27.9211 26.4862C28.1952 27.0453 28.622 27.5144 29.1515 27.8385C29.6811 28.1628 30.2916 28.3288 30.9115 28.3171C31.4047 28.3569 31.8995 28.2644 32.3455 28.0491C32.7915 27.8339 33.1726 27.5035 33.4501 27.0918M29.7428 26.1616C29.3267 25.6881 29.1084 25.0717 29.1332 24.4404C29.1069 23.8094 29.3287 23.1933 29.7505 22.7251C29.9566 22.5149 30.2023 22.348 30.4731 22.2341C30.744 22.1201 31.0347 22.0615 31.3283 22.0615C31.622 22.0615 31.9127 22.1201 32.1835 22.2341C32.4544 22.348 32.7001 22.5149 32.9062 22.7251C33.3258 23.1944 33.5461 23.81 33.5202 24.4404C33.5455 25.0715 33.3276 25.688 32.912 26.1616C32.7054 26.3737 32.4589 26.5422 32.1867 26.6573C31.9146 26.7723 31.6223 26.8315 31.3271 26.8315C31.0318 26.8315 30.7395 26.7723 30.4674 26.6573C30.1952 26.5422 29.9493 26.3737 29.7428 26.1616ZM36.4277 28.0862H38.0802V24.1229C38.0471 23.5749 38.2101 23.0331 38.5398 22.5955C38.6992 22.4116 38.8982 22.2666 39.1217 22.1717C39.3453 22.0768 39.5875 22.0343 39.8298 22.0476C40.0416 22.0308 40.2544 22.0653 40.4503 22.1481C40.6462 22.2309 40.8195 22.3597 40.9557 22.5236C41.2321 22.9556 41.3608 23.4664 41.3221 23.9786V28.0842H42.9702V23.6764C43.0148 22.8456 42.7535 22.0274 42.2362 21.3779C41.9825 21.1037 41.6714 20.8896 41.3253 20.7511C40.9792 20.6127 40.6068 20.5533 40.2351 20.5773C39.7634 20.5676 39.2964 20.6716 38.873 20.8808C38.4951 21.0694 38.1848 21.3711 37.9844 21.7442L37.9704 20.8082H36.4302L36.4277 28.0862ZM47.9125 28.0862H49.7061V23.4885H54.0095V21.9752H49.7093V18.647H54.6988V17.1331H47.9156L47.9125 28.0862ZM55.3167 28.0862H56.9737V24.656C56.9379 24.0252 57.109 23.4001 57.4607 22.8765C57.6189 22.6665 57.8256 22.4983 58.0629 22.3866C58.3002 22.2748 58.561 22.2228 58.8228 22.2349C59.1186 22.2326 59.4117 22.2914 59.6839 22.4075L59.8416 20.8512C59.7077 20.7981 59.5687 20.7594 59.4267 20.7358C59.2848 20.7088 59.1408 20.6944 58.9965 20.6927C58.5584 20.6847 58.1272 20.8046 57.7556 21.0379C57.387 21.2819 57.0957 21.627 56.9163 22.0323L56.9022 20.8082H55.3225L55.3167 28.0862ZM65.8198 28.1503C66.2587 28.0576 66.6829 27.9048 67.0805 27.6961L66.9088 26.3996C66.1495 26.7726 65.3149 26.9649 64.4698 26.9616C63.8342 26.9922 63.2062 26.8118 62.6826 26.4484C62.4545 26.2748 62.2629 26.0576 62.1188 25.8092C61.9747 25.5608 61.8811 25.2862 61.8432 25.0011H67.1864C67.2334 24.7296 67.2535 24.4542 67.2464 24.1787C67.2605 23.5139 67.1122 22.8557 66.8143 22.2619C66.5466 21.7345 66.1297 21.2985 65.6162 21.0084C65.0783 20.7137 64.4734 20.5647 63.8609 20.576C63.1848 20.5622 62.5186 20.7402 61.9384 21.0893C61.3899 21.4228 60.9455 21.9045 60.656 22.4793C60.3472 23.0957 60.1921 23.7782 60.2041 24.468C60.1863 25.1899 60.3654 25.9029 60.7217 26.5298C61.059 27.1107 61.5632 27.5755 62.1681 27.8629C62.8467 28.1775 63.5875 28.3328 64.3345 28.3171C64.8366 28.3176 65.3371 28.2619 65.8268 28.1509M61.8394 23.7477C61.8811 23.2264 62.1047 22.7368 62.4707 22.3652C62.833 22.031 63.3121 21.8544 63.8035 21.8737C64.043 21.8606 64.2827 21.8975 64.5073 21.9821C64.732 22.0666 64.9367 22.1971 65.1087 22.3652C65.4461 22.7463 65.6344 23.2375 65.6386 23.7477H61.8394ZM73.7594 28.1509C74.1995 28.0591 74.6241 27.9062 75.0224 27.6968L74.8505 26.4003C74.0913 26.7734 73.2564 26.9657 72.4116 26.9622C71.7769 26.9923 71.1505 26.812 70.6281 26.449C70.3997 26.2756 70.2078 26.0584 70.0634 25.81C69.9189 25.5616 69.825 25.2869 69.7868 25.0018H75.1243C75.1667 24.7299 75.1851 24.4546 75.1788 24.1794C75.195 23.5145 75.0479 22.856 74.7486 22.2625C74.4818 21.7353 74.0658 21.2992 73.5528 21.009C73.0151 20.7141 72.4101 20.5652 71.7974 20.5767C71.1213 20.5629 70.4551 20.7408 69.8749 21.0899C69.3264 21.4239 68.8818 21.9054 68.5913 22.48C68.2832 23.0966 68.1282 23.7789 68.1394 24.4687C68.122 25.1904 68.3005 25.9031 68.6558 26.5305C68.9943 27.1119 69.5001 27.5766 70.1066 27.8636C70.7838 28.1784 71.5236 28.3338 72.2701 28.3178C72.771 28.3184 73.2712 28.2627 73.7601 28.1516M69.774 23.7482C69.8157 23.2271 70.0393 22.7374 70.4053 22.3658C70.7678 22.0319 71.2468 21.8553 71.738 21.8745C71.9778 21.8612 72.217 21.8981 72.442 21.9827C72.6663 22.0672 72.8715 22.1977 73.0434 22.3658C73.3816 22.7467 73.5705 23.2379 73.5748 23.7482H69.774ZM79.1955 28.0868H87.8297V26.5735H81.3889L87.7264 18.5027V17.1331H79.5366V18.647H85.5175L79.1934 26.7178L79.1955 28.0868ZM94.308 27.7834C94.8847 27.4454 95.3601 26.958 95.6856 26.372C96.0111 25.7655 96.1788 25.0858 96.1724 24.3966C96.166 23.7073 95.9856 23.0309 95.6488 22.4306C95.3149 21.8548 94.8316 21.3812 94.25 21.061C93.6564 20.7362 92.9899 20.5696 92.3134 20.5773C91.613 20.5678 90.9231 20.752 90.3203 21.1097C89.7436 21.4476 89.2689 21.935 88.9448 22.5211C88.6186 23.1064 88.4502 23.7671 88.4559 24.4379C88.4453 25.1453 88.6257 25.8423 88.9781 26.4548C89.3099 27.0339 89.7932 27.5101 90.3762 27.8315C90.9698 28.1563 91.637 28.3228 92.3127 28.3152C93.0132 28.3242 93.7031 28.1394 94.3059 27.7808M90.7264 26.1597C90.3111 25.6861 90.0932 25.0696 90.1186 24.4385C90.0925 23.8078 90.3132 23.1919 90.7342 22.7232C90.9401 22.5129 91.1856 22.346 91.4566 22.232C91.7276 22.1181 92.0177 22.0594 92.3113 22.0594C92.6049 22.0594 92.8958 22.1181 93.1667 22.232C93.437 22.346 93.6826 22.5129 93.8892 22.7232C94.3109 23.1914 94.5323 23.8075 94.5061 24.4385C94.5323 25.07 94.3137 25.6871 93.8962 26.1597C93.6896 26.3718 93.4434 26.5403 93.171 26.6553C92.8993 26.7704 92.6071 26.8296 92.3113 26.8296C92.0163 26.8296 91.7241 26.7704 91.4517 26.6553C91.18 26.5403 90.933 26.3718 90.7264 26.1597ZM97.371 28.0842H99.021V24.121C98.9877 23.5733 99.1505 23.0318 99.4788 22.5935C99.6387 22.4095 99.8375 22.2644 100.062 22.1695C100.285 22.0746 100.528 22.0323 100.77 22.0457C100.982 22.0292 101.195 22.0638 101.39 22.1466C101.586 22.2294 101.758 22.358 101.895 22.5217C102.172 22.9535 102.301 23.4644 102.262 23.9766V28.0823H103.912V23.6764C103.956 22.8456 103.694 22.0276 103.177 21.3779C102.924 21.1038 102.613 20.8898 102.267 20.7513C101.921 20.6128 101.548 20.5534 101.177 20.5773C100.705 20.5672 100.238 20.6713 99.8149 20.8808C99.437 21.0698 99.1264 21.3713 98.9248 21.7442L98.9106 20.8082H97.371V28.0842ZM110.688 28.1484C111.127 28.0562 111.552 27.9034 111.949 27.6942L111.777 26.3977C111.018 26.7707 110.184 26.963 109.339 26.9597C108.704 26.9898 108.076 26.8096 107.552 26.4465C107.325 26.2726 107.133 26.0552 106.989 25.8069C106.846 25.5585 106.752 25.284 106.714 24.9992H112.048C112.093 24.7275 112.112 24.4521 112.105 24.1768C112.12 23.5123 111.972 22.8543 111.676 22.26C111.408 21.733 110.991 21.297 110.478 21.0065C109.94 20.7115 109.334 20.5625 108.721 20.5741C108.045 20.5603 107.379 20.7382 106.8 21.0873C106.251 21.4208 105.806 21.9025 105.516 22.4774C105.207 23.0937 105.052 23.7762 105.064 24.4661C105.046 25.188 105.225 25.901 105.581 26.5279C105.92 27.1089 106.424 27.5735 107.029 27.861C107.707 28.1757 108.448 28.331 109.194 28.3152C109.696 28.3158 110.197 28.2601 110.686 28.149M106.699 23.7457C106.742 23.2247 106.966 22.7355 107.331 22.3633C107.694 22.0287 108.174 21.852 108.666 21.8718C108.905 21.8589 109.144 21.8958 109.368 21.9804C109.592 22.065 109.797 22.1953 109.969 22.3633C110.306 22.7446 110.495 23.2355 110.5 23.7457H106.699Z" fill="#778B8E"/>
<path d="M44.3557 10.1775H42.908C42.7375 10.1919 42.566 10.1667 42.4066 10.104C42.2473 10.0413 42.1044 9.94263 41.9889 9.81569C41.7673 9.47784 41.6644 9.07521 41.6965 8.67187V0.624146H40.1289V8.71226C40.1289 10.6202 40.9959 11.5743 42.7299 11.5747H43.0165L44.3557 10.1775Z" fill="#778B8E"/>
<path d="M4.20999 11.7933C3.56786 11.8011 2.93449 11.6432 2.37043 11.3346C1.81687 11.0294 1.35739 10.5771 1.04214 10.0273C0.72257 9.45788 0.551852 8.81632 0.545936 8.16259C0.540019 7.50887 0.699099 6.86435 1.00831 6.28919C1.31747 5.73282 1.7693 5.26986 2.31681 4.94844C2.88942 4.60757 3.54454 4.4322 4.20999 4.44165C4.85193 4.43417 5.48513 4.59161 6.04955 4.89904C6.60112 5.20416 7.06013 5.65374 7.37785 6.20002C7.71358 6.77941 7.88531 7.44003 7.87441 8.11047C7.88042 8.7521 7.72101 9.38442 7.41167 9.94578C7.10251 10.5021 6.65068 10.9652 6.10317 11.2866C5.53058 11.6275 4.87544 11.8028 4.20999 11.7933ZM4.20999 10.382C4.49177 10.3916 4.77228 10.3399 5.03222 10.2301C5.29216 10.1204 5.52535 9.9553 5.71573 9.74631C6.11112 9.29603 6.31849 8.70986 6.29466 8.10983C6.31919 7.51058 6.10853 6.92563 5.70806 6.481C5.51776 6.27428 5.28557 6.11097 5.02715 6.00208C4.76873 5.89319 4.49008 5.84125 4.20999 5.84976C3.9299 5.84125 3.65125 5.89319 3.39283 6.00208C3.1344 6.11097 2.90221 6.27428 2.71191 6.481C2.31145 6.92563 2.10079 7.51058 2.12532 8.10983C2.10149 8.70986 2.30886 9.29603 2.70426 9.74631C2.89464 9.9553 3.12782 10.1204 3.38776 10.2301C3.64769 10.3399 3.92821 10.3916 4.20999 10.382Z" fill="#778B8E"/>
<path d="M23.4597 0.609863H21.8927V11.5726H23.4597V0.609863Z" fill="#778B8E"/>
<path d="M26.2002 0.609863H24.6332V11.5726H26.2002V0.609863Z" fill="#778B8E"/>
<path d="M34.3631 15.0511C33.7635 15.0878 33.1628 15.0004 32.5982 14.7944C32.0335 14.5884 31.5169 14.2681 31.0803 13.8534C30.6722 13.3999 30.3583 12.8689 30.1571 12.2918C29.9558 11.7147 29.8713 11.1029 29.9084 10.4925V8.11895H31.6121V10.3578C31.5486 11.2069 31.7985 12.0499 32.3142 12.7256C32.5818 13.0023 32.9064 13.2167 33.2652 13.3539C33.624 13.4911 34.0083 13.5477 34.3912 13.5198C34.775 13.5473 35.1602 13.4905 35.5199 13.3534C35.8797 13.2162 36.2055 13.002 36.4746 12.7256C37.0031 12.0552 37.2649 11.2113 37.2093 10.3578V4.66248H38.911V10.4944C38.9483 11.1058 38.8627 11.7186 38.6593 12.296C38.4559 12.8734 38.1388 13.4038 37.7269 13.8553C37.2802 14.2718 36.754 14.5928 36.1801 14.7986C35.6063 15.0045 34.9968 15.091 34.3886 15.053" fill="#778B8E"/>
<path d="M47.7168 11.7933C47.0746 11.8011 46.4412 11.6432 45.8771 11.3346C45.3236 11.0294 44.8641 10.5771 44.5488 10.0273C44.2293 9.45788 44.0586 8.81632 44.0526 8.16259C44.0468 7.50887 44.2058 6.86435 44.515 6.28919C44.8242 5.73282 45.276 5.26986 45.8236 4.94844C46.3961 4.60757 47.0513 4.4322 47.7168 4.44165C48.3586 4.43417 48.9919 4.59161 49.5563 4.89904C50.1078 5.20416 50.5669 5.65374 50.8846 6.20002C51.2203 6.77941 51.392 7.44003 51.3811 8.11047C51.3872 8.7521 51.2277 9.38442 50.9184 9.94578C50.6093 10.5021 50.1574 10.9652 49.6099 11.2866C49.0373 11.6275 48.3822 11.8028 47.7168 11.7933ZM47.7168 10.382C47.9985 10.3916 48.279 10.3399 48.5389 10.2301C48.7989 10.1204 49.0321 9.9553 49.2225 9.74631C49.6179 9.29603 49.8252 8.70986 49.8014 8.10983C49.8259 7.51058 49.6152 6.92563 49.2148 6.481C49.0192 6.28109 48.786 6.1223 48.5287 6.01391C48.2715 5.90553 47.9954 5.84971 47.7164 5.84971C47.4375 5.84971 47.1613 5.90553 46.9041 6.01391C46.6468 6.1223 46.4136 6.28109 46.218 6.481C45.8176 6.92563 45.6069 7.51058 45.6314 8.10983C45.6076 8.70986 45.8149 9.29603 46.2103 9.74631C46.4007 9.9553 46.6339 10.1204 46.8939 10.2301C47.1538 10.3399 47.4349 10.3916 47.7168 10.382Z" fill="#778B8E"/>
<path d="M105.294 10.1778H103.846C103.676 10.1921 103.505 10.167 103.345 10.1042C103.186 10.0415 103.043 9.94289 102.927 9.81596C102.706 9.47811 102.603 9.07555 102.635 8.67221V4.65955H101.068V8.71196C101.068 10.6198 101.935 11.574 103.669 11.5744H103.89L105.294 10.1778Z" fill="#778B8E"/>
<path d="M68.2009 10.1859H52.6055C52.4347 10.2001 52.2631 10.175 52.1035 10.1123C51.944 10.0495 51.8008 9.95097 51.6851 9.82411C51.4635 9.48619 51.3606 9.08363 51.3927 8.68029V8.12598H49.8251V8.72004C49.8251 10.6279 50.6927 11.582 52.428 11.5825H68.2009V10.1859Z" fill="#778B8E"/>
<path d="M84.391 11.5738H100.023C101.758 11.5738 102.626 10.6202 102.626 8.71324V4.65955H101.059V8.67221C101.091 9.0752 100.988 9.47747 100.767 9.81475C100.651 9.94197 100.508 10.041 100.349 10.1039C100.19 10.1668 100.018 10.1921 99.8474 10.1778H83.5101L84.391 11.5738Z" fill="#778B8E"/>
<path d="M102.937 11.3309L103.895 11.5837C105.631 11.5837 106.498 10.6301 106.498 8.72314V8.11755H104.928V8.67947C104.96 9.08246 104.858 9.48481 104.635 9.82202C104.52 9.94959 104.378 10.0487 104.218 10.1117C104.059 10.1747 103.887 10.1998 103.716 10.1851H102.268L102.937 11.3309Z" fill="#778B8E"/>
<path d="M41.9564 11.1057L43.0121 11.5829C44.7461 11.5829 45.6138 10.6295 45.6151 8.7225V8.11755H44.0474V8.67947C44.0796 9.08246 43.9767 9.48466 43.7551 9.82202C43.6396 9.94945 43.4965 10.0484 43.337 10.1114C43.1774 10.1743 43.0055 10.1995 42.8346 10.1851H41.3864L41.9564 11.1057Z" fill="#778B8E"/>
<path d="M108.598 11.7933C107.957 11.8011 107.323 11.6432 106.759 11.3346C106.205 11.0294 105.745 10.5771 105.431 10.0273C105.111 9.45788 104.94 8.81632 104.935 8.16259C104.928 7.50887 105.087 6.86435 105.397 6.28919C105.706 5.73282 106.158 5.26986 106.705 4.94844C107.278 4.60757 107.933 4.4322 108.598 4.44165C109.24 4.43417 109.873 4.59161 110.438 4.89904C110.99 5.20416 111.448 5.65374 111.766 6.20002C112.102 6.77941 112.274 7.44003 112.263 8.11047C112.269 8.7521 112.109 9.38442 111.8 9.94578C111.491 10.5021 111.039 10.9652 110.492 11.2866C109.919 11.6275 109.264 11.8028 108.598 11.7933ZM108.598 10.382C108.88 10.3916 109.161 10.3399 109.42 10.2301C109.681 10.1204 109.914 9.9553 110.104 9.74631C110.499 9.29603 110.707 8.70986 110.683 8.10983C110.708 7.51086 110.497 6.92621 110.097 6.48165C109.902 6.28173 109.668 6.12294 109.411 6.01455C109.154 5.90617 108.878 5.85035 108.599 5.85035C108.32 5.85035 108.044 5.90617 107.786 6.01455C107.529 6.12294 107.296 6.28173 107.1 6.48165C106.7 6.92628 106.489 7.51122 106.514 8.11047C106.49 8.7105 106.697 9.29667 107.093 9.74695C107.283 9.95594 107.516 10.121 107.776 10.2307C108.036 10.3405 108.317 10.3917 108.598 10.382Z" fill="#778B8E"/>
<path d="M83.6438 10.1782H80.6948C80.5059 10.2033 80.3134 10.1837 80.1337 10.1209C79.9533 10.058 79.7905 9.9538 79.6575 9.81641C79.4353 9.47892 79.332 9.07607 79.3653 8.67259V3.48474H77.7974V8.71497C77.7974 10.6228 78.6655 11.577 80.4004 11.5774H84.8983L83.6438 10.1782Z" fill="#778B8E"/>
<path d="M64.006 11.3215C63.4513 11.0462 62.9893 10.6129 62.6777 10.0758C62.3487 9.4893 62.1842 8.8242 62.2016 8.1512C62.1907 7.49428 62.3502 6.84584 62.6643 6.26966C62.9722 5.71868 63.4275 5.26534 63.9786 4.96098C64.5872 4.63203 65.2702 4.46715 65.9611 4.48242C66.3441 4.48296 66.7257 4.52904 67.0979 4.6197C67.4462 4.6996 67.783 4.82376 68.1 4.9892L67.8964 6.3306C67.6176 6.1796 67.3198 6.06718 67.0111 5.99638C66.6976 5.91978 66.3763 5.88059 66.0537 5.87962C65.7514 5.86494 65.4492 5.91131 65.1651 6.01599C64.8809 6.12066 64.6205 6.28152 64.3992 6.48906C63.9987 6.93921 63.7778 7.52223 63.779 8.1261C63.7801 8.73005 64.0033 9.31216 64.4056 9.76073C64.878 10.1781 65.4946 10.3921 66.1226 10.3567C66.7035 10.3567 64.5722 11.6102 64.0041 11.319" fill="#778B8E"/>
<path d="M83.1698 11.3359C82.6165 11.031 82.1566 10.5787 81.8418 10.0285C81.5219 9.45909 81.3514 8.8176 81.3458 8.16387C81.3394 7.51015 81.4986 6.86561 81.8078 6.29045C82.1163 5.73386 82.567 5.27078 83.1146 4.94969C83.6877 4.60835 84.3436 4.43253 85.0094 4.44162C85.6512 4.43462 86.2837 4.5925 86.8477 4.90029C87.4002 5.20452 87.8594 5.65431 88.1764 6.20127C88.5118 6.78067 88.6837 7.44131 88.6731 8.11168V10.9081L87.0939 10.6309V8.10912C87.1186 7.50922 86.9078 6.92348 86.5073 6.47841C86.3113 6.27894 86.0785 6.12055 85.821 6.01243C85.5642 5.90432 85.2882 5.84864 85.0094 5.84864C84.7307 5.84864 84.4547 5.90432 84.1979 6.01243C83.941 6.12055 83.7076 6.27894 83.5123 6.47841C83.1111 6.92348 82.9002 7.50922 82.9257 8.10912C82.9017 8.70915 83.109 9.29539 83.5045 9.7456C83.7076 9.92679 83.9474 10.0605 84.2078 10.1369C84.4682 10.2134 84.7427 10.2306 85.0102 10.1876" fill="#778B8E"/>
<path d="M79.3569 4.4824C79.3569 5.17395 79.3689 7.44038 79.4078 8.1512C79.4135 8.79305 79.2536 9.42558 78.9437 9.98658C78.6352 10.5432 78.1845 11.0062 77.6368 11.3273C77.0644 11.6686 76.4093 11.8444 75.7435 11.8354C75.1017 11.8424 74.4685 11.6845 73.9045 11.3767C73.3505 11.0709 72.8913 10.6182 72.5758 10.068C72.256 9.4989 72.0854 8.85755 72.0798 8.20404C72.0734 7.55046 72.2326 6.90614 72.5418 6.33123C72.8503 5.77362 73.3024 5.30979 73.8508 4.98856C74.4232 4.64818 75.0784 4.47285 75.7435 4.48177H79.3958L79.3569 4.4824ZM77.9814 5.89372H75.7045C75.4251 5.88467 75.1463 5.93623 74.8873 6.04493C74.6291 6.15362 74.397 6.3169 74.2067 6.52369C73.8069 6.9686 73.596 7.55337 73.6201 8.15248C73.596 8.75252 73.8034 9.33869 74.1989 9.78896C74.3956 9.99063 74.6298 10.1508 74.888 10.2602C75.147 10.3696 75.4243 10.4259 75.7052 10.4259C75.9854 10.4259 76.2635 10.3696 76.5225 10.2602C76.7807 10.1508 77.0149 9.99063 77.2109 9.78896C77.6043 9.33769 77.8102 8.75188 77.7854 8.15248" fill="#778B8E"/>
<path d="M23.4595 10.2573H11.4749V11.5859H23.4595V10.2573Z" fill="#778B8E"/>
<path d="M22.2924 10.2573H10.1118V11.5859H22.2924V10.2573Z" fill="#778B8E"/>
<path d="M3.6702 2.30049C3.76228 2.20833 3.83455 2.09813 3.88253 1.97675C3.93051 1.85537 3.95318 1.72538 3.94913 1.59483C3.95912 1.45884 3.93931 1.32232 3.89112 1.19485C3.84293 1.06739 3.76751 0.952099 3.6702 0.857094C3.57724 0.76679 3.46721 0.696132 3.34661 0.649303C3.22601 0.602473 3.0973 0.580418 2.96807 0.584453C2.83885 0.580454 2.71015 0.602524 2.58955 0.649352C2.46896 0.696179 2.35892 0.766819 2.26595 0.857094C2.16863 0.952099 2.09322 1.06739 2.04503 1.19485C1.99683 1.32232 1.97703 1.45884 1.98701 1.59483C1.98322 1.72526 2.00598 1.8551 2.05391 1.97638C2.10184 2.09766 2.17392 2.2078 2.26572 2.30007C2.35754 2.39234 2.46713 2.46479 2.5878 2.51295C2.70846 2.56112 2.83766 2.58401 2.96743 2.58019C3.09733 2.58426 3.22667 2.56148 3.34744 2.51326C3.46822 2.46504 3.57786 2.3924 3.66955 2.29985" fill="#778B8E"/>
<path d="M6.17935 2.30026C6.27144 2.20809 6.34371 2.09791 6.39169 1.97652C6.43967 1.85513 6.46234 1.72514 6.45829 1.59459C6.46827 1.45861 6.44847 1.32208 6.40028 1.19462C6.35209 1.06716 6.27668 0.951864 6.17935 0.85686C5.98724 0.681282 5.73689 0.583984 5.47723 0.583984C5.21756 0.583984 4.96722 0.681282 4.7751 0.85686C4.67779 0.951864 4.60237 1.06716 4.55418 1.19462C4.50599 1.32208 4.48619 1.45861 4.49617 1.59459C4.4985 1.78937 4.55751 1.97921 4.66593 2.14066C4.77435 2.30212 4.92743 2.42815 5.10628 2.50319C5.28513 2.57823 5.48194 2.599 5.67239 2.56294C5.86286 2.52688 6.03865 2.43556 6.17808 2.30026" fill="#778B8E"/>
<path d="M75.1512 2.30026C75.2432 2.20809 75.3153 2.09791 75.3635 1.97652C75.4116 1.85513 75.4342 1.72514 75.43 1.59459C75.4399 1.45861 75.4201 1.32208 75.3719 1.19462C75.3238 1.06716 75.2481 0.951864 75.1512 0.85686C74.9587 0.681282 74.7083 0.583984 74.4486 0.583984C74.1889 0.583984 73.9392 0.681282 73.7467 0.85686C73.6498 0.951864 73.5741 1.06716 73.526 1.19462C73.4778 1.32208 73.458 1.45861 73.4679 1.59459C73.4701 1.78937 73.5295 1.97921 73.6377 2.14066C73.746 2.30212 73.8988 2.42815 74.0778 2.50319C74.2569 2.57823 74.4536 2.599 74.6439 2.56294C74.8342 2.52688 75.0104 2.43556 75.1498 2.30026" fill="#778B8E"/>
<path d="M77.663 2.30026C77.755 2.20809 77.8272 2.09791 77.8753 1.97652C77.9234 1.85513 77.946 1.72514 77.9418 1.59459C77.9517 1.45861 77.9319 1.32208 77.8838 1.19462C77.8357 1.06716 77.76 0.951864 77.663 0.85686C77.4706 0.681282 77.2208 0.583984 76.9611 0.583984C76.7015 0.583984 76.451 0.681282 76.2585 0.85686C76.1616 0.951864 76.0859 1.06716 76.0378 1.19462C75.9897 1.32208 75.9699 1.45861 75.9798 1.59459C75.9819 1.78937 76.0413 1.97921 76.1496 2.14066C76.2578 2.30212 76.4114 2.42815 76.5897 2.50319C76.7687 2.57823 76.9654 2.599 77.1557 2.56294C77.3468 2.52688 77.5222 2.43556 77.6616 2.30026" fill="#778B8E"/>
<path d="M84.4901 2.30026C84.582 2.20809 84.6542 2.09791 84.7023 1.97652C84.7504 1.85513 84.7731 1.72514 84.7688 1.59459C84.7787 1.45861 84.7589 1.32208 84.7108 1.19462C84.6627 1.06716 84.587 0.951864 84.4901 0.85686C84.2976 0.681282 84.0471 0.583984 83.7875 0.583984C83.5278 0.583984 83.278 0.681282 83.0856 0.85686C82.9879 0.951864 82.9129 1.06716 82.8648 1.19462C82.8167 1.32208 82.7969 1.45861 82.8068 1.59459C82.8089 1.78937 82.8677 1.97921 82.9766 2.14066C83.0849 2.30212 83.2377 2.42815 83.4167 2.50319C83.5957 2.57823 83.7924 2.599 83.9827 2.56294C84.1731 2.52688 84.3493 2.43556 84.4886 2.30026" fill="#778B8E"/>
<path d="M87.0047 2.30026C87.0967 2.20809 87.1689 2.09791 87.217 1.97652C87.2651 1.85513 87.2877 1.72514 87.2835 1.59459C87.2934 1.45861 87.2736 1.32208 87.2255 1.19462C87.1774 1.06716 87.1024 0.951864 87.0047 0.85686C86.813 0.681282 86.5625 0.583984 86.3028 0.583984C86.0432 0.583984 85.7927 0.681282 85.6002 0.85686C85.5033 0.951864 85.4276 1.06716 85.3795 1.19462C85.3314 1.32208 85.3115 1.45861 85.3215 1.59459C85.3236 1.78937 85.383 1.97921 85.4913 2.14066C85.5995 2.30212 85.7531 2.42815 85.9314 2.50319C86.1104 2.57823 86.3071 2.599 86.4981 2.56294C86.6884 2.52688 86.8639 2.43556 87.0033 2.30026" fill="#778B8E"/>
<path d="M34.9162 5.97653C35.0083 5.88436 35.0805 5.77417 35.1285 5.65279C35.1765 5.5314 35.1992 5.40141 35.1951 5.27086C35.2051 5.13488 35.1853 4.99835 35.1371 4.87088C35.0889 4.74343 35.0135 4.62813 34.9162 4.53313C34.7241 4.35755 34.4737 4.26025 34.2141 4.26025C33.9544 4.26025 33.7041 4.35755 33.5119 4.53313C33.4146 4.62813 33.3392 4.74343 33.291 4.87088C33.2428 4.99835 33.223 5.13488 33.233 5.27086C33.2353 5.46564 33.2943 5.65548 33.4027 5.81693C33.5112 5.97839 33.6642 6.10441 33.8431 6.17946C34.022 6.25449 34.2187 6.27527 34.4092 6.23921C34.5997 6.20314 34.7754 6.11182 34.9149 5.97653" fill="#778B8E"/>
<path d="M56.5503 14.7885C56.6424 14.6962 56.7147 14.5861 56.7627 14.4647C56.8106 14.3433 56.8333 14.2133 56.8292 14.0827C56.8392 13.9468 56.8194 13.8102 56.7712 13.6827C56.723 13.5553 56.6476 13.44 56.5503 13.345C56.3583 13.1693 56.1079 13.0719 55.8482 13.0719C55.5885 13.0719 55.3381 13.1693 55.1461 13.345C55.0488 13.44 54.9733 13.5553 54.9252 13.6827C54.877 13.8102 54.8572 13.9468 54.8671 14.0827C54.8695 14.2775 54.9285 14.4674 55.0369 14.6288C55.1453 14.7903 55.2984 14.9163 55.4773 14.9913C55.6561 15.0664 55.8529 15.0871 56.0434 15.0511C56.2338 15.015 56.4096 14.9237 56.5491 14.7885" fill="#778B8E"/>
<path d="M60.7258 10.4796C60.7913 10.1298 60.8236 9.7745 60.8222 9.41852C60.836 8.53674 60.6199 7.6667 60.1954 6.89483C59.7762 6.14988 59.1568 5.53853 58.4082 5.13068C57.5912 4.6732 56.6701 4.43669 55.735 4.44427C55.2093 4.44644 54.6862 4.51738 54.1789 4.65532C53.7018 4.77722 53.2442 4.96642 52.8199 5.21729L53.0803 6.56445C53.5322 6.33926 54.0035 6.15589 54.4884 6.01661C54.9073 5.90113 55.3396 5.84265 55.774 5.84275C56.3887 5.83188 56.9963 5.97754 57.5401 6.26615C58.0556 6.54595 58.48 6.96913 58.7624 7.48501C59.0684 8.05098 59.2224 8.68728 59.2092 9.33127C59.2118 9.66855 59.1743 10.005 59.0975 10.3333L60.7258 10.4796Z" fill="#778B8E"/>
<path d="M20.2524 10.4796C20.3179 10.1298 20.3501 9.7745 20.3487 9.41852C20.3625 8.53674 20.1464 7.6667 19.7219 6.89483C19.3027 6.14988 18.6834 5.53853 17.9347 5.13068C17.1178 4.6732 16.1967 4.43669 15.2615 4.44427C14.7359 4.44644 14.2128 4.51738 13.7054 4.65532C13.2283 4.77722 12.7708 4.96642 12.3464 5.21729L12.6069 6.56445C13.0587 6.33926 13.53 6.15589 14.015 6.01661C14.4338 5.90113 14.8662 5.84265 15.3004 5.84275C15.9153 5.83188 16.5229 5.97754 17.0666 6.26615C17.5821 6.54595 18.0065 6.96913 18.289 7.48501C18.5949 8.05098 18.7489 8.68728 18.7358 9.33127C18.7383 9.66855 18.7008 10.005 18.6241 10.3333L20.2524 10.4796Z" fill="#778B8E"/>
<path d="M101.843 2.58154C101.714 2.58526 101.584 2.56231 101.464 2.51411C101.343 2.46591 101.234 2.39347 101.142 2.30122C101.05 2.20897 100.978 2.09884 100.93 1.97761C100.883 1.85638 100.859 1.72659 100.864 1.59618C100.853 1.46019 100.873 1.32367 100.922 1.19621C100.97 1.06874 101.045 0.95345 101.142 0.858446C101.334 0.681914 101.584 0.583984 101.844 0.583984C102.105 0.583984 102.355 0.681914 102.546 0.858446C102.644 0.953386 102.719 1.06864 102.768 1.19609C102.816 1.32354 102.836 1.46011 102.826 1.59618C102.83 1.72656 102.806 1.85621 102.758 1.97728C102.71 2.09835 102.638 2.2083 102.546 2.30045C102.454 2.39261 102.344 2.46504 102.224 2.51336C102.104 2.56168 101.974 2.58488 101.845 2.58154" fill="#778B8E"/>
<path d="M99.1137 10.378V8.01473C99.1674 7.06516 98.8653 6.12987 98.2667 5.3929C97.9667 5.07105 97.6002 4.81899 97.1927 4.65434C96.7851 4.48968 96.3472 4.41641 95.9092 4.43962C95.0361 4.42301 94.1785 4.66872 93.4455 5.14528C92.7698 5.61183 92.1939 6.21025 91.7531 6.90494L91.7884 10.1766C91.7948 9.46219 91.9851 8.76161 92.341 8.14308C92.5816 7.73505 92.8703 7.35802 93.2021 7.02041C93.5262 6.68821 93.8983 6.40706 94.3059 6.18645C94.7106 5.96871 95.1634 5.85644 95.6226 5.85992C95.963 5.84985 96.3012 5.91557 96.6139 6.05237C96.8799 6.16528 97.1149 6.34138 97.2988 6.56558C97.5691 7.10187 97.6717 7.70803 97.5924 8.30408V10.2472" fill="#778B8E"/>
<path d="M91.7856 0.624146H90.2184V10.5258H91.7856V0.624146Z" fill="#778B8E"/>
<path d="M13.8718 18.0858C13.877 17.9485 13.8535 17.8116 13.8029 17.684C13.7521 17.5564 13.6754 17.4408 13.5775 17.3449C13.3762 17.1587 13.1126 17.0554 12.839 17.0554C12.5654 17.0554 12.3019 17.1587 12.1005 17.3449C12.0026 17.4408 11.9259 17.5564 11.8752 17.684C11.8245 17.8116 11.8011 17.9485 11.8063 18.0858C11.8028 18.2243 11.827 18.362 11.8773 18.4909C11.9277 18.6198 12.0032 18.7373 12.0994 18.8364C12.1957 18.9355 12.3106 19.0143 12.4376 19.0681C12.5645 19.1219 12.7009 19.1496 12.8387 19.1496C12.9765 19.1496 13.1129 19.1219 13.2399 19.0681C13.3668 19.0143 13.4818 18.9355 13.578 18.8364C13.6742 18.7373 13.7497 18.6198 13.8 18.4909C13.8504 18.362 13.8752 18.2243 13.8718 18.0858ZM12.0201 28.6938C12.0543 29.1179 11.946 29.5412 11.7124 29.896C11.5916 30.0309 11.4412 30.1359 11.2732 30.2027C11.1053 30.2694 10.9241 30.2962 10.7441 30.2809C10.4959 30.2832 10.2483 30.2536 10.0076 30.1931L10.582 31.7327C10.6848 31.7776 10.7857 31.748 10.8916 31.748C12.7175 31.748 13.6305 30.7441 13.6305 28.7362V20.8097H12.0214L12.0201 28.6938Z" fill="#778B8E"/>
<path d="M9.14947 11.9988C9.18393 12.4229 9.07561 12.8462 8.84183 13.201C8.72091 13.3358 8.57056 13.4408 8.40259 13.5075C8.23462 13.5743 8.05355 13.6011 7.87355 13.5859C7.62528 13.5877 7.37772 13.5578 7.13696 13.4967L7.71146 15.0363C7.81419 15.0825 7.91502 15.0517 8.02101 15.0517C9.84697 15.0517 10.7599 14.0478 10.7599 12.0398V4.66248H9.14947V11.9988Z" fill="#778B8E"/>
</g>
</g>
<defs>
<clipPath id="clip0_5_727">
<rect width="150" height="32" fill="white" transform="translate(0.5)"/>
</clipPath>
<clipPath id="clip1_5_727">
<rect width="150" height="32" fill="white" transform="translate(0.5)"/>
</clipPath>
</defs>
</svg>
