<svg width="87" height="32" viewBox="0 0 87 32" fill="none" xmlns="http://www.w3.org/2000/svg">
<g clip-path="url(#clip0_5_694)">
<g clip-path="url(#clip1_5_694)">
<path fill-rule="evenodd" clip-rule="evenodd" d="M40.1454 22.9879H43.1442V16.1054L47.7188 22.9879H51.2765L45.6857 15.3292L50.87 8.34314H47.4645L43.1442 14.7599V8.34314H40.1454V22.9879ZM52.1916 11.1376H55.0377V8.34314H52.1916V11.1376ZM52.1916 22.9879H55.0377V12.3795H52.1916V22.9879ZM65 12.3795H56.7659V14.6047H61.493L56.5119 20.8144V23.0396H65.1018V20.8144H60.0188L64.9492 14.6047V12.3795H65ZM72.6239 18.1753C72.5732 20.1935 71.811 21.1767 70.3368 21.1767C69.4221 21.1767 68.7612 20.6592 68.7612 19.9347C68.7612 19.1068 69.4728 18.6928 71.2516 18.4341L72.2175 18.2788L72.6239 18.1753ZM66.2705 15.6914H69.1677C69.2188 14.6564 69.8285 14.139 70.9469 14.139C72.1156 14.139 72.675 14.7599 72.675 16.2606C71.7092 16.3124 70.5401 16.5193 69.4221 16.6746C67.9986 16.9851 67.2871 17.2956 66.6774 17.9166C66.1691 18.4341 65.864 19.2103 65.864 19.9865C65.864 21.9012 67.3889 23.1949 69.5746 23.1949C71.2516 23.1949 72.3193 22.6256 73.0308 21.3319V21.7459C73.0308 22.1599 73.0308 22.3152 73.1322 22.9361H75.5212C75.3179 22.0564 75.2672 20.9697 75.2672 19.262V18.3823C75.2672 17.5026 75.2672 16.9851 75.3179 16.8298C75.3179 14.9152 75.064 14.0872 74.3013 13.311C73.5391 12.483 72.3193 12.069 70.8451 12.069C68.1511 12.069 66.423 13.4145 66.2705 15.6914ZM79.435 17.7095C79.435 15.7949 80.2483 14.5529 81.5696 14.5529C82.8912 14.5529 83.7045 15.7431 83.7045 17.6578C83.7045 19.5725 82.8405 20.8144 81.5188 20.8144C80.299 20.8662 79.435 19.5725 79.435 17.7095ZM86.5 8.34314H83.6534V13.725C82.993 12.6382 82.0779 12.1208 80.6548 12.1208C78.2152 12.1208 76.5378 14.3977 76.5378 17.7095C76.5378 20.9697 78.2659 23.2466 80.7566 23.2466C82.0779 23.2466 83.0944 22.6774 83.7553 21.5907V22.9879H86.4492V8.34314H86.5Z" fill="#778B8E"/>
<path fill-rule="evenodd" clip-rule="evenodd" d="M30.1832 12.5865C30.1832 12.5347 30.1832 12.4829 30.2848 12.4312L31.0981 12.2242C31.1489 12.2242 31.1997 12.2242 31.2506 12.3277C31.2506 12.3794 31.2506 12.4312 31.1489 12.4829L30.3357 12.6899C30.3357 12.6899 30.3357 12.6899 30.2848 12.6899C30.234 12.6382 30.1832 12.6382 30.1832 12.5865ZM28.6584 11.241C28.6584 11.2928 28.7092 11.3445 28.76 11.3445H28.8109L30.5898 10.6717C30.6406 10.6717 30.6915 10.5682 30.6406 10.5165C30.6406 10.4648 30.539 10.413 30.4882 10.4648L28.7092 11.1375C28.6584 11.0857 28.6584 11.1892 28.6584 11.241ZM27.1844 10.1543C27.1844 10.206 27.2352 10.206 27.286 10.206H27.3369L29.8274 8.86059C29.8783 8.80881 29.9291 8.75708 29.8783 8.70535C29.8274 8.65357 29.7766 8.60184 29.7258 8.65357L27.2352 9.99905C27.1844 9.99905 27.1336 10.1025 27.1844 10.1543ZM25.7612 9.27454C25.812 9.32631 25.812 9.32631 25.8629 9.32631C25.9137 9.32631 25.9137 9.32631 25.9137 9.32631L28.8617 7.25636C28.9125 7.20463 28.9125 7.1529 28.9125 7.04939C28.8617 6.99766 28.76 6.94588 28.7092 6.99766L25.7612 9.06756C25.7104 9.17107 25.7104 9.2228 25.7612 9.27454ZM24.3889 8.60184C24.4397 8.65357 24.4397 8.65357 24.4905 8.65357C24.5413 8.65357 24.5413 8.65357 24.5922 8.60184L27.7435 5.75569C27.7943 5.70395 27.7943 5.60045 27.7435 5.54871C27.6927 5.49694 27.591 5.49694 27.5402 5.54871L24.3889 8.39482C24.3381 8.4466 24.3381 8.55007 24.3889 8.60184ZM23.0674 8.08434C23.1182 8.08434 23.1182 8.13612 23.169 8.13612C23.2199 8.13612 23.2707 8.13612 23.2707 8.08434L26.422 4.41025C26.4728 4.35848 26.4728 4.25501 26.422 4.20323C26.3712 4.1515 26.2695 4.1515 26.2187 4.20323L23.0674 7.87737C22.9657 7.9291 22.9657 8.03261 23.0674 8.08434ZM21.7967 7.61862C21.8475 7.61862 21.8475 7.67035 21.8983 7.67035C21.9492 7.67035 22 7.67035 22 7.61862L24.9988 3.22003C25.0496 3.16828 25.0496 3.06479 24.948 3.01304C24.8971 2.96129 24.7955 2.96129 24.7447 3.06479L21.7459 7.46338C21.695 7.51511 21.7459 7.61862 21.7967 7.61862ZM20.5768 7.30814H20.6277C20.6785 7.30814 20.7293 7.25636 20.7801 7.20463L23.3723 2.23681C23.4231 2.13332 23.3723 2.08157 23.3215 2.02982C23.2199 1.97807 23.169 2.02982 23.1182 2.08157L20.526 7.1529C20.4752 7.20463 20.4752 7.30814 20.5768 7.30814ZM19.4078 7.10112H19.4586C19.5094 7.10112 19.6111 7.04939 19.6111 6.99766L21.695 1.40884C21.7459 1.30535 21.695 1.20185 21.5934 1.20185C21.4917 1.1501 21.39 1.20185 21.39 1.30535L19.3061 6.89415C19.2553 6.99766 19.3061 7.04939 19.4078 7.10112ZM18.2896 6.94588C18.3912 6.94588 18.4929 6.89415 18.4929 6.84241L19.9669 0.839617C19.9669 0.736117 19.9161 0.632622 19.8653 0.632622C19.7636 0.632622 19.6619 0.684371 19.6619 0.736117L18.1879 6.73891C18.1371 6.84241 18.1879 6.94588 18.2896 6.94588ZM17.1714 6.89415C17.273 6.89415 17.3747 6.84241 17.3747 6.73891L18.1371 0.477377C18.1371 0.373882 18.0863 0.270386 17.9846 0.270386C17.883 0.270386 17.7813 0.322134 17.7813 0.425631L17.0189 6.68713C16.9681 6.79064 17.0697 6.84241 17.1714 6.89415ZM15.8499 6.68713C15.8499 6.79064 15.9515 6.89415 16.0532 6.89415C16.1548 6.89415 16.2565 6.79064 16.2565 6.68713V0.736117C16.2565 0.632622 16.1548 0.529126 16.0532 0.529126C15.9515 0.529126 15.8499 0.632622 15.8499 0.736117V6.68713ZM14.7825 6.89415C14.7825 6.99766 14.8842 7.04939 14.9858 7.04939C15.0875 7.04939 15.1891 6.94588 15.1383 6.84241L14.5792 1.97807C14.5792 1.87458 14.4775 1.77108 14.3759 1.82283C14.2742 1.82283 14.1726 1.92632 14.2234 2.02982L14.7825 6.89415ZM13.6643 7.10112C13.6643 7.20463 13.7659 7.25636 13.8676 7.25636H13.9184C14.0201 7.20463 14.0709 7.10112 14.0709 6.99766L13.156 3.22003C13.1052 3.11653 13.0035 3.06479 12.9019 3.06479C12.8002 3.11653 12.7494 3.22003 12.7494 3.32353L13.6643 7.10112ZM12.5969 7.46338C12.6477 7.56689 12.6986 7.61862 12.8002 7.61862H12.8511C12.9527 7.56689 13.0035 7.46338 12.9527 7.35987L11.9362 4.56549C11.9362 4.41025 11.7837 4.35848 11.682 4.41025C11.5804 4.46198 11.5295 4.56549 11.5804 4.66896L12.5969 7.46338ZM11.6312 7.98083C11.682 8.03261 11.7329 8.08434 11.8345 8.08434C11.8853 8.08434 11.8853 8.08434 11.9362 8.03261C12.0378 7.98083 12.0887 7.82559 12.0378 7.72213L11.0213 5.80742C10.9705 5.70395 10.818 5.65218 10.7163 5.70395C10.6147 5.75569 10.5638 5.91093 10.6147 6.01444L11.6312 7.98083ZM10.6655 8.55007C10.7163 8.60184 10.7671 8.65357 10.8688 8.65357C10.9196 8.65357 10.9705 8.65357 10.9705 8.60184C11.0721 8.55007 11.0721 8.39482 11.0213 8.29136L10.208 7.04939C10.1572 6.94588 10.0047 6.94588 9.90309 6.99766C9.80143 7.04939 9.80143 7.20463 9.85226 7.30814L10.6655 8.55007ZM9.80143 9.27454C9.85226 9.32631 9.90309 9.37805 9.95387 9.37805C10.0047 9.37805 10.0555 9.37805 10.1064 9.32631C10.208 9.2228 10.208 9.1193 10.1064 9.01583L9.54728 8.34309C9.44562 8.23958 9.34396 8.23958 9.24231 8.34309C9.14065 8.4466 9.14065 8.60184 9.24231 8.65357L9.80143 9.27454ZM9.03899 10.1025C9.08982 10.1543 9.14065 10.1543 9.19148 10.1543C9.24231 10.1543 9.34396 10.1025 9.34396 10.0508C9.44562 9.94728 9.44562 9.79204 9.34396 9.68853L9.03899 9.42982C8.93733 9.32631 8.78488 9.32631 8.68322 9.42982C8.58157 9.53329 8.58157 9.68853 8.68322 9.79204L9.03899 10.1025ZM12.4444 1.66758C12.4444 1.71933 12.4953 1.77108 12.5461 1.77108C12.5461 1.77108 12.5461 1.77108 12.5969 1.77108C12.6477 1.77108 12.6986 1.71933 12.6986 1.61584L12.4444 0.787867C12.4444 0.736117 12.3936 0.684371 12.2919 0.684371C12.2411 0.684371 12.1903 0.736117 12.1903 0.839617L12.4444 1.66758ZM11.1229 3.22003C11.1229 3.27178 11.1737 3.32353 11.2246 3.32353H11.2754C11.3262 3.32353 11.3771 3.22003 11.3262 3.16828L10.6655 1.30535C10.6655 1.2536 10.5638 1.20185 10.513 1.2536C10.4622 1.2536 10.4113 1.3571 10.4622 1.40884L11.1229 3.22003ZM10.0555 4.72073C10.0555 4.77247 10.1064 4.77247 10.1572 4.77247H10.208C10.2589 4.72073 10.3097 4.66896 10.2589 4.61722L8.93733 2.08157C8.8865 2.02982 8.83567 1.97807 8.78488 2.02982C8.73405 2.08157 8.68322 2.13332 8.73405 2.18506L10.0555 4.72073ZM9.19148 6.22141C9.24231 6.27318 9.24231 6.27318 9.29313 6.27318C9.34396 6.27318 9.34396 6.27318 9.39479 6.27318C9.44562 6.22141 9.44562 6.16968 9.44562 6.06617L7.41253 3.06479C7.3617 3.01304 7.31088 2.96129 7.20922 3.01304C7.10756 3.06479 7.10756 3.11653 7.15839 3.22003L9.19148 6.22141ZM8.47991 7.61862C8.53074 7.67035 8.53074 7.67035 8.58157 7.67035C8.6324 7.67035 8.6324 7.67035 8.68322 7.61862C8.73405 7.56689 8.73405 7.46338 8.68322 7.41165L5.8877 4.20323C5.83687 4.1515 5.73521 4.1515 5.68438 4.20323C5.63355 4.25501 5.63355 4.35848 5.68438 4.41025L8.47991 7.61862ZM7.97162 9.01583C8.02244 9.01583 8.02244 9.06756 8.07327 9.06756C8.1241 9.06756 8.17493 9.06756 8.17493 9.01583C8.22576 8.96406 8.22576 8.86059 8.17493 8.80882L4.56618 5.54871C4.51536 5.49694 4.41371 5.49694 4.36288 5.54871C4.31206 5.60045 4.31206 5.70395 4.36288 5.75569L7.97162 9.01583ZM7.51419 10.3095C7.56502 10.3095 7.56502 10.3613 7.61585 10.3613C7.66668 10.3613 7.71751 10.3613 7.71751 10.3095C7.7683 10.2578 7.7683 10.1543 7.66668 10.1025L3.39716 6.99766C3.34633 6.99766 3.24468 6.99766 3.19385 7.04939C3.14302 7.10112 3.14302 7.20463 3.24468 7.25636L7.51419 10.3095ZM7.20922 11.5515H7.26005C7.31088 11.5515 7.3617 11.4997 7.41253 11.448C7.46336 11.3445 7.41253 11.2928 7.3617 11.241L2.38061 8.60184C2.32978 8.55007 2.22813 8.60184 2.1773 8.65357C2.12647 8.70535 2.1773 8.80881 2.22813 8.86059L7.20922 11.5515ZM7.0059 12.7934H7.05673C7.10756 12.7934 7.20922 12.7417 7.20922 12.6899C7.26005 12.5865 7.20922 12.5347 7.10756 12.4829L1.6182 10.3613C1.51655 10.3095 1.46572 10.3613 1.41489 10.4648C1.36406 10.5683 1.41489 10.6717 1.51655 10.6717L7.0059 12.7934ZM6.85341 13.9836C6.95507 13.9836 7.05673 13.9319 7.05673 13.8802C7.05673 13.7767 7.0059 13.6731 6.95507 13.6731L1.0591 12.1725C0.957447 12.1725 0.855792 12.2242 0.855792 12.2759C0.855792 12.3794 0.906618 12.4829 0.957447 12.4829L6.85341 13.9836ZM6.80258 15.1221C6.90424 15.1221 7.0059 15.0704 7.0059 14.9668C7.0059 14.8633 6.95507 14.7599 6.85341 14.7599L0.70331 14.0354C0.601655 14.0354 0.5 14.0871 0.5 14.1906C0.5 14.2941 0.550827 14.3976 0.652482 14.3976L6.80258 15.1221ZM6.75175 16.3123C6.85341 16.3123 6.95507 16.2088 6.95507 16.1053C6.95507 16.0018 6.85341 15.8983 6.75175 15.8983H0.957447C0.855792 15.8983 0.754137 16.0018 0.754137 16.1053C0.754137 16.2088 0.855792 16.3123 0.957447 16.3123H6.75175ZM1.974 17.8647C1.974 17.9682 2.07565 18.02 2.1773 18.02L6.95507 17.4507C7.05673 17.4507 7.15839 17.3473 7.10756 17.2438C7.10756 17.1403 7.0059 17.0368 6.90424 17.0885L2.12648 17.6578C2.02482 17.6578 1.974 17.7613 1.974 17.8647ZM3.24468 19.3137C3.24468 19.4172 3.34633 19.4689 3.44799 19.4689H3.49882L7.20922 18.5375C7.31088 18.4857 7.3617 18.3822 7.3617 18.2787C7.31088 18.1752 7.20922 18.1235 7.10756 18.1235L3.39716 19.055C3.29551 19.1067 3.24468 19.2102 3.24468 19.3137ZM4.56618 20.5556C4.61701 20.6592 4.66784 20.7109 4.76949 20.7109H4.82032L7.56502 19.6759C7.66668 19.6242 7.71751 19.5207 7.66668 19.4172C7.61585 19.3137 7.51419 19.2619 7.41253 19.3137L4.66784 20.3487C4.56618 20.2969 4.51536 20.4521 4.56618 20.5556ZM5.8877 21.5389C5.93853 21.5906 5.98936 21.6424 6.09101 21.6424C6.14184 21.6424 6.14184 21.6424 6.19267 21.6424L8.07327 20.6074C8.17493 20.5556 8.22576 20.4004 8.17493 20.2969C8.1241 20.1934 7.97162 20.1417 7.86996 20.1934L5.98936 21.2284C5.83687 21.3319 5.83687 21.4354 5.8877 21.5389ZM7.15839 22.3668C7.20922 22.4186 7.26005 22.4703 7.3617 22.4703C7.41253 22.4703 7.46336 22.4703 7.46336 22.4186L8.68322 21.5906C8.78488 21.5389 8.78488 21.3836 8.73405 21.2801C8.68322 21.1766 8.53074 21.1766 8.42908 21.2284L7.20922 22.0563C7.10756 22.1081 7.05673 22.2633 7.15839 22.3668ZM8.37825 23.0395C8.42908 23.0913 8.47991 23.1431 8.53074 23.1431C8.58157 23.1431 8.6324 23.143 8.68322 23.0913L9.34396 22.5221C9.44562 22.4186 9.44562 22.2633 9.34396 22.2116C9.24231 22.1081 9.08982 22.1081 9.03899 22.2116L8.37825 22.7808C8.32742 22.7808 8.27659 22.9361 8.37825 23.0395ZM9.54728 23.557C9.59811 23.6088 9.64894 23.6088 9.69977 23.6088C9.7506 23.6088 9.85226 23.557 9.85226 23.5053L10.1064 23.1948C10.208 23.0913 10.208 22.9361 10.1064 22.8326C10.0047 22.7291 9.85226 22.7291 9.7506 22.8326L9.49645 23.1431C9.44562 23.2983 9.49645 23.4535 9.54728 23.557ZM0.906618 19.8829C0.906618 19.9347 0.957447 19.9864 1.00827 19.9864C1.00827 19.9864 1.00827 19.9864 1.0591 19.9864L1.87234 19.7794C1.92317 19.7794 1.974 19.7277 1.974 19.6242C1.974 19.5724 1.92317 19.5207 1.82151 19.5207L1.00827 19.7794C0.906618 19.7794 0.906618 19.8312 0.906618 19.8829ZM1.46572 21.7458C1.46572 21.7976 1.51655 21.8493 1.56737 21.8493H1.6182L3.39716 21.1766C3.44799 21.1766 3.49882 21.0731 3.44799 21.0214C3.44799 20.9696 3.34633 20.9179 3.29551 20.9696L1.51655 21.5906C1.46572 21.5906 1.41489 21.6941 1.46572 21.7458ZM2.22813 23.5053C2.22813 23.557 2.27896 23.557 2.32979 23.557H2.38061L4.87115 22.2116C4.92198 22.1598 4.97281 22.1081 4.92198 22.0563C4.87115 22.0046 4.82032 21.9529 4.76949 22.0046L2.27896 23.35C2.22813 23.35 2.1773 23.4535 2.22813 23.5053ZM3.19385 25.1612C3.19385 25.213 3.24468 25.213 3.29551 25.213C3.34633 25.213 3.34633 25.213 3.34633 25.213L6.29433 23.1431C6.34516 23.0913 6.34516 23.0395 6.34516 22.9361C6.29433 22.8843 6.2435 22.8843 6.14184 22.8843L3.19385 24.9543C3.14302 25.006 3.14302 25.0577 3.19385 25.1612ZM4.36288 26.6619C4.41371 26.7137 4.41371 26.7137 4.46454 26.7137C4.51536 26.7137 4.51536 26.7137 4.56618 26.6619L7.71751 23.8158C7.7683 23.764 7.7683 23.6605 7.71751 23.6088C7.66668 23.557 7.56502 23.557 7.51419 23.6088L4.36288 26.4549C4.31206 26.5067 4.31206 26.6102 4.36288 26.6619ZM5.68438 28.0074C5.73521 28.0074 5.73521 28.0591 5.78604 28.0591C5.83687 28.0591 5.8877 28.0591 5.8877 28.0074L9.03899 24.3332C9.08982 24.2815 9.08982 24.178 9.03899 24.1263C8.98816 24.0745 8.8865 24.0745 8.83567 24.1263L5.68438 27.8004C5.63355 27.8521 5.63355 27.9556 5.68438 28.0074ZM7.15839 29.1976C7.20922 29.1976 7.20922 29.2493 7.26005 29.2493C7.31088 29.2493 7.3617 29.2493 7.3617 29.1976L10.3605 24.799C10.4113 24.7472 10.4113 24.6437 10.3097 24.592C10.2589 24.5403 10.1572 24.5403 10.1064 24.6437L7.10756 28.9906C7.10756 29.0423 7.10756 29.1458 7.15839 29.1976ZM8.78488 30.2325H8.83567C8.8865 30.2325 8.93733 30.1808 8.98816 30.1291L11.5804 25.0577C11.6312 24.9543 11.5804 24.9025 11.5295 24.8507C11.4279 24.799 11.3771 24.8507 11.3262 24.9025L8.73405 29.9738C8.68322 30.0773 8.68322 30.1808 8.78488 30.2325ZM10.513 31.0088H10.5638C10.6147 31.0088 10.7163 30.957 10.7163 30.9053L12.8002 25.3165C12.8511 25.213 12.8002 25.1095 12.6986 25.1095C12.5969 25.0577 12.4953 25.1095 12.4953 25.213L10.4113 30.8018C10.3605 30.8535 10.4113 30.957 10.513 31.0088ZM12.2919 31.578C12.3428 31.578 12.3428 31.578 12.2919 31.578C12.3936 31.578 12.4953 31.5262 12.4953 31.4745L13.9693 25.4717C13.9693 25.3682 13.9184 25.2647 13.8676 25.2647C13.7659 25.2647 13.6643 25.3165 13.6643 25.3682L12.1903 31.371C12.1395 31.4745 12.1903 31.578 12.2919 31.578ZM14.1726 31.9402C14.2742 31.9402 14.3759 31.8885 14.3759 31.785L15.1383 25.5235C15.1383 25.42 15.0875 25.3165 14.9858 25.3165C14.8842 25.3165 14.7825 25.3682 14.7825 25.4717L14.0201 31.7332C14.0201 31.8368 14.0709 31.9402 14.1726 31.9402ZM15.8499 31.4745C15.8499 31.578 15.9515 31.6815 16.0532 31.6815C16.1548 31.6815 16.2565 31.578 16.2565 31.4745V25.5752C16.2565 25.4717 16.1548 25.3682 16.0532 25.3682C15.9515 25.3682 15.8499 25.4717 15.8499 25.5752V31.4745ZM17.5272 30.2843C17.5272 30.3878 17.6288 30.4395 17.7305 30.4395C17.8321 30.4395 17.9338 30.336 17.883 30.2325L17.3239 25.3682C17.3239 25.2647 17.2222 25.1612 17.1206 25.213C17.0189 25.213 16.9172 25.3165 16.9681 25.42L17.5272 30.2843ZM18.9503 28.9906C18.9503 29.0941 19.052 29.1458 19.1536 29.1458H19.2045C19.3061 29.0941 19.357 28.9906 19.357 28.8871L18.4421 25.1095C18.3912 25.006 18.2896 24.9543 18.1879 24.9543C18.0863 25.006 18.0354 25.1095 18.0354 25.213L18.9503 28.9906ZM20.1194 27.6969C20.1702 27.8004 20.221 27.8521 20.3227 27.8521H20.3735C20.4752 27.8004 20.526 27.6969 20.4752 27.5934L19.4586 24.799C19.4586 24.6438 19.3061 24.592 19.2045 24.592C19.1028 24.6437 19.052 24.7472 19.1028 24.8507L20.1194 27.6969ZM21.0851 26.4032C21.1359 26.4549 21.1867 26.5067 21.2884 26.5067C21.3392 26.5067 21.3392 26.5067 21.39 26.4549C21.4917 26.4032 21.5425 26.248 21.4917 26.1444L20.4752 24.2298C20.4243 24.1263 20.2718 24.0745 20.1702 24.1263C20.0685 24.178 20.0177 24.3332 20.0685 24.4368L21.0851 26.4032ZM21.8983 25.1095C21.9492 25.1612 22 25.213 22.1017 25.213C22.1525 25.213 22.2033 25.213 22.2033 25.1612C22.3049 25.1095 22.3049 24.9543 22.2541 24.8507L21.4409 23.6088C21.39 23.5053 21.2376 23.5053 21.1359 23.557C21.0343 23.6088 21.0343 23.764 21.0851 23.8675L21.8983 25.1095ZM22.5083 23.9193C22.5591 23.971 22.6099 24.0228 22.6607 24.0228C22.7116 24.0228 22.7624 24.0228 22.8132 23.971C22.9149 23.8675 22.9149 23.764 22.8132 23.6605L22.2541 22.9878C22.1525 22.8843 22.0508 22.8843 21.9492 22.9878C21.8475 23.0913 21.8475 23.2466 21.9492 23.2983L22.5083 23.9193ZM23.0165 22.7291C23.0674 22.7808 23.1182 22.7808 23.169 22.7808C23.2199 22.7808 23.3215 22.7291 23.3215 22.6773C23.4231 22.5738 23.4231 22.4186 23.3215 22.3151L23.0165 22.0563C22.9149 21.9529 22.7624 21.9529 22.7116 22.0563C22.6099 22.1598 22.6099 22.3151 22.7116 22.3668L23.0165 22.7291ZM19.6619 31.4228C19.6619 31.4745 19.7128 31.5262 19.7636 31.5262C19.7636 31.5262 19.7636 31.5262 19.8144 31.5262C19.8653 31.5262 19.9161 31.4745 19.9161 31.371L19.7128 30.5431C19.7128 30.4913 19.6619 30.4395 19.5603 30.4395C19.5094 30.4395 19.4586 30.5431 19.4586 30.5948L19.6619 31.4228ZM21.4409 30.9053C21.4409 30.957 21.4917 31.0088 21.5425 31.0088H21.5934C21.6442 31.0088 21.695 30.9053 21.6442 30.8535L20.9835 29.0423C20.9835 28.9906 20.8818 28.9388 20.831 28.9906C20.7801 28.9906 20.7293 29.0941 20.7801 29.1458L21.4409 30.9053ZM23.1182 30.1291C23.1182 30.1808 23.169 30.1808 23.2199 30.1808H23.2707C23.3215 30.1291 23.3723 30.0773 23.3215 30.0256L22 27.4899C21.9492 27.4381 21.8983 27.3864 21.8475 27.4381C21.7967 27.4899 21.7459 27.5417 21.7967 27.5934L23.1182 30.1291ZM24.7447 29.1458C24.7447 29.1976 24.7955 29.1976 24.8463 29.1976C24.8971 29.1976 24.8971 29.1976 24.948 29.1976C24.9988 29.1458 24.9988 29.0941 24.9988 28.9906L22.9657 25.9892C22.9149 25.9375 22.8641 25.9374 22.7624 25.9374C22.7116 25.9892 22.6607 26.0409 22.7116 26.1444L24.7447 29.1458ZM26.2187 28.0074C26.2695 28.0591 26.2695 28.0591 26.3203 28.0591C26.3712 28.0591 26.3712 28.0591 26.422 28.0074C26.4728 27.9556 26.4728 27.8521 26.422 27.8004L23.6265 24.592C23.5756 24.5403 23.474 24.5403 23.4231 24.592C23.3723 24.6437 23.3723 24.7472 23.4231 24.799L26.2187 28.0074ZM27.5402 26.6619C27.591 26.6619 27.591 26.7137 27.6418 26.7137C27.6927 26.7137 27.7435 26.7137 27.7435 26.6619C27.7943 26.6102 27.7943 26.5067 27.7435 26.4549L24.1347 23.1948C24.0839 23.1431 23.9823 23.1431 23.9314 23.1948C23.8806 23.2466 23.8806 23.35 23.9314 23.4018L27.5402 26.6619ZM28.7092 25.213C28.76 25.213 28.76 25.2647 28.8109 25.2647C28.8617 25.2647 28.9125 25.2647 28.9125 25.213C28.9633 25.1612 28.9633 25.0577 28.8617 25.006L24.5413 21.9529C24.4905 21.9011 24.3889 21.9011 24.3381 22.0046C24.2872 22.0563 24.2872 22.1598 24.3889 22.2116L28.7092 25.213ZM29.6749 23.557H29.7258C29.7766 23.557 29.8274 23.5053 29.8783 23.4535C29.9291 23.35 29.8783 23.2983 29.8274 23.2466L24.8971 20.6592C24.8463 20.6074 24.7447 20.6592 24.6938 20.7109C24.643 20.8144 24.6938 20.8661 24.7447 20.9179L29.6749 23.557ZM30.4882 21.8493H30.539C30.5898 21.8493 30.6406 21.7976 30.6915 21.7458C30.7423 21.6424 30.6915 21.5906 30.5898 21.5389L25.1005 19.4172C24.9988 19.3654 24.8971 19.4172 24.8971 19.5207C24.8463 19.6242 24.8971 19.6759 24.9988 19.7277L30.4882 21.8493ZM31.0473 20.0381C31.1489 20.0381 31.2506 19.9864 31.2506 19.9347C31.2506 19.8312 31.1997 19.7277 31.1489 19.7277L25.253 18.227C25.1513 18.227 25.0496 18.2787 25.0496 18.3305C25.0496 18.434 25.1005 18.5375 25.1513 18.5375L31.0473 20.0381ZM31.4539 18.1752C31.5555 18.1752 31.6064 18.1235 31.6064 18.02C31.6064 17.9165 31.5555 17.813 31.4539 17.813L25.3038 17.0368C25.2021 17.0368 25.1005 17.0885 25.1005 17.192C25.1005 17.2955 25.1513 17.399 25.253 17.399L31.4539 18.1752ZM31.1489 16.3123C31.2506 16.3123 31.3522 16.2088 31.3522 16.1053C31.3522 16.0018 31.2506 15.8983 31.1489 15.8983H25.3546C25.253 15.8983 25.1513 16.0018 25.1513 16.1053C25.1513 16.2088 25.253 16.3123 25.3546 16.3123H31.1489ZM24.948 15.0186C24.948 15.1221 25.0496 15.1739 25.1513 15.1739L29.9291 14.6046C30.0307 14.6046 30.1324 14.5011 30.0815 14.3976C30.0815 14.2941 29.9799 14.1906 29.8783 14.2424L25.1005 14.8116C24.9988 14.8116 24.948 14.9151 24.948 15.0186ZM24.7447 13.9319C24.7447 14.0354 24.8463 14.0871 24.948 14.0871H24.9988L28.7092 13.1557C28.8109 13.1039 28.8617 13.0004 28.8617 12.8969C28.8109 12.7934 28.7092 12.7417 28.6076 12.7417L24.8971 13.6731C24.7955 13.7249 24.6938 13.8284 24.7447 13.9319ZM24.3889 12.8969C24.4397 13.0004 24.4905 13.0522 24.5922 13.0522H24.643L27.3877 12.0172C27.4894 11.9655 27.5402 11.862 27.4894 11.7585C27.4385 11.655 27.3369 11.6032 27.2352 11.655L24.4905 12.6899C24.4397 12.6382 24.3889 12.7934 24.3889 12.8969ZM23.9823 11.862C24.0331 11.9137 24.0839 11.9655 24.1856 11.9655C24.2364 11.9655 24.2364 11.9655 24.2872 11.9655L26.1678 10.9305C26.2695 10.8788 26.3203 10.7235 26.2695 10.62C26.2187 10.5165 26.0662 10.4648 25.9645 10.5165L24.0839 11.5515C23.9314 11.655 23.8806 11.7585 23.9823 11.862ZM23.3723 10.9305C23.4231 10.9822 23.474 11.034 23.5756 11.034C23.6265 11.034 23.6773 11.034 23.6773 10.9822L24.8971 10.1543C24.9988 10.1025 24.9988 9.94728 24.948 9.84377C24.8971 9.7403 24.7447 9.7403 24.643 9.79204L23.474 10.62C23.3723 10.7235 23.3215 10.827 23.3723 10.9305ZM22.7116 10.1025C22.7624 10.1543 22.8132 10.206 22.8641 10.206C22.9149 10.206 22.9657 10.206 23.0165 10.1543L23.6773 9.58506C23.7789 9.48155 23.7789 9.37805 23.6773 9.27454C23.5756 9.17107 23.4231 9.17107 23.3723 9.27454L22.7116 9.84377C22.6607 9.84377 22.6607 9.99905 22.7116 10.1025ZM21.9492 9.32631C22 9.37805 22.0508 9.37805 22.1017 9.37805C22.1525 9.37805 22.2541 9.32631 22.2541 9.27454L22.5083 8.96406C22.6099 8.86059 22.6099 8.70535 22.5083 8.60184C22.4066 8.49833 22.2541 8.49833 22.1525 8.60184L21.8983 8.91232C21.8475 9.06756 21.8475 9.2228 21.9492 9.32631Z" fill="#778B8E"/>
<path fill-rule="evenodd" clip-rule="evenodd" d="M40.3474 31.6797L39.7883 30.6964L39.6358 30.9034V31.6279H39.3308V29.4545H39.6358V30.386C39.8391 30.0754 40.0932 29.7649 40.2965 29.4545H40.6523L39.9408 30.4377L40.6523 31.6797H40.3474Z" fill="#778B8E"/>
<path fill-rule="evenodd" clip-rule="evenodd" d="M41.9743 31.6797V30.6447H41.2627V31.6797H40.9576V29.4545H41.2627V30.3342H41.9743V29.4545H42.2793V31.6797H41.9743Z" fill="#778B8E"/>
<path fill-rule="evenodd" clip-rule="evenodd" d="M43.8039 31.6797L43.6514 31.0587H43.0413L42.838 31.6797H42.533L43.0924 29.4545H43.4988L44.0578 31.6797H43.8039ZM43.3463 29.7649L43.0924 30.7482H43.6007L43.3463 29.7649Z" fill="#778B8E"/>
<path fill-rule="evenodd" clip-rule="evenodd" d="M44.4139 31.6797V29.4545H44.719V31.3691H45.6338V31.6797H44.4139Z" fill="#778B8E"/>
<path fill-rule="evenodd" clip-rule="evenodd" d="M45.887 31.6797H46.192V29.4545H45.887V31.6797Z" fill="#778B8E"/>
<path fill-rule="evenodd" clip-rule="evenodd" d="M46.9554 29.7649V30.3342H47.8195V30.6447H46.9554V31.6797H46.6504V29.4545H47.8702V29.7649H46.9554Z" fill="#778B8E"/>
<path fill-rule="evenodd" clip-rule="evenodd" d="M49.2932 31.6797L49.1407 31.0587H48.4799L48.3274 31.6797H48.0227L48.5817 29.4545H48.9882L49.5983 31.6797H49.2932ZM48.8356 29.7649L48.5817 30.7482H49.09L48.8356 29.7649Z" fill="#778B8E"/>
<path fill-rule="evenodd" clip-rule="evenodd" d="M50.5637 31.6797H50.8688V29.4545H50.5637V31.6797Z" fill="#778B8E"/>
<path fill-rule="evenodd" clip-rule="evenodd" d="M52.2914 31.6797L51.6306 30.1272V31.6797H51.3256V29.4545H51.6813L52.3421 31.0069V29.4545H52.5961V31.6797H52.2914Z" fill="#778B8E"/>
<path fill-rule="evenodd" clip-rule="evenodd" d="M53.7656 31.6482H53.0541V29.4231H53.7149C54.2232 29.4231 54.3246 29.837 54.3246 30.0441V31.0273C54.3246 31.2343 54.2232 31.6482 53.7656 31.6482ZM54.0196 30.0441C54.0196 29.7853 53.8163 29.7336 53.7149 29.7336H53.3591V31.3378H53.7149C53.8163 31.3378 54.0196 31.286 54.0196 31.0273V30.0441Z" fill="#778B8E"/>
<path fill-rule="evenodd" clip-rule="evenodd" d="M55.3916 31.7C54.8833 31.7 54.7819 31.286 54.7819 31.079V29.4231H55.0865V31.079C55.0865 31.3378 55.3409 31.3895 55.4427 31.3895C55.4934 31.3895 55.6966 31.3378 55.6966 31.079V29.4231H56.0017V31.079C56.0017 31.286 55.8999 31.7 55.3916 31.7Z" fill="#778B8E"/>
<path fill-rule="evenodd" clip-rule="evenodd" d="M56.9679 31.7C56.6121 31.7 56.3578 31.4413 56.3578 31.079H56.6628C56.6628 31.286 56.8154 31.3895 57.0186 31.3895C57.2726 31.3895 57.3744 31.2343 57.3744 31.079C57.3744 30.9238 57.2726 30.8203 57.1711 30.7685C57.0693 30.7168 56.9168 30.6133 56.6628 30.5098C56.5103 30.4063 56.3578 30.1993 56.3578 29.9923C56.3578 29.6818 56.6121 29.4231 56.9679 29.4231C57.3237 29.4231 57.5776 29.6818 57.5776 30.0441H57.3237C57.3237 29.837 57.1711 29.7336 56.9679 29.7336C56.8154 29.7336 56.6628 29.837 56.6628 30.0441C56.6628 30.1476 56.7136 30.251 56.8154 30.3028C57.0186 30.3545 57.1711 30.4063 57.3237 30.5098C57.5269 30.6133 57.6794 30.8203 57.6794 31.079C57.6794 31.4413 57.3744 31.7 56.9679 31.7Z" fill="#778B8E"/>
<path fill-rule="evenodd" clip-rule="evenodd" d="M58.6965 29.7649V31.6797H58.3914V29.7649H57.8835V29.4545H59.2048V29.7649H58.6965Z" fill="#778B8E"/>
<path fill-rule="evenodd" clip-rule="evenodd" d="M60.4753 31.6797L60.0685 30.7999H59.7638V31.6797H59.4587V29.4545H60.1196C60.6279 29.4545 60.7293 29.8685 60.7293 30.0754V30.1789C60.7293 30.3342 60.6786 30.6447 60.3735 30.7482L60.8311 31.6797H60.4753ZM60.4753 30.0754C60.4753 29.8167 60.2721 29.7649 60.1703 29.7649H59.7638V30.4894H60.1196C60.221 30.4894 60.4242 30.4377 60.4242 30.1789V30.0754H60.4753Z" fill="#778B8E"/>
<path fill-rule="evenodd" clip-rule="evenodd" d="M63.0674 31.6797L62.9149 31.0587H62.2541L62.1016 31.6797H61.7965L62.3559 29.4545H62.8131L63.3721 31.6797H63.0674ZM62.6099 29.7649L62.3559 30.7482H62.8638L62.6099 29.7649Z" fill="#778B8E"/>
<path fill-rule="evenodd" clip-rule="evenodd" d="M61.1873 31.6797H61.4923V29.4545H61.1873V31.6797Z" fill="#778B8E"/>
<path fill-rule="evenodd" clip-rule="evenodd" d="M63.6775 31.6797V29.4545H63.9825V31.3691H64.8466V31.6797H63.6775Z" fill="#778B8E"/>
<path fill-rule="evenodd" clip-rule="evenodd" d="M65.6592 31.6797V31.4209L66.5232 29.7649H65.7099V29.4545H66.879V29.7132L66.0149 31.3691H66.879V31.6797H65.6592Z" fill="#778B8E"/>
<path fill-rule="evenodd" clip-rule="evenodd" d="M67.7946 31.6801C67.2863 31.6801 67.1844 31.2661 67.1844 31.0592V30.0242C67.1844 29.8172 67.2863 29.4032 67.7946 29.4032C68.3029 29.4032 68.4043 29.8172 68.4043 30.0242V31.0592C68.4554 31.2661 68.3029 31.6801 67.7946 31.6801ZM68.1503 30.0242C68.1503 29.7655 67.9471 29.7137 67.8453 29.7137C67.7435 29.7137 67.4895 29.7655 67.4895 30.0242V31.0592C67.4895 31.3179 67.7435 31.3696 67.8453 31.3696C67.9471 31.3696 68.1503 31.3179 68.1503 31.0592V30.0242Z" fill="#778B8E"/>
<path fill-rule="evenodd" clip-rule="evenodd" d="M69.8273 31.6797L69.1665 30.1272V31.6797H68.8615V29.4545H69.2172L69.878 31.0069V29.4545H70.132V31.6797H69.8273Z" fill="#778B8E"/>
<path fill-rule="evenodd" clip-rule="evenodd" d="M70.5892 31.6797V29.4545H71.8091V29.7649H70.8943V30.3342H71.7583V30.6447H70.8943V31.3691H71.8091V31.6797H70.5892Z" fill="#778B8E"/>
<path fill-rule="evenodd" clip-rule="evenodd" d="M73.944 31.6797L73.7915 31.0587H73.1306L72.9781 31.6797H72.6735L73.2325 29.4545H73.6389L74.1979 31.6797H73.944ZM73.4864 29.7649L73.2325 30.7482H73.7408L73.4864 29.7649Z" fill="#778B8E"/>
<path fill-rule="evenodd" clip-rule="evenodd" d="M75.2142 31.6482H74.5533V29.4231H75.2142C75.7225 29.4231 75.8239 29.837 75.8239 30.0441V30.0958C75.8239 30.1993 75.7732 30.4063 75.6206 30.5098C75.7732 30.6133 75.8239 30.872 75.8239 30.9755V31.079C75.8239 31.2343 75.7225 31.6482 75.2142 31.6482ZM75.5188 30.0441C75.5188 29.7853 75.3156 29.7336 75.2142 29.7336H74.8584V30.3545H75.2142C75.3667 30.3545 75.5188 30.3545 75.5188 30.0441ZM75.5699 30.9755C75.5699 30.7168 75.4174 30.665 75.2649 30.665H74.8584V31.3378H75.2142C75.3156 31.3378 75.5188 31.286 75.5188 31.0273V30.9755H75.5699Z" fill="#778B8E"/>
<path fill-rule="evenodd" clip-rule="evenodd" d="M76.8401 31.7C76.3318 31.7 76.2303 31.286 76.2303 31.079V29.4231H76.535V31.079C76.535 31.3378 76.7386 31.3895 76.8908 31.3895C76.9926 31.3895 77.2469 31.3378 77.2469 31.079V29.4231H77.5516V31.079C77.5009 31.286 77.3483 31.7 76.8401 31.7Z" fill="#778B8E"/>
<path fill-rule="evenodd" clip-rule="evenodd" d="M79.2796 31.6482H78.5681V29.4231H79.2289C79.7372 29.4231 79.8386 29.837 79.8386 30.0441V31.0273C79.8386 31.2343 79.7372 31.6482 79.2796 31.6482ZM79.534 30.0441C79.534 29.7853 79.3304 29.7336 79.2289 29.7336H78.8732V31.3378H79.2289C79.3304 31.3378 79.534 31.286 79.534 31.0273V30.0441Z" fill="#778B8E"/>
<path fill-rule="evenodd" clip-rule="evenodd" d="M81.2634 31.6797V30.6447H80.6025V31.6797H80.2975V29.4545H80.6025V30.3342H81.2634V29.4545H81.5684V31.6797H81.2634Z" fill="#778B8E"/>
<path fill-rule="evenodd" clip-rule="evenodd" d="M83.1444 31.6797L82.9919 31.0587H82.3311L82.1786 31.6797H81.8739L82.4329 29.4545H82.8394L83.3988 31.6797H83.1444ZM82.6869 29.7649L82.4329 30.7482H82.9412L82.6869 29.7649Z" fill="#778B8E"/>
<path fill-rule="evenodd" clip-rule="evenodd" d="M84.4145 31.6797H83.7537V29.4545H84.4145C84.9228 29.4545 85.0246 29.8685 85.0246 30.0237V30.0754C85.0246 30.1789 84.9735 30.386 84.821 30.4894C85.0246 30.5929 85.0753 30.8517 85.0753 30.9552V31.0069C85.0246 31.2657 84.9228 31.6797 84.4145 31.6797ZM84.6688 30.0237C84.6688 29.7649 84.4652 29.7132 84.3638 29.7132H84.008V30.386H84.3638C84.5163 30.386 84.6688 30.3342 84.6688 30.0237ZM84.7195 31.0069C84.7195 30.7482 84.567 30.6964 84.4145 30.6964H84.008V31.3691H84.3638C84.4652 31.3691 84.6688 31.3174 84.6688 31.0587V31.0069H84.7195Z" fill="#778B8E"/>
<path fill-rule="evenodd" clip-rule="evenodd" d="M85.4307 31.6797H85.7357V29.4545H85.4307V31.6797Z" fill="#778B8E"/>
</g>
</g>
<defs>
<clipPath id="clip0_5_694">
<rect width="86" height="32" fill="white" transform="translate(0.5)"/>
</clipPath>
<clipPath id="clip1_5_694">
<rect width="86" height="32" fill="white" transform="translate(0.5)"/>
</clipPath>
</defs>
</svg>
