<svg width="97" height="32" viewBox="0 0 97 32" fill="none" xmlns="http://www.w3.org/2000/svg">
<g clip-path="url(#clip0_5_419)">
<g clip-path="url(#clip1_5_419)">
<path d="M46.1367 0.443848C62.7565 0.443848 79.3762 0.443848 96.5 0.443848C96.5 10.8547 96.5 21.2655 96.5 31.9919C79.8802 31.9919 63.26 31.9919 46.1367 31.9919C46.1367 30.0211 46.1367 28.0504 46.1367 26.02C46.8368 26.02 47.5368 26.02 48.2577 26.02C48.2577 27.294 48.2577 28.568 48.2577 29.8806C63.4579 29.8806 78.6576 29.8806 94.3183 29.8806C94.3183 20.8632 94.3183 11.8458 94.3183 2.55509C79.1181 2.55509 63.9184 2.55509 48.2577 2.55509C48.2577 3.82907 48.2577 5.10306 48.2577 6.41565C47.5577 6.41565 46.858 6.41565 46.1367 6.41565C46.1367 4.44495 46.1367 2.47426 46.1367 0.443848Z" fill="#778B8E"/>
<path d="M32.2578 11.4838C32.9778 11.4838 33.6978 11.4838 34.4396 11.4838C34.5166 11.6967 34.5936 11.909 34.6736 12.128C34.7808 12.4248 34.8888 12.7216 34.9966 13.0183C35.0106 13.0569 35.0245 13.0955 35.039 13.1354C35.5445 14.5258 36.0554 15.9144 36.5706 17.3011C36.6208 17.4369 36.6711 17.5732 36.7221 17.7089C36.7457 17.7729 36.7694 17.8362 36.7936 17.902C36.9445 18.3097 37.093 18.7187 37.236 19.1295C37.276 19.2616 37.276 19.2616 37.3487 19.3256C37.3736 19.2574 37.3978 19.1898 37.4233 19.1199C37.9584 17.6396 38.499 16.1611 39.0457 14.6844C39.0718 14.6132 39.0984 14.5426 39.1251 14.469C39.4014 13.7235 39.679 12.9779 39.9584 12.2336C39.9815 12.172 40.0051 12.1105 40.0287 12.0466C40.0608 11.9621 40.0608 11.9621 40.0936 11.8752C40.1117 11.8258 40.1305 11.7763 40.1499 11.725C40.1972 11.6044 40.1972 11.6044 40.2578 11.4838C40.9378 11.4838 41.6178 11.4838 42.3184 11.4838C42.3184 14.8081 42.3184 18.1324 42.3184 21.5575C41.8584 21.5575 41.3984 21.5575 40.9245 21.5575C40.9045 18.9896 40.8845 16.4217 40.8639 13.776C40.5439 14.6319 40.2239 15.4879 39.8942 16.3698C39.636 17.0538 39.3778 17.7373 39.1184 18.4213C39.016 18.6903 38.9142 18.9594 38.8123 19.2284C38.733 19.4372 38.6542 19.6458 38.5748 19.8546C38.5608 19.8926 38.5463 19.93 38.5318 19.9692C38.4893 20.0802 38.4475 20.1911 38.4051 20.3022C38.3421 20.4681 38.2802 20.6345 38.2184 20.801C38.2014 20.8457 38.1851 20.8903 38.1681 20.9361C38.136 21.0224 38.1039 21.1086 38.0717 21.1949C37.9614 21.4905 37.9614 21.4905 37.8942 21.5575C37.8081 21.5629 37.7221 21.5641 37.6366 21.5635C37.5845 21.5629 37.533 21.5629 37.4796 21.5629C37.4251 21.5623 37.3705 21.5616 37.3148 21.5611C37.2602 21.5611 37.2051 21.5605 37.1493 21.5605C37.0136 21.5598 36.8784 21.5586 36.7427 21.5575C36.5736 21.1883 36.419 20.8161 36.2742 20.4367C36.253 20.3818 36.2318 20.3275 36.2106 20.2708C36.1415 20.0916 36.073 19.9119 36.0039 19.7327C35.9554 19.6066 35.9069 19.48 35.8584 19.3539C35.4469 18.2802 35.0384 17.2052 34.6311 16.1297C34.3257 15.325 34.0191 14.5203 33.7124 13.7157C33.6924 16.3035 33.6724 18.8912 33.6518 21.5575C33.1918 21.5575 32.7318 21.5575 32.2578 21.5575C32.2578 18.2331 32.2578 14.9088 32.2578 11.4838Z" fill="#778B8E"/>
<path d="M32.0153 3.03613C32.0753 3.06569 32.0753 3.06569 32.1366 3.09646C31.8505 3.57782 31.5645 4.05918 31.2772 4.53994C31.2408 4.60146 31.2408 4.60146 31.2032 4.66483C30.9881 5.02373 30.7663 5.37843 30.542 5.73129C30.3087 6.10104 30.0851 6.47689 29.8602 6.85147C29.4984 7.45347 29.1353 8.05426 28.7693 8.65325C28.7275 8.72144 28.6863 8.78958 28.6432 8.85958C28.5372 9.03328 28.4311 9.20703 28.325 9.38073C28.1335 9.69379 27.9426 10.0063 27.7517 10.3194C27.6832 10.431 27.6147 10.5426 27.5469 10.6541C27.5056 10.7217 27.4651 10.7886 27.4226 10.8574C27.3863 10.9171 27.3499 10.9762 27.3123 11.0378C27.2281 11.1741 27.2281 11.1741 27.1669 11.3002C27.2724 11.3092 27.2724 11.3092 27.3802 11.3183C28.3239 11.4045 29.1935 11.5897 29.879 12.2991C30.5869 13.1762 30.7111 14.1721 30.7081 15.2543C30.7087 15.355 30.7087 15.4557 30.7093 15.5565C30.7099 15.7663 30.7099 15.9763 30.7093 16.1862C30.7081 16.4522 30.7093 16.7188 30.7111 16.9849C30.7123 17.1924 30.7123 17.4005 30.7123 17.608C30.7123 17.7063 30.7123 17.804 30.713 17.9023C30.7208 19.0098 30.5311 20.045 29.7396 20.8756C28.9493 21.6007 27.8638 21.7774 26.825 21.7503C25.9245 21.7098 25.0154 21.4674 24.3414 20.8382C23.739 20.1602 23.4626 19.3338 23.459 18.4362C23.459 18.3916 23.4584 18.3463 23.4578 18.2998C23.4566 18.1515 23.456 18.0031 23.4554 17.8547C23.4554 17.8034 23.4548 17.7527 23.4548 17.6997C23.4535 17.4288 23.4523 17.158 23.4517 16.8872C23.4511 16.6097 23.4493 16.3322 23.4469 16.0547C23.4451 15.8394 23.4451 15.624 23.4444 15.4087C23.4444 15.3067 23.4439 15.2048 23.4426 15.1022C23.4311 14.0056 23.6178 12.988 24.4051 12.164C25.1239 11.5173 25.9887 11.3581 26.9244 11.3002C26.3402 10.2614 25.7378 9.23475 25.1251 8.21232C25.0184 8.03556 24.9123 7.85825 24.8069 7.6809C24.7287 7.5506 24.6505 7.4203 24.5717 7.29C24.5239 7.20978 24.4754 7.12892 24.4275 7.04869C24.4051 7.01133 24.3827 6.97451 24.3596 6.93651C24.2681 6.78332 24.1936 6.64455 24.1366 6.47445C24.3481 6.56374 24.4784 6.68317 24.6366 6.84786C24.8414 7.05956 25.056 7.25322 25.279 7.44563C25.5481 7.68148 25.805 7.93063 26.0651 8.17613C26.3045 8.40234 26.5469 8.62007 26.8033 8.82699C27.0317 8.73649 27.139 8.60804 27.2881 8.41622C27.5002 8.15017 27.7208 7.89805 27.9548 7.6507C28.176 7.41548 28.3887 7.17841 28.5911 6.92687C28.8226 6.63972 29.0693 6.37129 29.322 6.10226C29.5099 5.90201 29.6881 5.6969 29.8602 5.48277C30.0729 5.21915 30.2978 4.97126 30.5305 4.72513C30.8135 4.42533 31.0814 4.1189 31.3402 3.79739C31.5554 3.53499 31.7851 3.28586 32.0153 3.03613ZM25.4202 13.1574C24.8693 13.8294 24.8541 14.6354 24.8517 15.4605C24.8511 15.501 24.8511 15.5414 24.8511 15.5836C24.8499 15.7977 24.8493 16.0125 24.8493 16.2272C24.8487 16.4462 24.8475 16.6651 24.8457 16.8841C24.8445 17.0548 24.8445 17.2256 24.8445 17.3962C24.8439 17.5151 24.8426 17.6345 24.8414 17.754C24.8439 18.5798 24.9542 19.3296 25.5014 19.9744C25.9184 20.3816 26.4869 20.4914 27.053 20.4956C27.6778 20.4847 28.2057 20.3424 28.682 19.9261C29.2796 19.2481 29.2978 18.3976 29.3002 17.541C29.3008 17.462 29.3008 17.383 29.3014 17.3015C29.302 17.1345 29.3026 16.9674 29.3026 16.8003C29.3032 16.5886 29.3045 16.3768 29.3063 16.1651C29.3075 15.96 29.3075 15.7555 29.3081 15.5504C29.3093 15.4382 29.3093 15.4382 29.3105 15.3242C29.3087 14.6438 29.2372 13.9374 28.8639 13.3511C28.8311 13.2986 28.799 13.2467 28.7656 13.1931C28.2826 12.7123 27.7384 12.5657 27.076 12.5518C26.4342 12.5651 25.8942 12.6954 25.4202 13.1574Z" fill="#778B8E"/>
<path d="M54.3782 11.4838C59.5151 11.4838 59.5151 11.4838 60.4991 12.3886C61.1661 13.1227 61.2757 14.0686 61.2377 15.0198C61.1779 15.804 60.903 16.482 60.3248 17.0261C60.0399 17.268 59.7379 17.5159 59.3476 17.5159C59.5799 18.0057 59.8552 18.4654 60.1391 18.9262C60.2084 19.0378 60.2768 19.15 60.3461 19.2622C60.3918 19.337 60.438 19.4118 60.4837 19.4866C60.7192 19.869 60.9501 20.2539 61.1806 20.6394C61.2988 20.836 61.4174 21.029 61.5488 21.2166C61.6507 21.3765 61.6507 21.3765 61.6507 21.5575C61.364 21.5707 61.0774 21.581 60.7903 21.587C60.6925 21.59 60.5956 21.5936 60.4982 21.5985C59.6962 21.6365 59.6962 21.6365 59.4567 21.4585C59.3589 21.3156 59.2937 21.1744 59.2267 21.0145C59.1637 20.9036 59.0999 20.7926 59.0351 20.6828C58.9676 20.5609 58.8997 20.4391 58.8327 20.3173C58.5302 19.7743 58.2227 19.2357 57.9085 18.6994C57.8718 18.6379 57.8365 18.5764 57.7989 18.513C57.6096 18.1915 57.6096 18.1915 57.4085 17.8778C57.0082 17.8579 56.6084 17.838 56.1963 17.8175C56.1963 19.0517 56.1963 20.2859 56.1963 21.5575C55.5963 21.5575 54.9963 21.5575 54.3782 21.5575C54.3782 18.2331 54.3782 14.9088 54.3782 11.4838ZM56.1963 13.1728C56.1963 14.1481 56.1963 15.1236 56.1963 16.1285C56.5033 16.1321 56.8113 16.1358 57.1282 16.14C57.2233 16.1412 57.3193 16.143 57.4181 16.1448C58.0339 16.1484 58.614 16.1321 59.0813 15.6858C59.3544 15.3642 59.4082 14.9679 59.4082 14.5601C59.3652 14.1065 59.2411 13.7905 58.9119 13.4629C58.3622 13.11 57.7912 13.1511 57.1622 13.1613C56.684 13.1673 56.684 13.1673 56.1963 13.1728Z" fill="#778B8E"/>
<path d="M68.3783 12.0252C68.4589 12.0777 68.4589 12.0777 68.5414 12.1308C69.4067 12.9693 69.591 14.0828 69.6123 15.2319C69.6159 15.5727 69.6159 15.9142 69.6141 16.255C69.6128 16.4752 69.6132 16.6947 69.6146 16.9149C69.6259 19.6854 69.6259 19.6854 68.6813 20.7719C67.926 21.5156 66.8971 21.7497 65.8629 21.7599C64.8535 21.7466 63.8528 21.5192 63.0983 20.8092C62.4802 20.1246 62.1927 19.303 62.1854 18.3885C62.1854 18.3445 62.185 18.3005 62.1841 18.2552C62.1832 18.111 62.1823 17.9663 62.1818 17.8221C62.1818 17.7473 62.1818 17.7473 62.1814 17.6713C62.18 17.4071 62.1786 17.1435 62.1782 16.8793C62.1777 16.6097 62.1759 16.3394 62.1732 16.0692C62.1714 15.8593 62.1714 15.65 62.1709 15.44C62.1709 15.3405 62.1705 15.241 62.1691 15.1414C62.1569 14.0496 62.3534 13.0447 63.135 12.2255C64.5225 10.9479 66.8691 11.0293 68.3783 12.0252ZM64.5673 13.3674C64.0515 14.0321 63.9954 14.6179 63.9963 15.4461C63.9963 15.5317 63.9959 15.6174 63.9959 15.703C63.9954 15.8816 63.9954 16.0602 63.9954 16.2387C63.9958 16.4655 63.9945 16.6923 63.9931 16.9197C63.9927 17.0959 63.9922 17.2726 63.9927 17.4487C63.9927 17.5326 63.9922 17.6164 63.9913 17.6997C63.9868 18.4452 64.0588 19.1021 64.5601 19.6861C65.0917 20.1252 65.7836 20.1059 66.4389 20.048C66.8455 19.9684 67.1235 19.7886 67.3798 19.4653C67.7756 18.8379 67.782 18.1473 67.7824 17.4307C67.7824 17.3594 67.7824 17.2883 67.7829 17.2147C67.7829 17.0645 67.7838 16.9143 67.7838 16.7641C67.7838 16.5361 67.7847 16.308 67.7856 16.0794C67.786 15.9329 67.786 15.7863 67.786 15.6397C67.7865 15.5727 67.7865 15.5052 67.7874 15.4358C67.7856 14.7222 67.7358 13.9887 67.2526 13.4217C66.8279 13.0224 66.3402 12.9614 65.7741 12.965C65.3145 12.9807 64.9309 13.0845 64.5673 13.3674Z" fill="#778B8E"/>
<path d="M49.4306 11.2944C50.5608 11.2649 51.6037 11.5695 52.4319 12.3501C52.671 12.598 52.8386 12.8616 52.9853 13.1716C52.6629 13.396 52.3314 13.6035 51.9922 13.8014C51.956 13.8237 51.9189 13.8454 51.8813 13.8684C51.7871 13.9226 51.6893 13.9703 51.591 14.0161C51.3805 13.9468 51.3719 13.9136 51.2614 13.7338C50.9965 13.3647 50.5237 13.1264 50.0759 13.051C49.4487 13.016 48.9089 13.0124 48.3637 13.3568C47.9344 13.7531 47.7954 14.3672 47.7615 14.9276C47.7574 15.1375 47.756 15.3468 47.7565 15.5567C47.7565 15.6334 47.7565 15.71 47.7565 15.789C47.7565 15.9507 47.7565 16.1117 47.7574 16.2734C47.7578 16.4785 47.7574 16.6835 47.7565 16.8887C47.756 17.0871 47.7565 17.285 47.7565 17.4828C47.7565 17.5558 47.756 17.6288 47.756 17.7036C47.7596 18.3804 47.8239 19.0657 48.2808 19.6043C48.7296 20.0103 49.2499 20.0278 49.8245 20.0097C50.2312 19.9837 50.5396 19.8607 50.8561 19.6073C51.3583 18.9752 51.3705 18.3508 51.4095 17.5751C50.7895 17.5751 50.1696 17.5751 49.5307 17.5751C49.5307 17.0177 49.5307 16.4604 49.5307 15.8861C50.7506 15.8861 51.9705 15.8861 53.2276 15.8861C53.2561 19.6785 53.2561 19.6785 52.2581 20.8325C51.3809 21.6022 50.3132 21.797 49.1765 21.7457C48.2831 21.689 47.3299 21.4073 46.7186 20.7196C46.0221 19.8016 45.875 18.828 45.8759 17.7048C45.8754 17.6131 45.8754 17.5214 45.875 17.4297C45.875 17.2391 45.875 17.0479 45.875 16.8567C45.8754 16.6148 45.8741 16.3723 45.8731 16.1304C45.8718 15.9416 45.8718 15.7522 45.8722 15.5634C45.8722 15.4741 45.8718 15.3854 45.8713 15.2961C45.8645 14.1585 46.0434 13.057 46.8639 12.2065C47.5808 11.5538 48.4851 11.3445 49.4306 11.2944Z" fill="#778B8E"/>
<path d="M70.8024 11.4838C71.4024 11.4838 72.0024 11.4838 72.6205 11.4838C72.6214 11.6955 72.6218 11.9066 72.6223 12.125C72.6241 12.8253 72.6277 13.5263 72.6313 14.2272C72.634 14.6519 72.6363 15.0765 72.6368 15.5012C72.6381 15.912 72.6399 16.3222 72.6431 16.7324C72.6436 16.8886 72.6445 17.0442 72.6445 17.2004C72.6069 18.4545 72.6069 18.4545 73.052 19.6006C73.5243 19.9987 74.0283 20.0307 74.6238 20.009C74.9068 19.9854 75.0965 19.936 75.3479 19.8081C75.395 19.7894 75.443 19.7707 75.4923 19.7514C75.692 19.6211 75.7545 19.3485 75.8365 19.1331C75.8673 19.0535 75.8673 19.0535 75.8994 18.9721C76.0316 18.513 76.0244 18.0329 76.0271 17.5581C76.028 17.4918 76.0285 17.426 76.0289 17.3579C76.0307 17.1419 76.0321 16.9253 76.0339 16.7088C76.0353 16.558 76.0362 16.4072 76.0375 16.257C76.0407 15.9017 76.043 15.5464 76.0461 15.1917C76.0493 14.7471 76.0529 14.3032 76.0565 13.8586C76.0629 13.0672 76.0692 12.2752 76.0751 11.4838C76.6552 11.4838 77.2353 11.4838 77.8325 11.4838C77.838 12.4344 77.8425 13.3851 77.8457 14.3358C77.8466 14.7773 77.8484 15.2189 77.8511 15.6604C77.8534 16.0459 77.8552 16.4313 77.8556 16.8162C77.8556 17.0201 77.857 17.2233 77.8583 17.4272C77.8679 18.6885 77.8583 19.866 76.954 20.8487C76.1553 21.5949 75.135 21.7806 74.0759 21.7553C73.1077 21.6986 72.2193 21.438 71.5414 20.7045C70.7199 19.6374 70.777 18.4298 70.7847 17.151C70.7847 16.9869 70.7856 16.8228 70.7856 16.6593C70.7861 16.2745 70.7874 15.8896 70.7892 15.5048C70.7915 15.0656 70.7919 14.6271 70.7933 14.188C70.7951 13.2868 70.7987 12.3849 70.8024 11.4838Z" fill="#778B8E"/>
<path d="M79.4084 11.4838C84.5557 11.4838 84.5557 11.4838 85.575 12.3958C86.2103 13.0696 86.3204 13.9811 86.3177 14.8617C86.2692 15.7714 86.0383 16.5321 85.3477 17.154C84.4733 17.8826 83.3245 17.8965 82.2417 17.8851C81.9067 17.8826 81.5716 17.8803 81.2265 17.8778C81.2265 19.0921 81.2265 20.3064 81.2265 21.5575C80.6265 21.5575 80.0265 21.5575 79.4084 21.5575C79.4084 18.2331 79.4084 14.9088 79.4084 11.4838ZM81.2265 13.1728C81.2265 14.188 81.2265 15.2032 81.2265 16.2492C81.5937 16.2528 81.5937 16.2528 81.9691 16.2564C82.0823 16.2582 82.0824 16.2582 82.1983 16.26C82.8449 16.263 83.5998 16.2606 84.1074 15.804C84.4683 15.4053 84.471 14.9414 84.457 14.4353C84.4285 14.0673 84.351 13.8121 84.0893 13.5468C83.689 13.218 83.2497 13.1534 82.7417 13.1607C82.6837 13.1613 82.6837 13.1613 82.6244 13.1613C82.4817 13.1619 82.3386 13.1637 82.1965 13.1655C81.8763 13.168 81.5562 13.1703 81.2265 13.1728Z" fill="#778B8E"/>
<path d="M8.5 11.4838C10.58 11.4838 12.66 11.4838 14.803 11.4838C14.803 11.9018 14.803 12.3198 14.803 12.7505C13.183 12.7505 11.563 12.7505 9.89395 12.7505C9.89395 13.7657 9.89395 14.7809 9.89395 15.8269C11.294 15.8269 12.694 15.8269 14.1364 15.8269C14.1364 16.2449 14.1364 16.6629 14.1364 17.0936C12.7364 17.0936 11.3364 17.0936 9.89395 17.0936C9.89395 18.1487 9.89395 19.2037 9.89395 20.2907C11.5139 20.2907 13.1339 20.2907 14.803 20.2907C14.803 20.7087 14.803 21.1268 14.803 21.5575C12.723 21.5575 10.6431 21.5575 8.5 21.5575C8.5 18.2331 8.5 14.9088 8.5 11.4838Z" fill="#778B8E"/>
<path d="M19.2573 11.2926C20.2082 11.2577 21.2027 11.5062 21.9342 12.1269C22.1772 12.3664 22.4033 12.6275 22.5609 12.9304C22.5493 13.0516 22.5493 13.0516 22.5002 13.1716C22.4045 13.2489 22.4045 13.2489 22.2821 13.314C22.239 13.3375 22.1954 13.3616 22.1506 13.3858C22.1045 13.4099 22.059 13.4334 22.0118 13.4582C21.9657 13.4829 21.9197 13.5076 21.8724 13.5336C21.759 13.5945 21.6451 13.6548 21.5306 13.7145C21.25 13.4377 21.25 13.4377 21.1288 13.3019C20.7433 12.8761 20.2288 12.6613 19.6596 12.6143C19.0821 12.601 18.4888 12.6698 18.0154 13.0287C17.4263 13.612 17.33 14.5277 17.3233 15.3131C17.3239 15.3867 17.3245 15.4596 17.3245 15.5357C17.3245 15.6135 17.3245 15.6919 17.3239 15.7727C17.3239 15.9374 17.3245 16.1015 17.3251 16.2661C17.3263 16.4736 17.3257 16.6818 17.3245 16.8899C17.2609 18.5535 17.2609 18.5535 18.0045 19.9783C18.5518 20.4295 19.2081 20.4729 19.8942 20.4102C20.499 20.2914 20.9887 20.0091 21.3524 19.509C21.3912 19.4481 21.43 19.3872 21.47 19.3244C21.7366 19.421 21.9724 19.5524 22.216 19.6942C22.2554 19.7165 22.2942 19.7388 22.3348 19.7624C22.4306 19.8173 22.5263 19.8727 22.6215 19.9276C22.256 20.7432 21.6385 21.236 20.8069 21.5563C19.7348 21.9056 18.4802 21.806 17.4573 21.35C16.7003 20.9241 16.2142 20.2118 15.9833 19.3914C15.8645 18.8811 15.8742 18.3683 15.8742 17.8484C15.8736 17.7458 15.873 17.6433 15.873 17.5413C15.8718 17.3272 15.8718 17.1137 15.8718 16.8995C15.8718 16.6281 15.8699 16.3572 15.8681 16.0858C15.8669 15.8746 15.8663 15.6629 15.8663 15.4518C15.8663 15.3523 15.8657 15.2521 15.8651 15.152C15.8554 14.0355 16.0397 12.9967 16.8421 12.1619C17.5087 11.5285 18.3609 11.3475 19.2573 11.2926Z" fill="#778B8E"/>
<path d="M0.5 11.4838C2.8 11.4838 5.09999 11.4838 7.46969 11.4838C7.46969 11.9018 7.46969 12.3198 7.46969 12.7505C6.54968 12.7505 5.62971 12.7505 4.68181 12.7505C4.68181 15.6568 4.68181 18.5631 4.68181 21.5575C4.22182 21.5575 3.76181 21.5575 3.28788 21.5575C3.28788 18.6511 3.28788 15.7449 3.28788 12.7505C2.36787 12.7505 1.44788 12.7505 0.5 12.7505C0.5 12.3325 0.5 11.9145 0.5 11.4838Z" fill="#778B8E"/>
</g>
</g>
<defs>
<clipPath id="clip0_5_419">
<rect width="96" height="32" fill="white" transform="translate(0.5)"/>
</clipPath>
<clipPath id="clip1_5_419">
<rect width="96" height="32" fill="white" transform="translate(0.5)"/>
</clipPath>
</defs>
</svg>
