<svg width="112" height="32" viewBox="0 0 112 32" fill="none" xmlns="http://www.w3.org/2000/svg">
<g clip-path="url(#clip0_5_771)">
<g clip-path="url(#clip1_5_771)">
<path d="M43.3838 9.42209C43.3791 9.42928 43.372 10.5915 43.3695 12.0048C43.3624 14.7143 43.3624 14.7263 43.4719 15.1376C43.5551 15.458 43.7478 15.7067 43.9999 15.8192C44.1974 15.91 44.6208 15.9579 45.0847 15.9435C45.5223 15.9316 45.6936 15.8933 45.9053 15.757C46.0338 15.6733 46.0766 15.6326 46.1812 15.4796C46.2835 15.3337 46.343 15.3265 46.4809 15.4437C46.7569 15.6733 47.1066 15.8335 47.5205 15.9148C47.8226 15.9746 48.2698 15.9554 48.4862 15.8718C48.6932 15.7928 48.843 15.7091 49.0524 15.5513L49.226 15.4222L49.3568 15.4844C49.4282 15.5178 49.5781 15.6063 49.6875 15.678C49.9301 15.8359 50.0181 15.8694 50.3417 15.9196C50.5652 15.9531 50.9911 15.9579 54.2664 15.9531C56.2885 15.9531 58.1394 15.9435 58.3818 15.9387C58.6242 15.9316 58.986 15.9196 59.1881 15.9148C59.3882 15.91 59.5567 15.9005 59.5641 15.8933C59.5714 15.8861 59.5829 15.6876 59.5903 15.4485L59.6023 15.018H58.9028C58.496 15.018 58.1651 15.0085 58.1153 14.9941C57.9609 14.9511 57.5849 14.6115 57.4682 14.4082C57.3802 14.26 57.3278 14.0088 57.3446 13.8367C57.3755 13.5353 57.5875 13.2245 57.8609 13.0786C57.9582 13.0236 57.9891 13.0212 58.3818 13.0212C58.7693 13.0212 58.8054 13.026 58.9101 13.0762C59.0525 13.1479 59.1216 13.1383 59.1478 13.0451C59.1599 13.0045 59.1714 12.8227 59.174 12.6386C59.1808 12.1148 59.1787 12.1148 58.4033 12.1292C57.8965 12.1387 57.8944 12.1411 57.7179 12.2153C57.3922 12.354 57.1305 12.5525 56.9425 12.8035C56.776 13.026 56.6812 13.2245 56.6121 13.4851C56.4933 13.9275 56.5074 14.2241 56.6666 14.6952L56.7619 14.9726L56.7001 14.9965C56.6618 15.0109 56.3053 15.018 55.7864 15.0132L54.9351 15.0061L54.8565 14.9296C54.7424 14.8171 54.6591 14.5517 54.5162 13.8534C54.4282 13.411 54.3141 13.0451 54.1926 12.8131C54.0785 12.5979 53.8455 12.3707 53.6245 12.2631C53.3507 12.1315 53.2701 12.1148 52.8632 12.1148C52.4635 12.1125 52.3493 12.1315 52.0544 12.2464C51.7737 12.354 51.757 12.3874 51.757 12.7892C51.757 13.0236 51.7641 13.1121 51.7879 13.1264C51.826 13.1503 51.9853 13.124 52.2208 13.0594C52.4706 12.9877 52.9224 12.9877 53.0774 13.0594C53.3863 13.2006 53.5172 13.3464 53.6575 13.7171C53.7266 13.8964 53.9764 14.8267 53.9905 14.9463C53.9905 14.9678 53.9596 14.9869 53.8978 14.9989C53.7481 15.0252 50.344 15.0228 50.1965 14.9941C50.0372 14.963 49.8564 14.8769 49.7327 14.7693L49.6399 14.688V14.2862C49.6375 13.8941 49.6352 13.8749 49.5614 13.6573C49.4353 13.2938 49.2902 13.0523 49.0428 12.8012C48.8645 12.6194 48.7955 12.5644 48.6504 12.4999C48.3649 12.3707 48.3007 12.3587 47.8439 12.3683L47.4277 12.3755L47.2184 12.4759C46.8473 12.6577 46.4976 13.0499 46.2431 13.5664C46.1408 13.7769 46.0005 14.1547 45.9576 14.3365C45.8981 14.578 45.7126 14.8554 45.5533 14.9343C45.4462 14.9869 45.1964 15.0156 44.8467 15.0156C44.4781 15.0156 44.4114 14.9941 44.3068 14.8411C44.233 14.7335 44.2283 14.7119 44.2259 14.5182C44.2235 14.4058 44.2212 13.2221 44.2187 11.8877L44.2164 9.46275L44.1664 9.44601C44.1117 9.42445 43.3957 9.40294 43.3838 9.42209ZM48.2912 13.3201C48.46 13.3942 48.6765 13.631 48.7907 13.8701C48.8645 14.0256 48.8787 14.0782 48.8859 14.2671C48.8978 14.5325 48.8573 14.6282 48.6504 14.8291C48.4577 15.0156 48.422 15.0228 47.7488 15.0132C47.2017 15.0061 47.1874 15.0037 47.0542 14.9415C46.9044 14.8722 46.714 14.7335 46.6593 14.6569C46.6308 14.6139 46.6308 14.5876 46.6641 14.4512C46.6879 14.3651 46.7545 14.193 46.814 14.0686C46.9733 13.7362 47.323 13.3775 47.5823 13.2795C47.7155 13.2293 48.1342 13.2532 48.2912 13.3201Z" fill="#778B8E"/>
<path d="M18.6094 10.9949C18.6094 12.8531 18.588 14.759 18.5642 14.8738C18.5523 14.9384 18.5333 14.9623 18.4785 14.979C18.4381 14.991 18.1408 15.0029 17.8173 15.0053C17.2582 15.0077 17.2249 15.0053 17.1916 14.9623C17.1631 14.9216 17.1583 14.6298 17.1583 13.0802V11.246L17.0846 11.2317C17.0442 11.2245 16.8562 11.2173 16.6683 11.2173H16.3282L16.321 11.4493C16.3139 11.5784 16.3091 12.425 16.3068 13.3337C16.302 14.606 16.2949 14.9862 16.2711 15.0005C16.2568 15.0101 15.8167 15.0197 15.2982 15.0197H14.3514V15.4597V15.8997L14.5489 15.9117C14.8176 15.9284 18.7497 15.914 18.8211 15.8973C18.8948 15.8782 18.921 15.8543 19.0637 15.6749C19.2302 15.4692 19.2683 15.4645 19.5323 15.6079C19.6465 15.6702 19.8249 15.7658 19.9272 15.8184L20.1151 15.9165L22.3535 15.9212C23.5857 15.9236 24.6323 15.9212 24.6823 15.9117L24.7703 15.8973V15.4597V15.0197H24.0448C23.4882 15.0197 23.3002 15.0125 23.2408 14.9862C23.1123 14.9336 22.6699 14.4768 22.5961 14.3214C22.4606 14.0416 22.4986 13.6566 22.6818 13.3792C22.7722 13.2452 23.0005 13.0754 23.1456 13.0348C23.3002 12.9893 23.9544 13.018 24.159 13.0778C24.2708 13.1113 24.3231 13.1161 24.335 13.0994C24.3445 13.085 24.3564 12.8937 24.3612 12.6737C24.3707 12.2863 24.3707 12.2767 24.3184 12.2265C24.2898 12.2002 24.2113 12.1643 24.1471 12.1499C23.9925 12.1189 23.2979 12.1165 23.129 12.1499C22.9648 12.1811 22.6152 12.3508 22.4249 12.4895C21.8445 12.9224 21.6304 13.8048 21.8801 14.747C21.9182 14.8882 21.9277 14.9671 21.9134 14.9838C21.8992 14.9982 21.5638 15.0077 21.0047 15.0077C20.0247 15.0077 20.1341 15.0221 19.7868 14.8355C19.5371 14.6992 19.4942 14.6657 19.4728 14.5821C19.4634 14.539 19.4538 13.3648 19.4538 11.9706V9.43567L19.0328 9.42853L18.6094 9.42371V10.9949Z" fill="#778B8E"/>
<path d="M30.2369 9.43978C30.2321 9.45174 30.225 10.7025 30.2202 12.2211C30.2155 13.7396 30.2083 14.9879 30.2012 14.9951C30.1822 15.0166 28.7716 15.007 28.7502 14.9879C28.7407 14.9759 28.7359 14.1294 28.7407 13.1035L28.7478 11.2405L28.4433 11.2381C28.1055 11.2334 27.9533 11.2405 27.9343 11.2573C27.9271 11.262 27.9176 12.1086 27.9105 13.1369L27.8986 15.007L26.9494 15.0238C26.4285 15.0333 25.9956 15.0453 25.9885 15.0549C25.9789 15.062 25.9718 15.2605 25.9718 15.4925V15.9158L26.5665 15.9349C27.1208 15.954 30.8863 15.9397 30.9909 15.9206C31.0504 15.9086 31.048 16.0282 31.0552 12.2545L31.0623 9.45415L30.8363 9.43742C30.5295 9.41827 30.2464 9.41827 30.2369 9.43978Z" fill="#778B8E"/>
<path d="M32.5606 9.62366C32.5534 9.73126 32.5487 11.19 32.5534 12.8664L32.5606 15.9155L32.9721 15.9227L33.3813 15.9275V13.615C33.3813 12.3403 33.3741 10.8887 33.3646 10.3865L33.3503 9.47541L33.1576 9.46104C33.0506 9.45385 32.877 9.4443 32.7699 9.43953L32.5773 9.42993L32.5606 9.62366Z" fill="#778B8E"/>
<path d="M65.4874 10.076C65.3471 10.1143 65.2874 10.1669 65.2188 10.3176C65.1115 10.5447 65.1591 10.7791 65.3424 10.925C65.3968 10.968 65.4377 10.9752 65.6136 10.9752C65.7989 10.9752 65.8298 10.968 65.9131 10.913C65.9634 10.8771 66.0131 10.8365 66.0225 10.8221C66.0319 10.8078 66.0419 10.6834 66.0419 10.5495C66.0419 10.3654 66.0319 10.284 66.0037 10.2363C65.9157 10.088 65.6968 10.0186 65.4874 10.076Z" fill="#778B8E"/>
<path d="M2.22428 10.0911C2.09344 10.1222 1.97213 10.2202 1.90077 10.3541C1.78183 10.5717 1.8413 10.7774 2.06014 10.9042C2.20524 10.9879 2.27423 10.9998 2.43598 10.9616C2.70478 10.8994 2.7809 10.8157 2.75235 10.622C2.73808 10.5287 2.74046 10.5168 2.77614 10.5287C2.8261 10.5479 2.82372 10.5383 2.75711 10.4379C2.72381 10.39 2.69051 10.3207 2.68337 10.28C2.67386 10.2418 2.64294 10.1939 2.61439 10.1748C2.56682 10.1413 2.34321 10.0648 2.31467 10.0695C2.30753 10.072 2.26709 10.0815 2.22428 10.0911Z" fill="#778B8E"/>
<path d="M64.1799 10.1008C64.004 10.1797 63.916 10.328 63.9181 10.548C63.9181 10.7489 63.9637 10.835 64.104 10.9187C64.1988 10.9761 64.2302 10.9808 64.382 10.9713C64.6129 10.9569 64.77 10.8685 64.7936 10.7441C64.815 10.6293 64.7915 10.3328 64.7559 10.2539C64.6936 10.1199 64.3443 10.0267 64.1799 10.1008Z" fill="#778B8E"/>
<path d="M3.43419 10.1268C3.29147 10.1722 3.22724 10.2416 3.17015 10.4138C3.12257 10.5549 3.12257 10.5668 3.16063 10.6816C3.18442 10.7534 3.23438 10.8371 3.28195 10.8849C3.36045 10.9614 3.36759 10.9638 3.6007 10.971L3.83858 10.9805L3.93134 10.8825C4.03601 10.7725 4.0598 10.684 4.04552 10.476C4.02411 10.1722 3.76483 10.024 3.43419 10.1268Z" fill="#778B8E"/>
<path d="M68.3299 10.4069C68.1964 10.4738 68.1587 10.5528 68.1587 10.7632C68.1587 11.1004 68.2535 11.1817 68.632 11.165C68.8462 11.1554 68.8577 11.153 68.9195 11.0813C68.9556 11.0406 69.0053 10.9497 69.0268 10.8804C69.0671 10.7584 69.0671 10.7489 69.0268 10.6269C69.0032 10.5576 68.965 10.4834 68.9409 10.4619C68.82 10.3519 68.5011 10.3232 68.3299 10.4069Z" fill="#778B8E"/>
<path d="M39.3996 11.2692C39.2164 11.3194 39.1237 11.4892 39.1427 11.7403C39.1546 11.9173 39.2069 11.9962 39.352 12.0703C39.5376 12.166 39.7374 12.1301 39.9015 11.9675C39.9491 11.9197 40.0086 11.8384 40.0324 11.7882C40.0704 11.6972 40.0704 11.6853 40.0347 11.5681C39.9515 11.3051 39.697 11.1855 39.3996 11.2692Z" fill="#778B8E"/>
<path d="M3.48048 11.5437C3.20692 11.558 3.21881 11.546 3.21881 11.7732C3.21881 12.0124 3.23309 12.0004 2.76685 12.1487C2.41718 12.2587 1.94143 12.4452 1.69642 12.5672C1.24922 12.792 0.828179 13.1507 0.678319 13.4353C0.502292 13.7677 0.452339 14.1742 0.547488 14.5043C0.792498 15.3532 1.6536 15.8841 2.42193 15.6641C2.63126 15.6043 2.94288 15.4537 3.12129 15.3293C3.19502 15.2767 3.26639 15.2337 3.2759 15.2337C3.31158 15.2337 3.36154 15.3101 3.44242 15.4847C3.53994 15.6928 3.67077 15.8172 3.84204 15.8674C4.11084 15.9463 5.72362 15.9702 6.22791 15.9032C6.43248 15.8769 6.44677 15.8698 6.54903 15.7717C6.71558 15.6115 6.78218 15.5852 6.9225 15.6282C6.98434 15.6473 7.09617 15.7024 7.16754 15.7502C7.36022 15.8817 7.60285 15.9247 8.23796 15.9415C8.82076 15.9582 9.08004 15.9272 9.24177 15.8147C9.35597 15.7358 9.54388 15.5373 9.62954 15.401C9.66755 15.3412 9.70085 15.2886 9.70562 15.2839C9.70803 15.2791 9.76274 15.3221 9.82458 15.3795C10.072 15.6115 10.4193 15.7956 10.7737 15.8841C11.0758 15.9582 11.5277 15.9606 11.8013 15.8865C12.2961 15.7526 12.7481 15.3484 12.9312 14.8749C13.0073 14.6836 13.0501 14.2914 13.0287 14.0116C12.9954 13.562 12.7742 13.1029 12.4221 12.7657C12.0915 12.4452 11.73 12.3209 11.1995 12.3472C10.7308 12.3711 10.4478 12.5098 10.0934 12.8829C9.79363 13.1937 9.5843 13.5907 9.3512 14.2795C9.16564 14.8295 9.05386 14.9586 8.73274 14.9969C8.44488 15.0304 7.79312 15.0208 7.60997 14.9825C7.42205 14.9419 7.11042 14.796 7.06047 14.7219C7.02957 14.6812 7.02481 14.4947 7.02481 13.5477C7.02481 12.9307 7.01528 12.4094 7.0034 12.3902C6.98675 12.3639 6.90585 12.3615 6.57521 12.3759L6.16843 12.395V13.5524C6.16843 14.3177 6.15896 14.7458 6.14231 14.8151C6.09231 15.0112 6.11372 15.0065 5.30496 15.016C4.44624 15.0256 4.25356 15.0112 4.21551 14.9419C4.11559 14.7577 4.08229 14.222 4.06564 12.6748L4.05375 11.5389L3.84442 11.5365C3.73024 11.5365 3.56611 11.5389 3.48048 11.5437ZM3.20454 12.8829C3.21168 12.9331 3.21881 13.3037 3.21881 13.7079V14.442L3.1308 14.5162C2.99759 14.6238 2.58369 14.753 2.30538 14.7721C1.64171 14.8151 1.29679 14.5569 1.28728 14.0068C1.2849 13.837 1.31106 13.7749 1.47757 13.5524C1.64409 13.3348 2.11032 13.0957 2.75496 12.8996C3.18075 12.7704 3.18551 12.7704 3.20454 12.8829ZM11.6752 13.3205C11.8489 13.3946 11.9892 13.5214 12.1177 13.7198C12.2509 13.9255 12.2818 14.0499 12.2818 14.3631C12.2818 14.5401 12.2723 14.6095 12.2342 14.6812C12.1795 14.7912 12.0701 14.8893 11.925 14.9562C11.8251 15.004 11.7775 15.0065 11.2352 15.0065C10.6904 15.0065 10.6428 15.004 10.4859 14.9514C10.2837 14.8845 10.0839 14.7673 10.0458 14.6932C10.022 14.6501 10.0268 14.6023 10.0791 14.4182C10.2289 13.8992 10.669 13.3635 11.0282 13.2703C11.1662 13.2344 11.5444 13.2631 11.6752 13.3205Z" fill="#778B8E"/>
<path d="M65.4936 11.5483L65.2674 11.5626V11.7419C65.2674 11.84 65.258 11.9357 65.2486 11.9524C65.2224 11.9906 64.9774 12.0935 64.7679 12.1485C64.5135 12.2178 63.8281 12.5024 63.5998 12.6315C63.1432 12.8946 62.9317 13.0763 62.727 13.3873C62.4678 13.7842 62.4369 14.3199 62.6511 14.7432C62.8935 15.2239 63.193 15.4893 63.6857 15.6687C63.9187 15.7524 64.2422 15.7428 64.5229 15.6447C64.7632 15.5611 65.0318 15.4224 65.1795 15.3099C65.2339 15.2693 65.2889 15.2335 65.3009 15.2335C65.3104 15.2335 65.3554 15.3052 65.4004 15.3937C65.4957 15.585 65.6863 15.8002 65.8025 15.8504C66.012 15.9389 67.2131 15.9772 68.01 15.9221L68.4215 15.8934L68.5215 15.8074C68.6618 15.6854 68.7545 15.6256 68.8262 15.6089C68.9021 15.5898 69.0807 15.6591 69.2948 15.7883C69.3969 15.8504 69.4943 15.8887 69.6037 15.9078C69.7776 15.9365 72.518 15.9652 72.5892 15.9389C72.6248 15.9221 72.6275 15.7978 72.6227 14.1382L72.6175 12.3518L72.2133 12.3613C71.9923 12.3637 71.8018 12.3757 71.7923 12.3852C71.7829 12.3924 71.7709 12.964 71.7635 13.6551C71.7567 14.3462 71.752 14.9345 71.752 14.9656L71.7494 15.0206L70.6624 15.0134L69.5729 15.0063L69.4064 14.9202C69.3163 14.8723 69.2069 14.8149 69.166 14.7934C69.1236 14.7719 69.0807 14.7408 69.0666 14.7241C69.0545 14.7073 69.0378 14.2147 69.0283 13.514C69.021 12.8635 69.0116 12.3302 69.009 12.3279C69.0042 12.3254 68.8236 12.3279 68.6074 12.335L68.2126 12.3446L68.1979 12.5646C68.1911 12.6842 68.1838 13.2175 68.1812 13.7507C68.1791 14.7073 68.167 14.9225 68.1147 14.9751C68.0838 15.0063 66.7068 15.0349 66.4591 15.0063C66.2167 14.9823 66.1858 14.9441 66.1596 14.6475C66.1502 14.516 66.1334 13.7699 66.1261 12.9879C66.1167 12.2059 66.1046 11.5602 66.0999 11.553C66.0811 11.5363 65.736 11.5315 65.4936 11.5483ZM65.2412 12.8707C65.2627 12.9544 65.2889 14.3031 65.27 14.4036C65.2554 14.4801 65.2365 14.5016 65.1412 14.5495C65.0795 14.5805 64.9224 14.6403 64.7915 14.681C64.5087 14.7695 64.2302 14.7958 63.9616 14.7575C63.8071 14.736 63.7501 14.7145 63.6406 14.6403C63.4595 14.516 63.3668 14.3892 63.3286 14.2099C63.2694 13.9181 63.3239 13.7579 63.5783 13.4973C63.7213 13.3537 63.7925 13.3035 63.9972 13.2031C64.3019 13.0572 64.5826 12.9496 64.8632 12.8779C65.1439 12.8038 65.2224 12.8013 65.2412 12.8707Z" fill="#778B8E"/>
<path d="M75.603 12.099L75.3198 12.3836L75.4433 12.4865C75.5695 12.5893 75.7884 12.7926 75.9716 12.9743C76.2831 13.2804 76.6041 13.7682 76.7161 14.103C76.7968 14.3446 76.7968 14.5479 76.7182 14.6722C76.5926 14.8683 76.3952 14.9903 76.1737 15.007C76.0905 15.0142 75.6266 15.0237 75.1412 15.0262L74.2611 15.0357L74.2422 15.3921C74.2328 15.5881 74.2302 15.7842 74.2375 15.8249C74.2495 15.899 74.259 15.9038 74.3516 15.9086C74.4061 15.911 74.4846 15.9158 74.5229 15.9182C74.7538 15.9373 75.9575 15.9253 76.1502 15.9038C76.7329 15.8369 76.7853 15.8177 77.1345 15.5642L77.2727 15.4638L77.3607 15.5092C77.4083 15.5355 77.4989 15.5905 77.5628 15.6359C77.7649 15.7818 78.034 15.8727 78.3503 15.9062C78.7524 15.9469 79.1875 15.9253 79.3995 15.8536C79.5466 15.8057 79.5896 15.7746 79.7802 15.5881C79.9749 15.3944 80.0561 15.3466 80.087 15.3968C80.1132 15.4398 80.5603 15.6957 80.7242 15.7651C81.0404 15.8942 81.2478 15.9349 81.5876 15.9349C81.8567 15.9349 81.9253 15.9277 82.1112 15.8703C82.563 15.7316 82.9081 15.4423 83.1363 15.0046C83.2741 14.7416 83.2981 14.6172 83.3002 14.182C83.3002 13.7946 83.2814 13.6726 83.1814 13.4621C82.9625 12.9982 82.6698 12.661 82.3489 12.5104C82.0729 12.3789 81.9661 12.3549 81.6138 12.3549C81.274 12.3549 81.0928 12.3908 80.8766 12.5008C80.6195 12.6323 80.32 12.9121 80.1462 13.1847C79.9891 13.4311 79.7655 13.9237 79.687 14.1915C79.5613 14.6268 79.4372 14.8181 79.2042 14.9353C79.0665 15.007 79.0639 15.007 78.6498 15.007C78.2743 15.007 78.2194 15.0022 78.0958 14.9544C77.8555 14.8588 77.7272 14.7822 77.6607 14.6937C77.601 14.6172 77.5937 14.5814 77.5722 14.3183C77.5513 14.0098 77.489 13.8041 77.313 13.4526C77.0586 12.9456 76.3355 12.0608 76.024 11.8766C75.9669 11.8431 75.9119 11.8145 75.9025 11.8145C75.8931 11.8145 75.7601 11.9436 75.603 12.099ZM81.997 13.3282C82.1373 13.4 82.4039 13.6774 82.4751 13.828C82.6416 14.17 82.5892 14.7009 82.3751 14.8611C82.2012 14.9903 82.1085 15.007 81.5164 15.007C81.0143 15.007 80.9551 15.0022 80.798 14.952C80.6148 14.8946 80.4032 14.7487 80.3577 14.6483C80.3221 14.5694 80.3865 14.3302 80.5127 14.0648C80.5933 13.8974 80.6504 13.8233 80.8478 13.62C81.0048 13.4598 81.1336 13.3545 81.219 13.3115C81.3452 13.2469 81.3619 13.2445 81.6138 13.2565C81.8352 13.266 81.897 13.278 81.997 13.3282Z" fill="#778B8E"/>
<path d="M41.3495 13.3105C41.1449 13.3631 40.7453 13.4923 40.7215 13.5138C40.712 13.5233 40.7405 13.6214 40.7857 13.7314C40.9189 14.0447 40.9927 14.3627 41.0236 14.7621C41.0926 15.6852 40.9023 16.2448 40.3861 16.6394C40.0459 16.9 39.7938 16.9909 39.3394 17.0172C38.7899 17.0507 38.4593 16.955 38.1168 16.6657C37.7243 16.3333 37.5173 15.8693 37.5126 15.3073C37.5102 15.0108 37.534 14.8817 37.6767 14.4488C37.7338 14.2719 37.7814 14.1092 37.7814 14.0853C37.7814 14.0351 37.5054 13.8175 37.3342 13.729L37.2366 13.6787L37.151 13.7553C36.8275 14.0399 36.5753 15.2523 36.6991 15.9291C36.7538 16.2184 36.7942 16.3381 36.9393 16.6178C37.1106 16.9455 37.2485 17.1344 37.4579 17.3305C37.7457 17.6007 38.0859 17.7753 38.5592 17.8972C39.5678 18.1603 40.8452 17.6605 41.4042 16.7876C41.692 16.3381 41.8324 15.941 41.8871 15.4293C41.9228 15.1065 41.9227 15.0132 41.899 14.7669C41.8419 14.212 41.6016 13.3057 41.5041 13.2818C41.4922 13.2794 41.4208 13.2913 41.3495 13.3105Z" fill="#778B8E"/>
<path d="M28.4211 16.6384C28.2261 16.6814 28.0834 16.7771 28.0144 16.911C27.9692 16.9995 27.9692 17.3654 28.0168 17.5208C28.0358 17.5854 28.0524 17.6476 28.0524 17.6571C28.0524 17.6691 27.9835 17.7074 27.8978 17.748C27.8146 17.7863 27.7337 17.8389 27.7194 17.8628C27.6814 17.9369 27.6909 18.0517 27.7432 18.1043C27.7884 18.1497 27.8217 18.1522 28.2142 18.1497C28.445 18.1497 28.7257 18.1402 28.835 18.1306C29.0539 18.1091 29.0991 18.0804 29.0991 17.9584C29.0991 17.8436 29.0325 17.7958 28.8256 17.7552C28.7209 17.7361 28.6091 17.7145 28.5758 17.7074C28.5449 17.7002 28.4664 17.638 28.4045 17.571C28.3046 17.4634 28.2904 17.4323 28.2904 17.3439C28.2904 17.2267 28.3617 17.0688 28.4402 17.0186C28.4711 16.9971 28.5901 16.9756 28.7304 16.966C28.9516 16.9493 28.9731 16.9445 29.0325 16.8799C29.1181 16.7891 29.0944 16.6934 28.9778 16.6527C28.9017 16.6264 28.521 16.6145 28.4211 16.6384Z" fill="#778B8E"/>
<path d="M5.82741 16.8299C5.78935 16.8371 5.76793 16.8514 5.77746 16.8658C5.78935 16.8849 5.77034 16.8873 5.72275 16.8778C5.63474 16.861 5.58479 16.9088 5.4944 17.1026C5.41114 17.2771 5.41352 17.3536 5.50391 17.4923C5.70848 17.8008 6.17471 17.7674 6.34597 17.4349C6.38168 17.3656 6.38404 17.3369 6.36027 17.2269C6.34362 17.1575 6.31984 17.0954 6.30791 17.0882C6.29602 17.0786 6.28649 17.0428 6.28649 17.0045C6.28649 16.9184 6.24848 16.8969 6.06769 16.8754C5.99156 16.8658 5.92972 16.8467 5.92972 16.8347C5.92972 16.8227 5.92255 16.8156 5.91307 16.8156C5.90119 16.818 5.86548 16.8252 5.82741 16.8299ZM5.98915 17.1001C5.97726 17.1193 5.96302 17.1193 5.94873 17.1049C5.93449 17.0906 5.93208 17.0667 5.94161 17.0524C5.95349 17.0332 5.96779 17.0332 5.98203 17.0475C5.99632 17.0619 5.99868 17.0858 5.98915 17.1001Z" fill="#778B8E"/>
<path d="M6.90612 16.8564C6.84429 16.8779 6.75392 17.0238 6.72774 17.1529C6.71821 17.196 6.70397 17.2414 6.69679 17.2557C6.65396 17.3275 6.75627 17.5714 6.85382 17.624C6.87523 17.636 6.94895 17.6575 7.0132 17.6695C7.0798 17.6815 7.14399 17.6958 7.15593 17.7005C7.17017 17.7053 7.23677 17.6934 7.30578 17.6766C7.40327 17.6528 7.4485 17.624 7.52463 17.5379C7.60788 17.4423 7.61977 17.4136 7.61977 17.3108C7.61977 17.1936 7.52935 16.964 7.46039 16.9066C7.41044 16.8636 7.213 16.8588 7.13451 16.8994C7.05597 16.9377 7.02744 16.9281 7.07262 16.8731C7.08933 16.854 7.09168 16.8373 7.07739 16.8373C7.0655 16.8373 7.04173 16.854 7.02267 16.8755C6.99655 16.909 6.98937 16.909 6.96796 16.8803C6.95372 16.8611 6.92518 16.8492 6.90612 16.8564Z" fill="#778B8E"/>
<path d="M52.7157 16.8817C52.68 16.9104 52.623 16.9917 52.5872 17.0635C52.5064 17.2333 52.5135 17.3887 52.6134 17.5203C52.7062 17.6422 52.8132 17.6805 53.0109 17.6685C53.225 17.6518 53.3224 17.5872 53.3863 17.415C53.4486 17.2524 53.446 17.1806 53.3816 17.0515C53.3104 16.9128 53.2036 16.8602 52.9653 16.8435C52.8013 16.8315 52.7728 16.8363 52.7157 16.8817Z" fill="#778B8E"/>
<path d="M71.3211 16.86C71.1829 16.8911 71.1238 16.9557 71.0594 17.1542C71.0096 17.3096 71.0096 17.3192 71.0473 17.4172C71.1044 17.5583 71.1688 17.6205 71.3138 17.6659C71.4232 17.7018 71.4615 17.7018 71.585 17.6755C71.8086 17.6301 71.8374 17.6086 71.8919 17.4627L71.9416 17.3312L71.8898 17.1279C71.8515 16.9892 71.8206 16.9174 71.7871 16.8959C71.7206 16.8528 71.4541 16.8337 71.3211 16.86ZM71.5232 17.0753C71.5301 17.0872 71.5253 17.0992 71.5138 17.0992C71.4992 17.0992 71.4876 17.0872 71.4876 17.0753C71.4876 17.0609 71.4924 17.0513 71.4971 17.0513C71.5044 17.0513 71.5159 17.0609 71.5232 17.0753Z" fill="#778B8E"/>
<path d="M72.5416 16.8601C72.4416 16.8911 72.3777 16.9796 72.3468 17.1255C72.3086 17.2977 72.3133 17.3742 72.3683 17.489C72.4395 17.6421 72.5248 17.6803 72.7678 17.6779C73.1102 17.6732 73.2243 17.5703 73.2243 17.2618C73.2243 17.1159 73.217 17.0921 73.1505 17.0155C73.1076 16.9677 73.0437 16.9127 73.0055 16.8936C72.9201 16.8481 72.6442 16.829 72.5416 16.8601Z" fill="#778B8E"/>
<path d="M52.33 20.945C52.3229 20.957 52.3157 21.7797 52.3133 22.7745C52.3133 23.7717 52.3038 24.5848 52.2943 24.5848C52.2824 24.5848 52.2182 24.5178 52.1468 24.4341C51.9779 24.238 51.8043 24.0682 51.683 23.9869C51.3547 23.7574 50.8813 23.6091 50.5626 23.6378C49.9751 23.6856 49.4351 23.9439 49.0164 24.3719C48.7476 24.647 48.6144 24.867 48.4669 25.2783C48.3313 25.6633 48.2909 25.9838 48.3194 26.4214C48.3432 26.7466 48.3837 26.9308 48.4883 27.2082C48.5787 27.4401 48.6644 27.5836 48.8546 27.8132C49.1829 28.2078 49.5373 28.4302 50.1273 28.6048C50.4294 28.6956 50.6078 28.6956 50.9408 28.6024C51.388 28.4756 51.5474 28.38 52.0731 27.916C52.2967 27.7175 52.3371 27.6888 52.3657 27.708C52.3847 27.72 52.3871 27.8251 52.3752 28.0787C52.3609 28.368 52.3633 28.4374 52.3895 28.4445C52.4561 28.4661 53.0486 28.4756 53.0795 28.4565C53.1078 28.4397 53.1125 27.8156 53.1198 24.7163L53.1245 20.9976L53.0366 21.012C52.9151 21.0311 52.418 20.9857 52.3752 20.9498C52.3585 20.9355 52.3371 20.9331 52.33 20.945ZM51.2263 24.4532C51.4451 24.5107 51.6069 24.6135 51.84 24.8455C52.0897 25.0942 52.2206 25.307 52.3205 25.6298C52.3871 25.8403 52.3942 25.8953 52.3942 26.1751C52.3942 26.4333 52.3847 26.5122 52.3419 26.6414C52.1183 27.2967 51.6449 27.7893 51.1573 27.8658C50.9479 27.8993 50.3628 27.8754 50.2224 27.83C49.9822 27.7534 49.8299 27.6577 49.6491 27.4784C49.4993 27.3277 49.447 27.2536 49.3471 27.0455C49.1996 26.7442 49.152 26.529 49.152 26.1559C49.152 25.3452 49.5992 24.6661 50.2533 24.4771C50.5578 24.3887 50.9408 24.3791 51.2263 24.4532Z" fill="#778B8E"/>
<path d="M68.5399 21.284C67.522 21.3796 66.6963 21.7455 66.0659 22.3816C65.5617 22.891 65.2622 23.4912 65.0978 24.3187C65.0669 24.4765 65.0575 24.6415 65.0575 25.0385C65.0596 25.5503 65.0596 25.5551 65.1455 25.8827C65.2858 26.4136 65.4287 26.7316 65.7046 27.131C66.1874 27.8269 66.8345 28.2454 67.767 28.4654C68.7467 28.6974 69.8912 28.5611 70.7855 28.1067C71.0044 27.9943 71.0138 27.9776 71.0138 27.6332C71.0138 27.3319 71.0138 27.3319 70.9614 27.3462C70.9305 27.3558 70.7567 27.4108 70.5735 27.4706C69.6698 27.7599 68.9299 27.8484 68.2021 27.7528C67.843 27.705 67.6314 27.6428 67.3555 27.5041C66.9675 27.308 66.6728 27.0401 66.4183 26.6527C66.2183 26.3442 66.1565 26.2199 66.0827 25.9712C65.9732 25.6076 65.9376 25.3661 65.9397 24.9668C65.9397 24.5698 65.9732 24.345 66.0801 23.9863C66.2157 23.5415 66.5654 23.0034 66.9272 22.683C67.2052 22.4342 67.7833 22.1808 68.1948 22.121C68.4446 22.0851 69.0441 22.0923 69.3132 22.1329C69.7886 22.2047 70.4331 22.4151 70.7023 22.5849C70.7546 22.6184 70.807 22.6471 70.8185 22.6471C70.8305 22.6471 70.8546 22.5849 70.8709 22.5084C70.8855 22.4342 70.9258 22.2931 70.9567 22.1951C70.9876 22.0995 71.0138 21.999 71.0138 21.9775C71.0138 21.8699 70.7211 21.7096 70.2001 21.5351C69.565 21.3222 69.0158 21.2409 68.5399 21.284Z" fill="#778B8E"/>
<path d="M3.72557 21.3988C3.59949 21.4083 3.66372 21.2744 3.06904 22.7547C2.95962 23.0297 2.79072 23.4386 2.69558 23.6634C2.45533 24.235 2.29357 24.6248 2.24361 24.7635C2.21983 24.8281 2.16036 24.9739 2.11279 25.0863C2.06759 25.1987 1.88205 25.6555 1.70364 26.1027C1.26833 27.2027 0.949581 27.9728 0.830644 28.2239C0.752146 28.3913 0.740252 28.4367 0.766418 28.4463C0.813993 28.4654 1.58709 28.4582 1.61563 28.4391C1.6299 28.4295 1.6632 28.353 1.69413 28.2669C1.76073 28.0756 1.83685 27.8747 1.96292 27.5614C2.01526 27.4299 2.08424 27.2578 2.11279 27.1788C2.34352 26.5786 2.4244 26.3849 2.4577 26.3658C2.48863 26.3466 5.59526 26.349 5.62618 26.3681C5.67138 26.3968 5.74275 26.5643 5.94496 27.1142C5.99014 27.2386 6.11622 27.5662 6.22565 27.8436C6.33503 28.1234 6.43021 28.3697 6.43733 28.3913C6.44686 28.4152 6.4754 28.4391 6.50629 28.4463C6.57054 28.4606 7.36502 28.5013 7.37932 28.4893C7.38408 28.4846 7.37696 28.4582 7.36267 28.4271C7.32696 28.3554 7.24135 28.1426 6.71091 26.8081C6.46351 26.184 6.21136 25.5598 6.15188 25.4211C6.0924 25.2824 5.98297 25.0194 5.90689 24.8352C5.83076 24.6511 5.74751 24.4454 5.71657 24.3809C5.68803 24.3139 5.59526 24.0891 5.50963 23.8787C5.05529 22.7619 4.91256 22.4056 4.7627 22.0062C4.67231 21.7646 4.57716 21.5279 4.55099 21.4753L4.50579 21.3844L4.16564 21.3868C3.97772 21.3892 3.78028 21.3939 3.72557 21.3988ZM4.07049 22.4007C4.08476 22.439 4.14899 22.5968 4.21321 22.7547C4.27744 22.9125 4.42254 23.2832 4.53434 23.5798C4.64852 23.8763 4.81503 24.2995 4.91018 24.5243C5.11951 25.0265 5.31219 25.5168 5.31219 25.555C5.31219 25.5694 5.2884 25.5862 5.25986 25.5909C5.22893 25.5957 4.66517 25.5957 4.00388 25.5885L2.80262 25.5766L2.79548 25.5096C2.79072 25.469 2.90966 25.1365 3.13326 24.577C3.63518 23.3119 3.82072 22.8312 3.90635 22.5681C3.98723 22.3266 4.02767 22.286 4.07049 22.4007Z" fill="#778B8E"/>
<path d="M34.0346 21.4016L33.8681 21.416L33.8538 21.5236C33.8443 21.5834 33.8253 21.8728 33.811 22.1693C33.7968 22.4658 33.7682 22.9752 33.7492 23.3052C33.7302 23.6329 33.6969 24.2236 33.6778 24.6181C33.6564 25.0104 33.6302 25.4814 33.6183 25.6656C33.6064 25.8497 33.585 26.3519 33.5708 26.78C33.5565 27.2104 33.5351 27.7557 33.5255 27.9924C33.5137 28.2292 33.5089 28.4325 33.5161 28.4444C33.5232 28.454 33.5827 28.4564 33.6516 28.4492C33.7182 28.442 33.8871 28.4349 34.0275 28.4349H34.282L34.2939 28.332C34.3082 28.2316 34.3249 27.9518 34.3915 26.5815C34.4105 26.1869 34.439 25.7015 34.4509 25.5054C34.5056 24.6994 34.5461 23.8816 34.5461 23.5181C34.5461 23.0852 34.5627 22.9035 34.6031 22.9178C34.6674 22.9394 34.8125 23.1929 35.2525 24.0585C35.5047 24.5536 35.8615 25.2064 36.8035 26.8876C36.8891 27.043 36.9914 27.2057 37.0271 27.2511L37.0937 27.3348L37.3125 27.3324C37.4338 27.3324 37.5694 27.3204 37.6146 27.3037C37.7312 27.2631 37.8334 27.1148 38.1047 26.5958C38.2307 26.3519 38.4281 25.9836 38.5423 25.7803C38.6565 25.5771 38.766 25.3762 38.785 25.338C38.8516 25.2088 38.9991 24.9386 39.2203 24.5368C39.3392 24.3192 39.539 23.9485 39.6603 23.7118C40.1075 22.8389 40.1123 22.8294 40.1622 22.8796C40.1789 22.8963 40.1955 23.1833 40.2098 23.7022C40.2313 24.5607 40.2527 25.094 40.3264 26.7728C40.3811 27.9637 40.4096 28.4062 40.4334 28.4301C40.4501 28.4468 41.0852 28.454 41.178 28.4372C41.2327 28.4277 41.2327 28.4229 41.2208 28.234C41.2041 28.0187 41.1827 27.5716 41.0757 25.3738C41.0043 23.9127 40.99 23.5779 40.9567 22.7743C40.9258 22.0593 40.8949 21.6121 40.8592 21.4375C40.8497 21.3873 40.8402 21.3849 40.4762 21.3921L40.1004 21.3993L40.0386 21.4901C40.0029 21.5428 39.8816 21.7604 39.7674 21.978C39.6532 22.1956 39.4439 22.5878 39.3035 22.8509C39.1632 23.1139 38.9443 23.5277 38.8159 23.7716C38.5495 24.2786 38.2212 24.8836 38.0904 25.1108C38.0428 25.1968 37.9405 25.3834 37.8644 25.5293C37.7883 25.6728 37.6765 25.8808 37.6146 25.9884C37.5528 26.096 37.4886 26.2348 37.4719 26.2946C37.4553 26.3543 37.4338 26.4021 37.4243 26.4021C37.4029 26.4021 37.1532 25.9908 36.9819 25.6752C36.9176 25.558 36.832 25.4025 36.7892 25.3284C36.7464 25.2542 36.6346 25.0486 36.5418 24.8717C36.4467 24.6947 36.2825 24.3861 36.1755 24.1901C36.0684 23.9916 35.8901 23.6592 35.783 23.4488C35.676 23.2383 35.5475 22.9896 35.4975 22.8987C35.45 22.8055 35.3596 22.6404 35.3001 22.528C35.243 22.4156 35.1075 22.1574 35.0051 21.9541C34.7578 21.4734 34.7221 21.4112 34.6579 21.3945C34.5984 21.3778 34.2773 21.3826 34.0346 21.4016Z" fill="#778B8E"/>
<path d="M8.7491 21.4987C8.57072 21.5442 8.46605 21.6374 8.35898 21.8526C8.29238 21.989 8.29715 22.0583 8.38752 22.2424C8.47077 22.4122 8.58973 22.5198 8.77052 22.5892C8.87518 22.6299 8.87754 22.6299 9.00362 22.5725C9.14158 22.5079 9.32714 22.362 9.37233 22.2807C9.40804 22.2161 9.41039 21.9507 9.37709 21.8239C9.36044 21.7689 9.31049 21.6876 9.25101 21.6302C9.11781 21.4939 8.9489 21.4509 8.7491 21.4987Z" fill="#778B8E"/>
<path d="M54.901 21.4972C54.7843 21.5211 54.6633 21.6406 54.5754 21.82C54.4895 21.9922 54.4874 22.0424 54.5633 22.2002C54.6607 22.4035 54.8345 22.5638 54.9937 22.5996C55.1843 22.6427 55.534 22.4227 55.5932 22.2218C55.6382 22.0735 55.6267 21.93 55.5602 21.7865C55.4911 21.6383 55.4456 21.5808 55.3602 21.5354C55.2843 21.4948 55.0178 21.4733 54.901 21.4972Z" fill="#778B8E"/>
<path d="M72.8081 21.4842C72.796 21.4914 72.7557 21.501 72.7201 21.5081C72.6369 21.5273 72.4463 21.7186 72.4013 21.8238C72.2562 22.173 72.6536 22.6776 73.0102 22.5963C73.1437 22.5651 73.3029 22.448 73.3908 22.3141C73.4505 22.2256 73.462 22.1849 73.462 22.0558C73.462 21.8214 73.3599 21.6062 73.2149 21.5368C73.1437 21.5034 72.8557 21.4675 72.8081 21.4842Z" fill="#778B8E"/>
<path d="M75.3302 22.497C75.3135 22.509 75.3014 22.7361 75.2967 23.1259C75.2899 23.8793 75.3182 23.8266 74.9187 23.8434C74.7663 23.8506 74.5595 23.8506 74.4595 23.8434L74.2763 23.8314L74.2642 24.1423C74.2595 24.3121 74.2595 24.4603 74.2689 24.4699C74.2762 24.4795 74.4998 24.4986 74.7637 24.5106C75.0281 24.5226 75.2564 24.5393 75.2705 24.5488C75.2873 24.5584 75.2946 25.0056 75.2946 25.9C75.2946 26.6366 75.2993 27.2822 75.3061 27.3397C75.337 27.574 75.3779 27.7151 75.4679 27.9088C75.6418 28.2771 75.9224 28.4851 76.4219 28.6143C76.7052 28.686 76.869 28.6884 77.1497 28.6262C77.5235 28.5425 77.8372 28.4038 77.8848 28.301C77.9492 28.1575 77.9445 27.7892 77.8775 27.7892C77.8612 27.7892 77.7612 27.8155 77.6591 27.849C77.4947 27.9016 77.4282 27.9088 77.0664 27.9112C76.7052 27.916 76.6502 27.9112 76.5549 27.8681C76.3884 27.7916 76.2554 27.6816 76.1863 27.562C76.1292 27.464 76.1198 27.4186 76.1009 27.1244C76.0915 26.9451 76.0816 26.2946 76.0795 25.68C76.0795 24.8119 76.0863 24.5584 76.1104 24.5441C76.1245 24.5345 76.4957 24.5226 76.9308 24.5177L77.723 24.5106L77.7162 24.1854L77.7089 23.8578L77.0188 23.8506C76.6408 23.8458 76.2889 23.8314 76.2386 23.8171C76.0889 23.7764 76.0842 23.7549 76.0769 23.114C76.0721 22.7983 76.0653 22.5281 76.0606 22.5113C76.0507 22.4803 75.3705 22.4683 75.3302 22.497Z" fill="#778B8E"/>
<path d="M13.0676 23.6465C12.5872 23.723 12.2922 23.8856 11.8878 24.2946C11.6476 24.5337 11.6452 24.5337 11.6404 24.2156C11.638 24.0219 11.6119 23.833 11.5833 23.8043C11.569 23.7875 11.1266 23.8306 10.9768 23.8593L10.9054 23.8736L10.9078 26.0785C10.9078 27.2886 10.9125 28.3289 10.9197 28.3863L10.9316 28.4915L11.2575 28.4772C11.6904 28.4556 11.6832 28.458 11.6975 28.3074C11.7046 28.2404 11.7165 27.5995 11.7237 26.882C11.7308 26.1646 11.7475 25.5237 11.7594 25.4591C11.7998 25.2511 11.9853 24.9115 12.1614 24.7298C12.3422 24.5456 12.4397 24.4882 12.6799 24.4333C12.9083 24.383 13.0796 24.3854 13.3293 24.4452C13.5767 24.5026 13.6743 24.5743 13.8241 24.8087C14.0525 25.1602 14.0715 25.3204 14.0834 27.0566L14.0953 28.4604L14.1524 28.4748C14.2332 28.4963 14.797 28.4772 14.8208 28.4532C14.8303 28.4413 14.8469 27.9032 14.8565 27.2575C14.8636 26.6094 14.8779 25.9685 14.8874 25.8298C14.9255 25.2272 15.092 24.8637 15.4512 24.5959C15.5606 24.5169 15.6343 24.4835 15.8009 24.4452C16.053 24.3854 16.2005 24.383 16.4288 24.4333C16.6382 24.481 16.7095 24.5217 16.876 24.6987C17.0473 24.8781 17.121 25.0096 17.1853 25.244C17.2352 25.4281 17.2376 25.4831 17.2471 26.9251L17.259 28.4149L17.3114 28.4436C17.3661 28.4748 17.8608 28.4819 17.9702 28.4532C18.0178 28.4413 18.0368 28.4174 18.0464 28.36C18.0701 28.1998 18.0654 25.7175 18.0392 25.4376C18.0131 25.1244 17.9893 25.0096 17.906 24.7704C17.8299 24.5504 17.7918 24.4835 17.642 24.2802C17.3328 23.8665 16.8689 23.6441 16.3147 23.6488C15.9745 23.6488 15.6914 23.7326 15.4107 23.9119C15.1562 24.0721 14.916 24.328 14.8136 24.548C14.7637 24.6485 14.7447 24.6533 14.7066 24.5791C14.6353 24.4452 14.3356 24.0721 14.2285 23.986C13.9002 23.7254 13.4292 23.5867 13.0676 23.6465Z" fill="#778B8E"/>
<path d="M21.332 23.6761C20.98 23.7383 20.9039 23.7646 20.6541 23.8961C20.0356 24.2237 19.6574 24.6709 19.4338 25.3262C19.3315 25.6251 19.3125 25.7853 19.3125 26.2588C19.3125 26.6726 19.3173 26.7156 19.3791 26.9285C19.6051 27.6913 20.1046 28.2174 20.9514 28.5881C21.1774 28.6861 21.2416 28.7052 21.4153 28.7148C21.6056 28.7268 21.6341 28.722 21.9148 28.6288C22.0766 28.5737 22.2978 28.4781 22.4025 28.4183C22.588 28.3107 23.0305 27.9543 23.197 27.7798C23.3397 27.6315 23.3421 27.6339 23.3492 28.1959L23.3539 28.447L23.7251 28.4542L24.0961 28.4589L24.1128 27.543C24.1223 27.0385 24.1271 26.003 24.1247 25.2449C24.1175 24.0252 24.1128 23.8602 24.0795 23.8459C24.0248 23.8243 23.3492 23.8291 23.3254 23.8507C23.3159 23.8626 23.3016 24.0444 23.2945 24.2572L23.2826 24.6446L23.1351 24.4533C22.8045 24.0204 22.4524 23.7861 21.9672 23.6761C21.7079 23.6187 21.6437 23.6187 21.332 23.6761ZM22.0552 24.4198C22.1384 24.4318 22.2883 24.4748 22.3882 24.5131C22.7973 24.6709 23.2255 25.221 23.3302 25.7207C23.3706 25.9145 23.3778 26.3593 23.3421 26.5482C23.2873 26.8495 23.1208 27.1532 22.8568 27.4402C22.4976 27.83 22.1408 27.9376 21.451 27.8611C21.2298 27.8371 21.0014 27.7583 20.8444 27.653C20.5375 27.4474 20.245 27.0098 20.1807 26.6534C20.1426 26.4478 20.1474 25.8499 20.1902 25.649C20.2307 25.4529 20.3496 25.2114 20.5209 24.9842C20.7183 24.7164 21.0228 24.5179 21.332 24.4557C21.6722 24.3888 21.8268 24.3816 22.0552 24.4198Z" fill="#778B8E"/>
<path d="M58.9531 23.6511C58.3965 23.7205 57.909 23.962 57.5143 24.3637C56.9744 24.9114 56.6912 25.8225 56.8221 26.5926C56.9409 27.2813 57.186 27.7333 57.6687 28.1422C57.8876 28.3263 58.3206 28.5463 58.651 28.6372C58.9557 28.7233 59.1175 28.7114 59.5149 28.5822C59.9217 28.4483 60.1856 28.2785 60.5877 27.8983C60.7066 27.7859 60.8087 27.6926 60.8181 27.6926C60.8254 27.6926 60.8228 27.8576 60.816 28.0585C60.8087 28.2689 60.8113 28.4316 60.8228 28.4387C60.8348 28.4459 61.0061 28.4555 61.2013 28.4602L61.5579 28.4698L61.5652 26.1597L61.57 23.8496L61.4223 23.8353C61.3391 23.8281 61.182 23.8233 61.0725 23.8257C60.8851 23.8305 60.8704 23.8353 60.8228 23.8974C60.7636 23.9787 60.7443 24.2202 60.7825 24.4259C60.8113 24.5814 60.7898 24.6435 60.7348 24.5646C60.716 24.5407 60.6186 24.4259 60.516 24.3135C60.2332 24.0026 59.8955 23.785 59.5646 23.7013C59.3411 23.6439 59.1437 23.6296 58.9531 23.6511ZM59.6358 24.4379C59.8741 24.4857 59.9641 24.5288 60.1662 24.6985C60.4018 24.8947 60.6374 25.2199 60.7375 25.4853C60.7966 25.6431 60.8563 25.9899 60.8563 26.174C60.8537 26.7911 60.4877 27.4487 59.9882 27.7285C59.7479 27.8648 59.5908 27.8935 59.1934 27.8743C58.896 27.86 58.8201 27.8481 58.6248 27.7811C58.4394 27.7189 58.375 27.6807 58.2515 27.5731C58.0326 27.3793 57.9352 27.2526 57.8211 27.0111C57.6614 26.681 57.6331 26.5447 57.6331 26.1262C57.6331 25.7866 57.6378 25.7556 57.7069 25.5642C57.9447 24.8875 58.3965 24.5001 59.0363 24.4188C59.2934 24.3876 59.3981 24.3901 59.6358 24.4379Z" fill="#778B8E"/>
<path d="M27.817 23.6916C27.5077 23.7609 27.2295 23.9236 26.9226 24.2249C26.8013 24.3445 26.6823 24.4425 26.6633 24.4425C26.63 24.4425 26.6252 24.3995 26.6252 24.1436C26.6252 23.9786 26.6181 23.8423 26.6086 23.8423C26.5229 23.8279 26.4064 23.8255 26.1685 23.8375L25.8878 23.8519V26.1548C25.8878 27.9819 25.8949 28.4601 25.9188 28.4625C26.002 28.4697 26.5277 28.4554 26.5919 28.4458C26.6657 28.4314 26.6657 28.4314 26.6657 28.2855C26.6681 27.812 26.6871 27.2716 26.7014 27.2955C26.7108 27.3099 26.718 26.9464 26.7204 26.4872C26.7228 25.4302 26.7347 25.3106 26.8488 25.0954C26.9463 24.916 27.2247 24.6147 27.3745 24.5262C27.4934 24.4569 27.7861 24.3947 27.9978 24.3947C28.2047 24.3947 28.4807 24.4688 28.6043 24.5526C28.7138 24.629 28.885 24.8251 28.9421 24.94C29.0611 25.1743 29.0991 25.7267 29.0991 27.3027C29.0991 28.3549 29.1015 28.4314 29.1419 28.4482C29.1634 28.4553 29.3441 28.4554 29.5392 28.4458L29.8984 28.4314L29.8888 28.2593C29.8841 28.1397 29.8888 28.099 29.9055 28.1253C29.9221 28.1493 29.9293 27.7475 29.9269 26.8818C29.9246 26.1787 29.9174 25.655 29.9079 25.7219C29.896 25.8128 29.8913 25.7745 29.8888 25.5665C29.8888 25.2604 29.8651 25.1169 29.7723 24.8371C29.6843 24.5669 29.6248 24.4545 29.4488 24.2369C29.1681 23.8949 28.9183 23.7466 28.5282 23.6892C28.2261 23.6462 28.0192 23.6462 27.817 23.6916Z" fill="#778B8E"/>
<path d="M44.6058 23.6913C44.1967 23.7655 43.8327 23.9592 43.5068 24.2725C43.3926 24.3849 43.257 24.5379 43.2047 24.6145C43.0572 24.8368 42.8812 25.2242 42.8075 25.4826C42.7432 25.7097 42.7408 25.7432 42.7432 26.2C42.7456 26.64 42.7504 26.6974 42.8098 26.9174C42.9216 27.3287 43.2166 27.7974 43.533 28.07C43.9088 28.3905 44.6581 28.6273 45.2933 28.6273C45.7357 28.6273 46.3399 28.5101 46.6539 28.3618C46.8371 28.2757 46.9037 28.2183 46.9679 28.0892C47.0107 28.0079 47.0154 27.9696 47.0012 27.8046C46.9917 27.7018 46.9798 27.6062 46.975 27.5966C46.9679 27.587 46.9013 27.6037 46.8252 27.6348C46.642 27.709 46.1258 27.8357 45.8855 27.862C45.3027 27.9313 44.6272 27.862 44.3108 27.7018C44.0682 27.5775 43.778 27.2522 43.6662 26.9748C43.6139 26.8481 43.5377 26.5443 43.5377 26.4678C43.5377 26.4463 43.9493 26.4391 45.2504 26.4343C46.1924 26.432 46.994 26.4248 47.0321 26.4152C47.0726 26.408 47.1106 26.3769 47.1273 26.3411C47.1796 26.2263 47.151 25.8436 47.0559 25.3678C46.906 24.6217 46.4755 24.0788 45.8047 23.7966C45.4931 23.6651 44.9912 23.6196 44.6058 23.6913ZM45.3813 24.4184C45.8641 24.5427 46.1567 24.8584 46.366 25.4849C46.4279 25.6667 46.4327 25.7026 46.4041 25.7313C46.3613 25.7767 45.6786 25.803 44.5107 25.803C43.8327 25.8054 43.6091 25.7982 43.5782 25.7743C43.5449 25.748 43.5425 25.7289 43.571 25.5639C43.621 25.2865 43.7661 25.0042 43.9612 24.8081C44.1538 24.6121 44.3418 24.5068 44.6391 24.4303C44.9103 24.3586 45.1362 24.3562 45.3813 24.4184Z" fill="#778B8E"/>
<path d="M72.5233 24.2985C72.4992 24.8987 72.528 28.4381 72.5542 28.4643C72.5636 28.4739 72.7375 28.4739 72.9396 28.4643L73.3082 28.4476L73.3202 27.0127C73.327 26.2236 73.3296 25.1833 73.3249 24.7027L73.3202 23.8274L73.2652 23.837C73.237 23.8417 73.061 23.837 72.8778 23.8274L72.5401 23.8082L72.5233 24.2985Z" fill="#778B8E"/>
<path d="M8.46269 24.2074C8.45321 24.4202 8.4508 25.6661 8.45557 26.9743C8.46269 29.5211 8.45792 29.6527 8.34855 29.8129C8.27242 29.9277 8.03691 30.0735 7.85852 30.1213C7.535 30.2026 7.11393 30.174 6.94743 30.0568C6.84518 29.9826 6.81423 29.997 6.73334 30.1692C6.64297 30.3629 6.64773 30.5279 6.74528 30.6259C6.91178 30.7933 7.71103 30.8818 8.1178 30.779C8.37232 30.7144 8.67678 30.5638 8.78857 30.4466C8.95271 30.2744 9.12874 29.9826 9.18822 29.7842L9.24529 29.5929L9.25482 26.704L9.26194 23.8152L8.86946 23.8175L8.47934 23.8224L8.46269 24.2074Z" fill="#778B8E"/>
<path d="M54.6827 23.8506C54.6753 23.8673 54.6732 24.9076 54.6753 26.1583C54.6827 28.1528 54.6874 28.4397 54.7183 28.4612C54.7539 28.4851 55.4152 28.4708 55.4581 28.4445C55.4701 28.4373 55.4796 27.4521 55.4796 26.132V23.8315L55.0869 23.8243C54.7732 23.8195 54.6921 23.8243 54.6827 23.8506Z" fill="#778B8E"/>
<path d="M78.5775 23.8451C78.5775 23.8618 78.6084 23.9288 78.6461 23.9957C78.6843 24.0627 78.7414 24.1823 78.7749 24.2612C78.8749 24.5004 79.177 25.1628 79.4289 25.6961C79.5577 25.971 79.7812 26.4445 79.9216 26.7483C80.5567 28.121 80.5158 28.0133 80.4661 28.1903C80.4184 28.3553 80.2069 28.8384 79.8619 29.5582C79.7215 29.8547 79.598 30.1226 79.5886 30.1561C79.5786 30.1895 79.5121 30.3306 79.443 30.4717C79.3718 30.6128 79.3147 30.7443 79.3147 30.7658C79.3147 30.797 79.3577 30.7994 79.6194 30.7874C79.7859 30.7802 79.9572 30.7635 80.0001 30.7491C80.0975 30.7204 80.1781 30.6009 80.3211 30.2876C80.4635 29.9719 80.6755 29.5056 80.8682 29.0919C80.9514 28.9077 81.12 28.5371 81.2415 28.2668C81.363 27.9966 81.4698 27.7646 81.4792 27.7527C81.4892 27.7383 81.6436 27.4059 81.8243 27.0113C82.0049 26.6168 82.2452 26.105 82.3573 25.8754C82.6259 25.3254 82.7185 25.1221 82.8877 24.7036C82.9662 24.5123 83.083 24.2397 83.1468 24.0962C83.2112 23.9503 83.2589 23.8307 83.2542 23.8259C83.2495 23.8212 83.0877 23.8284 82.8924 23.8427C82.6976 23.8546 82.5212 23.8666 82.4997 23.8666C82.462 23.8666 82.3264 24.156 81.9316 25.0862C81.8483 25.2775 81.7028 25.61 81.6033 25.8276C81.208 26.6981 81.1415 26.8511 81.0703 27.0161C81.0321 27.1118 80.9871 27.1907 80.9729 27.1907C80.9347 27.1907 80.8823 27.0783 80.6043 26.4015C80.5232 26.2102 80.397 25.9208 80.3184 25.7558C79.9666 25.0145 79.6671 24.3545 79.5456 24.0579C79.443 23.8116 79.4906 23.8307 79.0053 23.8259C78.7011 23.8212 78.5775 23.8259 78.5775 23.8451Z" fill="#778B8E"/>
<path fill-rule="evenodd" clip-rule="evenodd" d="M90.6367 11.1083C88.8953 13.7014 87.2654 16.128 87.2654 18.9985C87.2654 20.1372 87.4544 20.8203 88.2094 21.6553C89.121 22.5723 89.9022 22.9887 90.8137 23.1022C90.6629 25.1093 91.3582 26.1668 92.7766 26.9691C93.3542 27.2957 93.6212 27.3794 94.1715 27.552C94.1966 27.56 94.2223 27.568 94.249 27.5764C94.0982 28.5253 94.4678 29.6571 95.0417 30.3092C95.9098 31.296 96.8915 31.9792 98.5146 31.9792H98.9298C99.7969 31.9792 100.831 31.6907 101.995 31.3658C104.632 30.6299 107.939 29.707 111.5 31.5237C110.783 30.423 107.989 27.9939 104.932 27.9939C102.812 27.9939 101.531 28.6175 100.297 29.2186C99.422 29.6449 98.5696 30.06 97.4575 30.2333C96.8161 29.5121 96.7025 28.4873 97.0046 27.5005C101.081 26.0202 104.781 25.337 108.065 27.2727C107.121 25.6027 104.328 23.629 101.346 23.629C100.145 23.629 99.4016 23.7984 98.5528 24.1224C99.2759 23.0667 99.6581 22.537 100.289 21.7312C102.251 21.7692 103.535 22.1867 104.63 22.9079C104.177 21.9969 102.78 20.7064 101.421 20.0992C104.064 15.5445 103.082 11.5213 101.723 9.1301C101.497 13.1913 100.742 15.5066 97.9863 19.2262C96.9292 19.1882 96.325 19.2642 95.2307 19.6437C95.6516 19.0329 96.0438 18.4799 96.4061 17.9684C98.3193 15.27 99.4131 13.7279 99.6094 10.952C99.8105 8.10532 99.2319 6.43528 98.2502 4.72729C98.1387 9.6325 96.2223 12.3767 94.3186 15.1031C93.0112 16.9756 91.7096 18.8397 91.0027 21.3897C90.8368 21.4858 90.6624 21.5051 90.4739 21.4656C90.21 21.124 89.9456 20.5926 89.9456 19.9853C89.9456 17.6974 91.2221 15.9283 92.63 13.9777C94.0715 11.9805 95.6501 9.79287 96.1365 6.66301C96.4077 4.91706 95.9475 2.41201 94.7773 0.362427C94.8589 4.82102 92.6714 8.07835 90.6367 11.1083ZM95.2422 22.5495C95.4427 22.4939 95.6516 22.436 95.8721 22.3765C95.2699 23.6636 94.9893 24.4167 94.5134 25.7731C94.427 25.8046 94.339 25.8363 94.249 25.8684C93.4562 25.7165 93.1918 24.3122 93.683 22.9457C94.1835 22.8429 94.6804 22.7053 95.2422 22.5495Z" fill="#778B8E"/>
</g>
</g>
<defs>
<clipPath id="clip0_5_771">
<rect width="111" height="32" fill="white" transform="translate(0.5)"/>
</clipPath>
<clipPath id="clip1_5_771">
<rect width="111" height="32" fill="white" transform="translate(0.5)"/>
</clipPath>
</defs>
</svg>
