<svg width="62" height="32" viewBox="0 0 62 32" fill="none" xmlns="http://www.w3.org/2000/svg">
<g clip-path="url(#clip0_5_478)">
<g clip-path="url(#clip1_5_478)">
<path d="M35.8135 31.7363C35.676 31.7452 35.5385 31.7256 35.4087 31.6789C35.2792 31.6322 35.1604 31.559 35.0602 31.4641C34.9598 31.3693 34.8798 31.2548 34.8252 31.1277C34.7705 31.0005 34.7423 30.8633 34.7426 30.7249V29.2175C34.7432 29.0797 34.7716 28.9436 34.8266 28.8175C34.8816 28.6915 34.9618 28.5781 35.0625 28.4846C35.163 28.3911 35.2815 28.3194 35.4107 28.274C35.5399 28.2286 35.6771 28.2103 35.8135 28.2205H36.343C36.4794 28.2103 36.6166 28.2286 36.7458 28.274C36.875 28.3194 36.9935 28.3911 37.094 28.4846C37.1944 28.5781 37.2747 28.6915 37.3299 28.8175C37.3849 28.9436 37.4133 29.0797 37.4139 29.2175V30.7249C37.4139 30.8633 37.386 31.0005 37.3313 31.1277C37.2767 31.2548 37.1967 31.3693 37.0963 31.4641C36.9958 31.559 36.8773 31.6322 36.7478 31.6789C36.618 31.7256 36.4802 31.7452 36.343 31.7363H35.8135ZM35.2783 29.2175V30.7249C35.2783 30.7933 35.2924 30.8607 35.3192 30.9236C35.3462 30.9861 35.3857 31.0426 35.4352 31.0893C35.4846 31.1363 35.5431 31.1721 35.6072 31.1951C35.6711 31.2182 35.739 31.228 35.8066 31.2237H36.343C36.4112 31.2286 36.4796 31.2194 36.5441 31.1966C36.6088 31.1738 36.6678 31.1381 36.7179 31.0914C36.7682 31.0444 36.8082 30.9879 36.8356 30.9247C36.8632 30.8616 36.8773 30.7938 36.8776 30.7249V29.2175C36.8776 29.1486 36.8632 29.0805 36.8359 29.0174C36.8085 28.9543 36.7682 28.8978 36.7182 28.8508C36.6681 28.804 36.6088 28.7679 36.5444 28.7451C36.4796 28.7223 36.4112 28.7131 36.343 28.7181H35.8135C35.7453 28.7131 35.6766 28.7223 35.6121 28.7451C35.5474 28.7679 35.4884 28.804 35.438 28.8508C35.388 28.8978 35.3477 28.9543 35.3204 29.0174C35.293 29.0805 35.2786 29.1486 35.2783 29.2175ZM52.8348 31.7302V31.2329H53.5038V28.2194H54.0312V31.2329H54.6994V31.7302H52.8348ZM29.2318 31.7302V31.2329H29.9008V28.2194H30.4286V31.2329H31.0961V31.7302H29.2318ZM24.7935 31.7302V31.2329H25.4625V28.2194H25.99V31.2329H26.6582V31.7302H24.7935ZM17.2979 31.7302V31.2329H17.9674V28.2194H18.4941V31.2329H19.1623V31.7302H17.2979ZM47.6225 31.7302C47.4867 31.7394 47.3503 31.7207 47.2217 31.6749C47.0934 31.629 46.9757 31.5569 46.8758 31.4635C46.7763 31.3701 46.6966 31.2571 46.6419 31.1314C46.5872 31.006 46.559 30.8705 46.5585 30.7333V30.4704C46.5587 30.334 46.5867 30.1994 46.6407 30.0746C46.6948 29.9494 46.774 29.8373 46.8732 29.7445C46.9722 29.6516 47.0893 29.5802 47.2171 29.5349C47.3445 29.4893 47.4804 29.4709 47.6153 29.4807H48.6863V29.2235C48.686 29.1546 48.6716 29.0866 48.644 29.0235C48.6163 28.9603 48.5761 28.9038 48.526 28.8571C48.4756 28.8104 48.4161 28.7746 48.3516 28.752C48.2869 28.7293 48.2184 28.7204 48.1499 28.7257H47.7215C47.6015 28.7124 47.4812 28.7445 47.3837 28.8158C47.2861 28.8871 47.2185 28.9923 47.1941 29.1111H46.6603C46.6845 28.8516 46.8094 28.6123 47.0082 28.4452C47.207 28.2782 47.4634 28.1971 47.7215 28.2197H48.1499C48.2863 28.2107 48.4233 28.2299 48.5519 28.2762C48.6808 28.3224 48.7985 28.3949 48.8983 28.4889C48.9982 28.5829 49.0779 28.6966 49.1322 28.8229C49.1863 28.9491 49.2145 29.0852 49.2145 29.2227V30.217V31.7279H48.6863V31.6126C48.5168 31.6939 48.3309 31.734 48.1433 31.7293L47.6225 31.7302ZM47.0931 30.4626V30.7477C47.0939 30.8149 47.1089 30.8809 47.1365 30.942C47.1644 31.0031 47.2044 31.0579 47.2539 31.1029C47.3037 31.1476 47.3621 31.1816 47.4257 31.2024C47.489 31.2234 47.556 31.2309 47.6225 31.2245H48.1508C48.2187 31.23 48.2869 31.2217 48.351 31.1995C48.4155 31.1776 48.4748 31.1424 48.5248 31.096C48.5752 31.0498 48.6155 30.9939 48.6431 30.9314C48.6707 30.8688 48.6854 30.8013 48.686 30.733V29.9858H47.615C47.5491 29.98 47.4827 29.9878 47.4199 30.0091C47.3572 30.0302 47.2994 30.0642 47.2505 30.1089C47.2015 30.1536 47.1621 30.208 47.1351 30.2689C47.1077 30.3294 47.0934 30.3954 47.0928 30.462L47.0931 30.4626ZM44.1075 31.7302C43.938 31.742 43.7677 31.7184 43.6074 31.6613C43.4472 31.6042 43.3001 31.5149 43.1758 31.3981C43.0512 31.2816 42.952 31.1404 42.8838 30.9838C42.8159 30.827 42.7805 30.6578 42.7799 30.4865V28.2302C42.7802 28.0593 42.8156 27.8904 42.8838 27.7338C42.9517 27.5773 43.0512 27.4365 43.1758 27.3203C43.3004 27.2042 43.4475 27.1151 43.6077 27.0586C43.768 27.0022 43.9383 26.9796 44.1075 26.9922H44.6338C44.8033 26.9797 44.9736 27.0024 45.1339 27.0588C45.2941 27.1153 45.4412 27.2044 45.5658 27.3205C45.6904 27.4366 45.7902 27.5773 45.8584 27.7338C45.9266 27.8903 45.9623 28.0593 45.9628 28.2302V30.4865C45.9623 30.6578 45.9269 30.8273 45.8587 30.9841C45.7905 31.1409 45.6912 31.2819 45.5666 31.3987C45.442 31.5151 45.2947 31.6048 45.1344 31.6619C44.9739 31.719 44.8036 31.742 44.6338 31.7302H44.1075ZM43.3082 28.2282V30.4845C43.3085 30.5874 43.3298 30.6892 43.3709 30.7835C43.4118 30.8777 43.4716 30.9628 43.5467 31.0325C43.6215 31.1026 43.7102 31.1562 43.8065 31.1905C43.9032 31.2245 44.0057 31.2387 44.1075 31.2312H44.6338C44.7356 31.2381 44.8372 31.2237 44.9333 31.1894C45.0291 31.1548 45.1169 31.1012 45.1914 31.0311C45.2657 30.9611 45.3249 30.8763 45.3655 30.7823C45.4061 30.6883 45.4268 30.5871 45.4268 30.4845V28.2282C45.4265 28.1261 45.4055 28.0252 45.3646 27.9316C45.3241 27.8381 45.2648 27.7541 45.1903 27.6846C45.116 27.6152 45.0283 27.5618 44.9325 27.5279C44.8366 27.4941 44.7351 27.4805 44.6338 27.4878H44.1055C44.0042 27.4801 43.9021 27.4933 43.806 27.527C43.7099 27.5606 43.6218 27.6137 43.547 27.6831C43.4722 27.7525 43.4123 27.8366 43.3712 27.9303C43.3301 28.0239 43.3085 28.125 43.3079 28.2274L43.3082 28.2282ZM40.1468 31.7302V29.2091C40.1451 29.1414 40.1296 29.0748 40.1011 29.0134C40.0729 28.9517 40.0323 28.8966 39.9823 28.8514C39.9322 28.8062 39.8735 28.7718 39.8096 28.7501C39.7457 28.7285 39.6781 28.7202 39.6111 28.7257H39.0753C39.0074 28.7212 38.9395 28.7309 38.8756 28.7539C38.8117 28.7769 38.7533 28.8127 38.7038 28.8594C38.6544 28.9061 38.6149 28.9626 38.5882 29.0255C38.5611 29.088 38.5473 29.1555 38.5473 29.2238V31.7293H38.011V29.2238C38.0115 29.0866 38.04 28.9511 38.0947 28.8256C38.1494 28.7 38.2288 28.587 38.3286 28.4936C38.4285 28.4002 38.5462 28.3283 38.6745 28.2824C38.8028 28.2366 38.9392 28.2178 39.0753 28.227H39.6102C39.7463 28.2178 39.8827 28.2366 40.011 28.2824C40.1394 28.3283 40.257 28.4002 40.3569 28.4936C40.4567 28.587 40.5361 28.7 40.5908 28.8256C40.6455 28.9511 40.674 29.0866 40.6745 29.2238V31.7293L40.1468 31.7302ZM32.622 31.7302C32.4876 31.7423 32.3524 31.7265 32.2246 31.6832C32.0968 31.6403 31.9792 31.5711 31.8793 31.48C31.7792 31.3892 31.6992 31.2785 31.6437 31.1548C31.5884 31.0314 31.5591 30.8973 31.5573 30.7618V29.2241C31.5579 29.0872 31.5864 28.9517 31.6411 28.826C31.6957 28.7004 31.7754 28.5876 31.8753 28.4942C31.9748 28.4008 32.0928 28.329 32.2212 28.2832C32.3495 28.2374 32.4859 28.2185 32.622 28.2278H33.1577C33.4135 28.2052 33.6679 28.2854 33.8653 28.4507C34.0627 28.616 34.1873 28.8531 34.2114 29.1105H33.6696C33.6475 28.9932 33.5824 28.8885 33.4872 28.8172C33.3919 28.7458 33.2737 28.7132 33.1557 28.7253H32.62C32.5526 28.7202 32.485 28.729 32.4211 28.7514C32.3573 28.7737 32.2988 28.8091 32.2491 28.8551C32.1996 28.9012 32.1599 28.9572 32.1325 29.0194C32.1055 29.0814 32.0911 29.1489 32.0908 29.2166V30.761C32.0928 30.827 32.1086 30.8919 32.1368 30.9513C32.1653 31.0106 32.2056 31.0634 32.2554 31.1063C32.3052 31.1493 32.3633 31.181 32.426 31.2C32.489 31.2188 32.5549 31.2245 32.62 31.2165H33.1557C33.2737 31.2286 33.3919 31.1954 33.4872 31.1242C33.5821 31.053 33.6475 30.9484 33.6696 30.8313H34.2094C34.1875 31.0908 34.0641 31.3306 33.8667 31.499C33.6693 31.6674 33.4138 31.7498 33.1557 31.7291L32.622 31.7302ZM22.5958 31.7302C22.4254 31.7414 22.2546 31.7175 22.0938 31.6596C21.933 31.6016 21.7858 31.5108 21.6612 31.3935C21.5367 31.2759 21.4374 31.134 21.3696 30.9763C21.3017 30.8186 21.2668 30.6486 21.267 30.4767H21.8032C21.8028 30.5794 21.8234 30.6814 21.8637 30.776C21.9039 30.8705 21.963 30.9556 22.0372 31.0265C22.1115 31.0971 22.1994 31.1519 22.2955 31.1871C22.3915 31.2222 22.4938 31.2372 22.5958 31.2312H23.1317C23.2389 31.2297 23.3447 31.2064 23.4429 31.1631C23.5411 31.1199 23.6297 31.0571 23.7036 30.9786C23.7774 30.9005 23.8349 30.8085 23.8728 30.7074C23.9108 30.6065 23.9282 30.4989 23.9243 30.3911V30.1778C23.9252 30.0751 23.9049 29.9734 23.8647 29.8788C23.8245 29.7845 23.7653 29.6995 23.6908 29.6292C23.6164 29.5591 23.5282 29.5052 23.432 29.4709C23.3358 29.4369 23.2335 29.423 23.1317 29.4305H22.5958C22.4261 29.4504 22.2541 29.4334 22.0915 29.3807C21.9288 29.3279 21.7793 29.2403 21.6533 29.1241C21.5272 29.0079 21.4275 28.8661 21.3608 28.7076C21.2942 28.5493 21.2622 28.3785 21.267 28.2067C21.2686 28.0369 21.3049 27.8693 21.3739 27.7144C21.4428 27.5596 21.5428 27.4206 21.6675 27.3064C21.7923 27.1922 21.9391 27.1053 22.0989 27.0508C22.2586 26.9963 22.4278 26.9756 22.5958 26.9899H23.0384C23.2081 26.978 23.3785 27.0012 23.5389 27.0582C23.6994 27.1153 23.8464 27.2049 23.971 27.3215C24.0956 27.4381 24.195 27.5793 24.2632 27.7362C24.3314 27.893 24.3668 28.0623 24.3673 28.2335H23.839C23.8387 28.1304 23.8174 28.0286 23.7762 27.9342C23.7352 27.8398 23.6752 27.7547 23.6001 27.6846C23.525 27.6146 23.4364 27.5607 23.3398 27.5266C23.2432 27.4924 23.1406 27.4786 23.0384 27.4861H22.5958C22.496 27.4769 22.3954 27.4886 22.3004 27.5205C22.2053 27.5524 22.1178 27.6036 22.0433 27.6712C21.969 27.7386 21.9092 27.821 21.8678 27.9128C21.8265 28.0047 21.8045 28.1041 21.8032 28.2048C21.7909 28.3096 21.8036 28.4158 21.8403 28.5146C21.8769 28.6133 21.9365 28.7019 22.014 28.7729C22.0916 28.8439 22.1848 28.8952 22.286 28.9226C22.3871 28.95 22.4934 28.9528 22.5958 28.9306H23.1317C23.3017 28.9171 23.4727 28.9393 23.6337 28.9958C23.7948 29.0523 23.9424 29.1417 24.0672 29.2587C24.1921 29.3755 24.2914 29.5176 24.3589 29.675C24.4264 29.8327 24.4606 30.0025 24.4593 30.174V30.3876C24.4632 30.5644 24.4315 30.7399 24.3662 30.9037C24.3009 31.0677 24.2033 31.2168 24.0793 31.3419C23.9552 31.4667 23.8074 31.5653 23.6445 31.6313C23.4817 31.6973 23.3072 31.7296 23.1317 31.7262L22.5958 31.7302ZM15.1777 31.7302C15.0417 31.7394 14.9053 31.7207 14.7769 31.6749C14.6485 31.629 14.5308 31.5569 14.431 31.4635C14.3313 31.3701 14.2517 31.2571 14.1971 31.1314C14.1425 31.006 14.1141 30.8705 14.1136 30.7333V30.4704C14.1137 30.334 14.1418 30.1994 14.196 30.0746C14.2501 29.9494 14.3292 29.8373 14.4283 29.7445C14.5275 29.6516 14.6445 29.5802 14.7722 29.5349C14.8999 29.4893 15.0354 29.4709 15.1705 29.4807H16.2418V29.2235C16.2416 29.1546 16.2272 29.0866 16.1997 29.0235C16.1722 28.9606 16.1321 28.9041 16.0819 28.8574C16.0317 28.8108 15.9725 28.775 15.908 28.7523C15.8434 28.7297 15.7749 28.7206 15.7067 28.7257H15.2778C15.1578 28.7122 15.0371 28.7441 14.9394 28.8154C14.8417 28.8868 14.7739 28.9923 14.7495 29.1111H14.2168C14.2402 28.8516 14.3651 28.6117 14.564 28.4446C14.7629 28.2775 15.0196 28.1966 15.2778 28.2197H15.7064C15.8427 28.2105 15.9796 28.2298 16.1084 28.276C16.2372 28.3222 16.3551 28.3947 16.4548 28.4887C16.5546 28.5828 16.6341 28.6964 16.6883 28.8226C16.7425 28.9491 16.7704 29.0852 16.7701 29.2227V30.217V31.7279H16.241V31.6126C16.0718 31.6939 15.8858 31.734 15.6984 31.7293L15.1777 31.7302ZM14.6486 30.4626V30.7477C14.6496 30.8149 14.6643 30.8809 14.6919 30.942C14.7195 31.0029 14.7593 31.0573 14.8089 31.1023C14.8585 31.147 14.9167 31.181 14.98 31.2021C15.0432 31.2231 15.1102 31.2306 15.1765 31.2245H15.7055C15.7733 31.23 15.8416 31.2217 15.9059 31.1995C15.9703 31.1776 16.0294 31.1424 16.0797 31.096C16.1299 31.0498 16.1701 30.9939 16.1978 30.9314C16.2255 30.8688 16.24 30.8013 16.2406 30.733V29.9858H15.1701C15.1041 29.9797 15.0377 29.9872 14.9748 30.0085C14.912 30.0296 14.8543 30.0636 14.8052 30.1083C14.7562 30.153 14.7169 30.2078 14.6898 30.2686C14.6628 30.3294 14.6487 30.3951 14.6482 30.462L14.6486 30.4626ZM11.9853 31.7302C11.8033 31.7342 11.6228 31.6968 11.4574 31.6204V31.7285H10.9212V26.9903H11.4574V28.4203C11.5268 28.3519 11.6095 28.2987 11.7004 28.2642C11.7913 28.2297 11.8883 28.2145 11.9853 28.2197H12.5211C12.6571 28.2101 12.7936 28.2287 12.9221 28.2744C13.0506 28.3201 13.1684 28.3919 13.2682 28.4854C13.368 28.5788 13.4477 28.6917 13.5022 28.8174C13.5567 28.943 13.585 29.0785 13.5853 29.2158V30.7241C13.5845 30.8613 13.5559 30.9971 13.5013 31.1231C13.4466 31.2488 13.3671 31.3618 13.2675 31.4558C13.1679 31.5497 13.0504 31.6221 12.9221 31.6688C12.7938 31.7152 12.6574 31.7351 12.5211 31.727L11.9853 31.7302ZM11.4574 29.2181V30.7261C11.4577 30.7941 11.4718 30.861 11.4989 30.9233C11.5261 30.9853 11.5656 31.0412 11.6151 31.0873C11.6647 31.1334 11.7231 31.1686 11.7868 31.1911C11.8505 31.2136 11.918 31.2225 11.9853 31.2176H12.5211C12.589 31.2234 12.6572 31.215 12.7217 31.1928C12.7861 31.1709 12.8453 31.1355 12.8957 31.0893C12.946 31.0432 12.9862 30.9873 13.014 30.9247C13.0418 30.8622 13.0564 30.7947 13.057 30.7261V29.2181C13.0567 29.1489 13.0424 29.0808 13.0149 29.0177C12.9873 28.9546 12.9472 28.8981 12.8969 28.8514C12.8466 28.8045 12.7873 28.7686 12.7226 28.7458C12.658 28.7232 12.5894 28.7141 12.5211 28.7193H11.9853C11.9176 28.7147 11.8496 28.7242 11.7857 28.7472C11.7218 28.7702 11.6632 28.8061 11.6137 28.8528C11.5641 28.8995 11.5246 28.9557 11.4976 29.0186C11.4706 29.0811 11.4566 29.1489 11.4566 29.2172L11.4574 29.2181ZM8.6757 31.7302C8.53969 31.7397 8.40324 31.721 8.27468 31.6751C8.14618 31.6296 8.02835 31.5578 7.92862 31.4644C7.82886 31.371 7.74927 31.2577 7.69478 31.132C7.64034 31.0063 7.61214 30.8705 7.61197 30.7333V28.2213H8.14704V30.7486C8.14799 30.8158 8.16272 30.8818 8.19034 30.9426C8.21797 31.0037 8.25785 31.0585 8.30748 31.1032C8.35714 31.1479 8.41544 31.1819 8.47868 31.2029C8.54202 31.224 8.60894 31.2315 8.67529 31.2251H9.20476C9.27255 31.2309 9.34077 31.2225 9.40517 31.2003C9.46947 31.1781 9.52869 31.143 9.5789 31.0968C9.62911 31.0507 9.66931 30.9948 9.69704 30.9322C9.72472 30.8697 9.73928 30.8022 9.7398 30.7339V28.2217H10.2761V31.7291H9.7398V31.6184C9.57222 31.6962 9.38928 31.7342 9.20476 31.7305L8.6757 31.7302ZM3.77731 31.7302V26.9903H5.64121C5.81086 26.9786 5.98108 27.0019 6.14138 27.059C6.30168 27.1162 6.44856 27.2059 6.57307 27.3225C6.69748 27.4391 6.79684 27.58 6.86495 27.7367C6.93303 27.8935 6.96842 28.0627 6.96888 28.2339V30.475C6.96905 30.6468 6.93421 30.8166 6.86647 30.9743C6.79877 31.132 6.69964 31.2738 6.57514 31.3915C6.45072 31.5091 6.30357 31.5993 6.14296 31.6576C5.98229 31.7155 5.81152 31.7397 5.64121 31.7285L3.77731 31.7302ZM4.31313 31.2318H5.64121C5.74353 31.2372 5.8459 31.222 5.94221 31.1868C6.03848 31.1516 6.12667 31.0968 6.2014 31.0265C6.27612 30.9559 6.33583 30.8708 6.37695 30.7765C6.41807 30.682 6.4397 30.5799 6.44062 30.477V28.2358C6.43953 28.1331 6.41775 28.0317 6.37646 27.9377C6.33523 27.8438 6.27535 27.7591 6.20057 27.6892C6.12575 27.6192 6.03759 27.5653 5.94143 27.5307C5.84527 27.4961 5.74312 27.4818 5.64121 27.4882H4.31273L4.31313 31.2318ZM28.1764 31.7285C28.0405 31.7383 27.904 31.7198 27.7755 31.674C27.647 31.6284 27.5292 31.5567 27.4293 31.4633C27.3296 31.3698 27.2499 31.2571 27.1954 31.1314C27.1409 31.0057 27.1125 30.87 27.1123 30.733V26.9903H27.6474V30.7679C27.647 30.8333 27.6605 30.8982 27.6871 30.9579C27.7137 31.0176 27.7526 31.0706 27.8014 31.1138C27.8502 31.1571 27.9076 31.1894 27.9699 31.2084C28.0321 31.2277 28.0976 31.2329 28.1621 31.2245H28.7051V31.7285H28.1764ZM56.1355 31.7221C55.8785 31.7449 55.6233 31.6645 55.4253 31.4978C55.2276 31.3312 55.1036 31.0925 55.0806 30.8339H55.6216C55.6452 30.9504 55.7108 31.0539 55.8057 31.1248C55.9004 31.1954 56.0181 31.2283 56.1355 31.2171H56.6715C57.1995 31.2171 57.1995 30.6408 57.1995 30.6408C57.2007 30.5719 57.1877 30.5033 57.1612 30.4395C57.1345 30.3758 57.0956 30.3187 57.0458 30.2712C56.9961 30.2236 56.9374 30.187 56.8729 30.1636C56.8085 30.1403 56.7397 30.1305 56.6715 30.1351H56.1355C56.0019 30.1504 55.8667 30.1374 55.7384 30.0965C55.6103 30.0555 55.4924 29.9878 55.3919 29.8978C55.2915 29.8076 55.2112 29.6975 55.1563 29.5741C55.1013 29.4507 55.0731 29.3167 55.0731 29.1814C55.0731 29.0462 55.1013 28.9128 55.1563 28.7891C55.2112 28.6657 55.2915 28.5553 55.3919 28.4652C55.4924 28.3751 55.6103 28.3075 55.7384 28.2666C55.8667 28.2257 56.0019 28.2124 56.1355 28.2278H56.614C56.8709 28.2042 57.1267 28.2838 57.3255 28.4491C57.5238 28.6144 57.6495 28.8522 57.6751 29.1105H57.1261C57.1028 28.9938 57.0381 28.89 56.9434 28.8189C56.849 28.7478 56.7316 28.7146 56.614 28.7253H56.1355C56.0704 28.7148 56.004 28.7186 55.9407 28.7364C55.8771 28.7543 55.8184 28.7857 55.7683 28.8287C55.7182 28.8718 55.678 28.9252 55.6503 28.9851C55.6227 29.0454 55.6083 29.1108 55.6083 29.1771C55.6083 29.2434 55.6227 29.3089 55.6503 29.3688C55.678 29.4291 55.7182 29.4827 55.7683 29.5257C55.8184 29.5686 55.8771 29.6 55.9407 29.6179C56.004 29.6358 56.0704 29.6395 56.1355 29.6292H56.6715C56.8076 29.6202 56.9446 29.6393 57.0729 29.6857C57.2018 29.7321 57.3198 29.8047 57.4193 29.8987C57.5192 29.9927 57.5989 30.106 57.653 30.2323C57.7074 30.3582 57.7356 30.4943 57.7356 30.6318C57.7422 30.7751 57.7197 30.9184 57.6694 31.0524C57.6187 31.1865 57.5408 31.3084 57.4406 31.4108C57.3408 31.5128 57.2205 31.5933 57.0882 31.6466C56.9558 31.6996 56.8139 31.7247 56.6715 31.7201L56.1355 31.7221ZM50.8667 31.7221C50.6098 31.7446 50.3546 31.6639 50.1569 31.4976C49.9589 31.3309 49.8349 31.0925 49.8119 30.8339H50.3531C50.3767 30.9504 50.4423 31.0539 50.537 31.1245C50.6319 31.1951 50.7493 31.2283 50.8667 31.2171H51.4025C51.9308 31.2171 51.9308 30.6408 51.9308 30.6408C51.9319 30.5719 51.919 30.5033 51.8925 30.4398C51.866 30.3761 51.8266 30.3187 51.7771 30.2712C51.7273 30.2239 51.6684 30.1873 51.6039 30.1636C51.5394 30.1403 51.471 30.1305 51.4025 30.1351H50.8667C50.7332 30.1504 50.598 30.1374 50.4696 30.0965C50.3416 30.0555 50.2233 29.9878 50.1232 29.8978C50.0228 29.8076 49.9425 29.6975 49.8876 29.5741C49.8326 29.4507 49.8041 29.3167 49.8041 29.1814C49.8041 29.0462 49.8326 28.9128 49.8876 28.7891C49.9425 28.6657 50.0228 28.5553 50.1232 28.4652C50.2233 28.3751 50.3416 28.3075 50.4696 28.2666C50.598 28.2257 50.7332 28.2124 50.8667 28.2278H51.3452C51.6022 28.2038 51.858 28.2831 52.0568 28.4485C52.2556 28.614 52.3814 28.8519 52.4061 29.1105H51.8583C51.8352 28.9938 51.7699 28.8897 51.675 28.8185C51.58 28.7474 51.4626 28.7143 51.3449 28.7253H50.8664C50.8014 28.7148 50.7349 28.7186 50.6713 28.7364C50.608 28.7543 50.5491 28.7857 50.499 28.8287C50.4489 28.8718 50.4086 28.9252 50.381 28.9851C50.3534 29.0454 50.339 29.1108 50.339 29.1771C50.339 29.2434 50.3534 29.3089 50.381 29.3688C50.4086 29.4291 50.4489 29.4827 50.499 29.5257C50.5491 29.5686 50.608 29.6 50.6713 29.6179C50.7349 29.6358 50.8014 29.6395 50.8664 29.6292H51.4022C51.5386 29.6199 51.6753 29.6393 51.8042 29.6857C51.9328 29.7321 52.0508 29.8044 52.1503 29.8984C52.2502 29.9924 52.3299 30.106 52.3842 30.2323C52.4386 30.3582 52.4668 30.4943 52.4668 30.6318C52.4737 30.7751 52.4513 30.9184 52.4004 31.0524C52.3494 31.1865 52.2717 31.3084 52.1716 31.4108C52.0715 31.5131 51.9515 31.5936 51.8191 31.6466C51.6868 31.6999 51.5446 31.725 51.4022 31.7201L50.8667 31.7221ZM53.4359 27.3201C53.4353 27.2539 53.454 27.1889 53.4903 27.1335C53.5263 27.078 53.5778 27.0345 53.6385 27.0087C53.6992 26.9828 53.7662 26.9758 53.8307 26.9884C53.8954 27.0008 53.955 27.0324 54.0016 27.079C54.0485 27.1256 54.0804 27.1853 54.0934 27.2502C54.1066 27.3152 54.1003 27.3825 54.075 27.4437C54.0499 27.505 54.0074 27.5573 53.9527 27.5941C53.898 27.631 53.8336 27.6506 53.7677 27.6506C53.7242 27.6508 53.6814 27.6426 53.6411 27.626C53.6008 27.6096 53.5642 27.5851 53.5335 27.5544C53.5024 27.5236 53.4779 27.4871 53.4612 27.4468C53.4445 27.4066 53.4362 27.3638 53.4359 27.3201ZM29.8329 27.3201C29.8324 27.2539 29.8511 27.1889 29.8873 27.1335C29.9233 27.078 29.9751 27.0345 30.0355 27.0087C30.0962 26.9828 30.1633 26.9758 30.2277 26.9884C30.2925 27.0008 30.352 27.0324 30.3989 27.079C30.4455 27.1256 30.4775 27.1853 30.4907 27.2502C30.5037 27.3152 30.4973 27.3825 30.4723 27.4437C30.447 27.505 30.4044 27.5573 30.3497 27.5941C30.295 27.631 30.2306 27.6506 30.1647 27.6506C30.0772 27.6509 29.9929 27.6163 29.9308 27.5542C29.8686 27.4922 29.8335 27.4082 29.8329 27.3201ZM25.3943 27.3201C25.3936 27.254 25.4126 27.1891 25.4486 27.1338C25.4846 27.0785 25.5362 27.0353 25.5967 27.0095C25.6572 26.9837 25.724 26.9767 25.7884 26.9891C25.853 27.0016 25.9124 27.0329 25.9591 27.0794C26.0059 27.1259 26.0379 27.1852 26.051 27.25C26.0641 27.3148 26.0579 27.3822 26.033 27.4433C26.0081 27.5045 25.9657 27.5568 25.9112 27.5937C25.8567 27.6307 25.7925 27.6504 25.7268 27.6506C25.6834 27.6508 25.6403 27.6426 25.6001 27.626C25.5599 27.6096 25.5233 27.5851 25.4924 27.5544C25.4615 27.5237 25.437 27.4871 25.4201 27.4468C25.4033 27.4065 25.3945 27.3638 25.3943 27.3201ZM17.8988 27.3201C17.8981 27.254 17.9171 27.1889 17.9532 27.1336C17.9893 27.0784 18.0408 27.0352 18.1014 27.0095C18.162 26.9838 18.2288 26.9766 18.2934 26.9891C18.358 27.0016 18.4173 27.0332 18.464 27.0798C18.5108 27.1264 18.5426 27.1859 18.5557 27.2508C18.5687 27.3156 18.5622 27.3829 18.5371 27.4441C18.5121 27.5053 18.4695 27.5576 18.4149 27.5944C18.3602 27.6311 18.2959 27.6506 18.2301 27.6506C18.1867 27.6508 18.1437 27.6424 18.1037 27.6259C18.0635 27.6094 18.027 27.5849 17.9962 27.5542C17.9654 27.5234 17.941 27.4869 17.9242 27.4467C17.9075 27.4064 17.8989 27.3638 17.8988 27.3201ZM39.1746 25.638C39.1743 25.5773 39.1918 25.518 39.2252 25.4674C39.2586 25.4168 39.3061 25.3774 39.3616 25.354C39.4174 25.3306 39.4787 25.3245 39.5377 25.3361C39.597 25.3478 39.6514 25.377 39.6939 25.4198C39.7368 25.4626 39.7659 25.5172 39.7777 25.5767C39.7898 25.6362 39.7837 25.6979 39.7607 25.7539C39.7377 25.81 39.6985 25.8579 39.6485 25.8916C39.5984 25.9253 39.5394 25.9433 39.479 25.9433C39.3987 25.9435 39.3213 25.9115 39.2644 25.8545C39.2071 25.7973 39.1749 25.7198 39.1746 25.6388V25.638ZM34.6209 25.638C34.6209 25.5774 34.6384 25.5181 34.6718 25.4676C34.7049 25.4171 34.7524 25.3776 34.8079 25.3542C34.8637 25.3308 34.9247 25.3245 34.984 25.3361C35.043 25.3478 35.0976 25.3766 35.1402 25.4194C35.1831 25.4622 35.2122 25.5167 35.2243 25.5761C35.236 25.6356 35.2303 25.6973 35.2073 25.7534C35.1845 25.8095 35.1454 25.8575 35.0956 25.8912C35.0456 25.9251 34.9866 25.9432 34.9264 25.9433C34.8459 25.9436 34.7685 25.9117 34.7112 25.8546C34.654 25.7976 34.6214 25.7199 34.6209 25.6388V25.638ZM33.8587 25.638C33.8587 25.5774 33.8762 25.5183 33.9096 25.4678C33.943 25.4174 33.9904 25.3781 34.046 25.3548C34.1015 25.3315 34.1628 25.3252 34.2218 25.3369C34.2808 25.3487 34.3351 25.3778 34.3777 25.4206C34.4203 25.4634 34.4494 25.5179 34.4612 25.5773C34.473 25.6367 34.4669 25.6982 34.4439 25.7542C34.4209 25.8101 34.382 25.8579 34.332 25.8916C34.2819 25.9253 34.2229 25.9433 34.1628 25.9433C34.0825 25.9433 34.0054 25.9113 33.9484 25.8542C33.8915 25.7972 33.8592 25.7197 33.8587 25.6388V25.638ZM19.4824 25.638C19.4822 25.5773 19.4999 25.518 19.5332 25.4674C19.5666 25.4168 19.6141 25.3773 19.6697 25.354C19.7254 25.3306 19.7867 25.3244 19.8459 25.3361C19.905 25.3479 19.9594 25.3769 20.0022 25.4198C20.0449 25.4627 20.0739 25.5174 20.0857 25.5769C20.0975 25.6364 20.0915 25.6981 20.0685 25.7542C20.0453 25.8102 20.0063 25.8582 19.9561 25.8918C19.9059 25.9255 19.847 25.9435 19.7866 25.9433C19.7061 25.9435 19.6289 25.9115 19.5718 25.8545C19.5147 25.7973 19.4824 25.7198 19.482 25.6388L19.4824 25.638ZM18.7201 25.638C18.72 25.5774 18.7376 25.5182 18.771 25.4678C18.8043 25.4174 18.8517 25.3781 18.9073 25.3548C18.9628 25.3314 19.0239 25.3253 19.083 25.3369C19.1421 25.3487 19.1963 25.3777 19.239 25.4204C19.2816 25.4631 19.3107 25.5177 19.3226 25.5771C19.3344 25.6365 19.3285 25.698 19.3056 25.7539C19.2826 25.8099 19.2437 25.8577 19.1937 25.8914C19.1437 25.9252 19.0849 25.9433 19.0247 25.9433C18.9847 25.9436 18.9451 25.936 18.908 25.9208C18.871 25.9057 18.8373 25.8833 18.8089 25.855C18.7805 25.8267 18.7578 25.793 18.7423 25.7559C18.7268 25.7188 18.7187 25.679 18.7185 25.6388L18.7201 25.638ZM15.3344 25.638C15.3342 25.5774 15.3519 25.5182 15.3852 25.4678C15.4185 25.4174 15.4659 25.3781 15.5215 25.3548C15.577 25.3314 15.6382 25.3253 15.6973 25.3369C15.7563 25.3487 15.8106 25.3777 15.8532 25.4204C15.8959 25.4631 15.925 25.5177 15.9368 25.5771C15.9487 25.6365 15.9427 25.698 15.9198 25.7539C15.8969 25.8099 15.8579 25.8577 15.808 25.8914C15.758 25.9252 15.6992 25.9433 15.639 25.9433C15.5584 25.9437 15.4809 25.9117 15.4236 25.8546C15.3664 25.7975 15.334 25.7199 15.3336 25.6388L15.3344 25.638ZM14.5712 25.638C14.571 25.5773 14.5887 25.518 14.622 25.4674C14.6553 25.4168 14.7028 25.3774 14.7585 25.354C14.8141 25.3306 14.8754 25.3245 14.9345 25.3361C14.9937 25.3478 15.0481 25.377 15.0908 25.4198C15.1336 25.4626 15.1626 25.5172 15.1745 25.5767C15.1864 25.6362 15.1804 25.6979 15.1574 25.7539C15.1344 25.81 15.0953 25.8579 15.0452 25.8916C14.9951 25.9253 14.9362 25.9433 14.8758 25.9433C14.7955 25.9433 14.7185 25.9111 14.6616 25.8541C14.6047 25.797 14.5725 25.7196 14.572 25.6388L14.5712 25.638ZM8.75782 25.9433V25.478H10.7047C10.7671 25.4833 10.8299 25.4755 10.8892 25.4553C10.9486 25.435 11.0031 25.4027 11.0495 25.3602C11.0958 25.3178 11.1329 25.2662 11.1586 25.2086C11.1841 25.1511 11.1976 25.089 11.1983 25.0259V24.8157H8.75946V23.7107C8.759 23.5535 8.79059 23.3977 8.85219 23.2533C8.91389 23.1089 9.00429 22.9788 9.11795 22.8709C9.23152 22.7631 9.36595 22.6797 9.51281 22.6261C9.65973 22.5725 9.81594 22.5498 9.97189 22.5593H10.4702C10.6267 22.5491 10.7835 22.5713 10.9311 22.6245C11.0787 22.6778 11.2138 22.7608 11.3281 22.8688C11.4425 22.9767 11.5335 23.1071 11.5958 23.2519C11.658 23.3967 11.69 23.5529 11.6899 23.7107V24.34H13.3532C13.4153 24.3452 13.4777 24.3375 13.5367 24.3175C13.5957 24.2974 13.6499 24.2653 13.6961 24.2232C13.7422 24.1812 13.7792 24.1301 13.8049 24.073C13.8306 24.0159 13.8443 23.954 13.8452 23.8914V22.5593H12.1882C12.0624 22.5593 11.9379 22.5331 11.8224 22.4827C11.707 22.4323 11.6031 22.3586 11.5172 22.2661C11.4311 22.1736 11.365 22.0645 11.3227 21.9453C11.2804 21.826 11.2629 21.6993 11.2712 21.5729V21.4268C11.2633 21.3008 11.2811 21.1746 11.3236 21.0558C11.3661 20.937 11.4324 20.8283 11.5184 20.7363C11.6043 20.6444 11.7081 20.5711 11.8234 20.5211C11.9386 20.4711 12.0628 20.4454 12.1882 20.4457H15.2614V20.9394H12.1751C12.1137 20.9402 12.0532 20.9536 11.9973 20.9791C11.9414 21.0044 11.8913 21.0412 11.8501 21.087C11.8089 21.1327 11.7776 21.1865 11.7581 21.245C11.7385 21.3035 11.7312 21.3653 11.7365 21.4268V21.5729C11.7318 21.6357 11.74 21.6988 11.7605 21.7582C11.7812 21.8177 11.8137 21.8722 11.8562 21.9185C11.8986 21.9647 11.95 22.0017 12.0073 22.0272C12.0646 22.0525 12.1264 22.0656 12.189 22.0659H14.3376V23.8998C14.3382 23.9616 14.3515 24.0227 14.3767 24.0791C14.4018 24.1354 14.4384 24.1859 14.4839 24.2273C14.5295 24.2688 14.5831 24.3004 14.6413 24.32C14.6996 24.3396 14.7612 24.3467 14.8224 24.3411H15.6952C15.7576 24.3462 15.8204 24.3381 15.8796 24.3176C15.9388 24.2972 15.9931 24.2646 16.0392 24.2221C16.0854 24.1795 16.1223 24.1278 16.1477 24.0703C16.1731 24.0127 16.1864 23.9505 16.1868 23.8875V21.581H16.6788V23.901C16.6794 23.9628 16.6926 24.0239 16.7178 24.0802C16.743 24.1366 16.7795 24.1873 16.8251 24.2287C16.8706 24.2702 16.9242 24.3016 16.9825 24.3211C17.0408 24.3407 17.1024 24.3479 17.1636 24.3423H17.6488C17.7112 24.3473 17.774 24.3395 17.8332 24.319C17.8925 24.2985 17.9468 24.266 17.993 24.2234C18.0391 24.1809 18.0761 24.129 18.1015 24.0714C18.127 24.0139 18.1404 23.9517 18.1408 23.8887V20.448H18.6328V23.9024C18.6334 23.9642 18.6468 24.0252 18.672 24.0816C18.6972 24.138 18.7337 24.1884 18.7793 24.2299C18.8249 24.2714 18.8786 24.3027 18.9368 24.3223C18.9951 24.3419 19.0568 24.3491 19.118 24.3435H19.6016C19.664 24.3485 19.7268 24.3407 19.786 24.3202C19.8453 24.2997 19.8996 24.2672 19.9459 24.2246C19.992 24.182 20.0289 24.1302 20.0544 24.0726C20.0798 24.015 20.0931 23.9529 20.0936 23.8899V21.5833H20.5888V23.9036C20.5895 23.9654 20.6028 24.0264 20.628 24.0828C20.6532 24.1391 20.6898 24.1896 20.7353 24.231C20.781 24.2725 20.8346 24.3039 20.8929 24.3235C20.9511 24.3431 21.0128 24.3505 21.074 24.3449H22.0676C22.13 24.3499 22.1928 24.3419 22.252 24.3214C22.3112 24.3009 22.3656 24.2684 22.4118 24.2258C22.458 24.1832 22.4949 24.1316 22.5203 24.074C22.5457 24.0164 22.5591 23.954 22.5596 23.8911V21.5844H23.0552V23.9048C23.0558 23.9665 23.0691 24.0276 23.0943 24.084C23.1196 24.1403 23.1561 24.1908 23.2017 24.2322C23.2473 24.2737 23.3009 24.3053 23.3592 24.3249C23.4175 24.3445 23.4792 24.3516 23.5404 24.346H24.0252C24.0875 24.351 24.1502 24.3429 24.2093 24.3223C24.2684 24.3018 24.3227 24.2691 24.3687 24.2266C24.4148 24.184 24.4516 24.1325 24.4769 24.075C24.5023 24.0174 24.5156 23.9551 24.516 23.8922V21.5857H25.008V23.9059C25.0086 23.9677 25.0218 24.0288 25.047 24.0852C25.0722 24.1415 25.1087 24.192 25.1543 24.2334C25.1998 24.2748 25.2534 24.3065 25.3117 24.3261C25.3699 24.3456 25.4316 24.3528 25.4928 24.3472H25.978C26.0404 24.3522 26.1032 24.3442 26.1624 24.3237C26.2217 24.3032 26.2761 24.2707 26.3222 24.2281C26.3683 24.1856 26.4053 24.1339 26.4308 24.0763C26.4562 24.0187 26.4695 23.9566 26.47 23.8936V21.587H26.9652V23.9071C26.9657 23.9689 26.979 24.0298 27.0042 24.0861C27.0294 24.1424 27.0658 24.1929 27.1114 24.2344C27.1568 24.2759 27.2104 24.3074 27.2686 24.327C27.3269 24.3467 27.3885 24.3539 27.4496 24.3484H27.9344C27.9968 24.3534 28.0596 24.3454 28.1188 24.3249C28.1781 24.3044 28.2325 24.2718 28.2786 24.2293C28.3247 24.1867 28.3617 24.1351 28.3872 24.0775C28.4126 24.0199 28.426 23.9578 28.4264 23.8947V20.4541H28.9184V23.9083C28.919 23.9701 28.9323 24.0311 28.9574 24.0875C28.9827 24.1438 29.0191 24.1943 29.0647 24.2357C29.1102 24.2772 29.1638 24.3088 29.2221 24.3284C29.2805 24.348 29.3421 24.3552 29.4034 24.3496H29.8885C29.9509 24.3546 30.0136 24.3466 30.0729 24.3261C30.1322 24.3056 30.1866 24.2731 30.2326 24.2305C30.2786 24.1879 30.3158 24.1363 30.3411 24.0787C30.3667 24.0211 30.3799 23.9589 30.3805 23.8959V20.4553H30.8711V23.8959C30.8714 24.0227 30.8455 24.1481 30.7951 24.2644C30.7448 24.3806 30.6711 24.4853 30.579 24.5717C30.4867 24.6581 30.3776 24.7245 30.2588 24.7666C30.14 24.8087 30.0136 24.8257 29.8882 24.8165H29.4036C29.2684 24.8252 29.1329 24.8043 29.0066 24.755C28.8802 24.7058 28.7661 24.6294 28.672 24.5313C28.5769 24.6296 28.4617 24.7059 28.3345 24.7552C28.2072 24.8044 28.0709 24.8254 27.9348 24.8165H27.45C27.2488 24.6321 26.9865 24.5298 26.7144 24.5298C26.4423 24.5298 26.1799 24.6321 25.9788 24.8165H25.4924C25.3573 24.8251 25.2219 24.8041 25.0956 24.7548C24.9694 24.7056 24.8552 24.6293 24.7612 24.5313C24.6661 24.6294 24.5511 24.7056 24.424 24.7548C24.2969 24.804 24.1607 24.8251 24.0248 24.8165H23.54C23.3385 24.6321 23.0759 24.5298 22.8036 24.5298C22.5312 24.5298 22.2686 24.6321 22.0672 24.8165H21.0736C20.8718 24.633 20.6095 24.5313 20.3374 24.5313C20.0654 24.5313 19.803 24.633 19.6013 24.8165H19.1172C18.9819 24.8254 18.8462 24.8045 18.7197 24.7552C18.5932 24.7059 18.479 24.6296 18.3848 24.5313C18.2897 24.6297 18.1746 24.7059 18.0473 24.7552C17.92 24.8045 17.7837 24.8254 17.6476 24.8165H17.1636C17.0284 24.8251 16.893 24.8041 16.7666 24.7548C16.6403 24.7056 16.5261 24.6293 16.432 24.5313C16.337 24.6296 16.222 24.7059 16.0949 24.7552C15.9677 24.8045 15.8315 24.8254 15.6956 24.8165H14.8228C14.6878 24.8251 14.5525 24.8043 14.4263 24.7552C14.3001 24.7062 14.1859 24.6302 14.0916 24.5325C13.9963 24.6305 13.8811 24.7066 13.7539 24.7556C13.6266 24.8047 13.4904 24.8254 13.3545 24.8165H11.6911V25.0355C11.6907 25.1624 11.6644 25.2878 11.6136 25.4039C11.563 25.5201 11.489 25.6246 11.3964 25.7107C11.3038 25.7968 11.1945 25.8627 11.0754 25.9044C10.9563 25.9461 10.83 25.9626 10.7043 25.953L8.75782 25.9433ZM9.25261 23.7107V24.3484H11.1995V23.7107C11.1997 23.6163 11.1807 23.5229 11.1437 23.4362C11.1066 23.3495 11.0523 23.2714 10.984 23.2067C10.9159 23.1419 10.8352 23.0919 10.747 23.0598C10.6588 23.0276 10.5651 23.014 10.4715 23.0198H9.97307C9.88004 23.0146 9.7869 23.0287 9.69949 23.0611C9.61199 23.0935 9.53206 23.1436 9.46458 23.2083C9.39702 23.2729 9.34336 23.3506 9.30688 23.4368C9.27033 23.523 9.25174 23.6161 9.2522 23.7099L9.25261 23.7107ZM4.92992 25.9433C4.77293 25.9441 4.61744 25.9124 4.47309 25.8503C4.3287 25.7882 4.19847 25.697 4.09045 25.5824C3.98241 25.4678 3.89885 25.3321 3.84493 25.1838C3.79101 25.0354 3.76787 24.8775 3.77691 24.7198V22.5593H4.23579V24.7198C4.23116 24.8145 4.24569 24.9095 4.27846 24.9985C4.31123 25.0875 4.36159 25.1687 4.4265 25.2376C4.49141 25.3065 4.56953 25.3614 4.65611 25.399C4.74272 25.4367 4.83601 25.4564 4.93033 25.4568H7.00876C7.10267 25.4562 7.19553 25.4363 7.28167 25.3984C7.36777 25.3606 7.44537 25.3056 7.50968 25.2367C7.57401 25.1678 7.62379 25.0863 7.65599 24.9975C7.68816 24.9087 7.70206 24.8142 7.69688 24.7198V22.5593H8.15619V24.7198C8.16571 24.8771 8.14313 25.0348 8.08969 25.183C8.03632 25.3312 7.95331 25.4669 7.84575 25.5816C7.73822 25.6962 7.60849 25.7875 7.4645 25.8498C7.32055 25.9119 7.16543 25.9438 7.00876 25.9433H4.92992ZM39.0546 24.8161C38.9291 24.8245 38.8034 24.8067 38.6851 24.764C38.5669 24.7214 38.4584 24.6549 38.3669 24.5683C38.2751 24.4819 38.2023 24.3773 38.1522 24.2612C38.1025 24.1451 38.0772 24.02 38.0774 23.8936V22.072H36.7398V23.8936C36.74 24.0205 36.7141 24.1461 36.6641 24.2626C36.614 24.3791 36.5404 24.4841 36.448 24.5707C36.3559 24.6573 36.2469 24.7237 36.1277 24.766C36.0086 24.8082 35.8823 24.8253 35.7566 24.8161H33.3324C33.2072 24.8242 33.0815 24.8064 32.9635 24.7636C32.8452 24.7209 32.7371 24.6541 32.6459 24.5676C32.5543 24.4811 32.4816 24.3766 32.4318 24.2607C32.382 24.1447 32.3564 24.0198 32.3567 23.8936V21.578H32.8475V23.9071C32.8481 23.9689 32.8617 24.03 32.8867 24.0863C32.912 24.1427 32.9485 24.1931 32.994 24.2346C33.0395 24.2761 33.093 24.3074 33.1514 24.327C33.2095 24.3467 33.2711 24.3539 33.3324 24.3484H35.7566C35.819 24.3534 35.8817 24.3454 35.941 24.3249C36.0003 24.3044 36.0547 24.2719 36.101 24.2293C36.147 24.1867 36.1838 24.1349 36.2095 24.0773C36.2348 24.0197 36.248 23.9574 36.2486 23.8944V21.579H38.5698V23.9079C38.5703 23.9697 38.5836 24.0308 38.6089 24.0871C38.6339 24.1434 38.6705 24.1939 38.7162 24.2353C38.7617 24.2768 38.8152 24.3083 38.8736 24.3278C38.9317 24.3474 38.9933 24.3547 39.0546 24.3492H39.8994C39.9618 24.3541 40.0245 24.3462 40.0838 24.3257C40.1428 24.3051 40.1972 24.2725 40.2435 24.2299C40.2896 24.1873 40.3264 24.1355 40.352 24.0779C40.3773 24.0203 40.3905 23.9582 40.3908 23.8951V21.5797H40.8829V23.8951C40.8829 24.0221 40.857 24.1476 40.8069 24.264C40.7565 24.3804 40.6829 24.4851 40.5905 24.5717C40.4984 24.6583 40.3894 24.7249 40.2706 24.7672C40.1514 24.8095 40.0251 24.8266 39.8994 24.8177L39.0546 24.8161ZM41.4897 24.813V24.3266H43.2296C43.2915 24.3252 43.3528 24.3112 43.4089 24.2853C43.4656 24.2595 43.5159 24.2224 43.5577 24.1762C43.5994 24.1301 43.6313 24.076 43.6515 24.017C43.6719 23.958 43.6799 23.8955 43.6753 23.8332V22.5597C43.6791 22.4969 43.6696 22.434 43.6483 22.375C43.6267 22.316 43.5933 22.2621 43.5505 22.2166C43.5073 22.1709 43.4555 22.1346 43.398 22.11C43.3404 22.0853 43.2785 22.0728 43.2161 22.0732H41.4897V21.5797H43.2161C43.3416 21.5795 43.4656 21.6051 43.5807 21.655C43.6958 21.7049 43.7996 21.778 43.8857 21.8699C43.9714 21.9617 44.0379 22.0703 44.0805 22.189C44.1231 22.3076 44.1409 22.4338 44.1331 22.5597V23.8332C44.1409 23.9591 44.1228 24.0852 44.0802 24.2038C44.0376 24.3224 43.9714 24.4311 43.8854 24.5229C43.7994 24.6147 43.6958 24.6877 43.5807 24.7376C43.4656 24.7874 43.3416 24.8132 43.2161 24.813H41.4897ZM55.2884 24.8097V24.3445H57.2358C57.2979 24.3497 57.3603 24.3417 57.4199 24.3214C57.4792 24.301 57.5333 24.2688 57.5796 24.2264C57.6259 24.1839 57.6628 24.1323 57.6887 24.0747C57.714 24.0173 57.7275 23.9552 57.7281 23.8922L57.7309 23.648H55.2907V22.7305C55.2901 22.5733 55.3217 22.4178 55.3833 22.2733C55.4452 22.1289 55.5355 21.9987 55.6492 21.8908C55.7628 21.7829 55.8972 21.6997 56.044 21.6461C56.191 21.5926 56.3472 21.5699 56.5032 21.5794H57.0018C57.1584 21.5692 57.3152 21.5913 57.4628 21.6446C57.6101 21.6979 57.745 21.7811 57.8593 21.889C57.9738 21.997 58.0647 22.1274 58.1269 22.2722C58.189 22.4169 58.2207 22.5728 58.2207 22.7305V23.894C58.2201 24.0207 58.1942 24.146 58.1433 24.262C58.0929 24.3781 58.019 24.4823 57.9263 24.5683C57.8342 24.6544 57.7255 24.7204 57.6061 24.7622C57.4875 24.8041 57.3609 24.8207 57.2358 24.8112L55.2884 24.8097ZM55.7824 22.7305V23.1806H57.7309V22.7305C57.7309 22.6361 57.7117 22.5426 57.6751 22.4559C57.6377 22.3692 57.5836 22.2911 57.5151 22.2264C57.447 22.1616 57.3661 22.1117 57.2775 22.0796C57.1894 22.0475 57.0956 22.034 57.0018 22.0399H56.5032C56.41 22.0347 56.3167 22.0486 56.2293 22.081C56.1418 22.1134 56.0618 22.1634 55.9942 22.2281C55.9266 22.2928 55.873 22.3707 55.8365 22.4571C55.8 22.5434 55.7818 22.6367 55.7824 22.7305ZM54.1875 24.8097V20.4453H54.6809V24.8097H54.1875ZM47.5693 24.8065V24.6187C47.5054 24.6816 47.4297 24.7306 47.3463 24.7622C47.2628 24.794 47.1736 24.8077 47.0847 24.8028H46.5927C46.4672 24.8111 46.3415 24.7934 46.2235 24.7507C46.1053 24.708 45.9968 24.6413 45.9053 24.5549C45.8138 24.4683 45.7407 24.3637 45.6909 24.2477C45.6412 24.1317 45.6155 24.0067 45.6158 23.8803V22.5043C45.6164 22.3778 45.6423 22.253 45.6924 22.137C45.7424 22.0211 45.8152 21.9165 45.9064 21.8297C45.9979 21.7429 46.1058 21.6756 46.2238 21.632C46.3418 21.5885 46.4672 21.5696 46.5927 21.5764H47.0847C47.2516 21.5727 47.4173 21.6073 47.5693 21.6775V21.5776H48.0627V24.3139H52.4651C51.5305 23.7293 50.7194 22.965 50.0786 22.0647C49.9865 22.0679 49.8962 22.0895 49.8127 22.1284C49.7293 22.1673 49.6545 22.2226 49.5926 22.2912C49.5308 22.3597 49.4833 22.4402 49.4531 22.5276C49.4229 22.615 49.4102 22.7076 49.4162 22.8001H48.9239C48.9239 21.5765 50.3413 21.5764 50.3413 21.5764C50.3548 21.5969 51.6212 23.5821 53.5815 24.3102L53.5835 24.8081L47.5693 24.8065ZM46.1004 22.506V23.8818C46.1004 23.9453 46.1136 24.008 46.1386 24.0661C46.164 24.1243 46.2008 24.1765 46.2471 24.2197C46.2932 24.2629 46.3478 24.2961 46.4071 24.3172C46.4667 24.3384 46.5297 24.3468 46.5927 24.3423H47.0847C47.1472 24.3461 47.2093 24.3372 47.2683 24.3157C47.327 24.2942 47.3805 24.2607 47.426 24.2175C47.4714 24.1744 47.5074 24.1223 47.5322 24.0646C47.5569 24.0068 47.5693 23.9447 47.5693 23.8818V22.506C47.569 22.4435 47.5563 22.3817 47.5313 22.3245C47.5065 22.2672 47.4703 22.2157 47.4248 22.173C47.3797 22.1305 47.3258 22.0977 47.2671 22.0769C47.2087 22.056 47.1466 22.0475 47.0847 22.0518H46.5927C46.5303 22.047 46.4678 22.0552 46.4085 22.0757C46.3496 22.0962 46.2952 22.1287 46.2491 22.1713C46.2031 22.2138 46.1663 22.2656 46.1407 22.3231C46.1153 22.3806 46.1021 22.4425 46.1015 22.5055L46.1004 22.506ZM5.65116 22.867C5.6511 22.8065 5.66886 22.7472 5.70224 22.6968C5.73558 22.6464 5.78303 22.6072 5.83859 22.584C5.89416 22.5607 5.95533 22.5546 6.01434 22.5664C6.07336 22.5781 6.1276 22.607 6.17024 22.6498C6.21282 22.6925 6.24186 22.7471 6.25365 22.8065C6.26545 22.8659 6.25952 22.9274 6.23659 22.9834C6.2136 23.0393 6.1747 23.0872 6.12472 23.1209C6.07474 23.1546 6.01595 23.1725 5.95579 23.1726C5.91574 23.1724 5.87614 23.1644 5.83923 23.1489C5.80228 23.1333 5.76879 23.1105 5.74059 23.0819C5.71242 23.0533 5.69012 23.0193 5.67499 22.982C5.65985 22.9447 5.65217 22.9047 5.65237 22.8645L5.65116 22.867ZM46.9164 20.7526C46.9164 20.6921 46.9342 20.6328 46.9676 20.5824C47.001 20.532 47.0482 20.4928 47.1037 20.4696C47.1595 20.4463 47.2205 20.4402 47.2795 20.4519C47.3385 20.4637 47.3929 20.4927 47.4355 20.5354C47.4781 20.5781 47.5071 20.6327 47.5189 20.6921C47.5307 20.7515 47.5247 20.813 47.5019 20.8689C47.4789 20.9249 47.4401 20.9728 47.39 21.0065C47.3399 21.0402 47.2812 21.0581 47.2211 21.0582C47.1808 21.0581 47.1411 21.0501 47.1043 21.0347C47.0672 21.0192 47.0335 20.9964 47.0053 20.9679C46.9768 20.9393 46.9544 20.9055 46.9391 20.8682C46.9239 20.8309 46.9161 20.7908 46.9161 20.7504L46.9164 20.7526ZM46.1545 20.7526C46.1545 20.692 46.172 20.6325 46.2054 20.582C46.2388 20.5315 46.2863 20.4921 46.3421 20.4688C46.3976 20.4455 46.4589 20.4394 46.5182 20.4512C46.5772 20.4629 46.6315 20.492 46.6741 20.5348C46.717 20.5776 46.7461 20.6322 46.7579 20.6917C46.7696 20.7512 46.7636 20.8127 46.7406 20.8688C46.7176 20.9248 46.6784 20.9727 46.6284 21.0065C46.5783 21.0402 46.5193 21.0582 46.4592 21.0582C46.4189 21.0583 46.3792 21.0505 46.3421 21.0351C46.305 21.0196 46.2713 20.9969 46.2428 20.9683C46.2146 20.9397 46.1922 20.9057 46.1769 20.8684C46.1617 20.831 46.1539 20.7908 46.1542 20.7504L46.1545 20.7526ZM39.3947 14.7427C39.0664 14.3905 38.6989 14.0278 38.4141 14.0033H23.5826C23.3036 14.0282 22.932 14.3905 22.6042 14.7427C21.8172 15.754 20.1367 16.4507 18.1922 16.4507C15.4935 16.4507 13.307 15.11 13.307 13.4541C13.307 11.7982 15.4935 10.4577 18.1922 10.4577C19.8962 10.4577 21.3958 10.9928 22.2713 11.8039C22.3654 11.8965 22.4587 11.9968 22.5504 12.0967C22.912 12.4954 23.2621 12.9059 23.6783 12.9059H38.3217C38.7384 12.9059 39.0888 12.4958 39.4485 12.0991C39.5354 11.9943 39.6295 11.8957 39.7299 11.8039C40.6026 10.9928 42.1034 10.4577 43.8088 10.4577C46.507 10.4577 48.6937 11.7986 48.6937 13.4541C48.6937 15.1096 46.5067 16.4507 43.8088 16.4507C41.8606 16.4487 40.1799 15.7515 39.3941 14.7402L39.3947 14.7427ZM52.2004 9.438C51.8703 9.08617 51.5046 8.72027 51.2212 8.6962H36.3867C36.1076 8.72027 35.7517 9.07323 35.4268 9.41819C34.6476 10.4387 32.9572 11.1432 30.9991 11.1432C29.054 11.1432 27.3711 10.4461 26.5876 9.43641C26.2579 9.08458 25.8927 8.71875 25.6084 8.69462H10.7769C10.4934 8.71875 10.1265 9.08458 9.79804 9.43641C9.0122 10.4465 7.33212 11.1432 5.38685 11.1432C2.68805 11.1432 0.5 9.80254 0.5 8.14661C0.5 6.49068 2.68805 5.15057 5.38685 5.15057C7.09088 5.15057 8.59119 5.68489 9.46395 6.49639C9.55804 6.58746 9.65129 6.68897 9.74302 6.78926C10.1019 7.18635 10.4555 7.59679 10.8722 7.59679H25.5163C25.9329 7.59679 26.2826 7.18672 26.6422 6.79039C26.7355 6.68891 26.8268 6.58746 26.9213 6.49639C27.796 5.68489 29.2952 5.15057 30.9997 5.15057C32.9229 5.15057 34.5846 5.82978 35.3854 6.82094C35.735 7.20886 36.0774 7.59719 36.4834 7.59719H51.1286C51.5452 7.59719 51.8951 7.18713 52.2545 6.79079C52.3411 6.68677 52.4343 6.58858 52.5336 6.49679C53.4066 5.68529 54.9091 5.15098 56.6119 5.15098C59.3103 5.15098 61.5 6.48987 61.5 8.14701C61.5 9.80412 59.3103 11.1436 56.6119 11.1436C54.6654 11.1428 52.9847 10.4457 52.2001 9.43601L52.2004 9.438ZM39.3947 4.33498C39.0664 3.98116 38.6989 3.61867 38.4141 3.59419H23.5826C23.3036 3.61907 22.932 3.98116 22.6042 4.33498C21.8172 5.34384 20.1367 6.04182 18.1922 6.04182C15.4935 6.04182 13.307 4.70087 13.307 3.04538C13.307 1.38986 15.4935 0.0479736 18.1922 0.0479736C19.8962 0.0479736 21.3958 0.583239 22.2713 1.39595C22.3654 1.48541 22.4587 1.58791 22.5504 1.6878C22.912 2.08533 23.2621 2.49576 23.6783 2.49576H38.3217C38.7384 2.49576 39.0888 2.08533 39.4485 1.6878C39.5357 1.58422 39.6298 1.48684 39.7299 1.39595C40.6026 0.583239 42.1034 0.0479736 43.8088 0.0479736C46.507 0.0479736 48.6937 1.38866 48.6937 3.04538C48.6937 4.70208 46.5067 6.04182 43.8088 6.04182C41.8606 6.03977 40.1799 5.3411 39.3941 4.33302L39.3947 4.33498Z" fill="#778B8E"/>
</g>
</g>
<defs>
<clipPath id="clip0_5_478">
<rect width="61" height="32" fill="white" transform="translate(0.5)"/>
</clipPath>
<clipPath id="clip1_5_478">
<rect width="61" height="32" fill="white" transform="translate(0.5)"/>
</clipPath>
</defs>
</svg>
