<svg width="67" height="32" viewBox="0 0 67 32" fill="none" xmlns="http://www.w3.org/2000/svg">
<g clip-path="url(#clip0_5_540)">
<g clip-path="url(#clip1_5_540)">
<path d="M37.4457 3.74463H42.2525V4.83737H38.6032V6.84424H41.877V7.94748H38.6032V9.92286H42.2525V11.0156H37.4457V3.74463Z" fill="#778B8E"/>
<path d="M49.665 3.74463L47.2458 7.33807L49.717 11.0156H48.4241L46.4014 7.95799L44.3785 11.0156H43.0856L45.5568 7.33807L43.1379 3.74463H44.4411L46.4014 6.69713L48.3721 3.74463H49.665Z" fill="#778B8E"/>
<path d="M50.881 3.74463H53.6546C55.5418 3.74463 56.5427 4.67975 56.5427 6.37142V6.38193C56.5427 8.0736 55.5418 8.99821 53.6546 8.99821H52.0385V11.0156H50.881V3.74463ZM55.3852 6.38193V6.37142C55.3852 5.36273 54.8015 4.84788 53.6546 4.84788H52.0385V7.89497H53.6546C54.8015 7.89497 55.3852 7.40113 55.3852 6.38193Z" fill="#778B8E"/>
<path d="M61.0915 3.61853H61.1017C63.3644 3.61853 64.7927 5.1631 64.7927 7.36959V7.3801C64.7927 9.5971 63.3644 11.1417 61.1017 11.1417H61.0915C58.8288 11.1417 57.4107 9.5971 57.4107 7.3801V7.36959C57.4107 5.1631 58.8288 3.61853 61.0915 3.61853ZM61.0915 10.0489H61.1017C62.6449 10.0489 63.6356 8.96667 63.6356 7.3801V7.36959C63.6356 5.79353 62.6449 4.71127 61.1017 4.71127H61.0915C59.5585 4.71127 58.5682 5.79353 58.5682 7.36959V7.3801C58.5682 8.96667 59.5585 10.0489 61.0915 10.0489Z" fill="#778B8E"/>
<path d="M42.915 13.3257L42.2846 14.2004C41.7886 13.7839 41.1688 13.5861 40.4969 13.5861H40.4867C38.9677 13.5861 37.9858 14.7003 37.9858 16.2206V16.2311C37.9961 17.7722 38.978 18.876 40.4867 18.876H40.4969C41.2205 18.876 41.8095 18.6574 42.2846 18.2616L42.915 19.1364C42.2743 19.6987 41.458 19.959 40.4969 19.959H40.4867C38.2442 19.959 36.8389 18.4387 36.8389 16.2311V16.2206C36.8389 14.0234 38.2442 12.5031 40.4867 12.5031H40.4969C41.396 12.5031 42.2435 12.7425 42.915 13.3257Z" fill="#778B8E"/>
<path d="M45.2437 19.8341H44.0964V12.6281H45.2437V19.8341Z" fill="#778B8E"/>
<path d="M46.417 12.6281H52.121V13.7423H49.8477V19.8341H48.6903V13.7423H46.417V12.6281Z" fill="#778B8E"/>
<path d="M53.5092 12.6281L55.7205 16.1582L57.9216 12.6281H59.1927L56.2993 17.1995V19.8341H55.1418V17.1995L52.2484 12.6281H53.5092Z" fill="#778B8E"/>
<path d="M37.4385 21.7283H40.1564C42.3885 21.7283 43.7213 23.1862 43.7213 25.3313V25.3417C43.7213 27.4764 42.3885 28.9343 40.1564 28.9343H37.4385V21.7283ZM38.5858 22.8217V27.8409H40.1564C41.6548 27.8409 42.5641 26.8204 42.5641 25.3417V25.3313C42.5641 23.8526 41.6548 22.8217 40.1564 22.8217H38.5858Z" fill="#778B8E"/>
<path d="M49.4113 25.7166V21.7283H50.5685V25.7166C50.5685 28.0804 49.1943 29.0593 47.4581 29.0593H47.4478C45.7119 29.0593 44.3374 28.0804 44.3374 25.7166V21.7283H45.4949V25.7166C45.4949 27.3827 46.4454 27.9346 47.4478 27.9346H47.4581C48.4605 27.9346 49.4113 27.3827 49.4113 25.7166Z" fill="#778B8E"/>
<path d="M55.7722 25.3105C56.7333 25.4875 57.2395 26.0082 57.2395 26.9766C57.2395 28.3824 56.1751 28.9343 54.6561 28.9343H51.6077V21.7283H54.4391C56.1442 21.7283 57.0122 22.3218 57.0122 23.6443C57.0122 24.6544 56.5471 25.123 55.7722 25.3105ZM54.4391 22.7384H52.7546V24.821H54.4597C55.3793 24.821 55.8756 24.5607 55.8756 23.8109C55.8756 23.0091 55.3793 22.7384 54.4391 22.7384ZM52.7546 25.727V27.9242H54.6561C55.6069 27.9242 56.1028 27.6326 56.1028 26.8308C56.1028 26.154 55.6894 25.727 54.6353 25.727H52.7546Z" fill="#778B8E"/>
<path d="M61.7244 21.7283L64.7417 28.9343H63.5225L62.8404 27.2474H59.3683L58.6865 28.9343H57.467L60.4844 21.7283H61.7244ZM62.4581 26.2164L61.1045 22.9362L59.7506 26.2164H62.4581Z" fill="#778B8E"/>
<path d="M66.5 28.9343H65.3528V21.7283H66.5V28.9343Z" fill="#778B8E"/>
<path d="M14.7905 8.10742C15.2789 8.10742 15.6749 7.7084 15.6749 7.21619C15.6749 6.72397 15.2789 6.32495 14.7905 6.32495C14.302 6.32495 13.9061 6.72397 13.9061 7.21619C13.9061 7.7084 14.302 8.10742 14.7905 8.10742Z" fill="#778B8E"/>
<path d="M17.5827 8.10742C18.0711 8.10742 18.4671 7.7084 18.4671 7.21619C18.4671 6.72397 18.0711 6.32495 17.5827 6.32495C17.0943 6.32495 16.6983 6.72397 16.6983 7.21619C16.6983 7.7084 17.0943 8.10742 17.5827 8.10742Z" fill="#778B8E"/>
<path d="M20.189 8.95215C20.6775 8.95215 21.0734 8.55313 21.0734 8.06091C21.0734 7.5687 20.6775 7.16968 20.189 7.16968C19.7006 7.16968 19.3046 7.5687 19.3046 8.06091C19.3046 8.55313 19.7006 8.95215 20.189 8.95215Z" fill="#778B8E"/>
<path d="M22.5169 10.6416C23.0053 10.6416 23.4013 10.2426 23.4013 9.75037C23.4013 9.25815 23.0053 8.85913 22.5169 8.85913C22.0284 8.85913 21.6324 9.25815 21.6324 9.75037C21.6324 10.2426 22.0284 10.6416 22.5169 10.6416Z" fill="#778B8E"/>
<path d="M24.099 12.8922C24.5874 12.8922 24.9834 12.4932 24.9834 12.001C24.9834 11.5088 24.5874 11.1097 24.099 11.1097C23.6106 11.1097 23.2146 11.5088 23.2146 12.001C23.2146 12.4932 23.6106 12.8922 24.099 12.8922Z" fill="#778B8E"/>
<path d="M24.9371 15.5197C25.4255 15.5197 25.8215 15.1206 25.8215 14.6284C25.8215 14.1362 25.4255 13.7372 24.9371 13.7372C24.4486 13.7372 24.0527 14.1362 24.0527 14.6284C24.0527 15.1206 24.4486 15.5197 24.9371 15.5197Z" fill="#778B8E"/>
<path d="M24.9371 18.3334C25.4255 18.3334 25.8215 17.9344 25.8215 17.4421C25.8215 16.9499 25.4255 16.5509 24.9371 16.5509C24.4486 16.5509 24.0527 16.9499 24.0527 17.4421C24.0527 17.9344 24.4486 18.3334 24.9371 18.3334Z" fill="#778B8E"/>
<path d="M24.099 20.9608C24.5874 20.9608 24.9834 20.5618 24.9834 20.0696C24.9834 19.5774 24.5874 19.1783 24.099 19.1783C23.6106 19.1783 23.2146 19.5774 23.2146 20.0696C23.2146 20.5618 23.6106 20.9608 24.099 20.9608Z" fill="#778B8E"/>
<path d="M22.4234 23.2114C22.9118 23.2114 23.3078 22.8124 23.3078 22.3202C23.3078 21.828 22.9118 21.429 22.4234 21.429C21.935 21.429 21.539 21.828 21.539 22.3202C21.539 22.8124 21.935 23.2114 22.4234 23.2114Z" fill="#778B8E"/>
<path d="M20.189 24.9008C20.6775 24.9008 21.0734 24.5017 21.0734 24.0095C21.0734 23.5173 20.6775 23.1183 20.189 23.1183C19.7006 23.1183 19.3046 23.5173 19.3046 24.0095C19.3046 24.5017 19.7006 24.9008 20.189 24.9008Z" fill="#778B8E"/>
<path d="M17.5827 25.7438C18.0711 25.7438 18.4671 25.3448 18.4671 24.8525C18.4671 24.3603 18.0711 23.9613 17.5827 23.9613C17.0943 23.9613 16.6983 24.3603 16.6983 24.8525C16.6983 25.3448 17.0943 25.7438 17.5827 25.7438Z" fill="#778B8E"/>
<path d="M14.7905 25.7438C15.2789 25.7438 15.6749 25.3448 15.6749 24.8525C15.6749 24.3603 15.2789 23.9613 14.7905 23.9613C14.302 23.9613 13.9061 24.3603 13.9061 24.8525C13.9061 25.3448 14.302 25.7438 14.7905 25.7438Z" fill="#778B8E"/>
<path d="M12.1833 24.9008C12.6717 24.9008 13.0677 24.5017 13.0677 24.0095C13.0677 23.5173 12.6717 23.1183 12.1833 23.1183C11.6948 23.1183 11.2989 23.5173 11.2989 24.0095C11.2989 24.5017 11.6948 24.9008 12.1833 24.9008Z" fill="#778B8E"/>
<path d="M9.94983 23.2114C10.4383 23.2114 10.8342 22.8124 10.8342 22.3202C10.8342 21.828 10.4383 21.429 9.94983 21.429C9.46139 21.429 9.06543 21.828 9.06543 22.3202C9.06543 22.8124 9.46139 23.2114 9.94983 23.2114Z" fill="#778B8E"/>
<path d="M8.27338 20.9608C8.76182 20.9608 9.15778 20.5618 9.15778 20.0696C9.15778 19.5774 8.76182 19.1783 8.27338 19.1783C7.78494 19.1783 7.38898 19.5774 7.38898 20.0696C7.38898 20.5618 7.78494 20.9608 8.27338 20.9608Z" fill="#778B8E"/>
<path d="M7.4361 18.3334C7.92454 18.3334 8.3205 17.9344 8.3205 17.4421C8.3205 16.9499 7.92454 16.5509 7.4361 16.5509C6.94766 16.5509 6.5517 16.9499 6.5517 17.4421C6.5517 17.9344 6.94766 18.3334 7.4361 18.3334Z" fill="#778B8E"/>
<path d="M7.4361 15.5197C7.92454 15.5197 8.3205 15.1206 8.3205 14.6284C8.3205 14.1362 7.92454 13.7372 7.4361 13.7372C6.94766 13.7372 6.5517 14.1362 6.5517 14.6284C6.5517 15.1206 6.94766 15.5197 7.4361 15.5197Z" fill="#778B8E"/>
<path d="M8.27338 12.8922C8.76182 12.8922 9.15778 12.4932 9.15778 12.001C9.15778 11.5088 8.76182 11.1097 8.27338 11.1097C7.78494 11.1097 7.38898 11.5088 7.38898 12.001C7.38898 12.4932 7.78494 12.8922 8.27338 12.8922Z" fill="#778B8E"/>
<path d="M9.94983 10.6416C10.4383 10.6416 10.8342 10.2426 10.8342 9.75037C10.8342 9.25815 10.4383 8.85913 9.94983 8.85913C9.46139 8.85913 9.06543 9.25815 9.06543 9.75037C9.06543 10.2426 9.46139 10.6416 9.94983 10.6416Z" fill="#778B8E"/>
<path d="M12.1833 8.95215C12.6717 8.95215 13.0677 8.55313 13.0677 8.06091C13.0677 7.5687 12.6717 7.16968 12.1833 7.16968C11.6948 7.16968 11.2989 7.5687 11.2989 8.06091C11.2989 8.55313 11.6948 8.95215 12.1833 8.95215Z" fill="#778B8E"/>
<path d="M10.8804 6.8892C11.6773 6.8892 12.3234 6.23817 12.3234 5.43508C12.3234 4.63199 11.6773 3.98096 10.8804 3.98096C10.0835 3.98096 9.43744 4.63199 9.43744 5.43508C9.43744 6.23817 10.0835 6.8892 10.8804 6.8892Z" fill="#778B8E"/>
<path d="M14.3249 5.76298C15.1218 5.76298 15.7678 5.11195 15.7678 4.30886C15.7678 3.50577 15.1218 2.85474 14.3249 2.85474C13.5279 2.85474 12.8819 3.50577 12.8819 4.30886C12.8819 5.11195 13.5279 5.76298 14.3249 5.76298Z" fill="#778B8E"/>
<path d="M18.048 5.76298C18.8449 5.76298 19.4909 5.11195 19.4909 4.30886C19.4909 3.50577 18.8449 2.85474 18.048 2.85474C17.251 2.85474 16.605 3.50577 16.605 4.30886C16.605 5.11195 17.251 5.76298 18.048 5.76298Z" fill="#778B8E"/>
<path d="M21.4924 6.8892C22.2893 6.8892 22.9354 6.23817 22.9354 5.43508C22.9354 4.63199 22.2893 3.98096 21.4924 3.98096C20.6955 3.98096 20.0494 4.63199 20.0494 5.43508C20.0494 6.23817 20.6955 6.8892 21.4924 6.8892Z" fill="#778B8E"/>
<path d="M24.4724 9.04667C25.2693 9.04667 25.9154 8.39564 25.9154 7.59255C25.9154 6.78946 25.2693 6.13843 24.4724 6.13843C23.6755 6.13843 23.0294 6.78946 23.0294 7.59255C23.0294 8.39564 23.6755 9.04667 24.4724 9.04667Z" fill="#778B8E"/>
<path d="M26.7068 12.047C27.5037 12.047 28.1497 11.396 28.1497 10.5929C28.1497 9.78983 27.5037 9.13879 26.7068 9.13879C25.9098 9.13879 25.2638 9.78983 25.2638 10.5929C25.2638 11.396 25.9098 12.047 26.7068 12.047Z" fill="#778B8E"/>
<path d="M27.8235 15.6123C28.6205 15.6123 29.2665 14.9613 29.2665 14.1582C29.2665 13.3551 28.6205 12.7041 27.8235 12.7041C27.0266 12.7041 26.3806 13.3551 26.3806 14.1582C26.3806 14.9613 27.0266 15.6123 27.8235 15.6123Z" fill="#778B8E"/>
<path d="M27.8235 19.3659C28.6205 19.3659 29.2665 18.7149 29.2665 17.9118C29.2665 17.1087 28.6205 16.4576 27.8235 16.4576C27.0266 16.4576 26.3806 17.1087 26.3806 17.9118C26.3806 18.7149 27.0266 19.3659 27.8235 19.3659Z" fill="#778B8E"/>
<path d="M26.7068 22.8362C27.5037 22.8362 28.1497 22.1852 28.1497 21.3821C28.1497 20.579 27.5037 19.928 26.7068 19.928C25.9098 19.928 25.2638 20.579 25.2638 21.3821C25.2638 22.1852 25.9098 22.8362 26.7068 22.8362Z" fill="#778B8E"/>
<path d="M24.5658 25.8383C25.3628 25.8383 26.0088 25.1873 26.0088 24.3842C26.0088 23.5811 25.3628 22.9301 24.5658 22.9301C23.7689 22.9301 23.1229 23.5811 23.1229 24.3842C23.1229 25.1873 23.7689 25.8383 24.5658 25.8383Z" fill="#778B8E"/>
<path d="M21.4924 27.9958C22.2893 27.9958 22.9354 27.3447 22.9354 26.5416C22.9354 25.7386 22.2893 25.0875 21.4924 25.0875C20.6955 25.0875 20.0494 25.7386 20.0494 26.5416C20.0494 27.3447 20.6955 27.9958 21.4924 27.9958Z" fill="#778B8E"/>
<path d="M18.048 29.122C18.8449 29.122 19.4909 28.471 19.4909 27.6679C19.4909 26.8648 18.8449 26.2137 18.048 26.2137C17.251 26.2137 16.605 26.8648 16.605 27.6679C16.605 28.471 17.251 29.122 18.048 29.122Z" fill="#778B8E"/>
<path d="M14.3249 29.2152C15.1218 29.2152 15.7678 28.5642 15.7678 27.7611C15.7678 26.958 15.1218 26.307 14.3249 26.307C13.5279 26.307 12.8819 26.958 12.8819 27.7611C12.8819 28.5642 13.5279 29.2152 14.3249 29.2152Z" fill="#778B8E"/>
<path d="M10.8804 27.9958C11.6773 27.9958 12.3234 27.3447 12.3234 26.5416C12.3234 25.7386 11.6773 25.0875 10.8804 25.0875C10.0835 25.0875 9.43744 25.7386 9.43744 26.5416C9.43744 27.3447 10.0835 27.9958 10.8804 27.9958Z" fill="#778B8E"/>
<path d="M7.90117 25.8383C8.6981 25.8383 9.34414 25.1873 9.34414 24.3842C9.34414 23.5811 8.6981 22.9301 7.90117 22.9301C7.10423 22.9301 6.45819 23.5811 6.45819 24.3842C6.45819 25.1873 7.10423 25.8383 7.90117 25.8383Z" fill="#778B8E"/>
<path d="M5.66679 22.8362C6.46372 22.8362 7.10977 22.1852 7.10977 21.3821C7.10977 20.579 6.46372 19.928 5.66679 19.928C4.86986 19.928 4.22382 20.579 4.22382 21.3821C4.22382 22.1852 4.86986 22.8362 5.66679 22.8362Z" fill="#778B8E"/>
<path d="M4.55015 19.3659C5.34709 19.3659 5.99313 18.7149 5.99313 17.9118C5.99313 17.1087 5.34709 16.4576 4.55015 16.4576C3.75322 16.4576 3.10718 17.1087 3.10718 17.9118C3.10718 18.7149 3.75322 19.3659 4.55015 19.3659Z" fill="#778B8E"/>
<path d="M4.55015 15.6123C5.34709 15.6123 5.99313 14.9613 5.99313 14.1582C5.99313 13.3551 5.34709 12.7041 4.55015 12.7041C3.75322 12.7041 3.10718 13.3551 3.10718 14.1582C3.10718 14.9613 3.75322 15.6123 4.55015 15.6123Z" fill="#778B8E"/>
<path d="M5.66679 12.047C6.46372 12.047 7.10977 11.396 7.10977 10.5929C7.10977 9.78983 6.46372 9.13879 5.66679 9.13879C4.86986 9.13879 4.22382 9.78983 4.22382 10.5929C4.22382 11.396 4.86986 12.047 5.66679 12.047Z" fill="#778B8E"/>
<path d="M7.80784 9.04667C8.60478 9.04667 9.25082 8.39564 9.25082 7.59255C9.25082 6.78946 8.60478 6.13843 7.80784 6.13843C7.01091 6.13843 6.36487 6.78946 6.36487 7.59255C6.36487 8.39564 7.01091 9.04667 7.80784 9.04667Z" fill="#778B8E"/>
<path d="M17.723 1.44712C17.723 0.649704 17.0248 0.227539 16.2335 0.227539H16.1404C15.3026 0.227539 14.6509 0.555888 14.6509 1.44712C14.6509 2.47908 15.9077 2.66671 16.187 3.65176C16.4197 2.66671 17.723 2.47908 17.723 1.44712Z" fill="#778B8E"/>
<path d="M22.1896 2.65586C22.4294 1.89591 21.8909 1.28042 21.1368 1.03883L21.0481 1.01041C20.2496 0.754607 19.5298 0.868564 19.2619 1.71791C18.9516 2.70137 20.0929 3.26388 20.063 4.28791C20.5809 3.42021 21.8794 3.63932 22.1896 2.65586Z" fill="#778B8E"/>
<path d="M10.217 2.75447C9.93255 2.01035 10.4335 1.36349 11.1719 1.07686L11.2588 1.04313C12.0407 0.739638 12.7659 0.809991 13.0838 1.64166C13.4519 2.60464 12.346 3.23497 12.4368 4.25536C11.8682 3.42044 10.5851 3.71745 10.217 2.75447Z" fill="#778B8E"/>
<path d="M6.4914 5.26053C6.00238 4.63361 6.29238 3.8669 6.91449 3.37407L6.98768 3.31609C7.64637 2.79428 8.36004 2.64656 8.90663 3.34721C9.53951 4.1585 8.66654 5.08873 9.05108 6.03709C8.264 5.4076 7.12429 6.07182 6.4914 5.26053Z" fill="#778B8E"/>
<path d="M25.9575 5.25698C26.4466 4.63006 26.1566 3.86335 25.5345 3.37051L25.4613 3.31254C24.8026 2.79074 24.0889 2.64302 23.5423 3.34369C22.9095 4.15498 23.7824 5.08518 23.3979 6.03354C24.185 5.40408 25.3247 6.06827 25.9575 5.25698Z" fill="#778B8E"/>
<path d="M28.8591 8.72075C29.4949 8.24605 29.4158 7.42936 28.9448 6.78864L28.8894 6.71329C28.3906 6.03485 27.7408 5.70268 27.0302 6.23322C26.2074 6.84756 26.806 7.97688 26.1868 8.78943C27.1108 8.39147 28.0363 9.33509 28.8591 8.72075Z" fill="#778B8E"/>
<path d="M3.5205 8.69561C2.88468 8.22091 2.96373 7.40425 3.4348 6.7635L3.49022 6.68814C3.989 6.00971 4.63876 5.67754 5.34938 6.20808C6.1722 6.82241 5.57362 7.95173 6.19278 8.76428C5.26881 8.36632 4.34331 9.30994 3.5205 8.69561Z" fill="#778B8E"/>
<path d="M1.90793 12.9361C1.17005 12.648 1.03159 11.8394 1.31741 11.0959L1.35103 11.0084C1.65366 10.2211 2.19287 9.72728 3.01757 10.0492C3.9725 10.4219 3.69215 11.6707 4.5028 12.2889C3.50722 12.1518 2.86285 13.3088 1.90793 12.9361Z" fill="#778B8E"/>
<path d="M30.5545 12.9361C31.2923 12.648 31.4308 11.8394 31.145 11.0959L31.1114 11.0084C30.8087 10.2211 30.2695 9.72728 29.4448 10.0492C28.4899 10.4219 28.7702 11.6707 27.9596 12.2889C28.9552 12.1518 29.5995 13.3088 30.5545 12.9361Z" fill="#778B8E"/>
<path d="M30.7095 17.5826C31.5008 17.5826 31.9198 16.8789 31.9198 16.0816V15.9877C31.9198 15.1434 31.5939 14.4867 30.7095 14.4867C29.6854 14.4867 29.4992 15.7532 28.5217 16.0346C29.4992 16.2692 29.6854 17.5826 30.7095 17.5826Z" fill="#778B8E"/>
<path d="M1.71024 17.5826C0.918929 17.5826 0.5 16.8789 0.5 16.0816L0.5 15.9877C0.5 15.1434 0.825831 14.4867 1.71024 14.4867C2.73428 14.4867 2.92047 15.7532 3.89797 16.0346C2.92047 16.2692 2.73428 17.5826 1.71024 17.5826Z" fill="#778B8E"/>
<path d="M17.723 30.6236C17.723 31.4211 17.0248 31.8431 16.2335 31.8431H16.1404C15.3026 31.8431 14.6509 31.5149 14.6509 30.6236C14.6509 29.5917 15.9077 29.404 16.187 28.4189C16.4197 29.404 17.723 29.5917 17.723 30.6236Z" fill="#778B8E"/>
<path d="M22.1896 29.4148C22.4294 30.1747 21.8909 30.7902 21.1368 31.0318L21.0481 31.0602C20.2496 31.316 19.5298 31.2021 19.2619 30.3527C18.9516 29.3693 20.0929 28.8067 20.063 27.7827C20.5809 28.6504 21.8794 28.4313 22.1896 29.4148Z" fill="#778B8E"/>
<path d="M10.217 29.3162C9.93255 30.0603 10.4335 30.7072 11.1719 30.9938L11.2588 31.0275C12.0407 31.331 12.7659 31.2607 13.0838 30.429C13.4519 29.466 12.346 28.8357 12.4368 27.8153C11.8682 28.6502 10.5851 28.3532 10.217 29.3162Z" fill="#778B8E"/>
<path d="M6.4914 26.81C6.00238 27.4369 6.29238 28.2036 6.91449 28.6965L6.98768 28.7545C7.64637 29.2763 8.36004 29.424 8.90663 28.7233C9.53951 27.912 8.66654 26.9818 9.05108 26.0334C8.264 26.6629 7.12429 25.9987 6.4914 26.81Z" fill="#778B8E"/>
<path d="M25.9575 26.8137C26.4466 27.4406 26.1566 28.2073 25.5345 28.7001L25.4613 28.7581C24.8026 29.2799 24.0889 29.4276 23.5423 28.727C22.9095 27.9157 23.7824 26.9855 23.3979 26.0371C24.185 26.6666 25.3247 26.0024 25.9575 26.8137Z" fill="#778B8E"/>
<path d="M28.8591 23.3499C29.4949 23.8246 29.4158 24.6413 28.9448 25.282L28.8894 25.3574C28.3906 26.0358 27.7408 26.368 27.0302 25.8374C26.2074 25.2231 26.806 24.0938 26.1868 23.2812C27.1108 23.6792 28.0363 22.7356 28.8591 23.3499Z" fill="#778B8E"/>
<path d="M3.5205 23.375C2.88468 23.8497 2.96373 24.6663 3.4348 25.3071L3.49022 25.3824C3.989 26.0609 4.63876 26.393 5.34938 25.8625C6.1722 25.2482 5.57362 24.1188 6.19278 23.3063C5.26881 23.7042 4.34331 22.7606 3.5205 23.375Z" fill="#778B8E"/>
<path d="M1.90793 19.1345C1.17005 19.4226 1.03159 20.2312 1.31741 20.9747L1.35103 21.0622C1.65366 21.8495 2.19287 22.3433 3.01757 22.0214C3.9725 21.6487 3.69215 20.3999 4.5028 19.7817C3.50722 19.9188 2.86285 18.7618 1.90793 19.1345Z" fill="#778B8E"/>
<path d="M30.5545 19.1345C31.2923 19.4226 31.4308 20.2312 31.145 20.9747L31.1114 21.0622C30.8087 21.8495 30.2695 22.3433 29.4448 22.0214C28.4899 21.6487 28.7702 20.3999 27.9596 19.7817C28.9552 19.9188 29.5995 18.7618 30.5545 19.1345Z" fill="#778B8E"/>
</g>
</g>
<defs>
<clipPath id="clip0_5_540">
<rect width="66" height="32" fill="white" transform="translate(0.5)"/>
</clipPath>
<clipPath id="clip1_5_540">
<rect width="66" height="32" fill="white" transform="translate(0.5)"/>
</clipPath>
</defs>
</svg>
