<svg width="33" height="32" viewBox="0 0 33 32" fill="none" xmlns="http://www.w3.org/2000/svg">
<g clip-path="url(#clip0_5_398)">
<g clip-path="url(#clip1_5_398)">
<path fill-rule="evenodd" clip-rule="evenodd" d="M23.3665 7.05406C22.9928 7.41784 22.9462 7.46331 22.9462 7.46331L26.3561 10.7828L31.9151 5.37158C31.9151 5.37158 29.2056 5.37158 28.3181 5.37158C26.3095 5.37158 25.0016 5.46253 23.3665 7.05406Z" fill="#778B8E"/>
<path fill-rule="evenodd" clip-rule="evenodd" d="M14.5378 1.86986C14.9114 2.23364 25.0949 12.1012 25.0949 12.1012L21.6847 15.3751L5.98932 0.187378C5.98932 0.187378 8.69866 0.187378 9.58619 0.187378C11.5948 0.187378 12.9028 0.323795 14.5378 1.86986Z" fill="#778B8E"/>
<path fill-rule="evenodd" clip-rule="evenodd" d="M11.9218 8.96331C10.8474 7.91745 9.72629 6.8261 9.49272 6.59874C7.85778 5.05267 6.54981 4.91626 4.54116 4.91626C3.65362 4.91626 0.944275 4.91626 0.944275 4.91626L10.5671 14.1926C11.081 14.6928 11.5014 15.1021 11.6415 15.2386C13.2765 16.7846 14.5844 16.9209 16.593 16.9209C17.4806 16.9209 20.19 16.9209 20.19 16.9209L11.9218 8.96331Z" fill="#778B8E"/>
<path fill-rule="evenodd" clip-rule="evenodd" d="M0.897587 30.2899V30.7901H1.69171V31.0629H0.897587V31.7905H0.61731V30.0625H1.83184V30.3354H0.897587V30.2899Z" fill="#778B8E"/>
<path d="M4.12058 30.6081C4.12058 30.881 3.98044 31.0629 3.74687 31.1539L4.21401 31.7905H3.79359L3.37318 31.1994H2.99947V31.7905H2.67249V30.0625H3.32646C3.60673 30.0625 3.79359 30.108 3.93372 30.1989C4.07387 30.2444 4.12058 30.3807 4.12058 30.6081ZM3.70017 30.8355C3.74687 30.7901 3.79359 30.6991 3.79359 30.6081C3.79359 30.4717 3.74687 30.4262 3.70017 30.3807C3.65345 30.3354 3.51332 30.3354 3.37318 30.3354H2.99947V30.972H3.37318C3.51332 30.9265 3.65345 30.881 3.70017 30.8355Z" fill="#778B8E"/>
<path fill-rule="evenodd" clip-rule="evenodd" d="M6.31618 30.0172V30.2901H5.38192V30.7448H6.22275V31.0176H5.38192V31.4723H6.3629V31.7452H5.05493V30.0172H6.31618Z" fill="#778B8E"/>
<path fill-rule="evenodd" clip-rule="evenodd" d="M8.51191 30.0172V30.2901H7.57766V30.7448H8.41849V31.0176H7.57766V31.4723H8.55863V31.7452H7.25067V30.0172H8.51191Z" fill="#778B8E"/>
<path fill-rule="evenodd" clip-rule="evenodd" d="M11.3616 30.2901V31.7452H11.0813V30.2901H10.5208V30.0172H11.9221V30.2901H11.3616Z" fill="#778B8E"/>
<path d="M14.164 30.6081C14.164 30.881 14.0238 31.0629 13.7903 31.1539L14.2574 31.7905H13.8837L13.4633 31.1994H13.0429V31.7905H12.7626V30.0625H13.4165C13.6968 30.0625 13.8837 30.108 14.0238 30.1989C14.1172 30.2444 14.164 30.3807 14.164 30.6081ZM13.7435 30.8355C13.7903 30.7901 13.837 30.6991 13.837 30.6081C13.837 30.4717 13.7903 30.4262 13.7435 30.3807C13.6968 30.3354 13.5567 30.3354 13.4165 30.3354H13.0429V30.972H13.4165C13.5567 30.9265 13.6968 30.881 13.7435 30.8355Z" fill="#778B8E"/>
<path d="M15.3788 31.3813L15.192 31.7905H14.865L15.6591 30.0625H15.9862L16.7803 31.7905H16.4532L16.2663 31.3813H15.3788ZM16.1262 31.1084L15.7993 30.3807L15.4723 31.1084H16.1262Z" fill="#778B8E"/>
<path d="M18.8822 30.2446C19.0691 30.381 19.1625 30.6083 19.1625 30.8812C19.1625 31.1541 19.0691 31.3815 18.9288 31.5178C18.742 31.6542 18.5085 31.7452 18.1815 31.7452H17.5743V30.0172H18.1815C18.4618 30.0172 18.6953 30.1082 18.8822 30.2446ZM18.8354 30.8812C18.8354 30.472 18.6019 30.2901 18.1347 30.2901H17.8546V31.4723H18.1815C18.415 31.4723 18.5553 31.4268 18.6953 31.336C18.7888 31.245 18.8354 31.1086 18.8354 30.8812Z" fill="#778B8E"/>
<path fill-rule="evenodd" clip-rule="evenodd" d="M21.3115 30.0172V30.2901H20.3771V30.7448H21.218V31.0176H20.3771V31.4723H21.3581V31.7452H20.0502V30.0172H21.3115Z" fill="#778B8E"/>
<path fill-rule="evenodd" clip-rule="evenodd" d="M24.3479 30.2901H23.3203V30.0172H24.7682V30.2446L23.7406 31.4723H24.815V31.7452H23.3203V31.5178L24.3479 30.2901Z" fill="#778B8E"/>
<path d="M27.1501 31.5178C26.9632 31.6997 26.7297 31.7907 26.4961 31.7907C26.2159 31.7907 25.9823 31.6997 25.8422 31.5178C25.6553 31.3359 25.5619 31.1086 25.5619 30.8812C25.5619 30.6083 25.6553 30.4264 25.8422 30.2446C26.0291 30.0627 26.2626 29.9717 26.4961 29.9717C26.7764 29.9717 27.01 30.0627 27.1501 30.2446C27.337 30.4264 27.4304 30.6538 27.4304 30.8812C27.4304 31.1541 27.337 31.3359 27.1501 31.5178ZM26.9632 30.4264C26.8232 30.2901 26.6829 30.2446 26.4961 30.2446C26.3092 30.2446 26.1691 30.2901 26.0291 30.4264C25.8888 30.5629 25.8422 30.6993 25.8422 30.8812C25.8422 31.0631 25.8888 31.1994 26.0291 31.3359C26.1691 31.4723 26.3092 31.5178 26.4961 31.5178C26.6829 31.5178 26.8232 31.4723 26.9632 31.3359C27.1035 31.1994 27.1501 31.0631 27.1501 30.8812C27.1501 30.6993 27.0567 30.5629 26.9632 30.4264Z" fill="#778B8E"/>
<path fill-rule="evenodd" clip-rule="evenodd" d="M29.6725 30.0172H29.9527V31.7452H29.6257L28.6447 30.472V31.7452H28.3644V30.0172H28.6447L29.6725 31.336V30.0172Z" fill="#778B8E"/>
<path fill-rule="evenodd" clip-rule="evenodd" d="M32.2416 30.0172V30.2901H31.3074V30.7448H32.1481V31.0176H31.3074V31.4723H32.2882V31.7452H30.9803V30.0172H32.2416Z" fill="#778B8E"/>
<path fill-rule="evenodd" clip-rule="evenodd" d="M7.0635 24.7423C7.0635 25.106 6.97007 25.4698 6.82993 25.7882C6.6898 26.1064 6.50294 26.3793 6.22267 26.6522C5.9891 26.8795 5.66211 27.1068 5.33512 27.2433C5.00814 27.3796 4.63443 27.4707 4.26072 27.4707C3.88702 27.4707 3.51333 27.3796 3.18632 27.2433C2.85934 27.1068 2.53235 26.9249 2.29879 26.6522C2.06522 26.4248 1.83166 26.1064 1.69152 25.7882C1.55138 25.4698 1.45796 25.106 1.45796 24.7423V20.0132H0.757263V24.6513C0.757263 25.106 0.850688 25.5608 1.03754 25.97C1.22439 26.3793 1.45796 26.743 1.78495 27.0614C2.11194 27.3796 2.48565 27.607 2.90605 27.7889C3.32648 27.9708 3.7936 28.0618 4.30744 28.0618C4.77457 28.0618 5.24169 27.9708 5.66211 27.7889C6.08252 27.607 6.45623 27.3796 6.78321 27.0614C7.1102 26.743 7.34377 26.3793 7.53063 25.97C7.71748 25.5608 7.8109 25.106 7.8109 24.6513V20.0132H7.1102V24.7423H7.0635Z" fill="#778B8E"/>
<path d="M15.7053 20.0132L11.9683 27.9253H12.7624L13.8368 25.6516H18.0876L19.162 27.9253H19.9561L16.2191 20.0132H15.7053ZM14.1638 24.9697L15.9856 21.1044L17.8073 24.9697H14.1638Z" fill="#778B8E"/>
<path d="M31.868 25.379C32.0549 24.9244 32.1483 24.4242 32.1483 23.9694C32.1483 23.4238 32.0549 22.8781 31.8213 22.3779C31.5877 21.8777 31.3075 21.4229 30.9338 21.0592C30.5134 20.6954 30.0929 20.4226 29.5791 20.1952C29.0653 19.9678 28.5047 19.877 27.9442 19.877C27.3836 19.877 26.823 19.9678 26.3092 20.1952C25.7954 20.4226 25.3282 20.6954 24.9545 21.0592C24.5809 21.4229 24.2538 21.8777 24.0669 22.3779C23.8334 22.8781 23.74 23.4238 23.74 23.9694C23.74 24.5152 23.8334 25.0608 24.0669 25.5609C24.3006 26.0612 24.5809 26.5159 24.9545 26.8797C25.3282 27.2434 25.7954 27.5618 26.3092 27.7437C26.823 27.971 27.3836 28.0619 27.9442 28.0619C28.458 28.0619 28.925 27.971 29.3922 27.7892C29.8126 27.6527 30.2331 27.3799 30.6535 27.107L31.6345 28.0166L32.1017 27.5163L31.1673 26.6068C31.4476 26.1975 31.7279 25.7883 31.868 25.379ZM28.5515 24.1058L28.0377 24.6061L30.1397 26.6068C29.766 26.8797 29.439 27.0615 29.1119 27.1981C28.7383 27.3344 28.3178 27.4254 27.9442 27.4254C27.477 27.4254 27.0099 27.3344 26.5895 27.1526C26.1691 26.9707 25.7954 26.6978 25.4684 26.4249C25.1413 26.1067 24.9078 25.7429 24.721 25.3337C24.5341 24.9244 24.4407 24.4697 24.4407 24.0149C24.4407 23.5602 24.5341 23.1054 24.721 22.6962C24.9078 22.2869 25.1413 21.9232 25.4684 21.605C25.7954 21.2866 26.1691 21.0592 26.5895 20.8773C27.0099 20.6954 27.477 20.6044 27.9442 20.6044C28.4112 20.6044 28.8784 20.6954 29.2988 20.8773C29.7192 21.0592 30.0929 21.3321 30.42 21.605C30.7469 21.9232 30.9804 22.2869 31.1673 22.6962C31.3542 23.1054 31.4476 23.5602 31.4476 24.0149C31.4476 24.3787 31.4008 24.7879 31.2607 25.1517C31.1207 25.4701 30.9338 25.7883 30.7001 26.1522L28.5515 24.1058Z" fill="#778B8E"/>
</g>
</g>
<defs>
<clipPath id="clip0_5_398">
<rect width="32" height="32" fill="white" transform="translate(0.5)"/>
</clipPath>
<clipPath id="clip1_5_398">
<rect width="32" height="32" fill="white" transform="translate(0.5)"/>
</clipPath>
</defs>
</svg>
