<svg width="39" height="32" viewBox="0 0 39 32" fill="none" xmlns="http://www.w3.org/2000/svg">
<g clip-path="url(#clip0_5_432)">
<g clip-path="url(#clip1_5_432)">
<path d="M5.79668 1.12903C5.24136 1.69725 4.70847 2.24296 4.61872 2.34423L4.45605 2.52988L5.64524 3.72258L6.84003 4.92089L5.93691 5.78732C5.43769 6.2655 4.9048 6.8056 4.74772 6.98567L4.46165 7.31757L5.6901 8.54962L6.91856 9.78177L7.05879 9.59611C7.13172 9.5004 7.68702 8.92102 8.28724 8.31901L9.37549 7.22196L8.17502 6.05173L6.97465 4.87591L8.17502 3.66071L9.37549 2.43987L8.18068 1.2753C7.51877 0.62832 6.941 0.105103 6.89051 0.105103C6.84563 0.105103 6.352 0.566435 5.79668 1.12903Z" fill="#778B8E"/>
<path d="M15.2774 9.67237C15.2157 9.70049 13.9312 9.72301 12.4278 9.72301L9.69046 9.7286L7.127 12.2997L4.56353 14.8764L4.53547 12.3166L4.50742 9.75681L2.53854 9.73986L0.564044 9.7286L0.524777 12.9185C0.463073 17.3068 0.524777 25.0368 0.620141 25.1044C0.659399 25.1325 1.32131 25.1382 2.11784 25.1213C2.90314 25.1044 6.33047 25.0875 9.7354 25.0875H15.9225V22.9385V20.7893L13 17.8525L10.0776 14.9214L10.6834 14.3363C11.6706 13.3743 15.4457 9.61612 15.4177 9.62171C15.4008 9.62171 15.3391 9.64425 15.2774 9.67237ZM7.64307 18.2239L10.5094 21.1211L7.59257 21.138C5.98831 21.1438 4.64205 21.138 4.60841 21.1211C4.55231 21.1044 4.53547 20.4349 4.53547 18.0495V15.0002L4.65889 15.1633C4.72058 15.2533 6.06684 16.6317 7.64307 18.2239Z" fill="#778B8E"/>
<path d="M21.4867 10.9613C20.8192 11.0739 20.191 11.5295 19.8938 12.1371C19.5627 12.8122 19.6133 13.7461 20.0227 14.365C20.3088 14.7926 20.4547 14.877 21.9524 15.5014C22.979 15.9234 23.3828 16.3172 23.4276 16.9305C23.4726 17.5381 23.1584 18.0557 22.5749 18.3313C22.3339 18.4439 22.2217 18.455 21.4812 18.455C20.7968 18.4494 20.5837 18.427 20.1741 18.3144L19.6862 18.1794L19.6244 18.3594C19.5909 18.455 19.5459 18.6914 19.5292 18.877L19.4955 19.2259L19.6862 19.2877C20.6791 19.6085 22.5807 19.5747 23.3378 19.2259C24.4373 18.7081 25.0095 17.3355 24.6112 16.1484C24.3756 15.4508 23.9213 15.0571 22.7938 14.59C21.6327 14.1063 21.4251 13.9937 21.1951 13.7461C20.8418 13.3636 20.7855 12.9586 21.0268 12.486C21.2512 12.0415 21.5317 11.929 22.4629 11.9234C23.2032 11.9234 23.7305 11.9965 23.9381 12.1315C24.0614 12.2103 24.0783 12.2103 24.1399 12.1259C24.2355 12.0021 24.3027 11.2482 24.2355 11.1808C24.0559 11.0007 22.1767 10.8544 21.4867 10.9613Z" fill="#778B8E"/>
<path d="M35.3197 10.9671C34.1137 11.1865 33.1153 12.0417 32.6665 13.24C32.5037 13.6732 32.3243 14.4833 32.2682 15.0291C32.2345 15.4004 32.3859 16.458 32.5656 17.015C32.8011 17.7745 33.3564 18.5228 33.9846 18.9447C34.6073 19.3611 35.4767 19.5524 36.5256 19.5072C37.1707 19.4734 38.1412 19.2823 38.2422 19.164C38.3095 19.0797 38.0795 18.2245 37.9897 18.2245C37.9562 18.2245 37.7823 18.2808 37.597 18.3484C37.3166 18.4496 37.1372 18.4665 36.4247 18.4721C35.5889 18.4777 35.5833 18.4777 35.2019 18.2977C34.7027 18.0613 34.1809 17.5438 33.9396 17.0431C33.4741 16.0811 33.4967 14.3708 33.9846 13.3525C34.3437 12.6043 34.9551 12.1148 35.7011 11.9742C36.206 11.8785 37.339 11.946 37.6307 12.0867C37.7653 12.1485 37.8888 12.1879 37.9112 12.1766C37.9391 12.1598 37.9897 12.0135 38.0234 11.856C38.0626 11.6929 38.13 11.4903 38.1693 11.4059C38.2422 11.2653 38.2365 11.2484 38.1243 11.1865C37.8495 11.0346 37.339 10.9615 36.4808 10.939C35.9872 10.9278 35.4656 10.939 35.3197 10.9671Z" fill="#778B8E"/>
<path d="M26.2662 11.0054C26.1486 11.0279 26.1428 11.0561 26.1036 12.4456C26.0812 13.2276 26.0867 15.118 26.1149 16.6483L26.1597 19.433L26.7374 19.4499L27.3153 19.4668L27.304 17.9591L27.2984 16.4514L28.2744 16.4232L29.2449 16.3951L29.688 16.1813C29.9348 16.0688 30.2208 15.9056 30.3275 15.8268C30.6304 15.5906 30.9837 15.0674 31.1183 14.6341C31.2305 14.2965 31.2418 14.1503 31.225 13.5146C31.2081 12.8057 31.2026 12.7776 30.995 12.3613C30.6473 11.6524 30.0077 11.1798 29.1888 11.0279C28.8803 10.9716 26.5356 10.9548 26.2662 11.0054ZM28.998 12.0688C29.3458 12.1812 29.6824 12.4794 29.8563 12.8339C29.9853 13.087 30.002 13.1995 30.002 13.6721C30.002 14.2965 29.9348 14.5104 29.6263 14.8536C29.1943 15.3318 28.6783 15.4949 27.8032 15.4331L27.3095 15.3937V13.689V11.9843L27.5788 11.9618C28.0052 11.9224 28.7175 11.973 28.998 12.0688Z" fill="#778B8E"/>
<path d="M19.6244 23.1787C19.6244 24.0561 19.6412 24.8326 19.6581 24.9C19.6861 25.0014 19.7366 25.0294 19.8825 25.0294H20.0732V24.2136V23.398H20.6622C21.2736 23.398 21.3073 23.3811 21.2175 23.1504C21.1896 23.0773 21.0885 23.0604 20.7183 23.0604C20.4602 23.0604 20.2134 23.0436 20.163 23.0266C20.0901 22.9985 20.0732 22.8971 20.0732 22.4923V21.9914H20.7183H21.3634V21.8226V21.654H21.01C20.8137 21.654 20.421 21.6371 20.1404 21.6202L19.6244 21.5808V23.1787Z" fill="#778B8E"/>
<path d="M30.2206 21.6363C29.138 21.6589 29.0091 21.6927 29.1997 21.9288C29.2895 22.0359 29.368 22.0471 29.957 22.0582L30.6189 22.0753L30.2936 22.6658C29.9066 23.3636 29.2839 24.4605 29.11 24.7588L28.981 24.9725H30.1366C31.3762 24.9725 31.4323 24.9612 31.292 24.6968C31.2359 24.5844 31.1855 24.5787 30.5123 24.5787C30.1197 24.5787 29.7831 24.5618 29.7607 24.545C29.7439 24.528 29.7887 24.4156 29.8561 24.3031C30.0579 23.9823 31.3481 21.6756 31.3481 21.6363C31.3481 21.6138 31.3146 21.6027 31.2809 21.6082C31.2415 21.6138 30.7648 21.6307 30.2206 21.6363Z" fill="#778B8E"/>
<path d="M21.7848 22.7341C21.7682 22.8691 21.7569 23.4149 21.7682 23.9549C21.7848 25.0238 21.8074 25.0857 22.1103 25.007L22.2618 24.9732V24.0955V23.2236L22.559 23.0886C22.716 23.0098 22.8956 22.9478 22.9517 22.9478C23.0808 22.9478 23.1367 22.8016 23.0471 22.6947C22.9573 22.5877 22.8003 22.5877 22.5029 22.7004C22.2842 22.7848 22.2505 22.7847 22.1607 22.7116C22.1103 22.6609 22.0094 22.5935 21.942 22.5597C21.8298 22.5034 21.8185 22.5147 21.7848 22.7341Z" fill="#778B8E"/>
<path d="M23.9548 22.56C23.5565 22.6783 23.1582 23.2802 23.1582 23.7639C23.1582 24.0566 23.321 24.5123 23.5004 24.7148C23.7361 24.9848 24.0838 25.1087 24.4877 25.0693C24.8467 25.0299 25.0822 24.8893 25.1104 24.6923C25.1272 24.5798 25.1159 24.5684 24.9982 24.6078C24.7624 24.6812 24.196 24.7034 24.0446 24.6416C23.8539 24.5684 23.6631 24.2759 23.6631 24.0566V23.9047H24.4821H25.3011L25.2618 23.5784C25.2394 23.404 25.1889 23.179 25.1496 23.0889C25.0598 22.8638 24.7795 22.6276 24.5158 22.5544C24.2745 22.4868 24.2016 22.4868 23.9548 22.56ZM24.6504 23.0326C24.7569 23.1396 24.785 23.2239 24.7737 23.3589L24.7569 23.539L24.2408 23.5559L23.7192 23.5728V23.3702C23.7192 23.072 23.9211 22.892 24.2521 22.892C24.454 22.892 24.5382 22.9258 24.6504 23.0326Z" fill="#778B8E"/>
<path d="M26.3841 22.5834C25.627 22.8592 25.3913 24.1023 25.9803 24.7437C26.3506 25.1488 27.3321 25.2106 27.5284 24.8394C27.6239 24.665 27.5677 24.5582 27.4219 24.637C27.3658 24.665 27.1359 24.693 26.917 24.693C26.5524 24.693 26.5019 24.6819 26.3561 24.53C26.1823 24.3612 26.098 24.1305 26.1541 23.9899C26.1767 23.9224 26.3224 23.9055 26.9788 23.9055H27.7752L27.7417 23.568C27.708 23.1461 27.5004 22.7747 27.2368 22.651C26.9507 22.516 26.6367 22.4877 26.3841 22.5834ZM27.0685 22.9773C27.2312 23.0954 27.349 23.4499 27.2481 23.5173C27.1414 23.5847 26.2047 23.5792 26.1597 23.5116C26.1093 23.4273 26.2776 23.0841 26.4178 22.9828C26.5804 22.8703 26.9114 22.8647 27.0685 22.9773Z" fill="#778B8E"/>
<path d="M32.2793 22.5821C31.6903 22.7903 31.3144 23.6005 31.5164 24.2193C31.7127 24.8101 32.0099 25.0463 32.5541 25.052C33.272 25.052 33.7039 24.5737 33.7039 23.7692C33.7039 23.2291 33.5525 22.931 33.1373 22.6777C32.812 22.4809 32.6213 22.4584 32.2793 22.5821ZM33.0029 23.0603C33.171 23.218 33.2777 23.6568 33.2271 23.9718C33.1486 24.4555 32.9355 24.6918 32.582 24.6918C32.1838 24.6918 31.9651 24.3824 31.9651 23.803C31.9651 23.3641 32.0549 23.1279 32.268 22.9985C32.4867 22.8579 32.8177 22.8859 33.0029 23.0603Z" fill="#778B8E"/>
<path d="M35.0225 22.5812C34.9327 22.6317 34.7756 22.7218 34.6747 22.7836C34.4953 22.8961 34.4896 22.8961 34.4896 22.7894C34.4896 22.6711 34.2203 22.5192 34.1418 22.5979C34.1139 22.6261 34.1026 23.1606 34.1081 23.7963L34.125 24.944L34.3381 24.9609L34.5457 24.9778V24.2576C34.5457 23.3801 34.641 23.1099 34.9719 22.9693C35.1291 22.9017 35.2132 22.8961 35.3085 22.9411C35.5722 23.0594 35.617 23.2224 35.6507 24.1226L35.6844 24.9722H35.8975H36.1107L36.0827 24.1395C36.0433 23.0594 36.0321 23.0031 35.819 22.7556C35.6059 22.5023 35.2917 22.4348 35.0225 22.5812Z" fill="#778B8E"/>
<path d="M37.1537 22.577C36.9182 22.6782 36.6265 22.9876 36.503 23.2578C36.2562 23.8034 36.4638 24.5686 36.9461 24.9004C37.3109 25.1482 38.0512 25.1199 38.3037 24.8499C38.472 24.67 38.4495 24.5574 38.2645 24.6024C37.8662 24.7036 37.4063 24.7036 37.2659 24.6137C37.0807 24.4956 36.9013 24.1973 36.9013 24.023V23.8935L37.7034 23.9104L38.5 23.9329L38.4887 23.5841C38.4776 23.1059 38.3093 22.7965 37.9671 22.6221C37.6866 22.4814 37.4063 22.4645 37.1537 22.577ZM37.8101 23.0047C37.8886 23.0608 37.984 23.1902 38.0232 23.2915C38.1241 23.5334 38.0456 23.5728 37.4622 23.5559C36.9856 23.539 36.9856 23.539 36.9687 23.3815C36.9574 23.269 36.9967 23.1847 37.12 23.0608C37.3165 22.8584 37.597 22.8359 37.8101 23.0047Z" fill="#778B8E"/>
<path d="M5.63994 28.2258C5.00047 28.8673 4.47879 29.4186 4.47879 29.4467C4.47879 29.4805 5.02291 30.0487 5.68481 30.7125L6.89082 31.9222L8.12485 30.6844L9.36459 29.4467L8.16411 28.2483C7.50225 27.5957 6.92447 27.0557 6.88521 27.0557C6.84033 27.0557 6.2794 27.579 5.63994 28.2258Z" fill="#778B8E"/>
</g>
</g>
<defs>
<clipPath id="clip0_5_432">
<rect width="38" height="32" fill="white" transform="translate(0.5)"/>
</clipPath>
<clipPath id="clip1_5_432">
<rect width="38" height="32" fill="white" transform="translate(0.5)"/>
</clipPath>
</defs>
</svg>
