<svg width="88" height="32" viewBox="0 0 88 32" fill="none" xmlns="http://www.w3.org/2000/svg">
<g clip-path="url(#clip0_5_448)">
<g clip-path="url(#clip1_5_448)">
<path fill-rule="evenodd" clip-rule="evenodd" d="M20.0279 28.6555C20.5075 28.6555 20.6968 28.6859 20.8978 28.798C21.2439 28.9882 21.4587 29.4108 21.4587 29.8998C21.4587 30.3889 21.2427 30.822 20.8757 31.0122C20.6713 31.1208 20.5075 31.1464 19.9988 31.1464H19.6389V28.6555H20.029H20.0279ZM20.0988 30.9037C20.4924 30.9037 20.604 30.8815 20.7747 30.7765C21.0232 30.6235 21.1648 30.3095 21.1648 29.8987C21.1648 29.4878 21.0092 29.1481 20.7305 28.9987C20.5703 28.9123 20.4669 28.8983 20.0279 28.8983H19.9164V30.9037H20.0988Z" fill="#778B8E"/>
<path fill-rule="evenodd" clip-rule="evenodd" d="M22.213 28.6555V30.1239C22.213 30.4904 22.2281 30.5874 22.2909 30.6994C22.3803 30.8488 22.5766 30.9422 22.8111 30.9422C23.0678 30.9422 23.2722 30.8336 23.35 30.6503C23.3941 30.55 23.4058 30.4519 23.4058 30.1239V28.6555H23.6845V30.1274C23.6845 30.5231 23.6775 30.5909 23.6253 30.7251C23.5068 31.0169 23.2048 31.1885 22.8111 31.1885C22.4174 31.1885 22.112 31.0169 21.9936 30.7251C21.9413 30.5909 21.9343 30.5231 21.9343 30.1274V28.6555H22.213Z" fill="#778B8E"/>
<path fill-rule="evenodd" clip-rule="evenodd" d="M24.7445 28.6555C25.0755 28.6555 25.2125 28.6707 25.3507 28.715C25.5923 28.7968 25.734 29.0022 25.734 29.2754C25.734 29.5485 25.6038 29.7306 25.3216 29.8204C25.6933 29.9103 25.864 30.1123 25.864 30.4519C25.864 30.7578 25.7002 31.0052 25.4482 31.0835C25.288 31.1359 25.1509 31.1464 24.7235 31.1464H24.2926V28.6555H24.7456H24.7445ZM24.8002 29.7271C25.0418 29.7271 25.1602 29.7084 25.2647 29.6488C25.3832 29.5859 25.4506 29.4505 25.4506 29.294C25.4506 29.1224 25.3693 28.9882 25.2276 28.9356C25.1312 28.8983 25.0452 28.8913 24.7851 28.8913H24.5656V29.7283H24.8002V29.7271ZM24.8153 30.9107C25.1126 30.9107 25.2392 30.8955 25.3507 30.8465C25.4877 30.7869 25.5702 30.634 25.5702 30.4356C25.5702 30.2266 25.4621 30.0656 25.2879 30.006C25.1764 29.9722 25.0801 29.9617 24.8165 29.9617H24.5679V30.9107H24.8165H24.8153Z" fill="#778B8E"/>
<path fill-rule="evenodd" clip-rule="evenodd" d="M27.1718 28.637L28.0266 31.1431H27.7362L27.5167 30.4824H26.5841L26.3612 31.1431H26.0755L26.9302 28.637H27.1718ZM27.0487 28.9989L26.6585 30.2384H27.4389L27.0487 28.9989Z" fill="#778B8E"/>
<path d="M28.7061 28.6555H28.4204V31.1464H28.7061V28.6555Z" fill="#778B8E"/>
<path fill-rule="evenodd" clip-rule="evenodd" d="M31.594 28.6555V28.8983H30.9483V31.1464H30.6696V28.8983H30.0261V28.6555H31.594Z" fill="#778B8E"/>
<path fill-rule="evenodd" clip-rule="evenodd" d="M33.7844 29.8972C33.7844 30.6629 33.3756 31.1858 32.7775 31.1858C32.1794 31.1858 31.7672 30.6664 31.7672 29.8785C31.7672 29.1349 32.1829 28.6085 32.7775 28.6085C33.3721 28.6085 33.7844 29.1314 33.7844 29.8972ZM32.0633 29.882C32.0633 30.5275 32.342 30.9395 32.7764 30.9395C33.2107 30.9395 33.4859 30.5252 33.4859 29.8972C33.4859 29.2692 33.2037 28.8548 32.7764 28.8548C32.349 28.8548 32.0633 29.2656 32.0633 29.882Z" fill="#778B8E"/>
<path fill-rule="evenodd" clip-rule="evenodd" d="M36.5542 28.6555V28.8983H35.9073V31.1464H35.6286V28.8983H34.9864V28.6555H36.5542Z" fill="#778B8E"/>
<path fill-rule="evenodd" clip-rule="evenodd" d="M38.3893 29.7271V28.6555H38.668V31.1464H38.3893V29.9582H37.2256V31.1464H36.9469V28.6555H37.2256V29.7271H38.3893Z" fill="#778B8E"/>
<path fill-rule="evenodd" clip-rule="evenodd" d="M40.5855 29.734V29.9769H39.5821V30.9037H40.69V31.1464H39.3045V28.6555H40.6644V28.8983H39.5821V29.734H40.5855Z" fill="#778B8E"/>
<path fill-rule="evenodd" clip-rule="evenodd" d="M42.1098 28.6555L42.5895 30.7765L43.1054 28.6555H43.3434L43.8601 30.7765L44.3435 28.6555H44.6033L44.0123 31.1616H43.7115L43.2215 29.2146L42.7336 31.1616H42.4328L41.8463 28.6555H42.1098Z" fill="#778B8E"/>
<path fill-rule="evenodd" clip-rule="evenodd" d="M46.8402 29.8972C46.8402 30.6629 46.4311 31.1858 45.8332 31.1858C45.2348 31.1858 44.8228 30.6664 44.8228 29.8785C44.8228 29.1349 45.2385 28.6085 45.8332 28.6085C46.4278 28.6085 46.8402 29.1314 46.8402 29.8972ZM45.1187 29.882C45.1187 30.5275 45.3977 30.9395 45.8319 30.9395C46.2661 30.9395 46.5415 30.5252 46.5415 29.8972C46.5415 29.2692 46.2595 28.8548 45.8319 28.8548C45.4047 28.8548 45.1187 29.2656 45.1187 29.882Z" fill="#778B8E"/>
<path fill-rule="evenodd" clip-rule="evenodd" d="M47.7894 28.6552C48.1727 28.6552 48.3131 28.6704 48.4768 28.7334C48.7255 28.8303 48.8773 29.0661 48.8773 29.3603C48.8773 29.6894 48.7066 29.9135 48.3689 30.0361L49.0193 31.145H48.6849L48.0599 30.0804H47.629V31.145H47.3503V28.6541H47.7894V28.6552ZM47.8042 29.8389C48.105 29.8389 48.1912 29.8318 48.3061 29.7898C48.4838 29.7268 48.5847 29.5692 48.5847 29.3568C48.5847 29.1665 48.499 29.0205 48.3504 28.9576C48.2355 28.905 48.1493 28.898 47.7964 28.898H47.629V29.8389H47.8034H47.8042Z" fill="#778B8E"/>
<path fill-rule="evenodd" clip-rule="evenodd" d="M49.7211 28.6555V30.9037H50.7803V31.1464H49.4354V28.6555H49.7211Z" fill="#778B8E"/>
<path fill-rule="evenodd" clip-rule="evenodd" d="M51.5916 28.6555C52.0713 28.6555 52.2605 28.6859 52.4616 28.798C52.8075 28.9882 53.0226 29.4108 53.0226 29.8998C53.0226 30.3889 52.8063 30.822 52.4394 31.0122C52.235 31.1208 52.0713 31.1464 51.5628 31.1464H51.2025V28.6555H51.5928H51.5916ZM51.6626 30.9037C52.0561 30.9037 52.1677 30.8815 52.3385 30.7765C52.5871 30.6235 52.7287 30.3095 52.7287 29.8987C52.7287 29.4878 52.5732 29.1481 52.2945 28.9987C52.1341 28.9123 52.0307 28.8983 51.5916 28.8983H51.4804V30.9037H51.6626Z" fill="#778B8E"/>
<path fill-rule="evenodd" clip-rule="evenodd" d="M1.997 13.916C1.997 13.4432 1.85763 13.0136 1.58239 12.6273C1.30715 12.2398 0.948284 11.9643 0.5 11.8056C0.735756 11.7157 0.986605 11.6725 1.2514 11.6725C1.94125 11.6725 2.51263 11.9375 2.97021 12.4697C3.54972 11.9386 4.23493 11.6725 5.02232 11.6725C5.92818 11.6725 6.68073 12.0121 7.28579 12.6903L7.41937 12.5479C8.00125 11.9643 8.71198 11.6725 9.5528 11.6725C10.3936 11.6725 11.1009 11.9631 11.692 12.5479C12.2808 13.1304 12.5758 13.8331 12.5758 14.6607V19.8982C12.5758 20.4024 12.3226 20.6522 11.8163 20.6522C11.3099 20.6522 11.0661 20.4024 11.0661 19.8982V14.6583C11.0661 14.2381 10.9185 13.8856 10.6259 13.5985C10.3355 13.309 9.97783 13.1654 9.55399 13.1654C9.13003 13.1654 8.77588 13.309 8.48553 13.5985C8.194 13.8856 8.05 14.2381 8.05 14.6583V19.8619H8.04302L8.05 19.8982C8.05 20.0347 8.01401 20.1654 7.93965 20.288C7.79216 20.5308 7.57618 20.6522 7.29047 20.6522C6.78989 20.6522 6.53792 20.4024 6.53792 19.8982V14.6583C6.53792 14.2381 6.39273 13.8856 6.09775 13.5985C5.80392 13.309 5.44624 13.1654 5.02117 13.1654C4.59611 13.1654 4.23841 13.309 3.94691 13.5985C3.65309 13.8856 3.50676 14.2381 3.50676 14.6583V19.8982C3.50676 20.4024 3.25822 20.6522 2.75303 20.6522C2.24784 20.6522 1.99583 20.4024 1.99583 19.8982V13.916H1.997Z" fill="#778B8E"/>
<path fill-rule="evenodd" clip-rule="evenodd" d="M16.0406 17.6571V18.4018C16.0406 18.885 16.1776 19.3204 16.4529 19.7067C16.7281 20.0943 17.0928 20.3662 17.5503 20.5215C17.2914 20.6067 17.0394 20.6522 16.8001 20.6522C16.166 20.6522 15.6283 20.4327 15.1893 19.9985C14.7503 19.5608 14.5285 19.0297 14.5285 18.4018V14.6619C14.5285 13.8296 14.8224 13.1222 15.41 12.5433C15.9977 11.9643 16.7118 11.6725 17.5503 11.6725C18.3889 11.6725 19.0985 11.9632 19.6896 12.548C20.2796 13.1304 20.5734 13.8331 20.5734 14.6607V16.1583C20.5734 16.5761 20.4282 16.931 20.1343 17.2217C19.8417 17.5111 19.484 17.6571 19.0636 17.6571H16.0406ZM19.0636 14.6584C19.0636 14.2381 18.9173 13.8868 18.6223 13.5985C18.3308 13.309 17.9743 13.1654 17.5503 13.1654C17.1265 13.1654 16.7711 13.309 16.4796 13.5985C16.1881 13.8879 16.0417 14.2381 16.0417 14.6584V16.2015C16.0417 16.6801 16.281 16.9181 16.7618 16.9181H18.3412C18.8243 16.9181 19.0648 16.6801 19.0648 16.2015V14.6584H19.0636Z" fill="#778B8E"/>
<path fill-rule="evenodd" clip-rule="evenodd" d="M22.3329 12.4184C22.3329 11.9211 22.5873 11.6725 23.0936 11.6725C23.5999 11.6725 23.8438 11.9211 23.8438 12.4184V17.6594C23.8438 18.0819 23.9902 18.4379 24.2805 18.7262C24.5697 19.0134 24.9274 19.157 25.3559 19.157C25.7845 19.157 26.1375 19.0122 26.429 18.7227C26.7205 18.4321 26.8692 18.0772 26.8692 17.6594V12.4184C26.8692 11.9211 27.1189 11.6725 27.6206 11.6725C28.1223 11.6725 28.3801 11.9211 28.3801 12.4184L28.3743 12.4616H28.3801V24.399C28.3801 25.0235 28.1583 25.5535 27.7169 25.9947C27.2722 26.4301 26.7379 26.6507 26.1085 26.6507C25.8612 26.6507 25.6126 26.6087 25.3559 26.5211C25.8077 26.3542 26.1747 26.0799 26.4511 25.6959C26.731 25.3084 26.8692 24.8788 26.8692 24.4002V20.2448C26.4011 20.5156 25.8972 20.6522 25.3559 20.6522C24.5163 20.6522 23.802 20.3615 23.2167 19.7779C22.6279 19.1954 22.3341 18.4905 22.3341 17.6559V12.4184H22.3329Z" fill="#778B8E"/>
<path fill-rule="evenodd" clip-rule="evenodd" d="M36.3957 17.6571C36.3957 18.4917 36.1019 19.1968 35.5166 19.7792C34.9277 20.3628 34.2147 20.6535 33.375 20.6535C32.5354 20.6535 31.8223 20.3628 31.2323 19.7792C30.6446 19.1968 30.3497 18.4917 30.3497 17.6571V14.6619C30.3497 13.8297 30.6435 13.1223 31.2323 12.5434C31.8211 11.9644 32.533 11.6726 33.375 11.6726C33.9092 11.6726 34.4121 11.8069 34.8859 12.0752V7.93149C34.8859 7.45526 34.7466 7.02572 34.469 6.64053C34.1926 6.25534 33.8268 5.98219 33.375 5.81645C33.6142 5.73239 33.8663 5.69153 34.1253 5.69153C34.7559 5.69153 35.2924 5.90864 35.7325 6.34523C36.175 6.78178 36.3957 7.31056 36.3957 7.93506V17.6583V17.6571ZM33.375 13.1655C32.9511 13.1655 32.5923 13.309 32.3007 13.5986C32.0081 13.888 31.8629 14.2394 31.8629 14.6608V17.6583C31.8629 18.0843 32.0058 18.438 32.2984 18.7275C32.5876 19.0146 32.9453 19.1582 33.3739 19.1582C33.8024 19.1582 34.1531 19.0135 34.4446 18.7239C34.7384 18.4333 34.8847 18.0785 34.8847 17.6583V14.6608C34.8847 14.2394 34.7384 13.888 34.4446 13.5986C34.1531 13.309 33.7977 13.1655 33.3739 13.1655H33.375Z" fill="#778B8E"/>
<path fill-rule="evenodd" clip-rule="evenodd" d="M44.3771 18.4014C44.3771 18.8846 44.5134 19.32 44.7871 19.7065C45.06 20.094 45.4248 20.366 45.8812 20.5212C45.6222 20.6064 45.3703 20.6519 45.1298 20.6519C44.426 20.6519 43.851 20.3834 43.4041 19.8488C42.8128 20.3846 42.1279 20.6519 41.3532 20.6519C40.5135 20.6519 39.7981 20.3613 39.2116 19.7776C38.6263 19.1952 38.3325 18.4901 38.3325 17.6556V14.6604C38.3325 13.8281 38.6263 13.1207 39.2116 12.5418C39.7981 11.9629 40.5135 11.671 41.3532 11.671C42.1927 11.671 42.9022 11.9617 43.4911 12.5465C44.0825 13.1289 44.3763 13.8316 44.3763 14.6592V18.3991L44.3771 18.4014ZM41.3543 13.1651C40.9304 13.1651 40.5727 13.3087 40.2824 13.5982C39.9897 13.8877 39.8434 14.239 39.8434 14.6604V17.6579C39.8434 18.0839 39.9897 18.4377 40.2766 18.7271C40.5692 19.0142 40.9269 19.1578 41.3543 19.1578C41.7815 19.1578 42.1348 19.0131 42.4287 18.7236C42.72 18.4329 42.8665 18.0781 42.8665 17.6579V14.6604C42.8665 14.239 42.72 13.8877 42.4287 13.5982C42.1348 13.3087 41.7758 13.1651 41.3543 13.1651Z" fill="#778B8E"/>
<path fill-rule="evenodd" clip-rule="evenodd" d="M46.9481 13.8816C46.9481 13.4089 46.8086 12.9793 46.5337 12.5918C46.2571 12.2043 45.8972 11.9288 45.4499 11.7701C45.6846 11.6802 45.9378 11.637 46.2017 11.637C46.8911 11.637 47.4628 11.9031 47.9224 12.4343C48.5022 11.9031 49.1839 11.637 49.9702 11.637C50.8086 11.637 51.5181 11.9276 52.1095 12.5136C52.6979 13.096 52.9942 13.7988 52.9942 14.6264V19.865C52.9942 20.3669 52.7386 20.6178 52.2334 20.6178C51.7282 20.6178 51.482 20.3669 51.482 19.865V14.6228C51.482 14.2026 51.3334 13.8501 51.0421 13.563C50.7507 13.2735 50.3929 13.1299 49.9689 13.1299C49.545 13.1299 49.1909 13.2735 48.8983 13.563C48.6044 13.8501 48.4579 14.2026 48.4579 14.6228V19.865C48.4579 20.3669 48.2084 20.6178 47.7078 20.6178C47.2071 20.6178 46.9469 20.3669 46.9469 19.865V13.8828L46.9481 13.8816Z" fill="#778B8E"/>
<path fill-rule="evenodd" clip-rule="evenodd" d="M79.8202 19.4427V19.6552H79.5071V19.6015H79.7669V19.4953H78.9847V19.6015H79.322V20.6146H79.2687V19.6552H78.9313V19.4427H79.8202ZM79.7406 19.5758V19.5233H79.4287V20.5621H79.4024V19.5233H79.0109V19.5758H79.3491V20.6158H79.4829V19.5758H79.7406Z" fill="#778B8E"/>
<path fill-rule="evenodd" clip-rule="evenodd" d="M81.1605 20.6146V19.8944L80.7768 20.6146H80.6274L81.2093 19.5233H81.2935V20.5609H81.3205V19.4965H81.1929L80.6877 20.4454L80.1821 19.4965H80.0558V20.5609H80.1625V19.682L80.597 20.5015L80.6122 20.4746L80.1362 19.5746V20.5341H80.0828V19.5233H80.167L80.6726 20.4746L80.597 20.6146L80.2142 19.8944V20.6146H80.0024V19.4427H80.2142L80.6877 20.3321L81.1605 19.4427H81.3739V20.6146H81.2401V19.5746L80.7156 20.5609H80.746L81.2138 19.682V20.6146H81.1605Z" fill="#778B8E"/>
<path fill-rule="evenodd" clip-rule="evenodd" d="M65.3507 12.3171C65.3507 11.9634 65.5227 11.7871 65.8653 11.7871H69.9441C70.2962 11.7871 70.4714 11.9622 70.4714 12.3124V12.6626C70.4714 13.0045 70.2962 13.175 69.9441 13.175H66.9569V15.7359H69.3925C69.743 15.7359 69.9198 15.9063 69.9198 16.2484V16.5986C69.9198 16.9488 69.7442 17.1238 69.3925 17.1238H66.9569V20.2147C66.9569 20.5672 66.785 20.7446 66.4423 20.7446H65.8653C65.5227 20.7446 65.3507 20.5684 65.3507 20.2147V12.3182V12.3171Z" fill="#778B8E"/>
<path fill-rule="evenodd" clip-rule="evenodd" d="M71.1374 20.0576C71.1374 19.8113 71.2084 19.586 71.3516 19.3829L75.0918 13.9948C75.2851 13.7264 75.4345 13.5291 75.5441 13.403C75.6114 13.319 75.677 13.2478 75.7443 13.1894V13.1649C75.6951 13.1731 75.6356 13.1778 75.5691 13.1778C75.5112 13.1859 75.4394 13.1906 75.3557 13.1906H71.8671C71.5162 13.1906 71.3398 13.019 71.3398 12.6735V12.3198C71.3398 11.9661 71.515 11.7899 71.8671 11.7899H77.2635C77.6062 11.7899 77.7786 11.9626 77.7786 12.307V12.4587C77.7786 12.593 77.7634 12.7109 77.7343 12.8113C77.7051 12.9116 77.6526 13.0179 77.5775 13.1264L73.825 18.5273C73.7335 18.6616 73.6473 18.7771 73.5673 18.874C73.4885 18.9709 73.4183 19.0526 73.3604 19.1191C73.2845 19.2032 73.2221 19.2744 73.1721 19.3328V19.3572C73.2221 19.3572 73.2812 19.3537 73.3481 19.3444C73.406 19.3444 73.4754 19.342 73.5541 19.3374C73.6333 19.3339 73.7277 19.3316 73.8365 19.3316H77.3136C77.6645 19.3316 77.8409 19.5055 77.8409 19.8533V20.2094C77.8409 20.5654 77.6657 20.744 77.3136 20.744H71.666C71.3139 20.744 71.1387 20.5654 71.1387 20.2094V20.0564L71.1374 20.0576Z" fill="#778B8E"/>
<path fill-rule="evenodd" clip-rule="evenodd" d="M62.1001 28.7078C58.9644 26.286 56.8506 22.7707 56.1775 18.8587L58.1186 18.5224C59.2336 25.0488 64.9005 30.0153 71.7235 30.0153C79.3474 30.0153 85.5277 23.8147 85.5277 16.1658C85.5277 8.51698 79.3474 2.31634 71.7235 2.31634C64.8587 2.31634 59.1643 7.34377 58.0985 13.929L56.1546 13.6099C56.7935 9.69208 58.8766 6.15825 61.9905 3.70904C65.1049 1.25984 69.0224 0.0741352 72.9673 0.387039C76.9119 0.699944 80.595 2.4886 83.2871 5.39834C85.9787 8.30812 87.4824 12.1265 87.4996 16.0963C87.5172 20.0662 86.0469 23.8977 83.3806 26.831C80.7144 29.7643 77.0469 31.5853 73.1052 31.933C69.1635 32.2806 65.2354 31.1295 62.1001 28.7078Z" fill="#778B8E"/>
<path d="M57.1136 15.0501C57.7329 15.0501 58.2352 14.5454 58.2352 13.9226C58.2352 13.2998 57.7329 12.795 57.1136 12.795C56.4939 12.795 55.9916 13.2998 55.9916 13.9226C55.9916 14.5454 56.4939 15.0501 57.1136 15.0501Z" fill="#778B8E"/>
<path d="M57.1177 19.6046C57.7386 19.6046 58.2421 19.0987 58.2421 18.4747C58.2421 17.8507 57.7386 17.3447 57.1177 17.3447C56.4968 17.3447 55.9937 17.8507 55.9937 18.4747C55.9937 19.0987 56.4968 19.6046 57.1177 19.6046Z" fill="#778B8E"/>
</g>
</g>
<defs>
<clipPath id="clip0_5_448">
<rect width="87" height="32" fill="white" transform="translate(0.5)"/>
</clipPath>
<clipPath id="clip1_5_448">
<rect width="87" height="32" fill="white" transform="translate(0.5)"/>
</clipPath>
</defs>
</svg>
