<svg width="40" height="32" viewBox="0 0 40 32" fill="none" xmlns="http://www.w3.org/2000/svg">
<g clip-path="url(#clip0_5_845)">
<g clip-path="url(#clip1_5_845)">
<path d="M37.6691 20.5278H37.3486V20.9376H37.6691V20.5278Z" fill="#778B8E"/>
<path d="M32.6491 19.0258H28.2434L31.3675 13.3428H28.6706V12.6051H32.6224L29.5251 18.2881H32.6491V19.0258Z" fill="#778B8E"/>
<path d="M16.2979 24.1993H16.8332C17.2431 24.1993 17.5562 24.2942 17.7724 24.4841C17.9886 24.672 18.0967 24.9547 18.0967 25.3325C18.0967 25.7144 17.9947 25.996 17.7907 26.1777C17.5868 26.3571 17.285 26.4469 16.8852 26.4469H16.2979V24.1993ZM16.6221 24.5218V26.1244H16.925C17.1901 26.1244 17.3961 26.0619 17.5429 25.9366C17.6918 25.8093 17.7663 25.607 17.7663 25.3293C17.7663 25.1917 17.7449 25.0716 17.702 24.9694C17.6592 24.8672 17.598 24.7836 17.5185 24.7189C17.4389 24.6522 17.3421 24.6031 17.2279 24.5719C17.1157 24.5385 16.9902 24.5218 16.8516 24.5218H16.6221Z" fill="#778B8E"/>
<path d="M18.3647 24.7848H18.6799V25.6894C18.6799 25.8564 18.7135 25.9816 18.7808 26.065C18.8501 26.1486 18.9491 26.1902 19.0775 26.1902C19.2142 26.1902 19.3141 26.1474 19.3774 26.062C19.4405 25.9742 19.4721 25.8564 19.4721 25.7081V24.7848H19.7904V25.658C19.7904 25.9315 19.7282 26.138 19.6037 26.2779C19.4813 26.4177 19.306 26.4876 19.0775 26.4876C18.8512 26.4876 18.6758 26.4207 18.5514 26.2873C18.427 26.1516 18.3647 25.9439 18.3647 25.6644V24.7848Z" fill="#778B8E"/>
<path d="M20.1377 24.1431H20.4499V25.0163C20.6088 24.8328 20.8016 24.7409 21.0281 24.7409C21.1381 24.7409 21.2422 24.7639 21.3401 24.8098C21.4379 24.8537 21.5226 24.9152 21.5939 24.9945C21.6653 25.0716 21.7214 25.1635 21.7623 25.2698C21.8051 25.3764 21.8265 25.4921 21.8265 25.6173C21.8265 25.7404 21.8051 25.8553 21.7623 25.9616C21.7194 26.0682 21.6613 26.1609 21.5879 26.2402C21.5145 26.3176 21.4287 26.3791 21.3309 26.425C21.233 26.4687 21.1289 26.4907 21.0189 26.4907C20.9026 26.4907 20.7976 26.4678 20.7037 26.4218C20.6119 26.3738 20.5273 26.3029 20.4499 26.2089V26.4469H20.1377V24.1431ZM20.9729 26.1933C21.0505 26.1933 21.1219 26.1786 21.187 26.1495C21.2543 26.1182 21.3116 26.0764 21.3585 26.0243C21.4074 25.9701 21.4451 25.9085 21.4716 25.8396C21.4981 25.7687 21.5113 25.6936 21.5113 25.6143C21.5113 25.5349 21.4981 25.4609 21.4716 25.392C21.4451 25.321 21.4074 25.2595 21.3585 25.2074C21.3116 25.153 21.2555 25.1102 21.1901 25.079C21.1248 25.0477 21.0525 25.0319 20.9729 25.0319C20.8995 25.0319 20.8301 25.0455 20.7648 25.0728C20.6997 25.0999 20.6416 25.1385 20.5906 25.1885C20.5417 25.2386 20.5029 25.299 20.4743 25.37C20.4456 25.4409 20.4315 25.5204 20.4315 25.6079C20.4315 25.6936 20.4447 25.7728 20.4712 25.8458C20.4997 25.9168 20.5385 25.9784 20.5875 26.0305C20.6364 26.0806 20.6934 26.1203 20.7588 26.1495C20.8261 26.1786 20.8975 26.1933 20.9729 26.1933Z" fill="#778B8E"/>
<path d="M22.0095 25.6143C22.0095 25.4889 22.0299 25.3731 22.0708 25.2668C22.1135 25.1602 22.1707 25.0684 22.242 24.9912C22.3155 24.912 22.4001 24.8504 22.4959 24.8065C22.5938 24.7627 22.6988 24.7408 22.811 24.7408C23.0415 24.7408 23.2332 24.8357 23.3861 25.0256V24.7847H23.6981V26.4468H23.3861V26.2183C23.2272 26.4 23.0353 26.4907 22.811 26.4907C22.7009 26.4907 22.5969 26.4687 22.499 26.425C22.4032 26.3791 22.3186 26.3164 22.245 26.2371C22.1716 26.1577 22.1135 26.0649 22.0708 25.9585C22.0299 25.852 22.0095 25.7374 22.0095 25.6143ZM22.86 26.1965C22.9334 26.1965 23.0027 26.1829 23.068 26.1556C23.1333 26.1285 23.1904 26.0899 23.2393 26.0399C23.2903 25.9898 23.33 25.9294 23.3587 25.8584C23.3892 25.7874 23.4045 25.7071 23.4045 25.6173C23.4045 25.5339 23.3902 25.4565 23.3616 25.3857C23.3352 25.3148 23.2974 25.2542 23.2485 25.2041C23.1996 25.152 23.1424 25.1113 23.0772 25.0821C23.0119 25.0527 22.9406 25.0383 22.8631 25.0383C22.7835 25.0383 22.71 25.0539 22.6427 25.0851C22.5776 25.1164 22.5215 25.1582 22.4746 25.2103C22.4277 25.2624 22.3909 25.3242 22.3644 25.395C22.3399 25.4639 22.3276 25.5369 22.3276 25.6143C22.3276 25.6956 22.341 25.7718 22.3675 25.8426C22.394 25.9115 22.4306 25.973 22.4775 26.0274C22.5265 26.0796 22.5837 26.1212 22.649 26.1526C22.7141 26.1818 22.7846 26.1965 22.86 26.1965Z" fill="#778B8E"/>
<path d="M24.05 26.4469V24.7848H24.362V26.4469H24.05ZM23.9856 24.3151C23.9856 24.2547 24.0071 24.2035 24.05 24.1617C24.0947 24.1201 24.1467 24.0992 24.206 24.0992C24.265 24.0992 24.316 24.1222 24.3589 24.1681C24.4017 24.212 24.4231 24.2651 24.4231 24.3278C24.4231 24.3882 24.4017 24.4403 24.3589 24.4842C24.316 24.528 24.265 24.5499 24.206 24.5499C24.1427 24.5499 24.0897 24.5271 24.0469 24.4812C24.006 24.4332 23.9856 24.3778 23.9856 24.3151Z" fill="#778B8E"/>
<path d="M26.1652 24.2094H26.4099L27.34 26.4569H27.0034L26.7618 25.8621H25.8135L25.5686 26.4569H25.2322L26.1652 24.2094ZM25.945 25.5428H26.6303L26.2876 24.7006L25.945 25.5428Z" fill="#778B8E"/>
<path d="M27.4941 24.7946H27.8093V25.6992C27.8093 25.8662 27.8429 25.9914 27.9103 26.0749C27.9796 26.1583 28.0784 26.2001 28.207 26.2001C28.3437 26.2001 28.4436 26.1574 28.5069 26.0717C28.57 25.9842 28.6016 25.8662 28.6016 25.718V24.7946H28.9197V25.668C28.9197 25.9413 28.8575 26.148 28.7331 26.2878C28.6108 26.4275 28.4353 26.4975 28.207 26.4975C27.9805 26.4975 27.8052 26.4307 27.6809 26.2971C27.5563 26.1615 27.4941 25.9539 27.4941 25.6742V24.7946Z" fill="#778B8E"/>
<path d="M29.157 24.7945H29.4048V24.1779H29.7168V24.7945H30.0012V25.0731H29.7168V26.4568H29.4048V25.0731H29.157V24.7945Z" fill="#778B8E"/>
<path d="M30.0828 25.6273C30.0828 25.5062 30.1041 25.3925 30.147 25.286C30.1919 25.1797 30.252 25.0867 30.3274 25.0074C30.4049 24.9282 30.4958 24.8655 30.5997 24.8196C30.7036 24.7736 30.8149 24.7509 30.9332 24.7509C31.0535 24.7509 31.1646 24.7736 31.2666 24.8196C31.3707 24.8655 31.4603 24.9282 31.5359 25.0074C31.6133 25.0867 31.6735 25.1797 31.7163 25.286C31.7612 25.3925 31.7837 25.5062 31.7837 25.6273C31.7837 25.7462 31.7622 25.8588 31.7193 25.9653C31.6766 26.0717 31.6174 26.1645 31.542 26.2439C31.4665 26.3232 31.3768 26.3859 31.2728 26.4318C31.1687 26.4775 31.0556 26.5005 30.9332 26.5005C30.8107 26.5005 30.6976 26.4775 30.5936 26.4318C30.4895 26.3859 30.3999 26.3232 30.3243 26.2439C30.2489 26.1645 30.1898 26.0717 30.147 25.9653C30.1041 25.8588 30.0828 25.7462 30.0828 25.6273ZM30.4008 25.6303C30.4008 25.7118 30.4141 25.7869 30.4406 25.8558C30.4693 25.9247 30.507 25.9851 30.5539 26.0373C30.6008 26.0873 30.6567 26.127 30.722 26.1562C30.7873 26.1833 30.8576 26.1969 30.9332 26.1969C31.0086 26.1969 31.0789 26.1833 31.1442 26.1562C31.2095 26.127 31.2656 26.0873 31.3126 26.0373C31.3615 25.9851 31.3992 25.9247 31.4257 25.8558C31.4542 25.7869 31.4685 25.7118 31.4685 25.6303C31.4685 25.549 31.4542 25.4739 31.4257 25.405C31.3992 25.334 31.3615 25.2736 31.3126 25.2235C31.2656 25.1712 31.2095 25.1305 31.1442 25.1013C31.0789 25.0701 31.0086 25.0545 30.9332 25.0545C30.8576 25.0545 30.7873 25.0701 30.722 25.1013C30.6567 25.1305 30.6008 25.1712 30.5539 25.2235C30.507 25.2736 30.4693 25.334 30.4406 25.405C30.4141 25.4739 30.4008 25.549 30.4008 25.6303Z" fill="#778B8E"/>
<path d="M33.5201 24.5312H32.7523V24.2087H34.0003L33.1529 26.14H33.9513V26.4563H32.6726L33.5201 24.5312Z" fill="#778B8E"/>
<path d="M34.0947 25.6267C34.0947 25.5056 34.1162 25.3919 34.1591 25.2854C34.2038 25.179 34.264 25.0862 34.3396 25.0068C34.417 24.9276 34.5077 24.8651 34.6118 24.8191C34.7158 24.7732 34.8269 24.7502 34.9452 24.7502C35.0655 24.7502 35.1768 24.7732 35.2787 24.8191C35.3826 24.8651 35.4724 24.9276 35.5478 25.0068C35.6255 25.0862 35.6856 25.179 35.7283 25.2854C35.7732 25.3919 35.7956 25.5056 35.7956 25.6267C35.7956 25.7456 35.7743 25.8584 35.7314 25.9647C35.6886 26.0711 35.6295 26.1641 35.5541 26.2433C35.4785 26.3226 35.3889 26.3853 35.2848 26.4312C35.1808 26.4771 35.0675 26.5001 34.9452 26.5001C34.8228 26.5001 34.7097 26.4771 34.6056 26.4312C34.5016 26.3853 34.4119 26.3226 34.3365 26.2433C34.261 26.1641 34.2018 26.0711 34.1591 25.9647C34.1162 25.8584 34.0947 25.7456 34.0947 25.6267ZM34.413 25.6299C34.413 25.7112 34.4262 25.7863 34.4527 25.8552C34.4812 25.9241 34.5189 25.9845 34.5659 26.0366C34.6128 26.0869 34.6689 26.1264 34.7342 26.1556C34.7995 26.1829 34.8698 26.1965 34.9452 26.1965C35.0206 26.1965 35.0911 26.1829 35.1564 26.1556C35.2215 26.1264 35.2776 26.0869 35.3245 26.0366C35.3734 25.9845 35.4113 25.9241 35.4378 25.8552C35.4663 25.7863 35.4805 25.7112 35.4805 25.6299C35.4805 25.5484 35.4663 25.4733 35.4378 25.4044C35.4113 25.3334 35.3734 25.273 35.3245 25.2229C35.2776 25.1708 35.2215 25.1299 35.1564 25.1007C35.0911 25.0695 35.0206 25.0539 34.9452 25.0539C34.8698 25.0539 34.7995 25.0695 34.7342 25.1007C34.6689 25.1299 34.6128 25.1708 34.5659 25.2229C34.5189 25.273 34.4812 25.3334 34.4527 25.4044C34.4262 25.4733 34.413 25.5484 34.413 25.6299Z" fill="#778B8E"/>
<path d="M36.4089 24.7941V25.0256C36.4906 24.9358 36.5752 24.8681 36.6628 24.8222C36.7505 24.7742 36.8464 24.7502 36.9505 24.7502C37.032 24.7502 37.1074 24.7647 37.1768 24.7941C37.2482 24.8212 37.3094 24.8628 37.3604 24.9193C37.4134 24.9756 37.4542 25.0454 37.4827 25.129C37.5132 25.2124 37.5287 25.3084 37.5287 25.417V26.4562H37.2165V25.6142C37.2165 25.5245 37.2115 25.4441 37.2012 25.3731C37.1911 25.3022 37.1727 25.2427 37.1462 25.1947C37.1198 25.1446 37.0841 25.1071 37.0392 25.0821C36.9943 25.0548 36.9373 25.0413 36.8679 25.0413C36.8066 25.0413 36.7485 25.0548 36.6935 25.0821C36.6383 25.1071 36.5894 25.1457 36.5467 25.1979C36.5038 25.2479 36.4702 25.3104 36.4457 25.3857C36.4212 25.4608 36.4089 25.5474 36.4089 25.6455V26.4562H36.0969V24.7941H36.4089Z" fill="#778B8E"/>
<path d="M37.8083 25.6267C37.8083 25.5139 37.8277 25.4055 37.8665 25.3012C37.9053 25.1947 37.9612 25.1007 38.0346 25.0194C38.1082 24.9381 38.1969 24.8734 38.3008 24.8254C38.4049 24.7753 38.5212 24.7502 38.6496 24.7502C38.774 24.7502 38.8882 24.7721 38.9923 24.8159C39.0963 24.8598 39.186 24.9214 39.2615 25.0006C39.3369 25.0798 39.395 25.1738 39.4359 25.2824C39.4787 25.3908 39.5001 25.5098 39.5001 25.6393V25.6956H38.1172C38.1316 25.852 38.1877 25.9762 38.2855 26.0681C38.3834 26.1599 38.508 26.2057 38.6588 26.2057C38.7221 26.2057 38.778 26.1985 38.8271 26.1838C38.8781 26.1692 38.9239 26.1494 38.9647 26.1244C39.0076 26.0993 39.0462 26.0702 39.081 26.0366C39.1156 26.0033 39.1492 25.9668 39.182 25.9271L39.4175 26.0993C39.34 26.2183 39.239 26.3154 39.1147 26.3905C38.9901 26.4636 38.8382 26.5001 38.6588 26.5001C38.5262 26.5001 38.407 26.4771 38.3008 26.4312C38.1969 26.3853 38.1082 26.3226 38.0346 26.2433C37.9612 26.162 37.9053 26.069 37.8665 25.9647C37.8277 25.8584 37.8083 25.7456 37.8083 25.6267ZM38.1387 25.4358H39.1789C39.1441 25.3022 39.079 25.202 38.9831 25.1352C38.8873 25.0684 38.7771 25.035 38.6527 25.035C38.5302 25.035 38.4243 25.0674 38.3345 25.1322C38.2467 25.1967 38.1816 25.298 38.1387 25.4358Z" fill="#778B8E"/>
<path fill-rule="evenodd" clip-rule="evenodd" d="M16.3342 19.0246V12.6038H17.696C17.696 12.6038 21.1138 12.5218 21.1138 15.7459C21.1138 19.1338 17.696 19.0246 17.696 19.0246H16.3342ZM17.1086 13.3142V18.3142H17.8562C17.8562 18.3142 20.3929 18.3142 20.3929 15.7459C20.3929 13.3142 17.8562 13.3142 17.8562 13.3142H17.1086Z" fill="#778B8E"/>
<path fill-rule="evenodd" clip-rule="evenodd" d="M21.6218 19.0251L24.559 12.3859H24.5856L27.523 19.0251H26.7218L26.0009 17.3858H23.1437L22.4228 19.0251H21.6218ZM24.5323 14.1072L23.4642 16.7028H25.6804L24.5856 14.1072H24.5323Z" fill="#778B8E"/>
<path d="M16.6812 21.1273H16.3875V21.8104C16.3875 22.1929 16.6011 22.4935 17.0283 22.4935H18.1498C18.3367 22.4935 18.4969 22.3296 18.4969 22.0836V21.1273H18.2032V21.9744C18.2032 22.111 18.1765 22.1929 18.0964 22.1929H17.0016C16.8681 22.1929 16.6812 21.9744 16.6812 21.8377V21.1273Z" fill="#778B8E"/>
<path d="M19.0582 22.4941H18.7644V20.281H19.0582V22.4941Z" fill="#778B8E"/>
<path d="M19.8323 21.1552H19.5654V22.3574C19.5654 22.576 19.325 22.6853 19.1914 22.6853V22.9584H19.2983C19.6187 22.9584 19.8323 22.7126 19.8323 22.412V21.1552Z" fill="#778B8E"/>
<path d="M17.295 20.9098H17.0547V21.2375H17.295V20.9098Z" fill="#778B8E"/>
<path d="M17.8028 20.9098H17.5625V21.2375H17.8028V20.9098Z" fill="#778B8E"/>
<path d="M20.4469 20.281H20.1265V22.1935C20.1265 22.3574 20.2867 22.4941 20.4469 22.4941H22.9569H25.3745C25.5469 22.4941 25.7071 22.3301 25.7071 22.0973V20.281H25.4135V22.0022C25.4134 22.1114 25.4134 22.1935 25.3333 22.1935H24.826V20.281H24.5324V22.0022C24.5324 22.1116 24.5324 22.1935 24.4255 22.1935H23.8648V21.1552H23.5443V22.1116C23.5443 22.1935 23.5176 22.1935 23.4643 22.1935H23.1171L23.0905 21.1552H22.8234V22.1116C22.8234 22.1662 22.8259 22.1918 22.77 22.1935H22.3695V21.1552H22.0757V22.0022C22.0757 22.1389 22.0222 22.1935 21.9422 22.1935H21.4081V21.1552H21.0877V22.1935H20.5805C20.4736 22.1935 20.4469 22.1116 20.4469 22.0022V20.281Z" fill="#778B8E"/>
<path d="M20.821 22.7397H20.5806V23.0677H20.821V22.7397Z" fill="#778B8E"/>
<path d="M21.355 22.7397H21.1147V23.0677H21.355V22.7397Z" fill="#778B8E"/>
<path d="M27.1756 23.1761H26.9353V23.5041H27.1756V23.1761Z" fill="#778B8E"/>
<path d="M27.6829 23.1761H27.4426V23.5041H27.6829V23.1761Z" fill="#778B8E"/>
<path d="M29.2046 22.6302H28.9644V22.9582H29.2046V22.6302Z" fill="#778B8E"/>
<path d="M26.588 21.6189H26.2942V21.7828C26.2942 22.0832 26.3744 22.9576 27.202 22.9576H27.3889C27.6827 22.9576 27.9519 22.66 28.1901 22.3293C28.2435 22.4111 28.3503 22.4932 28.4839 22.4932H28.7241H28.9911C29.178 22.4932 29.3115 22.302 29.3115 22.0832V21.1543H28.9911V22.0832C28.9911 22.1926 28.9644 22.1926 28.9111 22.1926H28.7241H28.4304C28.2168 21.6189 27.8696 21.4276 27.7629 21.4276H27.6561C27.5492 21.4276 27.4958 21.5095 27.4958 21.5916C27.4958 21.6462 27.5492 21.728 27.6294 21.728C27.843 21.728 27.8696 21.9195 27.8696 22.0832C27.8696 22.3293 27.576 22.6297 27.3623 22.6297H27.202C26.7482 22.6297 26.588 22.1107 26.588 21.7828V21.6189Z" fill="#778B8E"/>
<path d="M29.4453 22.1932V22.4936H30.7537V22.1932C30.6655 21.5758 30.4065 21.1276 29.8725 21.1276C29.6322 21.1276 29.6398 21.428 29.8991 21.428C30.1587 21.428 30.46 21.674 30.46 22.1932H29.4453Z" fill="#778B8E"/>
<path d="M31.9812 20.281H31.7407V20.6087H31.9812V20.281Z" fill="#778B8E"/>
<path d="M32.4089 20.281H32.1685V20.6087H32.4089V20.281Z" fill="#778B8E"/>
<path d="M33.5567 20.3906H33.3164V20.7185H33.5567V20.3906Z" fill="#778B8E"/>
<path d="M34.0378 20.3906H33.7974V20.7185H34.0378V20.3906Z" fill="#778B8E"/>
<path fill-rule="evenodd" clip-rule="evenodd" d="M31.7948 20.8542H32.4624V21.9471C32.4624 22.0837 32.5157 22.1931 32.676 22.1931H33.2634C33.1031 21.9471 33.0216 21.8104 33.0231 21.5646C33.0244 21.3188 33.21 20.9363 33.6638 20.9363C34.011 20.9363 34.3048 21.1548 34.3048 21.5646C34.3048 21.8104 34.2512 21.9471 34.0643 22.1931H34.8655L34.8388 20.3077H35.1593V21.6467C35.3995 21.2915 35.6398 21.1275 35.9336 21.1275H36.0136C36.3341 21.1275 36.6812 21.4554 36.6812 21.8925V22.1931H37.3488V21.1275H37.6693V22.1931H37.9095H38.23V22.111C38.23 21.6467 38.4169 21.3733 38.844 21.3733C39.2981 21.3733 39.4581 21.674 39.4581 22.0837C39.4581 22.4662 39.2178 22.7396 38.844 22.7396C38.5236 22.7396 38.3948 22.5984 38.3367 22.4935H38.0964H33.931C33.8507 22.4935 33.7464 22.4116 33.6638 22.4116C33.5838 22.4116 33.4769 22.4935 33.3969 22.4935H32.9429H32.5691C32.3822 22.4935 32.2219 22.275 32.1686 22.1931C32.035 22.3023 31.9817 22.3023 31.7948 22.3023C31.4743 22.3023 31.2607 22.0019 31.2607 21.5919C31.2607 21.0727 31.5543 20.8542 31.7948 20.8542ZM38.5236 22.0837C38.5236 21.7558 38.6571 21.6467 38.844 21.6467C39.0576 21.6467 39.1645 21.7831 39.1645 22.0837C39.1645 22.4116 39.0043 22.4662 38.844 22.4662C38.6838 22.4662 38.5236 22.4116 38.5236 22.0837ZM36.3874 22.1931H35.1859C35.3728 21.7285 35.6131 21.4554 35.9602 21.4554C36.2538 21.4554 36.3874 21.8104 36.3874 22.1931ZM33.3167 21.5646C33.3167 21.3553 33.3969 21.1821 33.6638 21.1821C33.9041 21.1821 34.011 21.3188 34.011 21.5646C34.011 21.8652 33.8774 22.0019 33.6638 22.0019C33.4503 22.0019 33.3167 21.8652 33.3167 21.5646ZM31.8748 21.0727C32.0084 21.0727 32.1686 21.0727 32.1686 21.2915V21.7285C32.1686 21.9471 32.035 22.0019 31.8481 22.0019C31.6612 22.0019 31.5543 21.8652 31.5543 21.6467V21.4006C31.5543 21.2915 31.6079 21.0727 31.8748 21.0727Z" fill="#778B8E"/>
<path d="M6.83974 15.8569C8.48545 15.857 10.9675 15.9272 10.9675 15.9272C10.9675 15.9272 8.43149 16.0209 6.83974 16.0209C4.38454 16.0209 0.553711 15.9272 0.553711 15.9272C0.553711 15.9272 4.3577 15.8569 6.83974 15.8569Z" fill="#778B8E"/>
<path d="M6.96882 16.7677C8.60638 16.6004 11.083 16.418 11.083 16.418C11.083 16.418 8.56861 16.769 6.98473 16.9308C4.54168 17.1804 0.720703 17.4766 0.720703 17.4766C0.720703 17.4766 4.49905 17.02 6.96882 16.7677Z" fill="#778B8E"/>
<path d="M7.06904 17.3919C8.6909 17.1063 11.1486 16.7448 11.1486 16.7448C11.1486 16.7448 8.66489 17.2772 7.09623 17.5535C4.67659 17.9796 0.885742 18.5522 0.885742 18.5522C0.885742 18.5522 4.62296 17.8227 7.06904 17.3919Z" fill="#778B8E"/>
<path d="M6.93534 17.9291C8.53611 17.5382 10.9663 17.0171 10.9663 17.0171C10.9663 17.0171 8.5208 17.7105 6.97254 18.0885C4.58438 18.6716 0.836914 19.4903 0.836914 19.4903C0.836914 19.4903 4.52109 18.5185 6.93534 17.9291Z" fill="#778B8E"/>
<path d="M7.08531 18.5408C8.65553 18.0367 11.0443 17.3434 11.0443 17.3434C11.0443 17.3434 8.652 18.2096 7.13328 18.6972C4.79067 19.4494 1.10815 20.5336 1.10815 20.5336C1.10815 20.5336 4.7171 19.3012 7.08531 18.5408Z" fill="#778B8E"/>
<path d="M7.258 19.0963C8.78945 18.4797 11.1243 17.6152 11.1243 17.6152C11.1243 17.6152 8.79789 18.6525 7.31667 19.2488C5.03195 20.1687 1.43359 21.5167 1.43359 21.5167C1.43359 21.5167 4.9483 20.026 7.258 19.0963Z" fill="#778B8E"/>
<path d="M7.40332 19.5626C8.903 18.8691 11.1931 17.8872 11.1931 17.8872C11.1931 17.8872 8.9198 19.0412 7.46931 19.7119C5.23196 20.7466 1.70337 22.2754 1.70337 22.2754C1.70337 22.2754 5.14152 20.6084 7.40332 19.5626Z" fill="#778B8E"/>
<path d="M7.67205 20.0006C9.13014 19.2198 11.361 18.1044 11.361 18.1044C11.361 18.1044 9.15661 19.3907 7.74636 20.1459C5.57106 21.3109 2.13452 23.0455 2.13452 23.0455C2.13452 23.0455 5.47299 21.1783 7.67205 20.0006Z" fill="#778B8E"/>
<path d="M8.07259 20.4999C9.46774 19.6069 11.6083 18.3193 11.6083 18.3193C11.6083 18.3193 9.50696 19.775 8.15756 20.639C6.07615 21.9715 2.78003 23.9712 2.78003 23.9712C2.78003 23.9712 5.96843 21.8471 8.07259 20.4999Z" fill="#778B8E"/>
<path d="M8.43157 21.0995C9.73904 20.0768 11.7526 18.5902 11.7526 18.5902C11.7526 18.5902 9.79346 20.2406 8.52886 21.2297C6.57829 22.7554 3.47925 25.0615 3.47925 25.0615C3.47925 25.0615 6.45968 22.6419 8.43157 21.0995Z" fill="#778B8E"/>
<path d="M8.82331 21.5227C10.0655 20.4181 11.9841 18.8053 11.9841 18.8053C11.9841 18.8053 10.1299 20.5781 8.92841 21.6463C7.07515 23.2943 4.12354 25.7947 4.12354 25.7947C4.12354 25.7947 6.9498 23.1885 8.82331 21.5227Z" fill="#778B8E"/>
<path d="M9.18448 21.9503C10.3595 20.7714 12.1796 19.0432 12.1796 19.0432C12.1796 19.0432 10.4331 20.9271 9.29667 22.0674C7.54376 23.8265 4.74463 26.5043 4.74463 26.5043C4.74463 26.5043 7.41241 23.7286 9.18448 21.9503Z" fill="#778B8E"/>
<path d="M9.68496 22.3913C10.761 21.1172 12.4357 19.2416 12.4357 19.2416C12.4357 19.2416 10.8469 21.2662 9.80619 22.4986C8.20092 24.3994 5.62695 27.3041 5.62695 27.3041C5.62695 27.3041 8.06213 24.313 9.68496 22.3913Z" fill="#778B8E"/>
<path d="M10.105 22.7799C11.0953 21.4349 12.6437 19.4489 12.6437 19.4489C12.6437 19.4489 11.1908 21.5776 10.2329 22.8785C8.75552 24.8849 6.3772 27.9593 6.3772 27.9593C6.3772 27.9593 8.61138 24.8083 10.105 22.7799Z" fill="#778B8E"/>
<path d="M10.5881 23.0413C11.4953 21.6363 12.9209 19.5562 12.9209 19.5562C12.9209 19.5562 11.5992 21.7728 10.7217 23.1317C9.3682 25.2277 7.17993 28.4463 7.17993 28.4463C7.17993 28.4463 9.21972 25.1601 10.5881 23.0413Z" fill="#778B8E"/>
<path d="M11.0797 23.2797C11.906 21.8235 13.2116 19.6624 13.2116 19.6624C13.2116 19.6624 12.0175 21.9536 11.2183 23.3619C9.98552 25.5347 7.98291 28.8776 7.98291 28.8776C7.98291 28.8776 9.83348 25.476 11.0797 23.2797Z" fill="#778B8E"/>
<path d="M11.4685 23.5003C12.2148 21.9995 13.4016 19.7679 13.4016 19.7679C13.4016 19.7679 12.3331 22.1231 11.6113 23.5746C10.4978 25.8137 8.67896 29.2648 8.67896 29.2648C8.67896 29.2648 10.3429 25.7638 11.4685 23.5003Z" fill="#778B8E"/>
<path d="M11.8307 23.6284C12.5181 22.0984 13.6172 19.8202 13.6172 19.8202C13.6172 19.8202 12.6411 22.217 11.9763 23.6969C10.9508 25.9794 9.26758 29.5019 9.26758 29.5019C9.26758 29.5019 10.794 25.936 11.8307 23.6284Z" fill="#778B8E"/>
<path d="M12.2973 23.8059C12.8691 22.227 13.7959 19.8699 13.7959 19.8699C13.7959 19.8699 13.0006 22.3356 12.4475 23.8629C11.5944 26.2185 10.1775 29.8616 10.1775 29.8616C10.1775 29.8616 11.4348 26.1872 12.2973 23.8059Z" fill="#778B8E"/>
<path d="M12.6014 23.9684C13.113 22.3679 13.9498 19.976 13.9498 19.976C13.9498 19.976 13.2485 22.4714 12.7537 24.0194C11.9905 26.4072 10.7126 30.1038 10.7126 30.1038C10.7126 30.1038 11.8298 26.3824 12.6014 23.9684Z" fill="#778B8E"/>
<path d="M12.8251 24.0008C13.2974 22.3876 14.0754 19.975 14.0754 19.975C14.0754 19.975 13.4354 22.4875 12.9786 24.0478C12.274 26.4544 11.0869 30.1824 11.0869 30.1824C11.0869 30.1824 12.1128 26.4335 12.8251 24.0008Z" fill="#778B8E"/>
<path d="M13.1753 24.1716C13.5576 22.5338 14.201 20.08 14.201 20.08C14.201 20.08 13.7009 22.6256 13.3311 24.2096C12.7607 26.6533 11.7817 30.444 11.7817 30.444C11.7817 30.444 12.5987 26.6418 13.1753 24.1716Z" fill="#778B8E"/>
<path d="M13.4263 24.2598C13.7484 22.6084 14.3015 20.1316 14.3015 20.1316C14.3015 20.1316 13.895 22.6946 13.5834 24.292C13.1029 26.7556 12.2634 30.5813 12.2634 30.5813C12.2634 30.5813 12.9406 26.7503 13.4263 24.2598Z" fill="#778B8E"/>
<path d="M13.6829 24.3363C13.9604 22.6767 14.4466 20.1852 14.4466 20.1852C14.4466 20.1852 14.1092 22.7587 13.8408 24.364C13.4267 26.8402 12.6904 30.6881 12.6904 30.6881C12.6904 30.6881 13.2642 26.8397 13.6829 24.3363Z" fill="#778B8E"/>
<path d="M13.8989 24.3531C14.1352 22.6867 14.5593 20.1833 14.5593 20.1833C14.5593 20.1833 14.2859 22.7648 14.0575 24.3767C13.7051 26.8629 13.0647 30.7287 13.0647 30.7287C13.0647 30.7287 13.5427 26.8666 13.8989 24.3531Z" fill="#778B8E"/>
<path d="M14.1904 24.4277C14.3631 22.753 14.6918 20.2347 14.6918 20.2347C14.6918 20.2347 14.5168 22.825 14.3498 24.4448C14.0921 26.9433 13.5991 30.8316 13.5991 30.8316C13.5991 30.8316 13.93 26.9532 14.1904 24.4277Z" fill="#778B8E"/>
<path d="M14.4332 24.4369C14.5715 22.7588 14.8484 20.234 14.8484 20.234C14.8484 20.234 14.7266 22.8277 14.5928 24.4507C14.3865 26.954 13.9734 30.852 13.9734 30.852C13.9734 30.852 14.2246 26.9676 14.4332 24.4369Z" fill="#778B8E"/>
<path d="M14.6608 24.4991C14.7608 22.8183 14.9801 20.2875 14.9801 20.2875C14.9801 20.2875 14.9174 22.8832 14.8207 24.509C14.6715 27.0167 14.3474 30.9235 14.3474 30.9235C14.3474 30.9235 14.5099 27.034 14.6608 24.4991Z" fill="#778B8E"/>
<path d="M14.9183 24.559C14.9601 22.8757 15.0916 20.3386 15.0916 20.3386C15.0916 20.3386 15.1188 22.935 15.0785 24.5632C15.0163 27.0746 14.8276 30.9909 14.8276 30.9909C14.8276 30.9909 14.8554 27.098 14.9183 24.559Z" fill="#778B8E"/>
<path d="M15.145 24.9352C15.1482 23.1059 15.2217 20.3475 15.2217 20.3475C15.2217 20.3475 15.3083 23.1664 15.3053 24.9354C15.3005 27.6642 15.2015 31.9217 15.2015 31.9217C15.2015 31.9217 15.1402 27.6938 15.145 24.9352Z" fill="#778B8E"/>
<path d="M6.78023 14.9943C8.41863 15.1528 10.8832 15.4618 10.8832 15.4618C10.8832 15.4618 8.34983 15.3108 6.76516 15.1575C4.32084 14.9211 0.515625 14.459 0.515625 14.459C0.515625 14.459 4.30921 14.7553 6.78023 14.9943Z" fill="#778B8E"/>
<path d="M6.96223 15.1634C8.59979 15.3307 11.0764 15.5131 11.0764 15.5131C11.0764 15.5131 8.56201 15.1621 6.97815 15.0003C4.53507 14.7507 0.714111 14.4545 0.714111 14.4545C0.714111 14.4545 4.49247 14.9111 6.96223 15.1634Z" fill="#778B8E"/>
<path d="M7.06221 14.539C8.68406 14.8247 11.1418 15.1862 11.1418 15.1862C11.1418 15.1862 8.65807 14.6538 7.08938 14.3775C4.66975 13.9514 0.878906 13.3788 0.878906 13.3788C0.878906 13.3788 4.61612 14.1083 7.06221 14.539Z" fill="#778B8E"/>
<path d="M6.92827 14.0019C8.52904 14.3927 10.9592 14.9139 10.9592 14.9139C10.9592 14.9139 8.51373 14.2205 6.96545 13.8425C4.57729 13.2593 0.829834 12.4407 0.829834 12.4407C0.829834 12.4407 4.51401 13.4125 6.92827 14.0019Z" fill="#778B8E"/>
<path d="M7.07848 13.3901C8.64869 13.8943 11.0374 14.5876 11.0374 14.5876C11.0374 14.5876 8.64518 13.7213 7.12644 13.2337C4.78385 12.4816 1.10132 11.3975 1.10132 11.3975C1.10132 11.3975 4.71028 12.6298 7.07848 13.3901Z" fill="#778B8E"/>
<path d="M7.25093 12.8349C8.78236 13.4514 11.1172 14.3159 11.1172 14.3159C11.1172 14.3159 8.79081 13.2787 7.30958 12.6824C5.02486 11.7625 1.42651 10.4146 1.42651 10.4146C1.42651 10.4146 4.94123 11.9051 7.25093 12.8349Z" fill="#778B8E"/>
<path d="M7.3965 12.3676C8.89616 13.061 11.1862 14.0429 11.1862 14.0429C11.1862 14.0429 8.91297 12.8889 7.46246 12.2182C5.22512 11.1836 1.69653 9.65466 1.69653 9.65466C1.69653 9.65466 5.13468 11.3217 7.3965 12.3676Z" fill="#778B8E"/>
<path d="M7.66499 11.9304C9.12307 12.7112 11.354 13.8267 11.354 13.8267C11.354 13.8267 9.14954 12.5404 7.73927 11.7852C5.56397 10.6202 2.12744 8.88562 2.12744 8.88562C2.12744 8.88562 5.4659 10.7528 7.66499 11.9304Z" fill="#778B8E"/>
<path d="M8.06575 11.4311C9.4609 12.3242 11.6015 13.6117 11.6015 13.6117C11.6015 13.6117 9.50014 12.156 8.15074 11.2921C6.06934 9.9596 2.77319 7.95996 2.77319 7.95996C2.77319 7.95996 5.96161 10.084 8.06575 11.4311Z" fill="#778B8E"/>
<path d="M8.42451 10.8316C9.73196 11.8542 11.7455 13.3408 11.7455 13.3408C11.7455 13.3408 9.78638 11.6905 8.5218 10.7013C6.57121 9.17562 3.47217 6.86951 3.47217 6.86951C3.47217 6.86951 6.4526 9.28922 8.42451 10.8316Z" fill="#778B8E"/>
<path d="M8.81649 10.4084C10.0587 11.5129 11.9772 13.1258 11.9772 13.1258C11.9772 13.1258 10.123 11.353 8.92157 10.2846C7.06834 8.63678 4.1167 6.13635 4.1167 6.13635C4.1167 6.13635 6.94299 8.74253 8.81649 10.4084Z" fill="#778B8E"/>
<path d="M9.17791 9.98071C10.3529 11.1598 12.173 12.8879 12.173 12.8879C12.173 12.8879 10.4265 11.0041 9.29007 9.86368C7.53717 8.10462 4.73804 5.42688 4.73804 5.42688C4.73804 5.42688 7.40582 8.20245 9.17791 9.98071Z" fill="#778B8E"/>
<path d="M9.67835 9.53957C10.7544 10.8137 12.4291 12.6894 12.4291 12.6894C12.4291 12.6894 10.8403 10.6647 9.79958 9.43238C8.19431 7.53149 5.62036 4.62683 5.62036 4.62683C5.62036 4.62683 8.05553 7.61793 9.67835 9.53957Z" fill="#778B8E"/>
<path d="M10.0979 9.15125C11.0882 10.4962 12.6366 12.4823 12.6366 12.4823C12.6366 12.4823 11.1837 10.3534 10.2259 9.05261C8.74844 7.04612 6.37012 3.9718 6.37012 3.9718C6.37012 3.9718 8.60432 7.12286 10.0979 9.15125Z" fill="#778B8E"/>
<path d="M10.581 8.88982C11.4883 10.2947 12.9139 12.3749 12.9139 12.3749C12.9139 12.3749 11.5922 10.1583 10.7147 8.79945C9.36112 6.70345 7.17285 3.48474 7.17285 3.48474C7.17285 3.48474 9.21264 6.77093 10.581 8.88982Z" fill="#778B8E"/>
<path d="M11.0729 8.65139C11.8992 10.1077 13.2048 12.2687 13.2048 12.2687C13.2048 12.2687 12.0106 9.97762 11.2114 8.56907C9.97867 6.39646 7.97607 3.05359 7.97607 3.05359C7.97607 3.05359 9.82662 6.45504 11.0729 8.65139Z" fill="#778B8E"/>
<path d="M11.4616 8.43072C12.208 9.93152 13.3948 12.1632 13.3948 12.1632C13.3948 12.1632 12.3263 9.80798 11.6044 8.35639C10.491 6.11733 8.67212 2.66626 8.67212 2.66626C8.67212 2.66626 10.336 6.16721 11.4616 8.43072Z" fill="#778B8E"/>
<path d="M11.8239 8.30354C12.5113 9.83354 13.6103 12.1118 13.6103 12.1118C13.6103 12.1118 12.6343 9.71491 11.9694 8.23506C10.944 5.95246 9.26074 2.43005 9.26074 2.43005C9.26074 2.43005 10.7872 5.996 11.8239 8.30354Z" fill="#778B8E"/>
<path d="M12.2902 8.12518C12.862 9.70417 13.7888 12.0612 13.7888 12.0612C13.7888 12.0612 12.9935 9.59544 12.4404 8.06822C11.5873 5.71251 10.1704 2.06946 10.1704 2.06946C10.1704 2.06946 11.4277 5.74374 12.2902 8.12518Z" fill="#778B8E"/>
<path d="M12.5943 7.96264C13.1059 9.56313 13.9427 11.9552 13.9427 11.9552C13.9427 11.9552 13.2414 9.45971 12.7466 7.91167C11.9834 5.52388 10.7056 1.82739 10.7056 1.82739C10.7056 1.82739 11.8227 5.54877 12.5943 7.96264Z" fill="#778B8E"/>
<path d="M12.8182 7.93031C13.2905 9.54341 14.0686 11.9561 14.0686 11.9561C14.0686 11.9561 13.4285 9.44348 12.9717 7.88327C12.2671 5.4767 11.0801 1.74866 11.0801 1.74866C11.0801 1.74866 12.1059 5.49747 12.8182 7.93031Z" fill="#778B8E"/>
<path d="M13.1685 7.75933C13.5508 9.39718 14.1942 11.8511 14.1942 11.8511C14.1942 11.8511 13.6941 9.3054 13.3243 7.72125C12.7539 5.27773 11.7749 1.48694 11.7749 1.48694C11.7749 1.48694 12.5918 5.28912 13.1685 7.75933Z" fill="#778B8E"/>
<path d="M13.4193 7.67114C13.7414 9.32249 14.2944 11.7993 14.2944 11.7993C14.2944 11.7993 13.8879 9.23628 13.5764 7.63907C13.0959 5.17541 12.2563 1.34973 12.2563 1.34973C12.2563 1.34973 12.9335 5.18056 13.4193 7.67114Z" fill="#778B8E"/>
<path d="M13.6767 7.59458C13.9543 9.25438 14.4406 11.7458 14.4406 11.7458C14.4406 11.7458 14.1031 9.17231 13.8347 7.56692C13.4206 5.09067 12.6843 1.2428 12.6843 1.2428C12.6843 1.2428 13.2582 5.09125 13.6767 7.59458Z" fill="#778B8E"/>
<path d="M13.8919 7.57781C14.1281 9.24429 14.5523 11.7476 14.5523 11.7476C14.5523 11.7476 14.2789 9.16614 14.0504 7.55428C13.698 5.06805 13.0576 1.20227 13.0576 1.20227C13.0576 1.20227 13.5356 5.06442 13.8919 7.57781Z" fill="#778B8E"/>
<path d="M14.1836 7.5034C14.3563 9.17804 14.685 11.6963 14.685 11.6963C14.685 11.6963 14.5099 9.10592 14.3429 7.4862C14.0853 4.98782 13.5923 1.09949 13.5923 1.09949C13.5923 1.09949 13.9231 4.97774 14.1836 7.5034Z" fill="#778B8E"/>
<path d="M14.4261 7.49419C14.5644 9.17215 14.8414 11.697 14.8414 11.697C14.8414 11.697 14.7195 9.10337 14.5857 7.48041C14.3794 4.97705 13.9663 1.07898 13.9663 1.07898C13.9663 1.07898 14.2175 4.96348 14.4261 7.49419Z" fill="#778B8E"/>
<path d="M14.6537 7.43188C14.7537 9.1127 14.973 11.6434 14.973 11.6434C14.973 11.6434 14.9103 9.04763 14.8136 7.42192C14.6644 4.91432 14.3403 1.00745 14.3403 1.00745C14.3403 1.00745 14.5029 4.89689 14.6537 7.43188Z" fill="#778B8E"/>
<path d="M14.9115 7.37195C14.9533 9.05534 15.0848 11.5924 15.0848 11.5924C15.0848 11.5924 15.112 8.99599 15.0717 7.36779C15.0094 4.85636 14.8208 0.940186 14.8208 0.940186C14.8208 0.940186 14.8486 4.83307 14.9115 7.37195Z" fill="#778B8E"/>
<path d="M15.1382 6.99594C15.1414 8.82502 15.2149 11.5835 15.2149 11.5835C15.2149 11.5835 15.3015 8.76477 15.2984 6.99564C15.2937 4.26683 15.1947 0.00927734 15.1947 0.00927734C15.1947 0.00927734 15.1334 4.2373 15.1382 6.99594Z" fill="#778B8E"/>
<path d="M6.77315 16.9366C8.41154 16.7782 10.8761 16.4692 10.8761 16.4692C10.8761 16.4692 8.34276 16.6202 6.75807 16.7734C4.31376 17.0099 0.508545 17.472 0.508545 17.472C0.508545 17.472 4.30212 17.1757 6.77315 16.9366Z" fill="#778B8E"/>
</g>
</g>
<defs>
<clipPath id="clip0_5_845">
<rect width="39" height="32" fill="white" transform="translate(0.5)"/>
</clipPath>
<clipPath id="clip1_5_845">
<rect width="39" height="32" fill="white" transform="translate(0.5)"/>
</clipPath>
</defs>
</svg>
