<svg width="44" height="32" viewBox="0 0 44 32" fill="none" xmlns="http://www.w3.org/2000/svg">
<g clip-path="url(#clip0_5_943)">
<g clip-path="url(#clip1_5_943)">
<path fill-rule="evenodd" clip-rule="evenodd" d="M23.382 0.112498C23.382 0.112498 23.6966 0.112498 23.6966 0.433218V5.10912C23.6966 6.46925 24.0758 6.87783 24.8997 6.87783C25.6364 6.87783 26.0814 6.46925 26.0814 5.10912V0.433218C26.0814 0.112498 26.3849 0.112498 26.3849 0.112498H26.8187C26.8187 0.112498 27.1333 0.112498 27.1333 0.433218V5.05427C27.1333 6.5907 26.5147 7.92842 24.8997 7.92842C23.328 7.92842 22.6451 6.62427 22.6451 5.05427V0.432659C22.6451 0.111939 22.9481 0.111938 22.9481 0.111938H23.382V0.112498ZM29.8658 6.81179H30.8412C31.5787 6.81179 32.0775 6.3584 32.0775 5.52946C32.0775 4.51246 31.4919 4.29137 30.755 4.29137H29.8658V6.81179ZM29.8658 3.27437H30.5597C31.3836 3.27437 31.8712 2.89823 31.8712 2.22375C31.8712 1.52747 31.5138 1.17373 30.7329 1.17373H29.8664L29.8658 3.27437ZM30.7335 0.111938C32.2617 0.111938 32.9336 1.00749 32.9336 2.22375C32.9336 2.94243 32.6087 3.44004 32.2617 3.70533C32.9012 4.05909 33.129 4.72236 33.129 5.50764C33.129 6.69033 32.4673 7.85119 30.8412 7.85119H28.8138V0.112498H30.7329L30.7335 0.111938ZM37.0547 1.16253L36.198 4.40163H37.9218L37.076 1.16253H37.0547ZM37.5099 0.112498C37.5099 0.112498 37.7592 0.112498 37.835 0.377806L39.7867 7.49744C39.8838 7.85119 39.5155 7.85119 39.5155 7.85119H39.0167C38.8975 7.85119 38.7676 7.76275 38.7131 7.58532L38.2034 5.45222H35.9268L35.3853 7.58532C35.3307 7.76275 35.2005 7.85119 35.0922 7.85119H34.5829C34.5829 7.85119 34.2255 7.85119 34.3222 7.49744L36.2958 0.377806C36.3716 0.112498 36.6097 0.112498 36.6097 0.112498H37.5099ZM42.1291 0.112498C42.1291 0.112498 42.4541 0.112498 42.4541 0.433218V7.53047C42.4541 7.85119 42.1401 7.85119 42.1401 7.85119H41.7168C41.7168 7.85119 41.4028 7.85119 41.4028 7.53047V0.432659C41.4028 0.111939 41.7062 0.111938 41.7062 0.111938H42.1291V0.112498ZM17.6894 6.81179H18.8056C19.5431 6.81179 19.9879 6.3584 19.9879 5.35259V2.60996C19.9879 1.60415 19.5431 1.15078 18.8056 1.15078H17.6894V6.81179ZM18.8056 0.111938C20.4213 0.111938 21.0393 1.21794 21.0393 2.61052V5.35259C21.0393 6.74517 20.4213 7.85119 18.8062 7.85119H16.6379V0.112498H18.8062L18.8056 0.111938Z" fill="#778B8E"/>
<path fill-rule="evenodd" clip-rule="evenodd" d="M17.5915 12.0965C17.5915 12.0965 17.8087 12.0965 17.9275 12.3394L19.1422 15.236L20.3454 12.3394C20.4537 12.0959 20.6814 12.0959 20.6814 12.0959H21.2995C21.2995 12.0959 21.625 12.0959 21.625 12.4167V19.5139C21.625 19.5139 21.625 19.8346 21.2995 19.8346H20.8981C20.8981 19.8346 20.5736 19.8346 20.5736 19.5139L20.6814 14.0527L19.7168 16.5295C19.6299 16.7394 19.5326 16.7612 19.4133 16.7612H18.925C18.7946 16.7612 18.6869 16.7388 18.6 16.5295L17.581 13.9973L17.6893 19.5139C17.6893 19.5139 17.6893 19.8346 17.3748 19.8346H16.9519C16.9519 19.8346 16.6379 19.8346 16.6379 19.5139V12.4167C16.6379 12.4167 16.6379 12.0959 16.9519 12.0959L17.5915 12.0965ZM27.3605 12.0965C27.6751 12.0965 27.6751 12.4055 27.6751 12.4055V12.8364C27.6751 12.8364 27.6751 13.1465 27.3714 13.1465H24.5852V15.4128H26.6451C26.9595 15.4128 26.9595 15.7224 26.9595 15.7224V16.1533C26.9595 16.1533 26.9595 16.4629 26.656 16.4629H24.5852V18.7846H27.3605C27.6751 18.7846 27.6751 19.0941 27.6751 19.0941V19.5251C27.6751 19.5251 27.6751 19.8346 27.3714 19.8346H23.5331V12.0965H27.3605ZM30.3646 18.7958H31.4808C32.2183 18.7958 32.6631 18.3424 32.6631 17.3366V14.5945C32.6631 13.5887 32.2183 13.1353 31.4808 13.1353H30.3646V18.7958ZM31.4808 12.0959C33.0965 12.0959 33.7145 13.2014 33.7145 14.5945V17.3366C33.7145 18.7292 33.0965 19.8346 31.4808 19.8346H29.3125V12.0965L31.4808 12.0959ZM36.2089 12.0965C36.2089 12.0965 36.5339 12.0965 36.5339 12.4167V19.5139C36.5339 19.8346 36.2199 19.8346 36.2199 19.8346H35.7964C35.7964 19.8346 35.4824 19.8346 35.4824 19.5139V12.4167C35.4824 12.0959 35.786 12.0959 35.786 12.0959L36.2089 12.0965ZM40.7517 13.1465L39.895 16.3856H41.6188L40.773 13.1465H40.7517ZM41.2069 12.0959C41.2069 12.0959 41.4562 12.0959 41.5324 12.3613L43.4837 19.4809C43.5814 19.8346 43.2125 19.8346 43.2125 19.8346H42.7143C42.5949 19.8346 42.4646 19.7462 42.4107 19.5693L41.901 17.4357H39.6244L39.0822 19.5693C39.0283 19.7462 38.8975 19.8346 38.7896 19.8346H38.2798C38.2798 19.8346 37.9225 19.8346 38.0192 19.4809L39.9933 12.3613C40.0686 12.0959 40.3067 12.0959 40.3067 12.0959H41.2069Z" fill="#778B8E"/>
<path fill-rule="evenodd" clip-rule="evenodd" d="M21.0829 25.8839C21.1048 26.0167 21.0717 26.1936 20.8661 26.2597L20.4867 26.3592C20.2805 26.4147 20.0748 26.3039 20.0424 26.1158C19.9769 25.4636 19.5981 25.0546 18.9041 25.0546C18.0688 25.0546 17.6899 25.4966 17.6899 26.525V29.3884C17.6899 30.4166 18.0693 30.8476 18.9035 30.8476C19.6409 30.8476 20.0748 30.4054 20.0748 29.3884C20.0748 29.0676 20.3784 29.0676 20.3784 29.0676H20.8123C20.8123 29.0676 21.1263 29.0676 21.1263 29.3884C21.1263 30.7923 20.5191 31.8977 18.9035 31.8977C17.4078 31.8977 16.6379 30.8476 16.6379 29.3884V26.525C16.6379 25.0658 17.4078 24.0044 18.9035 24.0044C20.3135 24.0044 20.931 24.8552 21.0829 25.8839ZM23.526 24.0044C23.526 24.0044 23.8515 24.0044 23.8515 24.3252V31.4224C23.8515 31.7426 23.5369 31.7426 23.5369 31.7426H23.1142C23.1142 31.7426 22.8 31.7426 22.8 31.4224V24.3252C22.8 24.0044 23.1031 24.0044 23.1031 24.0044H23.526ZM29.2582 24.0044C29.5727 24.0044 29.5727 24.3141 29.5727 24.3141V24.7338C29.5727 24.7338 29.5727 25.0546 29.2582 25.0546H27.8268V31.4224C27.8268 31.7426 27.5233 31.7426 27.5233 31.7426H27.0899C27.0899 31.7426 26.7753 31.7426 26.7753 31.4224V25.0546H25.3549C25.0405 25.0546 25.0405 24.7449 25.0405 24.7449V24.3252C25.0405 24.3252 25.0405 24.0044 25.3549 24.0044H29.2582ZM31.4881 24.0044C31.6073 24.0044 31.7378 24.093 31.7921 24.2697L33.288 28.0944H33.3963L34.7297 24.2697C34.7843 24.093 34.9145 24.0044 35.0333 24.0044H35.554C35.6844 24.0044 35.9445 24.0044 35.8252 24.3583L33.2884 31.4779C33.1906 31.7426 33.1036 31.7426 32.9843 31.7426H32.4856C32.3558 31.7426 32.0951 31.7426 32.215 31.389L32.9188 29.4215H32.8221C32.7353 29.4215 32.6594 29.3436 32.627 29.2557L30.6968 24.3583C30.567 24.0593 30.6857 24.0044 30.892 24.0044H31.4881Z" fill="#778B8E"/>
<path fill-rule="evenodd" clip-rule="evenodd" d="M8.07287 8.66778C7.87044 8.66231 7.6781 8.57659 7.53681 8.42892C7.39554 8.28124 7.31647 8.08325 7.31647 7.87713C7.31647 7.67101 7.39554 7.47302 7.53681 7.32535C7.6781 7.17767 7.87044 7.09198 8.07287 7.08648C8.27375 7.09419 8.4639 7.18081 8.60335 7.3282C8.74282 7.47558 8.82072 7.67223 8.82072 7.87686C8.82072 8.08148 8.74282 8.27812 8.60335 8.42551C8.4639 8.57289 8.27375 8.66008 8.07287 8.66778ZM8.07287 5.5415C7.47306 5.55486 6.90223 5.80677 6.48266 6.24327C6.06308 6.6798 5.82812 7.26618 5.82812 7.87686C5.82812 8.48753 6.06308 9.07391 6.48266 9.51043C6.90223 9.94693 7.47306 10.1988 8.07287 10.2122C8.6727 10.1988 9.24352 9.94693 9.6631 9.51043C10.0827 9.07391 10.3176 8.48753 10.3176 7.87686C10.3176 7.26618 10.0827 6.6798 9.6631 6.24327C9.24352 5.80677 8.6727 5.55486 8.07287 5.5415Z" fill="#778B8E"/>
<path fill-rule="evenodd" clip-rule="evenodd" d="M11.8981 9.74501C11.8175 9.68549 11.7263 9.64272 11.6295 9.61914C11.5327 9.59556 11.4323 9.59166 11.334 9.60764C11.2357 9.62362 11.1415 9.65917 11.0567 9.71227C10.972 9.76537 10.8983 9.83494 10.84 9.91705C10.5233 10.3629 10.1075 10.7262 9.62654 10.9773C9.14561 11.2284 8.61316 11.3602 8.07261 11.362C7.53201 11.3603 6.99944 11.2285 6.51841 10.9774C6.03737 10.7263 5.62147 10.3629 5.30467 9.91705C5.24642 9.8349 5.17279 9.76525 5.08805 9.71211C5.00329 9.65896 4.90905 9.62339 4.81076 9.60741C4.71247 9.59143 4.61203 9.59536 4.51522 9.61898C4.41842 9.64259 4.32715 9.68541 4.24665 9.74501C4.08424 9.86552 3.97534 10.0466 3.94376 10.2486C3.9122 10.4507 3.96052 10.6572 4.07818 10.823C4.53548 11.4663 5.13571 11.9903 5.82992 12.3524C6.52411 12.7145 7.29259 12.9043 8.07261 12.9065C8.85258 12.9043 9.62096 12.7144 10.3151 12.3523C11.0092 11.9902 11.6093 11.4662 12.0665 10.823C12.1843 10.6572 12.2327 10.4507 12.2012 10.2486C12.1696 10.0465 12.0606 9.86544 11.8981 9.74501Z" fill="#778B8E"/>
<path fill-rule="evenodd" clip-rule="evenodd" d="M10.0918 13.7002C9.44341 13.9344 8.76038 14.0538 8.07238 14.0533C4.73205 14.0533 2.01404 11.2817 2.01404 7.87556C2.01404 4.46834 4.73205 1.69732 8.07238 1.69732C8.76326 1.69732 9.44264 1.81574 10.0918 2.04978C10.2786 2.10639 10.4796 2.08777 10.6533 1.99775C10.8269 1.90773 10.96 1.75321 11.0248 1.56615C11.0897 1.37909 11.0814 1.17381 11.0017 0.992787C10.922 0.811764 10.777 0.668848 10.5967 0.593608C9.78611 0.30112 8.93238 0.151881 8.07238 0.152345C3.89684 0.152903 0.5 3.6171 0.5 7.87556C0.5 12.134 3.89684 15.5982 8.07293 15.5982C8.93613 15.5982 9.78561 15.4496 10.5972 15.157C10.7868 15.0884 10.942 14.9462 11.0286 14.7613C11.1152 14.5765 11.1263 14.3642 11.0593 14.1711C11.0262 14.0756 10.9749 13.9876 10.9084 13.9122C10.8419 13.8369 10.7614 13.7756 10.6716 13.7319C10.5818 13.6882 10.4844 13.663 10.385 13.6577C10.2856 13.6523 10.1862 13.667 10.0924 13.7008" fill="#778B8E"/>
</g>
</g>
<defs>
<clipPath id="clip0_5_943">
<rect width="43" height="32" fill="white" transform="translate(0.5)"/>
</clipPath>
<clipPath id="clip1_5_943">
<rect width="43" height="32" fill="white" transform="translate(0.5)"/>
</clipPath>
</defs>
</svg>
