<svg width="47" height="32" viewBox="0 0 47 32" fill="none" xmlns="http://www.w3.org/2000/svg">
<g clip-path="url(#clip0_5_485)">
<g clip-path="url(#clip1_5_485)">
<path d="M23.48 0.0201416L11.094 12.4137L23.52 24.8471L35.9458 12.4137L23.48 0.0201416ZM23.48 24.2493L11.6914 12.4137L23.48 0.617903L35.2689 12.4137L23.48 24.2493Z" fill="#778B8E"/>
<path d="M19.8956 8.5481L19.1389 9.14586V10.182L19.8557 9.82333V9.46467L27.5821 8.5481H19.8956Z" fill="#778B8E"/>
<path d="M23.6389 1.65404L23.36 1.57434L23.1611 5.91807L23.7981 5.99777L23.6389 1.65404Z" fill="#778B8E"/>
<path d="M22.0062 6.71484L21.4088 7.1532V8.18932L21.9664 7.83066V7.31261L25.4314 6.71484H22.0062Z" fill="#778B8E"/>
<path d="M19.8956 18.8301L19.1389 19.4278V19.4677L19.8159 20.1451L19.8557 20.1053V19.7865L27.5821 18.8301H19.8956Z" fill="#778B8E"/>
<path d="M19.8956 12.6531L19.1389 13.2508V14.2869L19.8557 13.9283V13.6095L27.5821 12.6531H19.8956Z" fill="#778B8E"/>
<path d="M19.8956 10.6201L19.1389 11.178V12.2142L19.8557 11.8555V11.5367L27.5821 10.6201H19.8956Z" fill="#778B8E"/>
<path d="M19.8956 14.7251L19.1389 15.3229V16.359L19.8557 16.0003V15.6815L27.5821 14.7251H19.8956Z" fill="#778B8E"/>
<path d="M19.8956 16.7971L19.1389 17.3949V18.3912L19.8557 18.0724V17.7137L27.5821 16.7971H19.8956Z" fill="#778B8E"/>
<path d="M20.573 20.9021L21.3297 21.6593L26.2683 21.0615L26.4275 20.9021H20.573Z" fill="#778B8E"/>
<path d="M10.6163 29.5093H11.0145L11.4526 31.3026L11.9305 29.5093H12.3687L12.8067 31.3026L13.2448 29.5093H13.6829L13.0457 31.8207H12.6076L12.1297 30.0274L11.6518 31.8207H11.2137L10.6163 29.5093Z" fill="#778B8E"/>
<path d="M14.0814 30.6653C14.0814 31.1037 14.2805 31.5422 14.7983 31.5422C15.316 31.5422 15.5152 31.1037 15.5152 30.6653C15.5152 30.2271 15.316 29.7887 14.7983 29.7887C14.2805 29.7887 14.0814 30.2271 14.0814 30.6653ZM15.9134 30.6653C15.9134 31.3427 15.4753 31.9007 14.7983 31.9007C14.0814 31.9007 13.6831 31.3427 13.6831 30.6653C13.6831 29.9879 14.1212 29.4299 14.7983 29.4299C15.4753 29.4299 15.9134 29.9879 15.9134 30.6653Z" fill="#778B8E"/>
<path d="M18.263 29.5093H18.6612V31.502H19.856V31.8207H18.263V29.5093Z" fill="#778B8E"/>
<path d="M20.4928 31.502H20.8911C21.5283 31.502 21.6876 31.1432 21.6876 30.665C21.6876 30.1867 21.5681 29.8282 20.8911 29.8282H20.4928V31.502ZM20.0547 29.5093H21.0106C21.7274 29.5093 22.0461 30.0274 22.0461 30.665C22.0461 31.3026 21.7274 31.8207 21.0106 31.8207H20.0547V29.5093Z" fill="#778B8E"/>
<path d="M22.7234 29.5093H24.635V29.868H23.8784V31.8207H23.48V29.868H22.7234V29.5093Z" fill="#778B8E"/>
<path d="M27.6617 30.9042H28.3786L28.0202 29.9079L27.6617 30.9042ZM27.821 29.5093H28.2591L29.1752 31.8605H28.6971L28.4582 31.2229H27.5422L27.3033 31.8605H26.8652L27.821 29.5093Z" fill="#778B8E"/>
<path d="M29.7334 31.502H30.1318C30.7691 31.502 30.9283 31.1432 30.9283 30.665C30.9283 30.1867 30.8088 29.8282 30.1318 29.8282H29.7334V31.502ZM29.3353 29.5093H30.2911C31.008 29.5093 31.3265 30.0274 31.3265 30.665C31.3265 31.3026 31.008 31.8207 30.2911 31.8207H29.3353V29.5093Z" fill="#778B8E"/>
<path d="M31.604 29.5093H33.2767V29.868H32.0024V30.4658H33.1971V30.7845H32.0024V31.502H33.2767V31.8207H31.604V29.5093Z" fill="#778B8E"/>
<path d="M35.7868 30.2267C35.7072 29.9478 35.5479 29.7484 35.1894 29.7484C34.6717 29.7484 34.4725 30.1868 34.4725 30.6253C34.4725 31.0635 34.6717 31.5019 35.1894 31.5019C35.5479 31.5019 35.7469 31.223 35.7868 30.9041H36.1849C36.1452 31.4621 35.7469 31.8606 35.1894 31.8606C34.4725 31.8606 34.0742 31.3027 34.0742 30.6253C34.0742 29.9478 34.5122 29.3899 35.1894 29.3899C35.7072 29.3899 36.1452 29.6688 36.1849 30.1868H35.7868V30.2267Z" fill="#778B8E"/>
<path d="M36.4637 29.5093H38.1365V29.868H36.8619V30.4658H38.0568V30.7845H36.8619V31.502H38.1762V31.8207H36.4637V29.5093Z" fill="#778B8E"/>
<path d="M38.3749 29.5093H38.813L39.8884 31.2229V29.5093H40.2868V31.8207H39.8487L38.7733 30.107V31.8207H38.3749V29.5093Z" fill="#778B8E"/>
<path d="M40.4864 29.5093H42.3583V29.868H41.6413V31.8207H41.2033V29.868H40.4864V29.5093Z" fill="#778B8E"/>
<path d="M44.6682 29.5093H46.341V29.868H45.0664V30.4658H46.2613V30.7845H45.0664V31.502H46.3807V31.8207H44.6682V29.5093Z" fill="#778B8E"/>
<path d="M26.2283 30.8649C26.5866 30.7454 26.6664 30.4265 26.6664 30.1875C26.6664 29.9086 26.5469 29.4702 25.8699 29.4702H24.8342V31.8215H25.2326V29.8287H25.83C26.0291 29.8287 26.2283 29.9086 26.2283 30.2273C26.2283 30.5064 25.9892 30.6259 25.83 30.6259H25.5511L25.3519 30.9446H25.79L26.2283 31.8613H26.7061L26.2283 30.8649Z" fill="#778B8E"/>
<path d="M43.9913 30.8649C44.3497 30.7454 44.4294 30.4265 44.4294 30.1875C44.4294 29.9086 44.3098 29.4702 43.6328 29.4702H42.5974V31.8215H42.9955V29.8287H43.5931C43.7921 29.8287 43.9913 29.9086 43.9913 30.2273C43.9913 30.5064 43.7524 30.6259 43.5931 30.6259H43.3143L43.1151 30.9446H43.5532L43.9913 31.8613H44.4693L43.9913 30.8649Z" fill="#778B8E"/>
<path d="M17.5855 30.8649C17.944 30.7454 18.0236 30.4265 18.0236 30.1875C18.0236 29.9086 17.9042 29.4702 17.2271 29.4702H16.1916V31.8215H16.5899V29.8287H17.1873C17.3864 29.8287 17.5855 29.9086 17.5855 30.2273C17.5855 30.5064 17.3466 30.6259 17.1873 30.6259H16.9085L16.7093 30.9446H17.1474L17.5855 31.8613H18.0635L17.5855 30.8649Z" fill="#778B8E"/>
<path d="M0.898239 31.502H1.29651C1.93374 31.502 2.09304 31.1432 2.09304 30.665C2.09304 30.1867 1.97356 29.8282 1.29651 29.8282H0.898239V31.502ZM0.499969 29.5093H1.45581C2.1727 29.5093 2.49131 30.0274 2.49131 30.665C2.49131 31.3026 2.1727 31.8207 1.45581 31.8207H0.499969V29.5093Z" fill="#778B8E"/>
<path d="M2.7699 29.5093H3.16817V30.8644C3.16817 31.1831 3.16817 31.5418 3.72574 31.5418C4.28332 31.5418 4.28332 31.1831 4.28332 30.8644V29.5093H4.68159V31.0237C4.68159 31.6215 4.28332 31.9402 3.72574 31.9402C3.16817 31.9402 2.7699 31.6613 2.7699 31.0237V29.5093Z" fill="#778B8E"/>
<path d="M7.62888 30.9042H8.34577L7.98732 29.9079L7.62888 30.9042ZM7.78819 29.5093H8.22628L9.14231 31.8605H8.7042L8.46524 31.2229H7.54923L7.31027 31.8605H6.87216L7.78819 29.5093Z" fill="#778B8E"/>
<path d="M9.7 29.5093H9.30173V31.8605H9.7V29.5093Z" fill="#778B8E"/>
<path d="M6.07586 31.5025H5.35897V29.8287H5.9962C6.23517 29.8287 6.35464 29.9086 6.35464 30.1477C6.35464 30.3468 6.19533 30.4666 5.9962 30.4666H5.63775L5.47844 30.7454H6.07586C6.31482 30.7454 6.47413 30.8649 6.47413 31.1042C6.47413 31.383 6.31482 31.5025 6.07586 31.5025ZM6.43429 30.5861C6.63343 30.5064 6.7529 30.307 6.7529 30.068C6.7529 29.6694 6.47413 29.4702 6.07586 29.4702H4.92087V31.8215H5.9962C6.5936 31.8215 6.8724 31.5424 6.8724 31.1838C6.8724 30.8649 6.71309 30.6259 6.43429 30.5861Z" fill="#778B8E"/>
<path d="M38.8141 26.1218H38.4556V26.4007H38.8141V26.1218Z" fill="#778B8E"/>
<path d="M36.066 26.481H35.1102L35.3094 26.7999H35.9467C36.5838 26.7999 36.7432 27.1586 36.7432 27.6367V28.1149H34.911V28.4737H36.7432H37.0618H37.1414V27.6765C37.1015 26.9991 36.7829 26.481 36.066 26.481Z" fill="#778B8E"/>
<path d="M30.3303 28.6334H29.9719V28.9123H30.3303V28.6334Z" fill="#778B8E"/>
<path d="M30.8882 28.6334H30.5298V28.9123H30.8882V28.6334Z" fill="#778B8E"/>
<path d="M34.5912 28.6334H34.2328V28.9123H34.5912V28.6334Z" fill="#778B8E"/>
<path d="M34.5912 26.481H34.1928V28.1149H32.9981V26.481H32.0423C31.3254 26.481 31.0067 26.9991 31.0067 27.6367V28.1149H30.2101C29.8517 28.1149 29.6527 27.8759 29.6128 27.5171V26.481H29.2146V27.5171C29.2543 28.0751 29.6527 28.4737 30.2101 28.4737H31.0067H31.3254H31.4051V27.6765C31.4051 27.1985 31.5246 26.8397 32.2016 26.8397H32.5998V28.4737H32.9185H32.9981H34.5912V26.481Z" fill="#778B8E"/>
<path d="M1.61528 28.6334H1.25684V28.9123H1.61528V28.6334Z" fill="#778B8E"/>
<path d="M2.17299 28.6334H1.81454V28.9123H2.17299V28.6334Z" fill="#778B8E"/>
<path d="M8.62464 28.1152H7.42983C7.50948 27.9556 7.58914 27.7564 7.58914 27.5174C7.58914 26.9595 7.23071 26.4812 6.63332 26.4812C6.07574 26.4812 5.71729 26.9196 5.67747 27.4377C5.63763 27.8361 5.51816 28.1152 5.0004 28.1152H4.28352V26.4812H3.32767C2.61079 26.4812 2.29218 26.9993 2.29218 27.6369V28.1152H1.49564C1.1372 28.1152 0.938066 27.8759 0.898239 27.5174V26.4812H0.499969V27.5174C0.539796 28.0753 0.938066 28.4737 1.49564 28.4737H2.29218H2.41166H2.69044V27.6768C2.69044 27.1985 2.80993 26.84 3.48698 26.84H3.88525V28.4737H4.08439H5.04024C5.35885 28.4737 5.59782 28.3542 5.75712 28.1949C5.95625 27.9955 6.0359 27.7564 6.07574 27.4377C6.07574 27.4377 6.07574 27.4377 6.07574 27.3977C6.11555 27.079 6.27486 26.84 6.63332 26.84C7.03158 26.84 7.19089 27.1985 7.19089 27.5174C7.19089 27.8759 7.03158 28.1949 6.63332 28.1949C6.47401 28.1949 6.35452 28.155 6.27486 28.0753L5.95625 28.2745C6.11555 28.4737 6.35452 28.5534 6.63332 28.5534C6.79262 28.5534 6.95193 28.5136 7.0714 28.4339H9.02291V26.0826H8.62464V28.1152Z" fill="#778B8E"/>
<path d="M41.4018 27.0383H40.645L41.5611 26.1218H41.0434L39.8484 27.3572H41.4018C41.601 27.3572 41.8 27.4369 41.8 27.7556C41.8 28.0745 41.601 28.1143 41.4018 28.1143H38.8529V26.5602H38.4945V28.3932C38.4945 28.5527 38.4945 28.6324 38.335 28.6324H38.0564L38.2157 28.9113H38.3749C38.6935 28.9113 38.8529 28.7519 38.8529 28.4332H41.4415C42.1187 28.4332 42.2381 27.9948 42.2381 27.7157C42.1984 27.4767 42.0788 27.0383 41.4018 27.0383Z" fill="#778B8E"/>
<path d="M20.2142 28.394C20.2142 28.5533 20.2142 28.633 20.0549 28.633H19.7761L19.9354 28.9119H20.0947C20.4532 28.9119 20.5727 28.7127 20.5727 28.394V26.481H20.2142V28.394Z" fill="#778B8E"/>
<path d="M25.79 26.1218H25.4316V26.4007H25.79V26.1218Z" fill="#778B8E"/>
<path d="M25.2322 26.1218H24.8737V26.4007H25.2322V26.1218Z" fill="#778B8E"/>
<path d="M26.786 28.1152H26.1487H25.7905V26.6007H25.432V28.1152H24.3964V27.7166C24.3964 27.0392 23.9583 26.4812 23.2813 26.4812C22.8033 26.4812 22.4848 26.7202 22.2856 27.079L22.644 27.2782C22.7237 26.9993 22.9626 26.8001 23.2813 26.8001C23.799 26.8001 23.9982 27.2383 23.9982 27.6768V28.0753H21.2899V26.0826H20.8917V28.4737H23.9982H24.3964H25.432H25.7905H26.1487H27.2241V26.1225H26.8259V28.1152H26.786Z" fill="#778B8E"/>
<path d="M27.8607 26.1218H27.4623V28.4731H27.8607V26.1218Z" fill="#778B8E"/>
<path d="M19.2187 27.1587C19.0992 27.1188 18.3027 26.9196 18.2629 26.9196V26.7601C18.2629 26.5211 18.5018 26.4414 18.701 26.4414C18.9797 26.4414 19.1789 26.5609 19.2187 26.84H19.617C19.617 26.3617 19.2187 26.0826 18.701 26.0826C18.2629 26.0826 17.8646 26.3219 17.8646 26.7601V27.1587C18.1832 27.2383 18.9001 27.4377 19.0992 27.4776C19.1789 27.5174 19.2984 27.5971 19.2984 27.7564C19.2984 27.9158 19.1789 28.1152 18.8204 28.1152H17.3468C16.9884 28.1152 16.7893 27.8361 16.7494 27.5174V26.4812H16.3512V27.5174C16.391 28.0753 16.7893 28.4737 17.3468 28.4737H18.7408C19.2187 28.4737 19.6568 28.2745 19.6568 27.7564C19.6568 27.5174 19.4975 27.2383 19.2187 27.1587Z" fill="#778B8E"/>
<path d="M18.0237 28.6334H17.6652V28.9123H18.0237V28.6334Z" fill="#778B8E"/>
<path d="M18.5814 28.6334H18.223V28.9123H18.5814V28.6334Z" fill="#778B8E"/>
<path d="M23.48 28.6334H23.1216V28.9123H23.48V28.6334Z" fill="#778B8E"/>
<path d="M13.842 28.1143H13.2047H12.8463H11.1337V27.7157C11.1337 27.2775 11.3329 26.8391 11.8506 26.8391C12.1692 26.8391 12.4082 27.0383 12.4879 27.3174L12.8463 27.118C12.687 26.7594 12.3285 26.5202 11.8506 26.5202C11.1337 26.5202 10.7355 27.0781 10.7355 27.7556V28.1542H9.7V26.1617H9.30173V28.4731H10.7355H11.1337H12.8463H13.2047H14.2801V26.1218H13.8818V28.1143H13.842Z" fill="#778B8E"/>
<path d="M14.9172 26.1218H14.5189V28.4731H14.9172V26.1218Z" fill="#778B8E"/>
<path d="M45.5442 26.481C44.9865 26.481 44.6281 26.9194 44.5882 27.4375C44.5485 27.8361 44.4289 28.1149 43.9112 28.1149H43.1147V26.481H42.7562V28.394C42.7562 28.5533 42.7562 28.633 42.5969 28.633H42.3181L42.4774 28.9119H42.6366C42.9554 28.9119 43.1147 28.7525 43.1147 28.4338H43.9511C44.2696 28.4338 44.5085 28.3141 44.668 28.1548C44.867 27.9556 44.9466 27.7163 44.9865 27.3976C44.9865 27.3976 44.9865 27.3976 44.9865 27.3578C45.0263 27.0389 45.1857 26.7999 45.5442 26.7999C45.9424 26.7999 46.1016 27.1586 46.1016 27.4773C46.1016 27.8361 45.9424 28.1548 45.5442 28.1548C45.3847 28.1548 45.2654 28.1149 45.1857 28.0352L44.867 28.2344C45.0263 28.4338 45.2654 28.5135 45.5442 28.5135C46.1415 28.5135 46.5 28.0352 46.5 27.4773C46.5 26.9592 46.1415 26.481 45.5442 26.481Z" fill="#778B8E"/>
</g>
</g>
<defs>
<clipPath id="clip0_5_485">
<rect width="46" height="32" fill="white" transform="translate(0.5)"/>
</clipPath>
<clipPath id="clip1_5_485">
<rect width="46" height="32" fill="white" transform="translate(0.5)"/>
</clipPath>
</defs>
</svg>
