<svg width="99" height="36" viewBox="0 0 99 36" fill="none" xmlns="http://www.w3.org/2000/svg">
<rect x="12.6054" y="25.2298" width="6.3027" height="6.30744" fill="#2E706A"/>
<rect x="6.3027" y="25.2298" width="6.3027" height="6.30744" fill="#2E706A"/>
<path d="M18.9081 31.5372L18.9081 25.2297L22.0595 28.3835L25.2108 31.5372L18.9081 31.5372Z" fill="#2E706A"/>
<path d="M31.5135 25.2298L31.5135 31.5372L28.3622 28.3835L25.2108 25.2298L31.5135 25.2298Z" fill="#2E706A"/>
<rect y="12.6149" width="6.3027" height="6.30744" fill="#2E706A"/>
<rect y="18.9223" width="6.3027" height="6.30744" fill="#2E706A"/>
<path d="M0 6.30744L3.15135 9.46116L6.3027 12.6149H0V6.30744Z" fill="#2E706A"/>
<path d="M6.3027 6.30744L3.15135 3.15372L1.50467e-06 2.78645e-06L6.3027 3.33786e-06L6.3027 6.30744Z" fill="#2E706A"/>
<rect x="6.3027" width="6.3027" height="6.30744" fill="#2E706A"/>
<rect x="12.6054" width="6.3027" height="6.30744" fill="#2E706A"/>
<rect x="18.9081" width="6.3027" height="6.30744" fill="#2E706A"/>
<rect x="25.2108" y="6.30744" width="6.3027" height="6.30744" fill="#2E706A"/>
<rect x="25.2108" y="12.6149" width="6.3027" height="6.30744" fill="#2E706A"/>
<rect x="25.2108" y="18.9223" width="6.3027" height="6.30744" fill="#2E706A"/>
<path d="M29.9378 3.15372C29.7214 3.15372 29.5177 3.11337 29.3267 3.03267C29.1357 2.94984 28.968 2.83622 28.8237 2.69181C28.6794 2.54527 28.5659 2.3775 28.4831 2.18849C28.4025 1.99736 28.3622 1.79242 28.3622 1.57367C28.3622 1.35705 28.4025 1.15424 28.4831 0.965229C28.5659 0.774095 28.6794 0.606321 28.8237 0.461908C28.968 0.317496 29.1357 0.204939 29.3267 0.124238C29.5177 0.0414125 29.7214 0 29.9378 0C30.1564 0 30.3601 0.0414125 30.549 0.124238C30.74 0.204939 30.9077 0.317496 31.052 0.461908C31.1963 0.606321 31.3087 0.774095 31.3894 0.965229C31.4721 1.15424 31.5135 1.35705 31.5135 1.57367C31.5135 1.79242 31.4721 1.99736 31.3894 2.18849C31.3087 2.3775 31.1963 2.54527 31.052 2.69181C30.9077 2.83622 30.74 2.94984 30.549 3.03267C30.3601 3.11337 30.1564 3.15372 29.9378 3.15372ZM29.941 2.73959C30.1532 2.73959 30.3474 2.6865 30.5235 2.58032C30.6997 2.47413 30.8397 2.3329 30.9437 2.15663C31.0498 1.98037 31.1029 1.78605 31.1029 1.57367C31.1029 1.35918 31.0498 1.1638 30.9437 0.987528C30.8397 0.81126 30.6997 0.671094 30.5235 0.567032C30.3474 0.46297 30.1532 0.410939 29.941 0.410939C29.7267 0.410939 29.5315 0.46297 29.3553 0.567032C29.1792 0.671094 29.0381 0.81126 28.932 0.987528C28.828 1.1638 28.776 1.35918 28.776 1.57367C28.776 1.78605 28.828 1.98037 28.932 2.15663C29.0381 2.3329 29.1792 2.47413 29.3553 2.58032C29.5315 2.6865 29.7267 2.73959 29.941 2.73959ZM29.4158 2.31273V0.821878H30.0588C30.2031 0.821878 30.3219 0.8686 30.4153 0.962044C30.5087 1.05336 30.5564 1.16911 30.5586 1.30927C30.5586 1.39634 30.5352 1.48023 30.4885 1.56093C30.444 1.63951 30.3771 1.7011 30.288 1.74569L30.5681 2.31273H30.2753L30.0238 1.79348H29.6736V2.31273H29.4158ZM29.6736 1.55137H30.062C30.1257 1.55137 30.1798 1.52801 30.2243 1.48129C30.271 1.43457 30.2944 1.37723 30.2944 1.30927C30.2944 1.23282 30.2721 1.17335 30.2275 1.13088C30.1829 1.0884 30.1278 1.06717 30.062 1.06717H29.6736V1.55137Z" fill="white"/>
<path d="M83.9251 27.0702L89.7253 19.2245L84.0543 11.5512H87.6148L91.4769 16.8823L95.2959 11.5512H98.8564L93.1854 19.2245L99 27.0702H95.4251L91.4769 21.5667L87.5 27.0702H83.9251Z" fill="white"/>
<path d="M79.4845 6.05936V3.58961H82.4851V6.05936H79.4845ZM79.4845 27.0702V11.5512H82.4851V27.0702H79.4845Z" fill="white"/>
<path d="M61.3252 27.0702V8.64766C61.3252 8.2549 61.3396 7.83818 61.3683 7.39752C61.397 6.94727 61.4784 6.50661 61.6124 6.07553C61.7559 5.63486 61.9904 5.23252 62.3159 4.86849C62.7083 4.43741 63.139 4.13086 63.608 3.94884C64.077 3.76683 64.5412 3.66145 65.0006 3.63271C65.4696 3.60398 65.9003 3.58961 66.2928 3.58961H68.2453V6.06116H66.4363C65.7281 6.06116 65.1968 6.23838 64.8427 6.59283C64.4981 6.93769 64.3258 7.43105 64.3258 8.07288V27.0702H61.3252ZM58.7553 13.9653V11.5512H68.2453V13.9653H58.7553ZM70.7147 27.0702V8.64766C70.7147 8.2549 70.7291 7.83818 70.7578 7.39752C70.7865 6.94727 70.8679 6.50661 71.0019 6.07553C71.1455 5.63486 71.38 5.23252 71.7054 4.86849C72.0978 4.43741 72.5285 4.13086 72.9975 3.94884C73.4665 3.76683 73.9307 3.66145 74.3902 3.63271C74.8592 3.60398 75.2899 3.58961 75.6823 3.58961H77.6349V6.06116H75.8259C75.1176 6.06116 74.5864 6.23838 74.2322 6.59283C73.8877 6.93769 73.7154 7.43105 73.7154 8.07288V27.0702H70.7147ZM68.1448 13.9653V11.5512H77.6349V13.9653H68.1448Z" fill="white"/>
<path d="M48.4258 27.5013C46.3584 27.5013 44.5973 27.0511 43.1424 26.1506C41.6876 25.2405 40.5725 23.976 39.7972 22.357C39.0315 20.7381 38.6487 18.8605 38.6487 16.7242C38.6487 14.5879 39.0315 12.7103 39.7972 11.0914C40.5725 9.47241 41.6876 8.21268 43.1424 7.3122C44.5973 6.40213 46.3584 5.9471 48.4258 5.9471C50.4837 5.9471 52.24 6.40213 53.6949 7.3122C55.1593 8.21268 56.2744 9.47241 57.0401 11.0914C57.8058 12.7103 58.1886 14.5879 58.1886 16.7242C58.1886 18.8605 57.8058 20.7381 57.0401 22.357C56.2744 23.976 55.1593 25.2405 53.6949 26.1506C52.24 27.0511 50.4837 27.5013 48.4258 27.5013ZM48.4258 24.6418C49.8902 24.6609 51.1058 24.34 52.0725 23.679C53.0488 23.0085 53.781 22.0792 54.2692 20.8913C54.7573 19.6939 55.0014 18.3048 55.0014 16.7242C55.0014 15.1436 54.7573 13.7641 54.2692 12.5858C53.781 11.3979 53.0488 10.4735 52.0725 9.81248C51.1058 9.15149 49.8902 8.8162 48.4258 8.80662C46.9614 8.78746 45.7411 9.10838 44.7648 9.76938C43.7981 10.4304 43.0706 11.3596 42.5825 12.5571C42.0944 13.7545 41.8455 15.1436 41.8359 16.7242C41.8264 18.3048 42.0656 19.6891 42.5538 20.877C43.0419 22.0553 43.7741 22.9749 44.7504 23.6359C45.7363 24.2969 46.9614 24.6322 48.4258 24.6418Z" fill="white"/>
</svg>
