<svg width="68" height="32" viewBox="0 0 68 32" fill="none" xmlns="http://www.w3.org/2000/svg">
<g clip-path="url(#clip0_5_951)">
<g clip-path="url(#clip1_5_951)">
<path d="M6.06846 6.67114H0.5V22.6506H6.06846C10.9409 22.6506 14.1891 19.3097 14.1891 14.6738C14.1891 10.0898 10.9666 6.67114 6.06846 6.67114ZM6.06846 20.5528H2.84597V8.79483H6.09425C9.78076 8.79483 11.7916 11.4106 11.7916 14.6738C11.7658 17.9112 9.67764 20.5528 6.06846 20.5528Z" fill="#778B8E"/>
<path d="M43.836 18.8953L43.8104 18.7399C42.9596 19.9572 41.49 20.8377 39.7114 20.8377C36.5403 20.8377 34.1172 18.3255 34.1172 14.8033C34.1172 11.2811 36.5662 8.76895 39.7114 8.76895C41.3611 8.76895 42.7792 9.54592 43.6299 10.6336L44.0939 8.04378C42.9852 7.21502 41.5416 6.67114 39.6855 6.67114C35.2255 6.67114 31.668 9.96027 31.668 14.8033C31.668 19.6205 35.2255 22.9355 39.6855 22.9355C42.1348 22.9355 43.8619 21.9773 45.0736 20.6564L43.836 18.8953Z" fill="#778B8E"/>
<path d="M56.9064 18.8953L56.8804 18.7399C56.0297 19.9572 54.5604 20.8377 52.7814 20.8377C49.6106 20.8377 47.1873 18.3255 47.1873 14.8033C47.1873 11.2811 49.6362 8.76895 52.7814 8.76895C54.4315 8.76895 55.8492 9.54592 56.7 10.6336L57.1639 8.04378C56.0556 7.21502 54.6119 6.67114 52.7555 6.67114C48.2959 6.67114 44.7383 9.96027 44.7383 14.8033C44.7383 19.6205 48.2959 22.9355 52.7555 22.9355C55.2048 22.9355 56.932 21.9773 58.1437 20.6564L56.9064 18.8953Z" fill="#778B8E"/>
<path d="M28.3164 6.67114L23.0573 19.1025L17.7724 6.67114H15.3491V22.6506H17.4889V12.7056L22.1035 22.6506H22.9284H23.1604H23.9854L28.6 12.7056V22.6506H30.7397V6.67114H28.3164Z" fill="#778B8E"/>
<path d="M35.2255 24.4636C34.8387 24.4636 34.6582 24.4636 34.3748 24.4636V27.442C34.6582 27.442 34.942 27.442 35.2514 27.442C36.1537 27.442 36.7466 26.8722 36.7466 25.8881C36.7722 24.9298 36.0763 24.4636 35.2255 24.4636ZM35.277 27.2089C35.0192 27.2089 34.8387 27.2089 34.6326 27.2089V24.7226C34.7872 24.7226 34.9161 24.7226 35.1996 24.7226C35.9218 24.7226 36.5146 25.0852 36.5146 25.9398C36.5146 26.7427 36.0504 27.2089 35.277 27.2089Z" fill="#778B8E"/>
<path d="M39.3246 24.4896V26.173C39.3246 26.8723 39.0667 27.2867 38.4483 27.2867C37.752 27.2867 37.546 26.8723 37.546 26.1471V24.5155H37.2881V26.1989C37.2881 27.0795 37.6231 27.5198 38.4223 27.5198C39.1957 27.5198 39.5825 27.0277 39.5825 26.2766V24.5155H39.3246V24.4896Z" fill="#778B8E"/>
<path d="M41.2837 25.8881C41.5931 25.8104 41.7991 25.5515 41.7991 25.2407C41.7991 24.6968 41.3352 24.4896 40.7679 24.4896H40.2009V27.468H40.8968C41.5931 27.468 41.9796 27.1572 41.9796 26.6392C42.0055 26.3025 41.7735 25.9658 41.2837 25.8881ZM40.4844 24.6968H40.7679C41.2062 24.6968 41.5416 24.8781 41.5416 25.2666C41.5416 25.6033 41.2322 25.8104 40.8968 25.8104H40.5103L40.4844 24.6968ZM40.9743 27.2349H40.4844V26.0176H40.7938C41.4126 26.0176 41.722 26.2766 41.722 26.6651C41.722 27.0795 41.3611 27.2349 40.9743 27.2349Z" fill="#778B8E"/>
<path d="M43.604 24.4635H43.3205L42.2378 27.4419H42.5213L42.8566 26.5095H44.1198L44.4807 27.4419H44.7642L43.604 24.4635ZM42.934 26.2764L43.4754 24.7484L44.0424 26.2764H42.934Z" fill="#778B8E"/>
<path d="M45.2024 24.4896V27.468H45.4603V24.4896H45.2024Z" fill="#778B8E"/>
<path d="M50.2035 24.4895H49.8685L48.6568 27.1571L47.4711 24.4895H47.1357L47.0327 27.4678H47.2906L47.3936 24.8521L48.5279 27.4678H48.7858L49.9715 24.8262L50.0746 27.4678H50.3325L50.2035 24.4895Z" fill="#778B8E"/>
<path d="M52.9364 24.4896V26.173C52.9364 26.8723 52.6789 27.2867 52.0601 27.2867C51.3638 27.2867 51.1578 26.8723 51.1578 26.1471V24.5155H50.8999V26.1989C50.8999 27.0795 51.2352 27.5198 52.0342 27.5198C52.8075 27.5198 53.1943 27.0277 53.1943 26.2766V24.5155H52.9364V24.4896Z" fill="#778B8E"/>
<path d="M54.0965 27.2089V24.4636H53.8386V27.442H55.4371L55.4627 27.2089H54.0965Z" fill="#778B8E"/>
<path d="M55.2048 24.4896V24.7227H56.1846V27.468H56.4421V24.7227H57.4218L57.4478 24.4896H55.2048Z" fill="#778B8E"/>
<path d="M57.8601 24.4895V27.4678H58.118V24.4895H57.8601Z" fill="#778B8E"/>
<path d="M46.3103 31.508V31.8448H46.2844C46.2588 31.8448 46.2329 31.8705 46.2073 31.8705C46.0009 31.9484 45.769 31.9741 45.537 31.9741C44.5832 31.9741 43.99 31.3526 43.99 30.4203C43.99 29.4361 44.5832 28.8405 45.537 28.8405C45.769 28.8405 46.0009 28.8663 46.2073 28.944V29.2807C45.975 29.203 45.7431 29.1512 45.537 29.1512C44.7893 29.1512 44.3509 29.6174 44.3509 30.4203C44.3509 31.0418 44.7377 31.6892 45.5885 31.6892C45.6915 31.6892 45.9494 31.6634 46.2329 31.5857C46.2588 31.5857 46.2588 31.5857 46.2844 31.5598L46.3103 31.508Z" fill="#778B8E"/>
<path d="M46.3103 31.5079V31.8445H46.2847C46.2588 31.8445 46.2332 31.8705 46.2073 31.8705V31.5339C46.2332 31.5339 46.2332 31.5339 46.2588 31.5079H46.3103Z" fill="#778B8E"/>
<path d="M24.2426 28.8922V28.8405H24.2169H23.9075H23.8817L23.8559 28.8663L22.7474 31.4821L21.6646 28.8663L21.6388 28.8405H21.3037H21.2779V28.8922L21.1748 31.8965V31.9224H21.2006H21.4326H21.4584L21.4842 31.8965L21.5615 29.3843L22.5669 31.8965L22.5927 31.9224H22.6185H22.8505H22.8763V31.8965L23.9591 29.3843L24.0364 31.8965V31.9224H24.0879H24.32H24.3457V31.8965L24.2426 28.8922Z" fill="#778B8E"/>
<path d="M27.9293 28.8922L27.9035 28.8405H27.8777H27.5684H27.5426V28.8663L26.4083 31.4821L25.3255 28.8663V28.8405H25.2997H24.9904H24.9646L24.9388 28.8922L24.8357 31.8965V31.9224H24.8873H25.1193H25.1451V31.8965L25.2224 29.3843L26.2536 31.8965V31.9224H26.2794H26.5372L26.563 31.8965L27.6199 29.3843L27.723 31.8965V31.9224H27.7488H27.9808H28.0324V31.8965L27.9293 28.8922Z" fill="#778B8E"/>
<path d="M29.9658 28.8145C29.1151 28.8145 28.4963 29.4619 28.4963 30.3684C28.4963 31.3007 29.0893 32 29.9142 32C30.8165 32 31.4095 31.3525 31.4095 30.3943C31.4095 29.436 30.8165 28.8145 29.9658 28.8145ZM29.94 31.6633H29.9142C29.2955 31.6633 28.8315 31.0935 28.8315 30.3166C28.8315 29.6173 29.2955 29.1253 29.94 29.1253C30.6361 29.1253 31.1001 29.6173 31.1001 30.3943C31.0743 31.1454 30.6361 31.6633 29.94 31.6633Z" fill="#778B8E"/>
<path d="M34.8641 28.8405H34.8381V28.8922V31.8965V31.9224H34.8641H35.1216H35.1475V31.8965V28.8922V28.8405H35.1216H34.8641Z" fill="#778B8E"/>
<path d="M35.6375 28.8405H35.6116V28.8922V29.1253V29.1512H35.6375H36.5398V31.8965V31.9224H36.5913H36.8233H36.8748V31.8965V29.1512H37.7771H37.803V29.1253L37.8289 28.8922V28.8405H37.7771H35.6375Z" fill="#778B8E"/>
<path d="M38.1641 28.8405H38.1382V28.8922V31.8965V31.9224H38.1641H38.4217H38.4476V31.8965V28.8922V28.8405H38.4217H38.1641Z" fill="#778B8E"/>
<path d="M39.3241 31.6116V30.498H40.4068H40.4327V30.4721V30.239V30.2131H40.4068H39.3241V29.1512H40.4842H40.5357V29.1253V28.8922V28.8405H40.4842H39.0406H39.0146V28.8922V31.8965V31.9224H39.0406H40.5617H40.5873V31.8965L40.6132 31.6634V31.6116H40.5873H39.3241Z" fill="#778B8E"/>
<path d="M42.0825 30.239L41.8505 30.1354C41.464 29.9541 41.3865 29.7987 41.3865 29.5915C41.3865 29.3066 41.5929 29.1512 41.9794 29.1512C42.1599 29.1512 42.3404 29.1771 42.5467 29.2548L42.5982 29.2807V29.2289L42.6238 28.9699V28.944H42.5982C42.4178 28.8663 42.2114 28.8405 41.9794 28.8405C41.4125 28.8405 41.0515 29.1512 41.0515 29.6174C41.0515 30.0059 41.232 30.2131 41.6444 30.4462L41.8764 30.5756C42.2629 30.7829 42.3404 30.9382 42.3404 31.1454C42.3404 31.3008 42.2888 31.6634 41.696 31.6634C41.4896 31.6634 41.3091 31.6375 40.9741 31.508L40.9226 31.4821V31.5339V31.7929V31.8188H40.9482C41.1802 31.9224 41.4125 31.9741 41.67 31.9741C42.3919 31.9741 42.6498 31.508 42.6498 31.0936C42.7013 30.7051 42.5208 30.4462 42.0825 30.239Z" fill="#778B8E"/>
<path d="M47.1868 31.6116V30.498H48.2695H48.2954V30.4721V30.239V30.2131H48.2695H47.1868V29.1512H48.3469H48.3729V29.1253V28.8922V28.8405H48.3469H46.9033H46.8777V28.8922V31.8965V31.9224H46.9033H48.4244H48.45V31.8965L48.4759 31.6634V31.6116H48.4244H47.1868Z" fill="#778B8E"/>
<path d="M51.0795 28.8405H51.0536V28.8922V31.3526L49.3265 28.8663L49.3005 28.8405H49.0171H48.9915V28.8922V31.8965V31.9224H49.0171H49.2749H49.3005V31.8965V29.3843L51.028 31.8965L51.0536 31.9224H51.3115H51.363V31.8965V28.8922V28.8405H51.3115H51.0795Z" fill="#778B8E"/>
<path d="M51.7244 28.8405H51.6726V28.8922V29.1253V29.1512H51.7244H52.6267V31.8965V31.9224H52.6523H52.9102H52.9358V31.8965V29.1512H53.8381H53.8899V29.1253V28.8922V28.8405H53.864H51.7244Z" fill="#778B8E"/>
<path d="M58.1949 31.6116H56.9573V30.498H58.04H58.0659V30.4721V30.239V30.2131H58.04H56.9573V29.1512H58.1175H58.1434V29.1253V28.8922V28.8405H58.1175H56.6738H56.6482V28.8922V31.8965V31.9224H56.6738H58.1949H58.2205V31.8965L58.2464 31.6634V31.6116H58.1949Z" fill="#778B8E"/>
<path d="M32.802 28.8921C32.4152 28.8921 32.2347 28.8921 31.9512 28.8921V31.8704C32.2347 31.8704 32.5182 31.8704 32.8276 31.8704C33.7299 31.8704 34.3228 31.3007 34.3228 30.3165C34.3487 29.3583 33.6528 28.8921 32.802 28.8921ZM32.8535 31.6374C32.5956 31.6374 32.4152 31.6374 32.2091 31.6374V29.1511C32.3637 29.1511 32.4926 29.1511 32.7761 29.1511C33.4979 29.1511 34.0908 29.5137 34.0908 30.3683C34.0908 31.1712 33.601 31.6374 32.8535 31.6374Z" fill="#778B8E"/>
<path d="M17.6688 31.508V31.8448H17.643C17.6172 31.8448 17.5915 31.8705 17.5657 31.8705C17.3595 31.9484 17.1275 31.9741 16.8954 31.9741C15.9416 31.9741 15.3486 31.3526 15.3486 30.4203C15.3486 29.4361 15.9416 28.8405 16.8954 28.8405C17.1275 28.8405 17.3595 28.8663 17.5657 28.944V29.2807C17.3337 29.203 17.1017 29.1512 16.8954 29.1512C16.1478 29.1512 15.7095 29.6174 15.7095 30.4203C15.7095 31.0418 16.0963 31.6892 16.947 31.6892C17.0501 31.6892 17.3079 31.6634 17.5915 31.5857C17.6172 31.5857 17.6172 31.5857 17.643 31.5598L17.6688 31.508Z" fill="#778B8E"/>
<path d="M19.4478 28.8145C18.597 28.8145 17.9783 29.4619 17.9783 30.3684C17.9783 31.3007 18.5712 32 19.3962 32C20.2985 32 20.8914 31.3525 20.8914 30.3943C20.9172 29.436 20.3243 28.8145 19.4478 28.8145ZM19.4478 31.6633H19.422C18.8033 31.6633 18.3392 31.0935 18.3392 30.3166C18.3392 29.6173 18.8033 29.1253 19.4478 29.1253C20.1438 29.1253 20.6078 29.6173 20.6078 30.3943C20.582 31.1454 20.1438 31.6633 19.4478 31.6633Z" fill="#778B8E"/>
<path d="M56.2613 31.8964L55.3075 30.4979C55.359 30.4979 55.385 30.472 55.4365 30.472C55.4624 30.472 55.4624 30.472 55.488 30.4461C55.5139 30.4461 55.5395 30.4202 55.5654 30.4202C55.6169 30.3943 55.6428 30.3943 55.6428 30.3684C55.9263 30.213 56.0553 29.9799 56.0553 29.6432C56.0553 29.1253 55.6428 28.8145 54.9725 28.8145H54.3796V29.954V31.8964H54.6887V31.6374V30.5238C54.6887 30.5238 54.7921 30.5238 54.9466 30.5238V30.5497L55.8748 31.9224L56.2613 31.8964ZM54.6887 29.1253H54.8951C55.256 29.1253 55.72 29.2288 55.72 29.695C55.72 30.0317 55.488 30.2648 55.153 30.2648C54.9725 30.2648 54.7662 30.2648 54.6887 30.2648V29.1253Z" fill="#778B8E"/>
<path d="M62.9648 4.93603C62.9648 4.93603 61.2889 0.326076 57.8861 0.97354C56.3135 1.43972 56.7003 2.86414 57.4737 3.8742C58.1181 4.70294 59.0463 5.22093 59.0463 5.09144L58.8658 5.73888C58.8658 5.73888 56.0041 4.72886 55.798 2.19078C55.5917 -0.34729 59.4328 -0.632175 61.2633 1.18073C63.0934 2.99364 63.5833 4.78066 63.5833 4.78066L62.9648 4.93603Z" fill="#778B8E"/>
<path d="M61.3407 2.91588C61.3407 2.91588 58.1955 6.67119 60.464 9.31287C61.6501 10.4524 62.6811 9.41645 63.1709 8.22513C63.5577 7.26687 63.5318 6.17912 63.4288 6.25681L64.0732 6.10144C64.0732 6.10144 64.6405 9.07978 62.5524 10.5301C60.464 11.9804 58.2986 8.769 58.9689 6.25681C59.6392 3.74465 60.9283 2.44971 60.9283 2.44971L61.3407 2.91588Z" fill="#778B8E"/>
<path d="M60.6704 5.454C60.6704 5.454 65.5169 5.99788 66.4707 2.65693C66.7545 1.05121 65.3364 0.74043 64.0732 0.999418C63.042 1.20661 62.1656 1.82818 62.2946 1.85407L61.8047 1.4138C61.8047 1.4138 63.9702 -0.709896 66.3161 0.248357C68.6621 1.20661 67.1925 4.78061 64.7695 5.60938C62.3202 6.43815 60.5415 6.07557 60.5415 6.07557L60.6704 5.454Z" fill="#778B8E"/>
</g>
</g>
<defs>
<clipPath id="clip0_5_951">
<rect width="67" height="32" fill="white" transform="translate(0.5)"/>
</clipPath>
<clipPath id="clip1_5_951">
<rect width="67" height="32" fill="white" transform="translate(0.5)"/>
</clipPath>
</defs>
</svg>
