<svg width="62" height="32" viewBox="0 0 62 32" fill="none" xmlns="http://www.w3.org/2000/svg">
<g clip-path="url(#clip0_5_840)">
<g clip-path="url(#clip1_5_840)">
<path d="M30.5663 16.9547V11.0402H32.1488C32.7893 11.0402 33.3167 11.0402 33.7314 11.2285C34.5601 11.5676 35.2006 12.6224 35.2006 13.9786C35.2006 15.0711 34.7862 16.0128 34.1457 16.5026C33.6183 16.917 33.0906 16.917 32.0734 16.917H30.5663V16.9547ZM31.1314 16.4273H31.9981C32.4878 16.4273 33.166 16.4273 33.5429 16.2389C34.108 15.9752 34.6354 15.1464 34.6354 13.9786C34.6354 12.9614 34.2211 12.0196 33.5052 11.6806C33.2037 11.5676 32.8647 11.5676 32.1488 11.5676H31.1314V16.4273ZM39.3454 16.9547H38.8554V16.2389C38.8177 16.3142 38.78 16.4649 38.6672 16.6156C38.3657 16.9923 37.9136 17.0677 37.6121 17.0677C36.8585 17.0677 36.5195 16.5779 36.4065 16.3519C36.2557 16.0505 36.2557 15.6361 36.2557 14.9581V12.9991H36.7454V15.0711C36.7454 15.9375 36.7454 16.6156 37.6498 16.6156C37.8759 16.6156 38.2149 16.5779 38.4787 16.2766C38.8177 15.8998 38.8554 15.4855 38.8554 14.732V12.9991H39.3454V16.9547ZM41.0784 16.9547H40.5887V11.0402H41.0784V13.6395C41.38 13.0368 41.8697 12.8861 42.284 12.8861C43.3392 12.8861 43.942 13.8656 43.942 15.0334C43.942 15.9375 43.5653 17.03 42.3217 17.03C41.4554 17.03 41.1538 16.4273 41.0784 16.2389V16.9547ZM42.2087 13.3382C42.0582 13.3382 41.8697 13.3758 41.7189 13.4512C41.2292 13.7149 41.0784 14.3553 41.0784 14.9581C41.0784 16.0505 41.4931 16.6156 42.2463 16.6156C43.1884 16.6156 43.4145 15.7868 43.4145 15.0711C43.4522 13.9786 42.9622 13.3382 42.2087 13.3382ZM48.4258 16.9547C47.823 16.9547 47.4083 16.917 47.3706 16.3142V16.2389C47.3706 16.2766 47.3329 16.3142 47.3329 16.3142C47.1071 16.804 46.5417 17.03 45.9389 17.03C44.9594 17.03 44.6956 16.3519 44.6956 15.9375C44.6956 15.0334 45.6376 14.8074 46.8809 14.506L47.3706 14.393V14.2046C47.3706 13.9032 47.3706 13.3005 46.3912 13.3005C45.4114 13.3005 45.3737 13.8656 45.3361 14.2799L44.8086 14.2046C44.8463 14.0162 44.884 13.7526 45.0345 13.5265C45.3361 13.0744 45.8258 12.9238 46.3535 12.9238C46.8432 12.9238 47.5591 13.0368 47.7476 13.7149C47.7853 13.9032 47.7853 14.0916 47.7853 14.4683V15.7491C47.7853 16.4649 47.7853 16.6156 48.3881 16.6156V16.9547H48.4258ZM47.3706 14.845L47.1071 14.9204C46.5417 15.0711 46.3158 15.1464 46.1273 15.1841C45.6753 15.2971 45.1853 15.4478 45.1853 15.9375C45.1853 16.2389 45.4114 16.5779 45.9766 16.5779C46.3535 16.5779 46.7678 16.3896 47.0317 16.1259C47.3329 15.8245 47.3706 15.4855 47.3706 15.1087V14.845ZM49.5937 12.0196H49.104V11.2662H49.5937V12.0196ZM49.5937 16.9547H49.104V12.9614H49.5937V16.9547ZM35.1632 24.3007H34.5601L33.8819 22.5301H31.2445L30.5663 24.3007H29.9258L32.3373 18.4239H32.7893L35.1632 24.3007ZM33.6937 22.078L32.5632 19.0643L31.3952 22.078H33.6937ZM36.3311 19.4033H35.8413V18.6499H36.3311V19.4033ZM36.3311 24.3007H35.8413V20.3074H36.3311V24.3007ZM38.1018 24.3007H37.6121V20.3074H38.1018V20.9479C38.3657 20.4205 38.78 20.2321 39.27 20.2321C39.3831 20.2321 39.4582 20.2321 39.5336 20.2698V20.7219C39.3831 20.6842 39.3831 20.6842 39.2323 20.6842C39.0815 20.6842 38.7046 20.6842 38.4033 20.9856C38.1018 21.3246 38.1018 21.739 38.1018 22.5678V24.3007ZM40.2118 20.3074H40.7018V20.9856C40.7772 20.8349 40.8146 20.7595 40.9277 20.6088C41.1915 20.3451 41.5305 20.2321 41.8697 20.2321C43.1507 20.2321 43.5276 21.4753 43.5276 22.3041C43.5276 23.3965 42.9622 24.376 41.8697 24.376C41.3423 24.376 40.89 24.15 40.6641 23.6226V26.3726H40.1741L40.2118 20.3074ZM40.7395 23.0575C40.89 23.6979 41.3423 23.924 41.7943 23.924C42.7741 23.924 43.0376 22.9068 43.0376 22.2664C43.0376 21.3999 42.661 20.6842 41.7943 20.6842C40.7018 20.6842 40.7018 21.8897 40.6641 22.2664C40.7018 22.5301 40.7018 22.7938 40.7395 23.0575ZM45.9012 24.4137C44.7332 24.4137 44.0927 23.5096 44.0927 22.3794C44.0927 21.3623 44.6202 20.2321 45.9012 20.2321C47.1445 20.2321 47.7099 21.2493 47.7099 22.3041C47.7476 23.5096 47.0317 24.4137 45.9012 24.4137ZM45.9389 20.6465C45.5999 20.6465 45.2607 20.7972 45.0345 21.0609C44.6956 21.4753 44.6579 22.0404 44.6579 22.3794C44.6579 23.5096 45.223 23.9616 45.9389 23.9616C46.8055 23.9616 47.2199 23.2835 47.2199 22.3418C47.2199 22.1157 47.2199 20.6465 45.9389 20.6465ZM49.0663 24.3007H48.5762V20.3074H49.0663V20.9479C49.3298 20.4205 49.7445 20.2321 50.2342 20.2321C50.3473 20.2321 50.4226 20.2321 50.498 20.2698V20.7219C50.3473 20.6842 50.3473 20.6842 50.1965 20.6842C50.0457 20.6842 49.6691 20.6842 49.3675 20.9856C49.0663 21.3246 49.0663 21.739 49.0663 22.5678V24.3007ZM52.1557 23.4719C52.1557 23.8486 52.3064 23.9616 52.4949 23.9616C52.6834 23.9616 52.8716 23.8486 53.06 23.6979V24.1877C52.8716 24.3384 52.6834 24.376 52.4195 24.376C51.7036 24.376 51.7036 23.9616 51.7036 23.2082V20.7219H50.8747V20.3074H51.7036V18.6122H52.1934V20.3074H53.06V20.7219H52.1557V23.4719ZM31.0937 31.6466H30.5663V25.7699H34.4096V26.2596H31.0937V28.2562H34.0703V28.746H31.0937V31.6466ZM35.5398 31.6466H35.0501V27.6911H35.5398V28.3316C35.8036 27.8042 36.218 27.6158 36.7077 27.6158C36.8208 27.6158 36.8962 27.6158 36.9716 27.6535V28.1056C36.8208 28.0679 36.8208 28.0679 36.67 28.0679C36.5195 28.0679 36.1426 28.0679 35.8413 28.3693C35.5398 28.7083 35.5398 29.1226 35.5398 29.9515V31.6466ZM41.003 30.5918C40.9276 30.7425 40.8523 30.9685 40.6264 31.1946C40.5133 31.3076 40.1364 31.7596 39.27 31.7596C37.9513 31.7596 37.3859 30.7425 37.3859 29.6502C37.3859 28.3316 38.2526 27.6158 39.2323 27.6158C40.4379 27.6158 41.0407 28.6706 41.0407 29.6877H37.9513C37.9513 29.9137 37.9513 30.2153 38.0641 30.5165C38.3656 31.3453 39.1192 31.3453 39.3077 31.3453C39.7597 31.3453 40.2495 31.1946 40.5887 30.5165L41.003 30.5918ZM40.4379 29.2734C40.4002 28.9344 40.2871 28.5953 40.0236 28.3316C39.8728 28.1809 39.609 28.0302 39.1946 28.0302C38.5164 28.0302 38.0264 28.5199 37.9136 29.2734H40.4379ZM45.3737 30.5918C45.2984 30.7425 45.223 30.9685 44.9971 31.1946C44.884 31.3076 44.5071 31.7596 43.6404 31.7596C42.3217 31.7596 41.7566 30.7425 41.7566 29.6502C41.7566 28.3316 42.6233 27.6158 43.603 27.6158C44.8086 27.6158 45.4114 28.6706 45.4114 29.6877H42.3217C42.3217 29.9137 42.3217 30.2153 42.4348 30.5165C42.7364 31.3453 43.4899 31.3453 43.6781 31.3453C44.1304 31.3453 44.6202 31.1946 44.9594 30.5165L45.3737 30.5918ZM44.8086 29.2734C44.7709 28.9344 44.6579 28.5953 44.394 28.3316C44.2435 28.1809 43.942 28.0302 43.5653 28.0302C42.8871 28.0302 42.3971 28.5199 42.284 29.2734H44.8086ZM48.8401 31.6466H45.9389V31.3453L48.0865 28.1056H46.1273V27.6911H48.8024V27.9925L46.6547 31.2323H48.8778V31.6466H48.8401ZM51.1762 31.7596C50.008 31.7596 49.3675 30.8555 49.3675 29.7255C49.3675 28.7083 49.8952 27.5781 51.1762 27.5781C52.4195 27.5781 52.9846 28.5953 52.9846 29.6502C52.9846 30.8555 52.3065 31.7596 51.1762 31.7596ZM51.2139 27.9925C50.8747 27.9925 50.5357 28.1432 50.3096 28.4069C49.9703 28.8213 49.9329 29.3864 49.9329 29.7255C49.9329 30.8555 50.5357 31.3076 51.2139 31.3076C52.0803 31.3076 52.4949 30.6295 52.4949 29.6877C52.4572 29.4994 52.4949 27.9925 51.2139 27.9925ZM56.9784 31.6466H56.4887V29.5747C56.4887 28.7836 56.4887 28.5576 56.3379 28.3693C56.2251 28.2186 55.999 28.0302 55.5469 28.0302C55.0946 28.0302 54.831 28.2186 54.6049 28.4823C54.341 28.8213 54.341 29.0849 54.341 29.9137V31.6466H53.8513V27.6911H54.341V28.4069C54.4918 27.9925 54.8685 27.6158 55.5843 27.6158C55.8105 27.6158 56.3379 27.6535 56.6772 28.1056C56.941 28.4446 56.941 28.7836 56.941 29.6502V31.6466H56.9784ZM61.4622 30.5918C61.3868 30.7425 61.3114 30.9685 61.0856 31.1946C60.9725 31.3076 60.5955 31.7596 59.7292 31.7596C58.4102 31.7596 57.8451 30.7425 57.8451 29.6502C57.8451 28.3316 58.7117 27.6158 59.6915 27.6158C60.8971 27.6158 61.4999 28.6706 61.4999 29.6877H58.4102C58.4102 29.9137 58.4102 30.2153 58.5233 30.5165C58.8248 31.3453 59.5784 31.3453 59.7669 31.3453C60.1812 31.3453 60.7086 31.1946 61.0479 30.5165L61.4622 30.5918ZM60.8971 29.2734C60.8594 28.9344 60.7463 28.5953 60.4828 28.3316C60.332 28.1809 60.0304 28.0302 59.6538 28.0302C58.9756 28.0302 58.4856 28.5199 58.3728 29.2734H60.8971Z" fill="#778B8E"/>
<path d="M8.60076 22.0021H12.9714C13.9887 22.0021 15.2321 22.0398 16.1364 22.9816C16.5885 23.4713 16.8899 24.2624 16.8899 25.1289C16.8899 27.0878 15.5712 27.5399 14.893 27.8036L17.116 31.646H14.4408L12.5193 28.1803H11.0122V31.646H8.60076V22.0021ZM11.0122 23.8104V26.4097H13.0091C13.3482 26.4097 14.4785 26.372 14.4785 25.0912C14.4785 23.848 13.5743 23.8104 13.0845 23.8104H11.0122ZM13.838 0.114698V5.50178C13.838 6.44359 13.8003 7.34772 13.2728 8.25185C12.2179 9.90942 10.0702 10.0224 9.65574 10.0224C8.93986 10.0224 8.07328 9.83406 7.39506 9.495C5.54886 8.55322 5.54886 6.82029 5.54886 5.53946V0.114698H7.99792V6.14221C7.99792 6.63196 7.99792 7.04634 8.1863 7.34772C8.48774 7.83743 9.12826 7.98812 9.7311 7.98812C11.3889 7.98812 11.3889 6.85797 11.3889 6.10453V0.0770264L13.838 0.114698ZM2.91139 20.7212H0.5V11.0396H2.91139V20.7212ZM13.951 11.0396H17.8696C19.452 11.0396 20.8838 11.0396 21.7127 12.2451C22.0895 12.8101 22.2779 13.5636 22.2779 14.2417C22.2779 14.7691 22.1648 15.2965 21.9388 15.7486C21.1098 17.4815 19.339 17.5191 18.0203 17.5568H16.4001V20.7212H13.9887V11.0396H13.951ZM16.2117 12.8478V15.7862H17.6812C18.5854 15.7862 19.6781 15.7486 19.6781 14.2794C19.6781 12.8855 18.4724 12.8855 17.7565 12.8855L16.2117 12.8478ZM27.8165 6.51892H26.6108C26.8369 5.80316 27.6658 2.94011 27.8165 2.45036V0.114698H26.6108L23.0314 9.79638H25.5935L26.0834 8.25185H27.8542V6.51892H27.8165ZM27.8165 22.0021H25.4805V31.6838H27.8165V22.0021Z" fill="#778B8E"/>
<path d="M14.893 0.114868H18.6231C19.6404 0.114868 20.5447 0.15254 21.1475 0.340899C22.3532 0.71762 22.8054 1.65942 22.8054 2.60122C22.8054 3.12863 22.6546 3.43001 22.617 3.54302C22.1648 4.52247 21.2606 4.71084 20.7331 4.82385C21.3359 4.93689 22.0895 5.0499 22.6546 5.65265C22.9937 6.02936 23.1822 6.55678 23.1822 7.12185C23.1822 7.8753 22.7677 8.93011 21.562 9.45751C20.8461 9.75889 20.0549 9.79657 18.9622 9.79657H14.893V0.114868ZM17.0783 1.92312V3.91972H18.8869C19.452 3.91972 20.3186 3.88207 20.3186 2.86492C20.3186 1.92312 19.5274 1.88545 19.0376 1.88545L17.0783 1.92312ZM17.0783 5.6903V8.02598H18.7738C19.5651 8.02598 20.62 7.98831 20.62 6.85816C20.62 5.69033 19.6781 5.6903 19.1506 5.65265H17.0783V5.6903ZM4.38083 11.0397H8.75148C9.76877 11.0397 11.0122 11.0774 11.9164 12.0192C12.3686 12.5089 12.67 13.3 12.67 14.1665C12.67 16.1254 11.3513 16.5775 10.6731 16.8412L12.8961 20.7214H10.2209L8.29933 17.2556H6.79223V20.7214H4.38083V11.0397ZM6.64151 12.848V15.4474H8.63843C8.97756 15.4474 10.1079 15.4097 10.1079 14.1288C10.1079 12.8857 9.2036 12.848 8.71379 12.848H6.64151ZM7.73416 22.0023V23.8482H2.91139V25.8825H7.3574V27.7661H2.91139V31.6841H0.5V22.0023H7.73416ZM17.7565 22.0023H24.1994V23.8859H20.1679V25.6565H23.898V27.5024H20.1679V29.8004H24.6139V31.7216H17.7565V22.0023ZM3.32585 1.24503C2.53461 0.529261 1.44195 0.265556 0.5 0.190212V2.33751C0.952136 2.37519 1.44195 2.52587 1.81873 3.01562C2.27086 3.61837 2.30854 4.29646 2.30854 4.97454C2.30854 6.89581 1.44195 7.46091 0.5 7.6116V9.75889C1.74337 9.68356 3.7403 9.23149 4.49385 6.74512C4.6069 6.33073 4.75762 5.72798 4.75762 4.89921C4.71993 3.50534 4.34317 2.14915 3.32585 1.24503ZM27.8165 18.9508C26.6862 18.9508 25.4051 18.0844 25.4051 15.7864C25.4051 14.0158 26.3471 12.735 27.8165 12.735V10.7383C24.6893 10.7383 23.0314 13.2247 23.0314 15.8241C23.0314 18.6118 24.7646 20.9475 27.8165 20.9851V18.9508Z" fill="#778B8E"/>
</g>
</g>
<defs>
<clipPath id="clip0_5_840">
<rect width="61" height="32" fill="white" transform="translate(0.5)"/>
</clipPath>
<clipPath id="clip1_5_840">
<rect width="61" height="32" fill="white" transform="translate(0.5)"/>
</clipPath>
</defs>
</svg>
