<svg width="77" height="28" viewBox="0 0 77 28" fill="none" xmlns="http://www.w3.org/2000/svg">
<rect x="9.80469" y="19.6231" width="4.9021" height="4.90579" fill="#2E706A"/>
<rect x="4.90234" y="19.6231" width="4.9021" height="4.90579" fill="#2E706A"/>
<path d="M14.707 24.5289L14.707 19.6231L17.1581 22.076L19.6091 24.5289L14.707 24.5289Z" fill="#2E706A"/>
<path d="M24.5098 19.6231L24.5098 24.5289L22.0587 22.076L19.6077 19.6231L24.5098 19.6231Z" fill="#2E706A"/>
<rect y="9.81157" width="4.9021" height="4.90579" fill="#2E706A"/>
<rect y="14.7174" width="4.9021" height="4.90579" fill="#2E706A"/>
<path d="M0 4.90578L2.45105 7.35868L4.9021 9.81157H0V4.90578Z" fill="#2E706A"/>
<path d="M4.90234 4.90578L2.45129 2.45289L0.000242185 -9.05715e-07L4.90234 -4.76837e-07L4.90234 4.90578Z" fill="#2E706A"/>
<rect x="4.90234" width="4.9021" height="4.90579" fill="#2E706A"/>
<rect x="9.80469" width="4.9021" height="4.90579" fill="#2E706A"/>
<rect x="14.707" width="4.9021" height="4.90579" fill="#2E706A"/>
<rect x="19.6094" y="4.90578" width="4.9021" height="4.90579" fill="#2E706A"/>
<rect x="19.6094" y="9.81157" width="4.9021" height="4.90579" fill="#2E706A"/>
<rect x="19.6094" y="14.7174" width="4.9021" height="4.90579" fill="#2E706A"/>
<path d="M23.2841 2.45289C23.1158 2.45289 22.9573 2.42151 22.8088 2.35874C22.6602 2.29432 22.5298 2.20595 22.4176 2.09363C22.3053 1.97966 22.217 1.84917 22.1527 1.70216C22.09 1.5535 22.0586 1.3941 22.0586 1.22397C22.0586 1.05549 22.09 0.897742 22.1527 0.750734C22.217 0.602074 22.3053 0.471583 22.4176 0.359262C22.5298 0.246941 22.6602 0.159397 22.8088 0.0966292C22.9573 0.0322097 23.1158 0 23.2841 0C23.4541 0 23.6126 0.0322097 23.7595 0.0966292C23.908 0.159397 24.0384 0.246941 24.1507 0.359262C24.2629 0.471583 24.3504 0.602074 24.4131 0.750734C24.4775 0.897742 24.5096 1.05549 24.5096 1.22397C24.5096 1.3941 24.4775 1.5535 24.4131 1.70216C24.3504 1.84917 24.2629 1.97966 24.1507 2.09363C24.0384 2.20595 23.908 2.29432 23.7595 2.35874C23.6126 2.42151 23.4541 2.45289 23.2841 2.45289ZM23.2866 2.1308C23.4516 2.1308 23.6027 2.0895 23.7397 2.00691C23.8767 1.92432 23.9856 1.81448 24.0665 1.67738C24.149 1.54028 24.1903 1.38915 24.1903 1.22397C24.1903 1.05714 24.149 0.905175 24.0665 0.768078C23.9856 0.63098 23.8767 0.521962 23.7397 0.441025C23.6027 0.360088 23.4516 0.319619 23.2866 0.319619C23.1199 0.319619 22.968 0.360088 22.831 0.441025C22.6941 0.521962 22.5843 0.63098 22.5018 0.768078C22.4209 0.905175 22.3804 1.05714 22.3804 1.22397C22.3804 1.38915 22.4209 1.54028 22.5018 1.67738C22.5843 1.81448 22.6941 1.92432 22.831 2.00691C22.968 2.0895 23.1199 2.1308 23.2866 2.1308ZM22.8781 1.79879V0.639239H23.3782C23.4904 0.639239 23.5829 0.675578 23.6555 0.748256C23.7281 0.819283 23.7653 0.909305 23.7669 1.01832C23.7669 1.08605 23.7487 1.15129 23.7124 1.21406C23.6778 1.27517 23.6258 1.32308 23.5565 1.35776L23.7743 1.79879H23.5466L23.351 1.39493H23.0786V1.79879H22.8781ZM23.0786 1.20662H23.3807C23.4302 1.20662 23.4723 1.18846 23.5069 1.15212C23.5433 1.11578 23.5614 1.07118 23.5614 1.01832C23.5614 0.958858 23.5441 0.912608 23.5094 0.879573C23.4748 0.846537 23.4318 0.830019 23.3807 0.830019H23.0786V1.20662Z" fill="#142528"/>
<path d="M65.2754 21.0546L69.7867 14.9524L65.3759 8.98428H68.1452L71.149 13.1307L74.1194 8.98428H76.8887L72.4779 14.9524L77.0004 21.0546H74.2199L71.149 16.7741L68.0559 21.0546H65.2754Z" fill="#142528"/>
<path d="M61.8223 4.71283V2.79192H64.1561V4.71283H61.8223ZM61.8223 21.0546V8.98426H64.1561V21.0546H61.8223Z" fill="#142528"/>
<path d="M47.698 21.0546V6.72596C47.698 6.42047 47.7092 6.09636 47.7315 5.75362C47.7539 5.40343 47.8172 5.0607 47.9214 4.72541C48.033 4.38267 48.2154 4.06973 48.4685 3.7866C48.7738 3.45131 49.1088 3.21289 49.4735 3.07132C49.8383 2.92976 50.1994 2.8478 50.5567 2.82544C50.9215 2.80309 51.2565 2.79192 51.5617 2.79192H53.0804V4.71423H51.6734C51.1225 4.71423 50.7093 4.85207 50.4339 5.12775C50.1659 5.39598 50.0319 5.7797 50.0319 6.27891V21.0546H47.698ZM45.6992 10.8619V8.98426H53.0804V10.8619H45.6992ZM55.001 21.0546V6.72596C55.001 6.42047 55.0122 6.09636 55.0345 5.75362C55.0568 5.40343 55.1201 5.0607 55.2243 4.72541C55.336 4.38267 55.5184 4.06973 55.7715 3.7866C56.0767 3.45131 56.4117 3.21289 56.7765 3.07132C57.1413 2.92976 57.5023 2.8478 57.8597 2.82544C58.2244 2.80309 58.5594 2.79192 58.8647 2.79192H60.3833V4.71423H58.9763C58.4254 4.71423 58.0123 4.85207 57.7368 5.12775C57.4688 5.39598 57.3348 5.7797 57.3348 6.27891V21.0546H55.001ZM53.0022 10.8619V8.98426H60.3833V10.8619H53.0022Z" fill="#142528"/>
<path d="M37.665 21.3899C36.057 21.3899 34.6873 21.0397 33.5557 20.3393C32.4241 19.6315 31.5569 18.648 30.9539 17.3888C30.3583 16.1296 30.0605 14.6692 30.0605 13.0077C30.0605 11.3462 30.3583 9.88581 30.9539 8.62662C31.5569 7.36743 32.4241 6.38764 33.5557 5.68726C34.6873 4.97943 36.057 4.62552 37.665 4.62552C39.2656 4.62552 40.6316 4.97943 41.7632 5.68726C42.9022 6.38764 43.7694 7.36743 44.365 8.62662C44.9605 9.88581 45.2583 11.3462 45.2583 13.0077C45.2583 14.6692 44.9605 16.1296 44.365 17.3888C43.7694 18.648 42.9022 19.6315 41.7632 20.3393C40.6316 21.0397 39.2656 21.3899 37.665 21.3899ZM37.665 19.1658C38.804 19.1807 39.7495 18.9311 40.5013 18.417C41.2607 17.8955 41.8302 17.1727 42.2098 16.2488C42.5895 15.3175 42.7793 14.2371 42.7793 13.0077C42.7793 11.7783 42.5895 10.7054 42.2098 9.78895C41.8302 8.86505 41.2607 8.14604 40.5013 7.63193C39.7495 7.11782 38.804 6.85704 37.665 6.84959C36.526 6.83469 35.5769 7.0843 34.8175 7.5984C34.0656 8.11251 33.4999 8.83524 33.1202 9.7666C32.7405 10.698 32.547 11.7783 32.5395 13.0077C32.5321 14.2371 32.7182 15.3137 33.0979 16.2376C33.4775 17.1541 34.047 17.8694 34.8064 18.3835C35.5731 18.8976 36.526 19.1584 37.665 19.1658Z" fill="#142528"/>
</svg>
