<svg width="35" height="32" viewBox="0 0 35 32" fill="none" xmlns="http://www.w3.org/2000/svg">
<g clip-path="url(#clip0_5_481)">
<g clip-path="url(#clip1_5_481)">
<path d="M17.5 31.8798L34.5 24.9105V0.0827637H0.5V24.9105L17.5 31.8798ZM19.0404 3.0253C19.0744 3.12097 19.0659 4.17336 19.0276 4.79523C18.9894 5.36924 18.9426 5.48231 18.6793 5.62147C18.5433 5.69105 18.3394 5.6954 15.8073 5.6867L13.0798 5.67365L12.9863 5.57798L12.8928 5.48666L12.7696 5.57798C12.6507 5.6693 12.5954 5.67365 11.5885 5.6867C10.4245 5.69975 10.5307 5.67367 10.4627 5.97806C10.416 6.19985 10.2673 6.39554 10.0846 6.48251C9.95288 6.5434 9.80843 6.56514 9.47704 6.56514H9.03945V6.30422V6.04329H9.30711C9.7617 6.04329 9.97412 5.93893 9.97412 5.72151C9.97412 5.66497 9.9189 5.65191 9.68948 5.65191C9.31986 5.65191 9.10744 5.53449 8.96723 5.26489C8.83553 5.00832 8.83128 4.5517 8.95448 4.30382C9.23064 3.75154 10.0081 3.68631 10.3692 4.18641C10.4287 4.26469 10.4669 4.42124 10.4967 4.7126L10.5434 5.13008H11.5078C12.332 5.13008 12.485 5.12138 12.5402 5.0605C12.5912 5.00832 12.6082 4.8996 12.6082 4.61258C12.6082 4.40384 12.6167 4.2212 12.6252 4.2125C12.6337 4.2038 12.7484 4.2038 12.8801 4.20815L13.118 4.22555V4.62563C13.118 4.87785 13.135 5.04309 13.169 5.07788C13.2072 5.11702 13.5811 5.13008 14.5965 5.13008H15.9687L15.939 4.92134C15.8965 4.61258 15.8158 4.44298 15.6968 4.41254C15.6076 4.38645 15.3654 4.42994 15.1785 4.50386C15.1403 4.52126 15.0808 4.45168 15.0128 4.31252L14.9024 4.09509L15.1233 3.98202C15.2932 3.89504 15.4079 3.86895 15.6246 3.86895C16.1302 3.86895 16.3469 4.09074 16.4233 4.68651C16.4488 4.86046 16.4913 5.03441 16.5168 5.0692C16.5976 5.16487 18.3946 5.16052 18.4881 5.0605C18.5476 5.00397 18.5561 4.84306 18.5561 3.97332V2.95572H18.7854C18.9554 2.95572 19.0191 2.97312 19.0404 3.0253ZM19.9156 4.32557V5.69541H19.6819H19.4483V4.32557V2.95572H19.6819H19.9156V4.32557ZM25.2517 3.86895H25.3537V4.49952V5.13008H26.182H27.0105L27.0785 5.02571C27.1125 4.96483 27.1422 4.87351 27.138 4.81697C27.1337 4.76044 27.1295 4.53431 27.1337 4.31252L27.138 3.90809L27.3844 3.92114L27.6265 3.93418L27.618 4.53431C27.6095 5.017 27.5884 5.17357 27.5245 5.32577C27.3802 5.66061 27.3334 5.67365 26.0037 5.6867L24.8438 5.69975V5.04311V4.38645L24.7122 4.40819C24.6398 4.41689 24.5677 4.43863 24.555 4.45603C24.538 4.47342 24.521 4.75609 24.5125 5.09094L24.4955 5.69975L23.068 5.6693C21.8231 5.64321 21.615 5.63017 21.4875 5.56494C21.1816 5.40403 21.067 5.16052 21.0626 4.63867V4.29947L21.3091 4.31252L21.5513 4.32557L21.5768 4.60823C21.6023 4.92134 21.6361 5.02571 21.7211 5.0605C21.7721 5.0779 23.0807 5.09529 23.7945 5.09094L23.9942 5.08659V4.85176C23.9942 4.06464 24.232 3.79937 24.9033 3.85156C25.0392 3.86025 25.2007 3.86895 25.2517 3.86895ZM30.6176 3.94723C30.9149 4.09509 30.9404 4.18206 30.9404 4.96918C30.9404 5.66932 30.9404 5.66932 30.8469 5.66497C30.7918 5.66497 30.1374 5.66061 29.3897 5.65626L28.0302 5.65191V5.391V5.13008H29.2411H30.4518V4.85611C30.4518 4.49082 30.3839 4.3908 30.1289 4.3908C30.0227 4.3908 29.8826 4.42124 29.8102 4.45603L29.6871 4.52561L29.5596 4.32122C29.4917 4.20815 29.4449 4.10378 29.4534 4.08639C29.4874 4.0342 29.7806 3.89939 29.9421 3.8646C30.1459 3.82112 30.4391 3.85591 30.6176 3.94723ZM8.47441 4.74739C8.44466 5.30836 8.38944 5.46926 8.20251 5.59538C8.09629 5.66496 7.94334 5.67365 6.49037 5.67365C5.61517 5.67365 4.82496 5.65626 4.73999 5.63886C4.55306 5.59973 4.34912 5.43447 4.25142 5.2475C4.21317 5.16487 4.17493 4.95611 4.1622 4.73L4.14095 4.34731H4.40435H4.66351V4.61258C4.66351 4.84741 4.67626 4.8909 4.78673 5.00397L4.90993 5.13008H6.39265C7.48876 5.13008 7.88812 5.11702 7.92635 5.07788C7.96034 5.04309 7.97734 4.87785 7.97734 4.62563V4.2212L8.20251 4.20815C8.32146 4.19945 8.44041 4.2038 8.46166 4.2125C8.48289 4.2212 8.48715 4.45603 8.47441 4.74739ZM25.838 8.64383C26.182 9.38311 26.9595 11.0487 27.6479 12.5229C27.9112 13.0839 28.2086 13.7275 28.3106 13.9493L28.4976 14.3493L27.601 14.3406L26.7089 14.3276L26.5687 14.0014L26.4327 13.6753L25.3918 13.6622L24.351 13.6536L24.1938 14.0014L24.0408 14.3493H23.17H22.299L22.915 13.0534C25.4429 7.74799 25.3153 8.00022 25.4343 8.00022C25.5364 8.00457 25.5745 8.0611 25.838 8.64383ZM6.95346 8.222C8.17701 8.42204 9.05645 9.20046 9.36659 10.3485C9.47279 10.7443 9.47279 11.7358 9.36659 12.1315C9.14142 12.9752 8.61885 13.6536 7.93485 13.9928C7.28908 14.3145 7.25509 14.3189 5.48347 14.3406L3.89878 14.3537V11.2661V8.17417H5.29228C6.05701 8.17417 6.80475 8.19591 6.95346 8.222ZM12.1493 10.205L12.1621 12.2402L12.2853 12.4707C12.57 12.9969 13.237 13.1143 13.6703 12.7142C13.9635 12.4403 13.9677 12.4142 13.9677 10.1659V8.17417H14.8811H15.7945V10.1702C15.7945 12.4098 15.7775 12.5707 15.5141 13.123C15.221 13.7405 14.6772 14.1667 13.9252 14.3754C13.5428 14.4841 12.5742 14.4841 12.1621 14.3798C11.2784 14.1537 10.7049 13.6231 10.4287 12.7838C10.3395 12.5098 10.3395 12.4229 10.3225 10.3355L10.3098 8.17417H11.2232H12.1366L12.1493 10.205ZM20.6888 8.29593C21.0116 8.43074 21.3686 8.76559 21.5173 9.0787C21.6235 9.30048 21.6363 9.37441 21.6363 9.73971C21.632 10.2311 21.5598 10.4268 21.2538 10.7747C21.1435 10.9008 21.0585 11.0095 21.067 11.0139C21.0755 11.0226 21.1943 11.0965 21.3303 11.1878C22.0058 11.6357 22.2098 12.5185 21.8231 13.3361C21.6786 13.6405 21.3473 13.9797 21.0415 14.1319C20.6251 14.3363 20.5104 14.3493 18.6538 14.3493H16.8992V11.2618V8.16982L18.6751 8.18286C20.4169 8.19591 20.4509 8.19591 20.6888 8.29593ZM30.9616 11.2618V14.3493H30.0482H29.1347V11.2618V8.17417H30.0482H30.9616V11.2618ZM6.70279 16.0888C6.90247 16.1323 7.16163 16.2019 7.27633 16.2497L7.48876 16.3323L7.5015 17.015L7.51425 17.7021L7.33156 17.6065C6.73252 17.2933 5.95081 17.1673 5.58969 17.3194C5.41125 17.3977 5.3815 17.4369 5.37727 17.6196C5.37302 17.8065 5.50047 17.9022 6.16748 18.2066C7.14038 18.6459 7.56098 19.0025 7.7649 19.5547C7.89662 19.9157 7.87537 20.4853 7.71393 20.8376C7.42503 21.4768 6.81325 21.8117 5.85309 21.8595C5.27955 21.8856 4.66351 21.803 4.16643 21.6334C3.60564 21.442 3.64388 21.5073 3.64388 20.6766C3.64388 20.281 3.66088 19.9592 3.68211 19.9592C3.70336 19.9592 3.7416 19.9853 3.76708 20.0156C3.84781 20.1157 4.45534 20.3896 4.81221 20.481C5.2838 20.6071 5.98054 20.6028 5.98054 20.4723C5.98054 20.4505 5.99754 20.4418 6.01878 20.4549C6.08676 20.4984 6.20996 20.3027 6.20996 20.1548C6.20996 19.907 6.00179 19.7331 5.30078 19.3807C4.38312 18.9242 4.06448 18.6807 3.86055 18.2719C3.60989 17.7674 3.69911 17.0716 4.06873 16.6368C4.59129 16.0279 5.50897 15.8366 6.70279 16.0888ZM12.3278 16.1106C13.6321 16.4758 14.435 17.5587 14.435 18.9329C14.435 19.7982 14.2056 20.368 13.6278 20.9637C13.0288 21.5769 12.3873 21.8334 11.4399 21.8421C10.8196 21.8421 10.4202 21.7596 9.95288 21.5334C9.03095 21.0812 8.47866 20.2201 8.41493 19.1372C8.32146 17.5935 9.31561 16.328 10.8493 16.0453C11.1467 15.9888 12.0346 16.0279 12.3278 16.1106ZM25.3537 16.7411V17.3934H24.6102H23.8667V19.5678V21.7422H23.0382H22.2098V19.5678V17.3934H21.4663H20.7228V16.7411V16.0888H23.0382H25.3537V16.7411ZM16.7717 17.9675C16.7717 19.6635 16.7802 19.82 16.8524 19.9809C17.1752 20.7027 18.1779 20.6158 18.3819 19.8504C18.4116 19.7373 18.4286 19.0502 18.4286 17.9022V16.1323H19.2571H20.0854V17.9501C20.0854 19.9853 20.0684 20.1548 19.7796 20.7114C19.3846 21.4725 18.6623 21.8421 17.5789 21.8421C16.2534 21.8421 15.4802 21.316 15.1743 20.1983C15.1148 19.9766 15.0978 19.6504 15.0851 18.0979C15.0723 17.089 15.0723 16.2323 15.0893 16.1975C15.1063 16.141 15.2465 16.1323 15.9432 16.1323H16.7717V17.9675ZM27.6479 17.1542V18.1762H28.4677H29.2834L29.2707 17.1542L29.2537 16.1323H30.1077H30.9616V18.9372V21.7422H30.1119H29.2581L29.2622 20.6202L29.2666 19.5025L28.4592 19.4895L27.6479 19.4808V20.6115V21.7422H26.8194H25.9909V18.9372V16.1323H26.8194H27.6479V17.1542Z" fill="#778B8E"/>
<path d="M9.59647 4.51142C9.44772 4.56361 9.38397 4.67668 9.37972 4.85932C9.37972 5.10285 9.49447 5.19852 9.78347 5.19852H10.0172V4.98543C10.0172 4.86802 10.0002 4.72016 9.97897 4.66363C9.92797 4.53317 9.73672 4.45489 9.59647 4.51142ZM25.1344 11.926C24.9984 12.2347 24.8923 12.4957 24.8923 12.5131C24.8923 12.5305 25.1218 12.5392 25.4023 12.5392C25.8443 12.5348 25.9123 12.5218 25.891 12.4652C25.7719 12.1521 25.4234 11.3737 25.4023 11.3737C25.3853 11.3737 25.2663 11.6216 25.1344 11.926ZM5.7247 11.2563C5.7247 12.1521 5.71195 12.9218 5.69495 12.9653C5.66945 13.0349 5.6992 13.0393 6.11995 13.0132C7.26745 12.9392 7.71795 12.4043 7.6712 11.178C7.6542 10.7692 7.63295 10.6605 7.53095 10.43C7.3992 10.13 7.1442 9.856 6.88495 9.73858C6.7787 9.69075 6.5577 9.66031 6.2262 9.64291L5.7247 9.62552V11.2563ZM18.6829 9.98211C18.6788 10.1952 18.6788 10.4257 18.6744 10.4909L18.6703 10.6127L19.0484 10.6257C19.2609 10.6344 19.5033 10.617 19.5883 10.5909C19.9069 10.4953 20.0514 10.1517 19.8984 9.85165C19.7923 9.64291 19.6393 9.59073 19.1334 9.59073H18.6873L18.6829 9.98211ZM18.6873 12.4391V13.0262H19.2398C19.9028 13.0262 20.0728 12.974 20.2088 12.7262C20.3234 12.5218 20.3278 12.3565 20.2258 12.1608C20.0983 11.9042 19.9409 11.8521 19.2738 11.8521H18.6873V12.4391ZM10.948 17.5619C10.6462 17.6923 10.5017 17.8054 10.3317 18.0489C10.1235 18.3491 10.047 18.6622 10.0682 19.1058C10.0895 19.5536 10.2127 19.8711 10.4805 20.1711C10.7312 20.4494 11.016 20.5669 11.441 20.5669C11.7045 20.5669 11.832 20.5451 12.002 20.4668C12.8307 20.0928 13.09 18.7621 12.4907 17.962C12.2612 17.6533 11.9467 17.4967 11.5132 17.4749C11.2412 17.4619 11.1477 17.4749 10.948 17.5619Z" fill="#778B8E"/>
</g>
</g>
<defs>
<clipPath id="clip0_5_481">
<rect width="34" height="32" fill="white" transform="translate(0.5)"/>
</clipPath>
<clipPath id="clip1_5_481">
<rect width="34" height="32" fill="white" transform="translate(0.5)"/>
</clipPath>
</defs>
</svg>
