<svg width="126" height="32" viewBox="0 0 126 32" fill="none" xmlns="http://www.w3.org/2000/svg">
<g clip-path="url(#clip0_5_615)">
<g clip-path="url(#clip1_5_615)">
<path d="M13.4451 0.274393C11.524 0.602645 9.03782 1.61265 7.40551 2.72365C4.96956 4.39015 2.9731 6.80153 1.78024 9.52852C1.36588 10.4502 0.712949 12.6974 0.8134 12.7984C0.838512 12.8363 1.16498 12.6469 1.54167 12.407C3.03588 11.4096 4.74354 11.0814 6.43864 11.4854C8.29702 11.9273 9.4522 12.8237 11.6496 15.5254C13.6837 18.0504 14.6129 18.6059 16.5717 18.4671C18.2416 18.3535 19.1457 17.7222 20.9664 15.4118C23.4776 12.2303 25.2732 11.1824 27.9603 11.3465C29.0527 11.4096 30.2204 11.8515 31.0994 12.5207C31.3128 12.6848 31.5263 12.8237 31.5639 12.8237C31.7398 12.8237 31.6142 11.9904 31.2626 10.9173C29.4671 5.38753 24.683 1.24652 18.9825 0.274393C17.5636 0.0218923 14.9017 0.0345175 13.4451 0.274393Z" fill="#778B8E"/>
<path d="M40.5554 15.9139V27.592H42.5644H44.5735V15.9139V4.23572H42.5644H40.5554V15.9139Z" fill="#778B8E"/>
<path d="M48.8429 15.9139V27.592H50.8519H52.8609V17.997V8.402H60.6457H68.431V6.31886V4.23572H58.6369H48.8429V15.9139Z" fill="#778B8E"/>
<path d="M70.8148 6.19258V8.1495L78.5118 8.17474C82.7305 8.17474 86.2712 8.18736 86.3596 8.18736C86.4345 8.17474 86.51 8.19998 86.51 8.23785C86.51 8.27572 83.0194 11.836 78.7629 16.179C74.4935 20.5094 70.9027 24.2338 70.7895 24.461C70.6515 24.7009 70.5637 25.1428 70.5637 25.5215C70.5637 26.3169 70.9151 26.885 71.6309 27.2638C72.1332 27.5289 72.2588 27.5289 82.7181 27.5668L93.2907 27.592V25.6351V23.6783H85.3172C78.474 23.6783 77.3437 23.653 77.4316 23.5015C77.4823 23.4005 80.9852 19.8277 85.1916 15.5478C89.6368 11.0406 92.964 7.54345 93.1397 7.24046C93.6798 6.2305 93.3785 5.19523 92.3614 4.61447L91.7211 4.23572H81.2742H70.8148V6.19258Z" fill="#778B8E"/>
<path d="M109.64 4.45181C109.414 4.55281 109.1 4.80531 108.937 4.99468C108.786 5.18406 106.965 8.17618 104.906 11.6354C102.847 15.1073 100.386 19.2105 99.444 20.776C96.8326 25.1064 95.6899 27.038 95.602 27.2652C95.5265 27.442 95.7524 27.4673 97.8367 27.4673C100.135 27.4673 100.16 27.4673 100.285 27.1769C100.361 27.0254 101.139 25.6745 102.018 24.1847C102.897 22.695 104.354 20.2204 105.245 18.6929C109.037 12.2414 110.28 10.171 110.356 10.171C110.469 10.1836 115.265 18.251 115.265 18.4404C115.265 18.4656 113.708 18.5161 111.8 18.5287L108.334 18.5666L107.468 20.069C106.991 20.8896 106.601 21.6092 106.601 21.6724C106.601 21.7355 107.129 21.7607 107.769 21.7481C108.397 21.7355 110.82 21.7355 113.13 21.7607L117.337 21.7986L118.969 24.6014L120.614 27.4042L123.025 27.442C124.356 27.4546 125.436 27.4294 125.436 27.3662C125.436 27.2526 122.975 23.0863 120.79 19.5135C120.049 18.3015 118.831 16.2562 118.065 14.9685C115.202 10.1078 112.214 5.17143 112.013 4.94418C111.699 4.59068 110.933 4.23718 110.469 4.23718C110.242 4.23718 109.866 4.33818 109.64 4.45181Z" fill="#778B8E"/>
<path d="M122.348 4.4135C122.135 4.5145 121.783 4.80487 121.57 5.07C120.603 6.2441 121.067 8.06212 122.486 8.59237C123.993 9.17311 125.5 8.09998 125.5 6.43349C125.5 4.88062 123.792 3.78225 122.348 4.4135ZM124.031 4.9185C125.349 5.61288 125.412 7.46875 124.131 8.07474C123.24 8.49139 122.273 8.21364 121.821 7.40564C121.344 6.55978 121.519 5.73912 122.298 5.07C122.75 4.69125 123.478 4.62813 124.031 4.9185Z" fill="#778B8E"/>
<path d="M122.497 5.52448C122.459 5.61285 122.447 6.11787 122.459 6.6355C122.484 7.49399 122.509 7.58235 122.735 7.58235C122.911 7.58235 122.999 7.48137 123.024 7.22887C123.074 6.77435 123.376 6.78697 123.614 7.26673C123.728 7.49399 123.903 7.64546 124.054 7.64546C124.343 7.64546 124.355 7.56973 124.129 7.15307C123.991 6.90063 123.991 6.77435 124.129 6.44611C124.255 6.1305 124.255 5.99159 124.142 5.7391C124.004 5.47398 123.878 5.4361 123.263 5.39822C122.761 5.37297 122.535 5.41085 122.497 5.52448ZM123.552 5.9411C123.74 6.16836 123.614 6.383 123.301 6.383C123.05 6.383 122.924 6.16836 123.024 5.90323C123.1 5.70122 123.363 5.71385 123.552 5.9411Z" fill="#778B8E"/>
<path d="M3.18706 13.9333C2.40857 14.2111 1.3915 14.9433 0.876691 15.5998C0.550225 16.0165 0.5 16.1806 0.5 16.8371C0.5 17.6956 0.901804 19.8418 1.26594 20.9655C1.69285 22.2532 2.70992 24.2101 3.51353 25.3085C5.88668 28.5279 9.12624 30.611 13.0564 31.4443C14.3496 31.722 16.6726 31.8104 18.0789 31.6463C25.5876 30.7878 31.4515 24.6646 31.9537 17.1779L32.0291 16.0291L31.1501 15.1832C30.0702 14.1227 29.4173 13.8197 28.0486 13.7313C26.0522 13.6051 25.01 14.1732 23.2772 16.3447C21.0548 19.1096 19.8996 20.0943 18.2798 20.5867C16.9614 20.9907 15.643 21.0034 14.3873 20.6372C12.6922 20.1448 11.8133 19.4379 9.84192 17.0517C7.45625 14.148 6.94139 13.7945 5.0203 13.7313C4.12879 13.7061 3.6642 13.7565 3.18706 13.9333Z" fill="#778B8E"/>
<path d="M55.7734 16.131C55.8111 17.7596 55.8362 17.9364 56.0371 17.9237C56.1501 17.9237 58.7995 17.9111 61.9009 17.8985L67.5513 17.8732V16.1058V14.3383H61.6497H55.7357L55.7734 16.131Z" fill="#778B8E"/>
</g>
</g>
<defs>
<clipPath id="clip0_5_615">
<rect width="125" height="32" fill="white" transform="translate(0.5)"/>
</clipPath>
<clipPath id="clip1_5_615">
<rect width="125" height="32" fill="white" transform="translate(0.5)"/>
</clipPath>
</defs>
</svg>
